<svg width="103" height="88" viewBox="0 0 103 88" fill="none" xmlns="http://www.w3.org/2000/svg">
<path d="M36.544 40.752C40.8107 42.6293 44.1387 45.4453 46.528 49.2C48.9173 52.9547 50.112 57.392 50.112 62.512C50.112 69.8507 47.808 75.824 43.2 80.432C38.592 84.8693 32.704 87.088 25.536 87.088C18.368 87.088 12.3947 84.784 7.616 80.176C3.008 75.568 0.704 69.68 0.704 62.512C0.704 59.0987 1.13067 55.6853 1.984 52.272C2.83733 48.8587 4.71467 43.7387 7.616 36.912L22.464 0.0479889H47.808L36.544 40.752ZM89.004 40.752C93.2707 42.6293 96.5987 45.4453 98.988 49.2C101.377 52.9547 102.572 57.392 102.572 62.512C102.572 69.8507 100.268 75.824 95.66 80.432C91.052 84.8693 85.164 87.088 77.996 87.088C70.828 87.088 64.8547 84.784 60.076 80.176C55.468 75.568 53.164 69.68 53.164 62.512C53.164 59.0987 53.5907 55.6853 54.444 52.272C55.2973 48.8587 57.1747 43.7387 60.076 36.912L74.924 0.0479889H100.268L89.004 40.752Z" fill="url(#paint0_linear_71_69)" fill-opacity="0.6"/>
<defs>
<linearGradient id="paint0_linear_71_69" x1="52.1193" y1="-32.963" x2="21.3834" y2="250.682" gradientUnits="userSpaceOnUse">
<stop stop-color="#FFEB8A"/>
<stop offset="1" stop-color="#FFC46A"/>
</linearGradient>
</defs>
</svg>
