<svg width="109" height="30" viewBox="0 0 109 30" fill="none" xmlns="http://www.w3.org/2000/svg">
<path d="M1.59609 17.2367H1.80892C2.02173 17.2367 2.23453 16.9175 2.23453 16.4919L2.55377 13.9381C2.55377 13.5125 2.44734 13.0869 2.23453 12.9805H2.12812C1.91531 12.9805 1.7025 13.2997 1.7025 13.7253L1.3833 16.279C1.27689 16.7047 1.38328 17.2367 1.59609 17.2367Z" fill="#E94E1B"/>
<path d="M106.299 17.9822L107.044 17.8758C107.47 17.8758 107.895 17.4502 107.895 16.9182L108.214 13.4068C108.214 12.8748 108.002 12.4491 107.47 12.3427L107.044 12.2363L106.299 17.9822Z" fill="#474343"/>
<path d="M106.086 18.196L107.15 18.0896L107.789 12.1309H106.406L106.086 18.196Z" fill="#FFE66A"/>
<path opacity="0.1" d="M0 28.1988C0 28.9436 23.9413 29.4756 53.522 29.4756C83.1028 29.4756 107.044 28.9436 107.044 28.1988C107.044 27.4539 83.1028 26.9219 53.522 26.9219C24.0477 26.9219 0 27.4539 0 28.1988Z" fill="#1D1D1B"/>
<path d="M106.193 21.7068H107.363C107.682 21.7068 107.895 21.494 108.002 21.1748L108.321 19.2595C108.427 18.9403 108.108 18.5146 107.682 18.5146H106.086L105.767 21.0684C105.661 21.494 105.874 21.7068 106.193 21.7068Z" fill="#474343"/>
<path d="M5.42674 22.1323L16.8122 22.8772H17.4506L18.8339 22.9836H97.1484L103.745 22.1323C105.129 21.9195 106.299 20.8555 106.512 19.3658L107.257 12.3431C107.47 10.5342 106.193 10.2149 104.384 10.1085L74.6968 8.61886C73.6327 8.51245 72.5687 8.19323 71.611 7.44839L62.8857 0.74482C62.2473 0.319197 61.6089 0 60.8641 0H35.2203C32.773 0 30.3257 0.95765 28.5168 2.66014L24.6862 6.38433C24.2605 6.80996 23.6221 7.12916 22.9837 7.23557L3.93707 11.1726C2.97942 11.3854 2.34098 12.1302 2.23458 13.0879L1.70255 17.4505C1.48974 20.0042 3.19223 22.0259 5.42674 22.1323Z" fill="#474343"/>
<path opacity="0.2" d="M76.3993 9.68262L104.278 11.0659C104.916 11.0659 106.618 11.1723 106.406 12.5555L105.661 19.3655C106.086 11.5979 105.235 12.0235 101.937 11.8107L76.3993 9.68262Z" fill="#F6F6F6"/>
<path opacity="0.2" d="M2.55371 17.7688L3.08574 13.4062C3.19214 12.8742 3.51136 12.4486 4.14979 12.2357L22.9836 8.08594C23.09 8.08594 23.3028 8.19232 23.3028 8.19232C4.89463 12.6614 4.04339 12.3421 2.55371 17.7688Z" fill="#F6F6F6"/>
<path d="M60.7576 1.06445C61.2896 1.06445 61.8216 1.27726 62.2472 1.59648L70.9725 8.30002C71.3981 8.61923 71.7173 8.83206 72.143 9.04487L73.3134 13.8331L72.143 22.2392H48.9465L49.7978 13.5139L48.9465 1.17087H60.7576V1.06445Z" fill="#FFE66A"/>
<path d="M49.9041 1.91602H60.7574C61.0766 1.91602 61.5022 2.02244 61.715 2.23525L70.4403 8.93879C70.5467 8.93879 70.5467 9.0452 70.6531 9.0452H50.4361L49.9041 1.91602Z" fill="#7A7A7A"/>
<path d="M32.56 2.44677C33.092 1.59552 34.0497 1.16992 35.1137 1.16992H48.0952L48.9465 13.5129L48.0952 22.2382H34.3689C34.0497 18.514 31.3896 15.4283 27.8782 14.2578V10.108C27.8782 9.36314 28.091 8.72469 28.5166 8.19266L32.56 2.44677Z" fill="#FFE66A"/>
<path d="M33.3049 2.87366C33.7305 2.23523 34.3689 1.91602 35.1138 1.91602H47.3504L47.8824 9.15161H28.9423L33.3049 2.87366Z" fill="#7A7A7A"/>
<path d="M54.7987 10.4287H50.9681V11.7056H54.7987V10.4287Z" fill="#474343"/>
<path d="M32.7729 10.4287H28.9423V11.7056H32.7729V10.4287Z" fill="#474343"/>
<path d="M1.80883 17.6631V18.1951H4.14977C5.32023 18.1951 6.27788 19.1528 6.27788 20.3232L1.17039 20.1104C0.638364 20.1104 -6.95512e-05 19.5784 0.106336 19.0463C0.106336 18.9399 0.106336 18.8335 0.106336 18.7271C0.212742 18.0887 0.63837 17.6631 1.2768 17.6631H1.80883Z" fill="#474343"/>
<path d="M103.958 21.175H107.044C107.363 21.175 107.576 20.9622 107.576 20.7494L107.789 19.8981C107.895 19.5789 107.576 19.1533 107.257 19.1533H104.171C103.852 19.1533 103.639 19.3661 103.639 19.5789L103.426 20.4302C103.32 20.8558 103.639 21.175 103.958 21.175Z" fill="#474343"/>
<path d="M67.1418 9.47014L68.9508 10.3214L69.1635 9.36373L67.5675 7.98047L67.1418 9.47014Z" fill="#474343"/>
<path d="M66.61 6.7041H66.7164C67.1421 6.81051 67.5677 7.12974 67.6741 7.55537L67.8869 8.51301C68.0997 9.47066 67.2485 10.4283 66.2908 10.3219H66.078L66.61 6.7041Z" fill="#474343"/>
<path d="M79.6976 23.0893H95.3392L94.9136 20.642C94.5944 19.0459 93.6368 17.8755 92.3599 17.1307C91.7215 16.8114 90.8702 16.5986 90.1254 16.5986H85.3371C84.2731 16.5986 83.3154 16.9178 82.4642 17.4499C81.2937 18.1947 80.3361 19.4716 80.1232 20.9612L79.6976 23.0893Z" fill="#403430"/>
<path d="M16.8121 22.8775H17.4506H17.9826L18.8338 22.9839H32.3474L31.9217 20.5366C31.6025 19.0469 30.6448 17.77 29.368 17.0252C28.7295 16.706 27.8783 16.4932 27.0271 16.4932H22.3452C21.2811 16.4932 20.3235 16.8124 19.4723 17.3444C18.1954 18.0892 17.3441 19.3661 17.1313 20.9622L16.8121 22.8775Z" fill="#403430"/>
<g opacity="0.75">
<path d="M57.2462 2.23438L62.3536 8.93791H58.3102L53.2028 2.23438H57.2462Z" fill="#FFE66A"/>
<path d="M59.055 2.23438L64.1625 8.93791H62.7792L57.7782 2.23438H59.055Z" fill="#FFE66A"/>
</g>
<g opacity="0.75">
<path d="M39.6893 2.23438L44.7968 8.93791H40.7534L35.6459 2.23438H39.6893Z" fill="#FFE66A"/>
<path d="M41.4982 2.23438L46.4992 8.93791H45.2224L40.2213 2.23438H41.4982Z" fill="#FFE66A"/>
</g>
<path opacity="0.2" d="M0.106567 18.8342C0.106567 18.9406 0.106567 19.047 0.106567 19.1535C0.106567 19.6855 0.638595 20.2175 1.17062 20.2175L2.34109 20.3239C2.97952 21.388 4.14998 22.1328 5.42685 22.1328L16.8123 22.8776H17.4507L18.834 22.9841H32.3475H79.698H95.3396H97.1485L103.746 22.1328C104.49 22.0264 105.235 21.7072 105.661 21.0687H105.767C105.767 21.388 105.98 21.6008 106.193 21.6008H107.363C107.683 21.6008 107.895 21.388 108.002 21.0687L108.321 19.1535C108.321 19.047 108.321 19.047 108.321 18.9406L1.59624 14.2588L1.38345 16.0677C1.27704 16.5997 1.48984 17.0253 1.70265 17.0253H1.80906V17.451H1.27704C0.638602 17.6638 0.106567 18.1958 0.106567 18.8342ZM1.70265 18.3022C1.70265 18.1958 1.70265 18.1958 1.70265 18.3022V18.3022Z" fill="black"/>
<path d="M83.209 21.8129C83.209 24.1538 85.1243 26.0691 87.4652 26.0691C89.8061 26.0691 91.7214 24.1538 91.7214 21.8129C91.7214 19.4719 89.8061 17.5566 87.4652 17.5566C85.1243 17.5566 83.209 19.4719 83.209 21.8129Z" fill="#474343"/>
<path d="M80.8682 21.8125C80.8682 22.2381 80.8682 22.6637 80.9746 23.0893C81.613 26.1751 84.2732 28.516 87.5717 28.516C90.8703 28.516 93.5304 26.1751 94.1689 23.0893C94.2753 22.6637 94.2753 22.2381 94.2753 21.8125C94.2753 20.0036 93.5304 18.3011 92.36 17.1307C91.7216 16.8114 90.8703 16.5986 90.1255 16.5986H85.3372C84.2732 16.5986 83.3155 16.9178 82.4642 17.4499C81.4002 18.6203 80.8682 20.11 80.8682 21.8125ZM87.5717 25.9623C85.7628 25.9623 84.1667 24.7918 83.6347 23.0893C83.5283 22.6637 83.4219 22.2381 83.4219 21.8125C83.4219 19.578 85.2308 17.6627 87.5717 17.6627C89.8063 17.6627 91.7215 19.4716 91.7215 21.8125C91.7215 22.2381 91.6151 22.6637 91.5087 23.0893C90.9767 24.6854 89.3806 25.9623 87.5717 25.9623Z" fill="#1D1715"/>
<path d="M84.3796 21.8123C84.3796 23.5148 85.7629 24.8981 87.4654 24.8981C89.1679 24.8981 90.5511 23.5148 90.5511 21.8123C90.5511 20.1098 89.1679 18.7266 87.4654 18.7266C85.7629 18.7266 84.3796 20.1098 84.3796 21.8123Z" fill="#FFE66A"/>
<path d="M85.6564 21.8118C85.6564 22.8759 86.5076 23.7271 87.5717 23.7271C88.6357 23.7271 89.487 22.8759 89.487 21.8118C89.487 20.7477 88.6357 19.8965 87.5717 19.8965C86.5076 19.8965 85.6564 20.7477 85.6564 21.8118Z" fill="#474343"/>
<path opacity="0.5" d="M89.1679 18.4062C89.8063 18.7255 90.3383 19.2575 90.7639 19.7895L87.5718 21.7048L89.1679 18.4062Z" fill="#FFE66A"/>
<path opacity="0.5" d="M87.5715 21.8125L85.869 25.2175C85.2306 24.8982 84.6986 24.3662 84.2729 23.7278L87.5715 21.8125Z" fill="#FFE66A"/>
<path d="M20.3236 21.8129C20.3236 24.1538 22.2389 26.0691 24.5798 26.0691C26.9208 26.0691 28.8361 24.1538 28.8361 21.8129C28.8361 19.4719 26.9208 17.5566 24.5798 17.5566C22.2389 17.5566 20.3236 19.4719 20.3236 21.8129Z" fill="#474343"/>
<path d="M17.8762 21.8125C17.8762 22.2381 17.8762 22.6637 17.9826 22.983C18.5147 26.0687 21.2812 28.516 24.5798 28.516C27.8783 28.516 30.5385 26.1751 31.1769 23.0893C31.2833 22.6637 31.2833 22.2381 31.2833 21.8125C31.2833 20.0036 30.5385 18.3011 29.368 17.1307C28.7296 16.8114 27.8784 16.5986 27.0271 16.5986H22.3452C21.2812 16.5986 20.3235 16.9178 19.4723 17.4499C18.5147 18.5139 17.8762 20.11 17.8762 21.8125ZM24.5798 25.9623C22.7709 25.9623 21.1748 24.7918 20.6428 23.0893C20.5364 22.6637 20.4299 22.2381 20.4299 21.8125C20.4299 19.578 22.2388 17.6627 24.5798 17.6627C26.8143 17.6627 28.7296 19.4716 28.7296 21.8125C28.7296 22.2381 28.6232 22.6637 28.5168 23.0893C27.9847 24.6854 26.3887 25.9623 24.5798 25.9623Z" fill="#1D1715"/>
<path d="M21.494 21.8123C21.494 23.5148 22.8773 24.8981 24.5798 24.8981C26.2823 24.8981 27.6655 23.5148 27.6655 21.8123C27.6655 20.1098 26.2823 18.7266 24.5798 18.7266C22.8773 18.7266 21.494 20.1098 21.494 21.8123Z" fill="#FFE66A"/>
<path d="M22.6644 21.8118C22.6644 22.8759 23.5157 23.7271 24.5797 23.7271C25.6438 23.7271 26.495 22.8759 26.495 21.8118C26.495 20.7477 25.6438 19.8965 24.5797 19.8965C23.5157 19.8965 22.6644 20.7477 22.6644 21.8118Z" fill="#474343"/>
<path opacity="0.5" d="M26.1759 18.4062C26.8144 18.7255 27.3464 19.2575 27.772 19.7895L24.5798 21.7048L26.1759 18.4062Z" fill="#FFE66A"/>
<path opacity="0.5" d="M24.5798 21.8125L22.8773 25.2175C22.2389 24.8982 21.7069 24.3662 21.2812 23.7278L24.5798 21.8125Z" fill="#FFE66A"/>
</svg>
