<svg width="92" height="37" viewBox="0 0 92 37" fill="none" xmlns="http://www.w3.org/2000/svg">
<path opacity="0.1" d="M3.63135 35.2201C3.63135 35.9649 23.21 36.6033 47.364 36.6033C71.5181 36.6033 91.0967 35.9649 91.0967 35.2201C91.0967 34.4752 71.5181 33.8368 47.364 33.8368C23.21 33.7304 3.63135 34.3688 3.63135 35.2201Z" fill="#1D1D1B"/>
<path d="M3.41853 23.303L1.18402 22.8774C0.439181 22.771 -0.0928477 21.9198 0.0135579 21.1749L2.24808 9.89593C2.35448 9.15109 3.20572 8.61907 3.95056 8.72547L6.18508 9.1511C6.92992 9.2575 7.46195 10.1087 7.35554 10.8536L5.12102 22.1326C4.90821 22.9838 4.16337 23.5158 3.41853 23.303Z" fill="#3E312C"/>
<path d="M3.52494 22.8772L3.31213 25.1117C3.52494 25.8566 3.84416 26.6014 4.37619 27.1334C4.69541 27.559 5.22743 27.8783 5.65306 28.0911C5.75946 28.1975 5.97227 28.1975 6.18508 28.3039L10.9733 30.3256H85.9893L88.011 30.1128C89.075 30.0064 90.0327 29.1551 90.3519 28.1975C90.3519 28.0911 90.3519 27.9847 90.4583 27.9847L90.5647 27.6654V27.4526L91.0967 24.8989L91.3095 23.8348C91.3095 23.7284 91.3095 23.622 91.3095 23.5156C91.3095 23.3028 91.3095 23.1964 91.3095 22.9836C91.3095 22.7708 91.2031 22.6644 91.2031 22.558V22.4516L89.2878 17.6633C89.1814 17.4505 89.075 17.2377 88.9686 17.0249C88.8622 16.9185 88.8622 16.8121 88.7558 16.7057C88.543 16.4929 88.4366 16.28 88.2238 16.1736C88.1174 16.0672 88.011 15.9608 87.9046 15.9608C87.9046 15.9608 87.7981 15.9608 87.7981 15.8544C87.6917 15.748 87.5854 15.748 87.4789 15.6416C87.3725 15.6416 87.3725 15.5352 87.2661 15.5352C87.1597 15.5352 87.1597 15.4288 87.0533 15.4288C86.9469 15.3224 86.7341 15.3224 86.6277 15.3224L66.4106 10.3213C66.0914 10.2149 65.6658 10.0021 65.3466 9.68291L56.6213 2.23452C55.3445 1.06406 54.4932 0.95765 52.5779 0.638433C41.5117 -0.212811 27.9982 -0.212811 16.8256 0.638433C14.5911 0.638433 12.463 1.80889 11.2926 3.72419C11.2926 3.72419 5.54665 13.1943 5.54665 13.3007L5.44025 13.8327L3.73776 21.0683V21.1747C3.63135 21.3875 3.63135 21.7067 3.63135 21.9195C3.41854 22.026 3.41854 22.4516 3.52494 22.8772Z" fill="#474343"/>
<path d="M41.9374 26.0695V1.80907C41.9374 1.27704 42.363 0.851415 42.895 0.95782C46.1936 1.06423 49.2794 1.27704 52.1523 1.48985C54.0676 1.80906 54.5996 1.91547 55.5573 2.87312L62.8993 9.15105C63.7505 9.89589 64.2825 10.9599 64.2825 12.1304V26.1759C64.2825 26.9208 63.6441 27.5592 62.8993 27.5592H43.3206C42.4694 27.4528 41.9374 26.8144 41.9374 26.0695Z" fill="#FFE66A"/>
<path d="M42.895 2.34069V10.5339C42.895 10.8531 43.1078 11.1723 43.5335 11.1723L62.6865 11.598C63.0057 11.598 63.3249 11.2788 63.1121 10.8531C62.8993 10.4275 62.6864 10.1083 62.3672 9.78908L55.0253 3.51115C54.2804 2.87271 53.9612 2.6599 52.1523 2.44709C49.3858 2.23428 46.5128 2.12787 43.427 2.02147C43.1078 1.91506 42.895 2.12788 42.895 2.34069Z" fill="#7A7A7A"/>
<path d="M86.5213 18.5148L87.5854 21.2814C87.7982 21.8134 88.4366 22.239 89.0751 22.3454C89.2879 22.3454 89.3943 22.3454 89.6071 22.3454H90.5647C90.6711 22.3454 90.7776 22.3454 90.7776 22.239V22.1326L88.8623 17.3444C88.7558 17.1316 88.6494 16.9187 88.543 16.7059C88.4366 16.5995 88.4366 16.4931 88.3302 16.3867H88.1174C87.479 16.3867 86.8405 16.5995 86.5213 17.1316C86.4149 17.5572 86.4149 18.0892 86.5213 18.5148Z" fill="#3E312C"/>
<path d="M86.9468 18.4076L88.0109 21.1741C88.2237 21.5997 88.6493 21.919 89.2877 22.0254C89.3941 22.0254 89.6069 22.0254 89.7133 22.0254H90.671C90.9902 22.0254 91.0966 21.2805 90.5646 20.0036C90.139 18.9396 89.8197 18.4076 89.3941 17.3435C89.2877 17.0243 88.8621 16.7051 88.5429 16.7051H88.2237C87.1596 16.7051 86.5212 17.5563 86.9468 18.4076Z" fill="#474343"/>
<path d="M5.65308 28.0918C5.75948 28.1982 5.97229 28.1982 6.1851 28.3046L10.9734 30.3263H85.9893L88.011 30.1135C89.075 30.0071 90.0327 29.1559 90.3519 28.1982H5.65308V28.0918Z" fill="#3E312C"/>
<path d="M83.9677 30.3256H85.883L87.9047 30.1128C88.9687 30.0064 89.9264 29.1551 90.2456 28.1975C90.2456 28.0911 90.2456 27.9847 90.352 27.9847L90.4584 27.6654V27.4526L90.9904 24.8989L91.2032 23.8348C91.2032 23.7284 91.2032 23.622 91.2032 23.5156H88.9687C87.2662 23.5156 85.7765 24.6861 85.2445 26.2822L83.9677 30.3256Z" fill="#3E312C"/>
<path d="M3.20569 24.5809C3.31209 25.9642 3.31209 26.3898 4.16334 27.2411C5.22739 28.1987 10.8669 30.3268 10.8669 30.3268L10.2285 24.9001C9.69643 22.9848 7.99394 21.6016 6.07864 21.6016H3.4185C3.4185 22.0272 3.20569 24.5809 3.20569 24.5809Z" fill="#3E312C"/>
<path d="M88.3303 25.8561C88.2239 26.3881 88.4367 26.8138 88.7559 26.8138C89.0751 26.8138 89.5008 26.3881 89.5008 25.8561C89.6072 25.3241 89.3944 24.8985 89.0751 24.8985C88.7559 24.7921 88.4367 25.3241 88.3303 25.8561Z" fill="#474343"/>
<path d="M5.44033 24.3675C5.54673 25.1124 5.33392 25.7508 5.0147 25.7508C4.69549 25.7508 4.37627 25.1124 4.26987 24.3675C4.16346 23.6227 4.37627 22.9843 4.69549 22.9843C5.01471 22.8779 5.33392 23.5163 5.44033 24.3675Z" fill="#474343"/>
<path d="M3.5249 20.8567H3.84412C4.26974 20.8567 4.69536 20.5375 4.80177 20.1118L6.07864 14.6851C6.18504 14.3659 6.07864 14.1531 5.86583 13.9403C5.65301 13.7275 5.4402 13.6211 5.22739 13.6211L3.5249 20.8567Z" fill="#3E312C"/>
<path d="M3.20569 17.877L4.80177 18.1962L4.37615 20.0051C4.26974 20.2179 4.05693 20.4307 3.84412 20.4307H3.5249C3.09928 20.4307 2.78006 20.0051 2.88647 19.5794L3.20569 17.877Z" fill="#474343"/>
<path d="M4.05693 14.365C4.16334 14.0458 4.37615 13.833 4.69537 13.833H5.12099C5.54661 13.833 5.75942 14.1522 5.65302 14.5779L4.80177 18.1956L3.20569 17.8764L4.05693 14.365Z" fill="#474343"/>
<path d="M63.2186 10.9597C63.325 12.3429 61.9417 12.3429 60.9841 12.3429C60.8777 12.3429 60.7713 12.3429 60.5585 12.3429L61.7289 7.55469C62.5802 7.98031 63.2186 9.7892 63.2186 10.9597Z" fill="#474343"/>
<g opacity="0.75">
<path d="M43.6398 2.44824L50.0241 10.8543L55.6636 10.9607L49.3857 2.76746C47.6832 2.55465 45.6615 2.44824 43.6398 2.44824Z" fill="#FFE66A"/>
<path d="M50.2368 2.76855L56.4083 10.9618H58.2172L52.1521 2.87496C52.0457 2.87496 52.0457 2.87496 51.9393 2.87496C51.4073 2.87496 50.8752 2.76855 50.2368 2.76855Z" fill="#FFE66A"/>
</g>
<path d="M65.5594 30.3248H83.542L83.3292 28.0903L83.2228 26.707C82.9036 23.7276 80.4562 21.3867 77.3705 21.3867H71.6246C68.5388 21.3867 66.0915 23.7276 65.7723 26.8134L65.6659 28.0903L65.5594 30.3248Z" fill="#3E312C"/>
<path d="M26.934 0.851979C30.1262 0.745573 31.7223 0.851979 34.7016 0.851979C36.5105 0.851979 38.213 0.851977 40.0219 0.958383C40.5539 0.958383 41.0859 1.49041 41.0859 2.02244V26.6021C41.0859 27.1342 40.6603 27.5598 40.1283 27.5598H32.3607C31.9351 27.5598 31.5094 27.2406 31.5094 26.7085V26.6021C31.1902 22.8779 27.9981 20.005 24.2739 20.005H23.1034C21.6137 20.005 20.4433 18.8345 20.4433 17.3448V12.131C20.3369 12.131 23.529 1.06479 26.934 0.851979Z" fill="#FFE66A"/>
<path d="M16.6127 10.5347L9.58992 10.3219C9.1643 10.3219 8.95149 9.89623 9.1643 9.47061C10.2284 7.66172 11.3988 5.64001 12.4629 3.93752C13.7397 1.91582 14.8038 1.38379 20.3369 1.38379C20.7625 1.38379 20.9753 1.80941 20.8689 2.23504C19.9113 4.36315 18.2088 7.76812 17.1447 10.109C17.0383 10.4283 16.8255 10.5347 16.6127 10.5347Z" fill="#7A7A7A"/>
<path d="M22.4651 10.6393L39.3836 11.0649C39.7028 11.0649 39.9156 10.8521 39.9156 10.5329V2.44605C39.9156 2.02043 39.8092 1.80762 39.3836 1.80762C38.2132 1.80762 37.5747 1.80762 36.4043 1.80762C35.7658 1.80762 35.1274 1.80762 34.5954 1.80762C33.7441 1.80762 32.8929 1.80762 32.148 1.80762C31.5096 1.80762 30.8712 1.80762 30.2327 1.80762C29.0623 1.80762 27.9982 1.80762 26.8278 1.91402C26.6149 1.91402 26.4021 2.02042 26.1893 2.12683C24.9125 3.08448 23.21 6.38305 21.9331 10.0008C21.9331 10.3201 22.1459 10.6393 22.4651 10.6393Z" fill="#7A7A7A"/>
<path d="M12.2501 30.3248H30.2327L30.0199 28.0903L29.9134 26.707C29.5942 23.7276 27.1469 21.3867 24.0611 21.3867H18.3152C15.2295 21.3867 12.7822 23.7276 12.4629 26.8134L12.3565 28.0903L12.2501 30.3248Z" fill="#3E312C"/>
<path d="M43.427 13.6207L46.7256 13.7271C46.832 13.7271 47.0448 13.6207 47.0448 13.5143V12.8759C47.0448 12.7695 46.9384 12.663 46.832 12.663L43.5334 12.5566C43.427 12.5566 43.2142 12.663 43.2142 12.7694V13.4079C43.1078 13.5143 43.2142 13.6207 43.427 13.6207Z" fill="#474343"/>
<path d="M22.678 13.0885L25.9766 13.1949C26.083 13.1949 26.2958 13.0885 26.2958 12.9821V12.3436C26.2958 12.2372 26.1894 12.1308 26.083 12.1308L22.7844 12.0244C22.678 12.0244 22.4652 12.1308 22.4652 12.2372V12.8757C22.4652 12.9821 22.5716 13.0885 22.678 13.0885Z" fill="#474343"/>
<path opacity="0.15" d="M0.332774 19.5791L90.5647 26.0698L90.3519 27.3467V27.5595L90.2455 27.8787C90.2455 27.9851 90.2455 28.0915 90.1391 28.0915C89.8199 29.1556 88.9686 29.9004 87.7982 30.0069L85.7764 30.2197H83.8611H83.4355H65.5594H30.2327H12.2502H10.8669C10.8669 30.2197 5.22743 28.0915 4.16337 27.1339C3.31213 26.2827 3.31213 25.857 3.20573 24.4738C3.20573 24.4738 3.20573 23.8353 3.31213 23.1969L1.18402 22.7713C0.439181 22.6649 -0.0928477 21.8136 0.0135579 21.0688L0.332774 19.5791Z" fill="black"/>
<path d="M67.5812 28.0919C67.5812 28.1983 67.5812 28.4111 67.5812 28.5175H67.262C67.262 28.5175 67.1556 28.6239 66.9427 28.7303C66.9427 28.9431 67.0492 29.156 67.0492 29.3688V29.4752C67.0492 29.4752 67.0492 29.4752 67.1556 29.3688C67.262 29.2624 67.262 29.2624 67.262 29.2624L67.794 29.156C67.794 29.2624 67.9004 29.3688 67.9004 29.5816L67.5812 29.688H67.4748C67.4748 29.688 67.4748 29.688 67.3684 29.7944C67.3684 29.7944 67.262 29.9008 67.262 30.0072C67.3684 30.22 67.4748 30.5392 67.5812 30.752V30.6456C67.6876 30.5392 67.6876 30.4328 67.6876 30.4328L68.1132 30.22C68.1132 30.3264 68.2196 30.4328 68.326 30.6456L68.0068 30.752C68.0068 30.752 67.9004 30.8584 67.794 31.0713C67.9004 31.2841 68.0068 31.4969 68.2196 31.8161V31.7097C68.2196 31.6033 68.326 31.6033 68.326 31.6033L68.7516 31.3905C68.858 31.4969 68.8581 31.6033 68.9645 31.7097L68.6452 31.9225C68.6452 31.9225 68.5388 32.0289 68.5388 32.2417C68.5388 32.2417 68.5388 32.2417 68.5388 32.3481C68.7516 32.5609 68.858 32.7737 69.0709 32.9866V32.8802C69.0709 32.7737 69.0709 32.6673 69.0709 32.6673L69.3901 32.3481C69.4965 32.4545 69.6029 32.5609 69.7093 32.6673L69.4965 32.8802C69.4965 32.8802 69.4965 33.093 69.3901 33.1994C69.3901 33.1994 69.3901 33.1994 69.3901 33.3058C69.6029 33.5186 69.8157 33.625 70.0285 33.8378V33.7314C70.0285 33.625 70.0285 33.5186 70.0285 33.5186L70.3477 33.093C70.4541 33.1994 70.5605 33.3058 70.6669 33.3058L70.4541 33.625C70.4541 33.625 70.4541 33.8378 70.4541 33.9442C70.4541 33.9442 70.4541 33.9442 70.4541 34.0506C70.6669 34.157 70.8798 34.3698 71.199 34.4762V34.3698C71.199 34.2634 71.199 34.157 71.199 34.157L71.4118 33.7314C71.5182 33.8378 71.6246 33.8378 71.731 33.9442L71.6246 34.2634C71.6246 34.2634 71.6246 34.2634 71.6246 34.3698C71.6246 34.4762 71.6246 34.4762 71.6246 34.5826C71.6246 34.5826 71.6246 34.5826 71.6246 34.6891C71.8374 34.7955 72.1566 34.9019 72.3694 35.0083V34.9019C72.3694 34.7955 72.263 34.6891 72.263 34.6891L72.3694 34.2634C72.4758 34.2634 72.5822 34.3698 72.7951 34.3698L72.6887 34.6891C72.6887 34.6891 72.6886 34.9019 72.7951 35.0083C73.0079 35.1147 73.3271 35.1147 73.5399 35.1147V35.0083C73.5399 34.9019 73.4335 34.7955 73.4335 34.7955L73.5399 34.2634C73.6463 34.2634 73.8591 34.2634 73.9655 34.2634V34.5826C73.9655 34.5826 74.0719 34.689 74.1783 34.9019C74.2847 34.9019 74.2847 34.9019 74.3911 34.9019C74.6039 34.9019 74.8168 34.9019 75.0296 34.9019C75.0296 34.9019 75.0296 34.9019 74.9232 34.7955C74.8168 34.689 74.8168 34.5826 74.8168 34.5826V34.0506C74.9232 34.0506 75.136 34.0506 75.2424 34.0506V34.3698C75.2424 34.3698 75.3488 34.4762 75.4552 34.6891C75.7744 34.6891 75.9872 34.5826 76.2 34.5826C76.2 34.5826 76.2 34.5826 76.0936 34.4762C75.9872 34.3698 75.9872 34.3698 75.9872 34.3698L75.8808 33.8378C75.9872 33.8378 76.0936 33.7314 76.3064 33.7314L76.4128 34.0506C76.4128 34.0506 76.4128 34.0506 76.5192 34.157C76.5192 34.157 76.6257 34.2634 76.7321 34.2634C76.9449 34.157 77.2641 34.0506 77.4769 33.9442H77.3705C77.2641 33.8378 77.1577 33.8378 77.1577 33.8378L76.9449 33.4122C77.0513 33.4122 77.1577 33.3058 77.3705 33.1994L77.4769 33.5186C77.4769 33.5186 77.5833 33.625 77.7961 33.7314C78.0089 33.625 78.2217 33.5186 78.541 33.3058H78.4346C78.3281 33.3058 78.3281 33.1994 78.3281 33.1994L78.1153 32.7737C78.2217 32.6673 78.3281 32.6673 78.4346 32.5609L78.6474 32.8802C78.6474 32.8802 78.7538 32.9866 78.9666 32.9866C79.073 32.8802 79.1794 32.7737 79.3922 32.6673C79.4986 32.5609 79.4986 32.5609 79.605 32.4545H79.4986C79.3922 32.4545 79.2858 32.4545 79.2858 32.4545L78.9666 32.1353C79.073 32.0289 79.1794 31.9225 79.2858 31.8161L79.4986 32.0289C79.4986 32.0289 79.7114 32.0289 79.8178 32.1353C79.8178 32.1353 79.8178 32.1353 79.9242 32.1353C80.137 31.9225 80.2434 31.7097 80.4563 31.4969H80.3498C80.2434 31.4969 80.137 31.4969 80.137 31.4969L79.7114 31.1777C79.8178 31.0713 79.9242 30.9649 79.9242 30.8584L80.2434 31.0713C80.2434 31.0713 80.4563 31.0713 80.5627 31.0713C80.5627 31.0713 80.5627 31.0713 80.6691 31.0713C80.7755 30.8584 80.9883 30.6456 81.0947 30.3264H80.9883C80.8819 30.3264 80.7755 30.3264 80.7755 30.3264L80.3498 30.1136C80.4563 30.0072 80.4563 29.9008 80.5627 29.7944L80.8819 29.9008C80.8819 29.9008 80.8819 29.9008 80.9883 29.9008C81.0947 29.9008 81.0947 29.9008 81.2011 29.9008C81.2011 29.9008 81.2011 29.9008 81.3075 29.9008C81.4139 29.688 81.5203 29.3688 81.6267 29.156H81.5203C81.4139 29.156 81.3075 29.2624 81.3075 29.2624L80.8819 29.156C80.8819 29.0496 80.9883 28.9431 80.9883 28.7303L81.3075 28.8367C81.3075 28.8367 81.5203 28.8367 81.6267 28.7303C81.7331 28.5175 81.7331 28.1983 81.7331 27.9855H81.6267C81.5203 27.9855 81.4139 28.0919 81.4139 28.0919L80.8819 27.9855C80.8819 27.8791 80.8819 27.6663 80.8819 27.5599H81.2011C81.2011 27.5599 81.3075 27.4535 81.5203 27.3471C81.5203 27.2407 81.5203 27.2407 81.5203 27.1343C81.5203 26.9214 81.5203 26.7086 81.5203 26.4958C81.5203 26.4958 81.5203 26.4958 81.4139 26.6022C81.3075 26.7086 81.2011 26.7086 81.2011 26.7086H80.6691C80.6691 26.6022 80.6691 26.3894 80.6691 26.283H80.9883C80.9883 26.283 81.0947 26.1766 81.3075 26.0702C81.3075 25.751 81.2011 25.5382 81.2011 25.3254C81.2011 25.3254 81.2011 25.3254 81.0947 25.4318C80.9883 25.5382 80.9883 25.5382 80.9883 25.5382L81.3075 26.3894C81.3075 26.283 81.2011 26.1766 81.2011 25.9638L81.5203 25.8574C81.5203 25.8574 81.5203 25.8574 81.6267 25.751C81.6267 25.751 81.7331 25.6446 81.7331 25.5382C81.6267 25.3254 81.5203 25.0061 81.4139 24.7933V24.8997C81.3075 25.0061 81.3075 25.1126 81.3075 25.1126L80.8819 25.3254C80.8819 25.219 80.7755 25.1125 80.6691 24.8997L80.9883 24.7933C80.9883 24.7933 81.0947 24.6869 81.2011 24.4741C81.0947 24.2613 80.9883 24.0485 80.7755 23.7293V23.8357C80.7755 23.9421 80.6691 23.9421 80.6691 23.9421L80.2434 24.1549C80.137 24.0485 80.137 23.9421 80.0306 23.8357L80.3498 23.6229C80.3498 23.6229 80.4563 23.5165 80.4563 23.3037C80.2434 23.0908 80.137 22.878 79.9242 22.6652C79.9242 22.6652 79.9242 22.6652 79.9242 22.7716C79.9242 22.878 79.9242 22.9844 79.9242 22.9844L79.605 23.3037C79.4986 23.1972 79.3922 23.0908 79.2858 22.9844L79.4986 22.7716C79.4986 22.7716 79.4986 22.5588 79.605 22.4524C79.605 22.4524 79.605 22.4524 79.605 22.346C79.3922 22.1332 79.1794 22.0268 78.9666 21.814V21.9204C78.9666 22.0268 78.9666 22.1332 78.9666 22.1332L78.6474 22.5588C78.541 22.4524 78.4345 22.346 78.3281 22.346L78.541 22.0268C78.541 22.0268 78.541 21.814 78.541 21.7076C78.541 21.7076 78.541 21.7076 78.541 21.6012C78.3281 21.4948 78.1153 21.2819 77.7961 21.1755V21.2819C77.7961 21.3884 77.7961 21.4948 77.7961 21.4948L77.5833 21.9204C77.4769 21.814 77.3705 21.814 77.2641 21.7076L77.3705 21.3884C77.3705 21.3884 77.3705 21.3884 77.3705 21.2819C77.3705 21.1755 77.3705 21.1755 77.3705 21.0691C77.3705 21.0691 77.3705 21.0691 77.3705 20.9627C77.1577 20.8563 76.8385 20.7499 76.6257 20.6435V20.7499C76.6257 20.8563 76.7321 20.9627 76.7321 20.9627L76.6257 21.3884C76.5192 21.3884 76.4128 21.2819 76.2 21.2819L76.3064 20.9627C76.3064 20.9627 76.3064 20.7499 76.2 20.6435C75.9872 20.5371 75.668 20.5371 75.4552 20.5371V20.6435C75.4552 20.7499 75.5616 20.8563 75.5616 20.8563L75.4552 21.3884C75.3488 21.3884 75.136 21.3884 75.0296 21.3884V21.0691C75.0296 21.0691 74.9232 20.9627 74.8168 20.7499C74.7104 20.7499 74.7104 20.7499 74.6039 20.7499C74.3911 20.7499 74.1783 20.7499 73.9655 20.7499C73.9655 20.7499 73.9655 20.7499 74.0719 20.8563C74.1783 20.9627 74.1783 21.0691 74.1783 21.0691V21.6012C74.0719 21.6012 73.8591 21.6012 73.7527 21.6012V21.2819C73.7527 21.2819 73.6463 21.1755 73.5399 20.9627C73.2207 20.9627 73.0079 21.0691 72.7951 21.0691C72.7951 21.0691 72.7951 21.0691 72.9015 21.1755C73.0079 21.2819 73.0079 21.2819 73.0079 21.2819L73.1143 21.814C73.0079 21.814 72.9015 21.9204 72.6887 21.9204L72.5822 21.6012C72.5822 21.6012 72.5822 21.6012 72.4758 21.4948C72.4758 21.4948 72.3694 21.3884 72.263 21.3884C72.0502 21.4948 71.731 21.6012 71.5182 21.7076H71.6246C71.731 21.814 71.8374 21.814 71.8374 21.814L72.0502 22.2396C71.9438 22.2396 71.8374 22.346 71.6246 22.4524L71.5182 22.1332C71.5182 22.1332 71.4118 22.0268 71.199 21.9204C70.9862 22.0268 70.7734 22.1332 70.4541 22.346H70.5605C70.6669 22.346 70.6669 22.4524 70.6669 22.4524L70.8798 22.878C70.7733 22.9844 70.6669 22.9844 70.5605 23.0908L70.3477 22.7716C70.3477 22.7716 70.2413 22.6652 70.0285 22.6652C69.8157 22.7716 69.6029 22.9844 69.4965 23.0908C69.4965 23.0908 69.4965 23.0908 69.3901 23.1972H69.4965C69.6029 23.1972 69.7093 23.1972 69.7093 23.1972L70.0285 23.5165C69.9221 23.6229 69.8157 23.7293 69.7093 23.8357L69.4965 23.6229C69.4965 23.6229 69.2837 23.6229 69.1773 23.5165C69.1773 23.5165 69.1773 23.5165 69.0709 23.5165C68.858 23.7293 68.7516 23.9421 68.5388 24.1549H68.6452C68.7516 24.1549 68.8581 24.1549 68.8581 24.1549L69.2837 24.4741C69.1773 24.5805 69.0709 24.6869 69.0709 24.7933L68.7516 24.5805C68.7516 24.5805 68.5388 24.5805 68.4324 24.5805C68.4324 24.5805 68.4324 24.5805 68.326 24.5805C68.2196 24.7933 68.0068 25.0061 67.9004 25.3254H68.0068C68.1132 25.3254 68.2196 25.3254 68.2196 25.3254L68.6452 25.5382C68.5388 25.6446 68.5388 25.751 68.4324 25.8574L68.1132 25.751C68.1132 25.751 68.1132 25.751 68.0068 25.751C67.9004 25.751 67.9004 25.751 67.794 25.751C67.794 25.751 67.794 25.751 67.6876 25.751C67.5812 25.9638 67.4748 26.283 67.3684 26.4958H67.4748C67.5812 26.4958 67.6876 26.3894 67.6876 26.3894L68.1132 26.4958C68.1132 26.6022 68.0068 26.7086 68.0068 26.9214L67.6876 26.815C67.6876 26.815 67.4748 26.815 67.3684 26.9214C67.262 27.1343 67.262 27.4535 67.262 27.6663H67.3684C67.4748 27.6663 67.5812 27.5599 67.5812 27.5599L68.1132 27.6663C68.1132 27.7727 68.1132 27.9855 68.1132 28.0919H67.794C67.794 28.0919 67.6876 28.1983 67.4748 28.3047C67.4748 28.4111 67.4748 28.4111 67.4748 28.5175C67.4748 28.7303 67.4748 28.9431 67.4748 29.156C67.4748 29.156 67.4748 29.156 67.5812 29.0496C67.6876 28.9431 67.794 28.9431 67.794 28.9431L67.5812 28.0919Z" fill="#1D1715"/>
<path d="M80.2434 23.8348C80.3498 23.9412 80.3498 24.0476 80.4562 24.154L80.8818 23.9412C80.8818 23.9412 80.8818 23.8348 80.9882 23.8348C80.8818 23.7284 80.7754 23.5156 80.669 23.4092C80.5626 23.622 80.5626 23.7284 80.5626 23.7284L80.2434 23.8348Z" fill="#403430"/>
<path d="M68.4325 27.6669C68.5389 24.2619 71.3055 21.6018 74.7105 21.7082C78.1154 21.8146 80.7756 24.5811 80.6692 27.9861C80.5628 31.3911 77.7962 34.0512 74.3912 33.9448C70.9863 33.8384 68.3261 31.0719 68.4325 27.6669Z" fill="#403430"/>
<path d="M67.7939 27.6653C67.9003 23.9411 70.9861 20.9618 74.7103 21.0682C78.4345 21.1746 81.4138 24.2604 81.3074 27.9846C81.201 31.7087 78.1152 34.6881 74.391 34.5817C70.6668 34.4753 67.6875 31.3895 67.7939 27.6653ZM67.9003 27.6653C67.7939 31.3895 70.7733 34.4753 74.391 34.4753C78.1152 34.5817 81.201 31.6023 81.201 27.9846C81.3074 24.2604 78.3281 21.1746 74.7103 21.1746C70.9861 21.0682 67.9003 23.9411 67.9003 27.6653Z" fill="#403430"/>
<path d="M79.1793 32.9862L79.4985 33.3054C79.4985 33.3054 79.6049 33.3054 79.7113 33.3054C79.8178 33.199 79.9242 33.0926 80.137 32.8798C79.9242 32.8798 79.8178 32.7734 79.8178 32.7734L79.6049 32.5605C79.3921 32.7734 79.2857 32.8798 79.1793 32.9862Z" fill="#403430"/>
<path d="M80.0306 32.1356L80.4563 32.4548C80.4563 32.4548 80.5627 32.4548 80.6691 32.4548C80.7755 32.3484 80.8819 32.1356 80.9883 32.0292C80.7755 32.0292 80.6691 32.0292 80.6691 32.0292L80.3499 31.8164C80.137 31.9228 80.137 32.0292 80.0306 32.1356Z" fill="#403430"/>
<path d="M77.1577 34.2626C77.2641 34.2626 77.3705 34.1562 77.5833 34.0498L77.6897 34.369C77.6897 34.369 77.7962 34.4754 78.009 34.5818C77.9026 34.6882 77.6897 34.6882 77.4769 34.7946C77.3705 34.6882 77.2641 34.6882 77.2641 34.6882L77.1577 34.2626Z" fill="#403430"/>
<path d="M78.4346 34.157L78.2218 33.7314C78.3282 33.625 78.4346 33.625 78.541 33.5186L78.7538 33.8378C78.7538 33.8378 78.8602 33.9442 79.073 33.9442C78.9666 34.0506 78.7538 34.157 78.6474 34.2634C78.541 34.157 78.4346 34.157 78.4346 34.157Z" fill="#403430"/>
<path d="M80.6689 31.0721L81.0946 31.2849C81.0946 31.2849 81.201 31.2849 81.3074 31.2849C81.4138 31.1785 81.4138 30.9657 81.5202 30.7529C81.4138 30.7529 81.3074 30.7529 81.3074 30.7529C81.201 30.7529 81.201 30.7529 81.201 30.7529L80.8818 30.6465C80.7753 30.8593 80.7754 30.9657 80.6689 31.0721Z" fill="#403430"/>
<path d="M81.4139 27.1347C81.4139 27.2411 81.4139 27.4539 81.4139 27.5603H81.946C81.946 27.5603 82.0524 27.5603 82.1588 27.4539C82.1588 27.2411 82.1588 27.1347 82.1588 26.9219C82.0524 27.0283 81.8396 27.1347 81.8396 27.1347H81.4139Z" fill="#403430"/>
<path d="M75.9872 34.583C76.0936 34.583 76.3064 34.4766 76.4128 34.4766L76.5192 34.7958C76.5192 34.7958 76.5192 34.7958 76.6256 34.9022C76.6256 34.9022 76.732 35.0086 76.8384 35.0086C76.6256 35.0086 76.5192 35.115 76.3064 35.115C76.2 35.0086 76.2 35.0086 76.2 35.0086L75.9872 34.583Z" fill="#403430"/>
<path d="M81.0947 30.0076L81.5203 30.114C81.5203 30.114 81.6268 30.114 81.7332 30.0076C81.7332 29.7948 81.8396 29.6884 81.8396 29.4756C81.6268 29.582 81.5203 29.582 81.5203 29.582H81.3075C81.2011 29.6884 81.2011 29.9012 81.0947 30.0076Z" fill="#403430"/>
<path d="M81.2009 25.9628C81.2009 26.0692 81.3073 26.1756 81.3073 26.3884L81.8394 26.282L81.9458 26.1756C81.9458 25.9628 81.8394 25.8564 81.8394 25.6436C81.8394 25.75 81.733 25.75 81.733 25.8564C81.733 25.9628 81.6266 25.9628 81.6266 25.9628H81.2009Z" fill="#403430"/>
<path d="M80.7754 24.9002C80.8818 25.0066 80.8818 25.113 80.9882 25.3258L81.4138 25.113C81.4138 25.113 81.4138 25.0066 81.5202 24.9002C81.4138 24.6874 81.4138 24.581 81.3074 24.3682C81.201 24.581 81.0946 24.6874 81.0946 24.6874L80.7754 24.9002Z" fill="#403430"/>
<path d="M81.4139 28.8357L81.946 28.9421C81.946 28.9421 82.0524 28.9421 82.1588 28.8357C82.1588 28.6229 82.1588 28.5165 82.1588 28.3037C81.946 28.4101 81.8396 28.5165 81.8396 28.5165H81.5203C81.4139 28.5165 81.4139 28.6229 81.4139 28.8357Z" fill="#403430"/>
<path d="M68.2197 31.7089L68.6453 31.4961C68.7517 31.6025 68.7517 31.7089 68.8581 31.8153L68.5389 32.0281C68.5389 32.0281 68.4325 32.1345 68.4325 32.3473C68.3261 32.2409 68.2197 32.0281 68.1133 31.9217C68.2197 31.8153 68.2197 31.7089 68.2197 31.7089Z" fill="#403430"/>
<path d="M68.1133 30.4316C68.1133 30.538 68.2197 30.6444 68.3261 30.8573L68.0069 30.9637C68.0069 30.9637 67.9005 31.0701 67.7941 31.2829C67.6877 31.1765 67.6877 30.9637 67.5813 30.7509C67.6877 30.6444 67.6877 30.538 67.6877 30.538L68.1133 30.4316Z" fill="#403430"/>
<path d="M74.8167 34.7959C74.9231 34.7959 75.1359 34.7959 75.2423 34.7959V35.1151C75.2423 35.1151 75.3487 35.2215 75.4551 35.4343C75.2423 35.4343 75.1359 35.4343 74.9231 35.4343C74.8166 35.3279 74.8167 35.2215 74.8167 35.2215V34.7959Z" fill="#403430"/>
<path d="M69.39 32.4541C69.4964 32.5605 69.6028 32.6669 69.7092 32.7733L69.4964 32.9861C69.4964 32.9861 69.4964 33.1989 69.39 33.3053C69.2836 33.1989 69.1772 33.0925 68.9644 32.8797C68.9644 32.7733 68.9644 32.6669 68.9644 32.6669L69.39 32.4541Z" fill="#403430"/>
<path d="M67.1555 28.0918H67.6875C67.6875 28.1982 67.6875 28.411 67.6875 28.5174H67.3683C67.3683 28.5174 67.2619 28.6238 67.0491 28.7302C67.0491 28.5174 67.0491 28.411 67.0491 28.1982C67.0491 28.0918 67.1555 28.0918 67.1555 28.0918Z" fill="#403430"/>
<path d="M67.794 29.2617C67.794 29.3681 67.9004 29.5809 67.9004 29.6873L67.5812 29.7937C67.5812 29.7937 67.5812 29.7938 67.4748 29.9002C67.4748 29.9002 67.3684 30.0066 67.3684 30.113C67.3684 29.9002 67.262 29.7937 67.262 29.5809C67.3684 29.4745 67.3684 29.4745 67.3684 29.4745L67.794 29.2617Z" fill="#403430"/>
<path d="M72.3694 34.4766C72.4758 34.4766 72.5822 34.583 72.795 34.583L72.6886 34.9022C72.6886 34.9022 72.6886 35.115 72.795 35.2214C72.5822 35.2214 72.4758 35.115 72.263 35.115C72.263 35.0086 72.1566 34.9022 72.1566 34.9022L72.3694 34.4766Z" fill="#403430"/>
<path d="M73.5398 34.6885C73.6462 34.6885 73.859 34.6885 73.9654 34.6885V35.0077C73.9654 35.0077 74.0718 35.1141 74.1782 35.3269C73.9654 35.3269 73.859 35.3269 73.6462 35.3269C73.6462 35.2205 73.5398 35.1141 73.5398 35.1141V34.6885Z" fill="#403430"/>
<path d="M71.3054 33.9443C71.4118 34.0507 71.5182 34.0507 71.6246 34.1572L71.5182 34.4764C71.5182 34.4764 71.5182 34.4764 71.5182 34.5828C71.5182 34.6892 71.5182 34.6892 71.5182 34.7956C71.3054 34.6892 71.199 34.6892 70.9862 34.5828C70.9862 34.4764 70.9862 34.37 70.9862 34.37L71.3054 33.9443Z" fill="#403430"/>
<path d="M70.2413 33.3066C70.3477 33.413 70.4541 33.5194 70.5606 33.5194L70.3477 33.8387C70.3477 33.8387 70.3477 34.0515 70.3477 34.1579C70.2413 34.0515 70.0285 33.9451 69.9221 33.8387C69.9221 33.7323 69.9221 33.6259 69.9221 33.6259L70.2413 33.3066Z" fill="#403430"/>
<path d="M70.0283 21.7069C70.2411 21.8133 70.3475 21.8133 70.3475 21.8133L70.5603 22.1325C70.6668 22.0261 70.7732 22.0261 70.8796 21.9197L70.6668 21.4941C70.6668 21.4941 70.5603 21.4941 70.5603 21.3877C70.2411 21.4941 70.1347 21.6005 70.0283 21.7069Z" fill="#403430"/>
<path d="M75.1359 20.537V20.8562C75.2424 20.8562 75.4552 20.8562 75.5616 20.8562L75.668 20.3241C75.668 20.3241 75.668 20.2177 75.5616 20.1113C75.3488 20.1113 75.2424 20.1113 75.0295 20.1113C75.0295 20.4305 75.1359 20.537 75.1359 20.537Z" fill="#403430"/>
<path d="M77.4768 21.4939C77.5832 21.6003 77.6896 21.6003 77.796 21.7067L78.0088 21.2811C78.0088 21.2811 78.0088 21.1747 78.0088 21.0683C77.9024 20.9619 77.6896 20.9619 77.4768 20.8555C77.4768 20.9619 77.4768 21.0683 77.4768 21.0683C77.4768 21.1747 77.4768 21.1747 77.4768 21.1747V21.4939Z" fill="#403430"/>
<path d="M76.4128 20.7509L76.3064 21.0701C76.4128 21.0701 76.5192 21.1765 76.732 21.1765L76.8384 20.7509C76.8384 20.7509 76.8384 20.6445 76.732 20.538C76.5192 20.4316 76.4128 20.4316 76.2 20.4316C76.3064 20.6445 76.4128 20.7509 76.4128 20.7509Z" fill="#403430"/>
<path d="M72.3695 20.5361C72.4759 20.5361 72.4759 20.6425 72.5823 20.6425C72.6887 20.6425 72.6887 20.7489 72.6887 20.7489L72.7951 21.0681C72.9015 21.0681 73.0079 20.9617 73.2208 20.9617L73.1144 20.4296L73.0079 20.3232C72.6887 20.4296 72.4759 20.5361 72.3695 20.5361Z" fill="#403430"/>
<path d="M69.0707 23.5165C68.9643 23.6229 68.8579 23.7293 68.8579 23.8357L68.5387 23.6229C68.5387 23.6229 68.3259 23.6229 68.2195 23.6229C68.3259 23.5165 68.4323 23.3037 68.5387 23.1973C68.6451 23.1973 68.7515 23.1973 68.7515 23.1973L69.0707 23.5165Z" fill="#403430"/>
<path d="M67.9004 25.6445C67.9004 25.7509 67.794 25.8573 67.794 26.0701L67.4747 25.9637C67.4747 25.9637 67.2619 25.9637 67.1555 26.0701C67.1555 25.8573 67.2619 25.7509 67.2619 25.538C67.3683 25.538 67.4747 25.4316 67.4747 25.4316L67.9004 25.6445Z" fill="#403430"/>
<path d="M73.6464 20.3242C73.7528 20.4306 73.8592 20.6434 73.8592 20.6434V20.9626C73.9656 20.9626 74.1784 20.9626 74.2848 20.9626V20.4306C74.2848 20.4306 74.2848 20.3242 74.1784 20.2178C73.9656 20.2178 73.8592 20.2178 73.6464 20.3242Z" fill="#403430"/>
<path d="M71.0924 21.0683C71.3052 21.1747 71.4116 21.2811 71.4116 21.2811L71.518 21.6003C71.6244 21.4939 71.7308 21.4939 71.9436 21.3875L71.7308 20.9619C71.7308 20.9619 71.6244 20.9619 71.518 20.8555C71.4116 20.8555 71.3052 20.9619 71.0924 21.0683Z" fill="#403430"/>
<path d="M68.4325 24.5809C68.3261 24.6873 68.3261 24.7937 68.2197 24.9002L67.9005 24.7937C67.9005 24.7937 67.9005 24.7937 67.7941 24.7937C67.6877 24.7937 67.6877 24.7937 67.5813 24.7937C67.6877 24.5809 67.6877 24.4745 67.7941 24.2617C67.9005 24.2617 68.0069 24.2617 68.0069 24.2617L68.4325 24.5809Z" fill="#403430"/>
<path d="M67.6876 26.8154C67.6876 26.9218 67.6876 27.1346 67.6876 27.2411H67.3684C67.3684 27.2411 67.262 27.3475 67.0492 27.4539C67.0492 27.2411 67.0492 27.1346 67.0492 26.9218C67.1556 26.9218 67.262 26.8154 67.262 26.8154H67.6876Z" fill="#403430"/>
<path d="M78.5408 22.1325C78.6472 22.2389 78.7536 22.2389 78.86 22.3453L79.1792 21.9197C79.1792 21.9197 79.1792 21.8133 79.1792 21.7069C79.0728 21.6005 78.86 21.4941 78.7536 21.3877C78.7536 21.6005 78.7536 21.7069 78.7536 21.7069L78.5408 22.1325Z" fill="#403430"/>
<path d="M69.922 22.6649C69.8156 22.7713 69.7092 22.8777 69.6028 22.9841L69.39 22.7713C69.39 22.7713 69.1772 22.7713 69.0708 22.6649C69.1772 22.5585 69.2836 22.4521 69.4964 22.2393C69.6028 22.2393 69.7092 22.2393 69.7092 22.2393L69.922 22.6649Z" fill="#403430"/>
<path d="M79.3922 22.8787C79.4986 22.9851 79.605 23.0915 79.7114 23.1979L80.0307 22.8787C80.0307 22.8787 80.0307 22.7723 80.0307 22.6659C79.9242 22.5595 79.8178 22.453 79.605 22.2402C79.605 22.453 79.4986 22.5595 79.4986 22.5595L79.3922 22.8787Z" fill="#403430"/>
<path opacity="0.1" d="M79.3922 22.8787C79.4986 22.9851 79.605 23.0915 79.7114 23.1979L80.0307 22.8787C80.0307 22.8787 80.0307 22.7723 80.0307 22.6659C79.9242 22.5595 79.8178 22.453 79.605 22.2402C79.605 22.453 79.4986 22.5595 79.4986 22.5595L79.3922 22.8787Z" fill="#1D1D1B"/>
<g opacity="0.15">
<path d="M67.1556 29.4766C67.0492 29.583 67.0492 29.583 67.1556 29.4766C67.0492 29.583 67.0492 29.4766 67.1556 29.4766C67.0492 29.4766 67.0492 29.4766 67.1556 29.4766Z" fill="#FFE66A"/>
</g>
<path d="M68.858 27.7732C68.858 30.9654 71.4118 33.5191 74.6039 33.5191C77.7961 33.5191 80.3498 30.9654 80.3498 27.7732C80.3498 24.5811 77.7961 22.0273 74.6039 22.0273C71.4118 22.1337 68.858 24.6875 68.858 27.7732Z" fill="#FDFDFD"/>
<path d="M74.4975 32.4555C77.0832 32.4555 79.1794 30.3594 79.1794 27.7736C79.1794 25.1879 77.0832 23.0918 74.4975 23.0918C71.9118 23.0918 69.8157 25.1879 69.8157 27.7736C69.8157 30.3594 71.9118 32.4555 74.4975 32.4555Z" fill="#403430"/>
<path d="M74.2848 28.6249L74.8168 27.0288L69.9221 25.752L69.6029 26.7096L74.2848 28.6249Z" fill="#474343"/>
<path d="M75.2422 28.3063L73.859 27.3486L71.0924 31.6049L72.0501 32.2433L75.2422 28.3063Z" fill="#474343"/>
<path d="M75.2423 27.3486L73.859 28.3063L77.0512 32.2433L78.0088 31.6049L75.2423 27.3486Z" fill="#474343"/>
<path d="M74.2845 27.0288L74.8166 28.6249L79.4984 26.7096L79.1792 25.752L74.2845 27.0288Z" fill="#474343"/>
<path d="M73.7527 27.7726H75.3488L75.0295 22.7715H73.9655L73.7527 27.7726Z" fill="#474343"/>
<path d="M72.795 27.7718C72.795 28.7295 73.5399 29.4743 74.4975 29.4743C75.4552 29.4743 76.2 28.7295 76.2 27.7718C76.2 26.8142 75.4552 26.0693 74.4975 26.0693C73.5399 26.0693 72.795 26.8142 72.795 27.7718Z" fill="#FDFDFD"/>
<path d="M14.2718 28.0926C14.2718 28.199 14.2718 28.4118 14.2718 28.5182H13.9526C13.9526 28.5182 13.8462 28.6246 13.6333 28.731C13.6333 28.9438 13.7398 29.1567 13.7398 29.3695V29.4759C13.7398 29.4759 13.7397 29.4759 13.8462 29.3695C13.9526 29.2631 13.9526 29.2631 13.9526 29.2631L14.4846 29.1567C14.4846 29.2631 14.591 29.3695 14.591 29.5823L14.2718 29.6887H14.1654C14.1654 29.6887 14.1654 29.6887 14.059 29.7951C14.059 29.7951 13.9526 29.9015 13.9526 30.0079C14.059 30.2207 14.1654 30.5399 14.2718 30.7527V30.6463C14.3782 30.5399 14.3782 30.4335 14.3782 30.4335L14.8038 30.2207C14.8038 30.3271 14.9102 30.4335 15.0166 30.6463L14.6974 30.7527C14.6974 30.7527 14.591 30.8591 14.4846 31.072C14.591 31.2848 14.6974 31.4976 14.9102 31.8168V31.7104C14.9102 31.604 15.0166 31.604 15.0166 31.604L15.4422 31.3912C15.5486 31.4976 15.5486 31.604 15.655 31.7104L15.3358 31.9232C15.3358 31.9232 15.2294 32.0296 15.2294 32.2424C15.2294 32.2424 15.2294 32.2424 15.2294 32.3488C15.4422 32.5616 15.5486 32.7744 15.7615 32.9873V32.8808C15.7615 32.7744 15.7615 32.668 15.7615 32.668L16.0807 32.3488C16.1871 32.4552 16.2935 32.5616 16.3999 32.668L16.1871 32.8808C16.1871 32.8808 16.1871 33.0937 16.0807 33.2001C16.0807 33.2001 16.0807 33.2001 16.0807 33.3065C16.2935 33.5193 16.5063 33.6257 16.7191 33.8385V33.7321C16.7191 33.6257 16.7191 33.5193 16.7191 33.5193L17.0383 33.0937C17.1447 33.2001 17.2511 33.3065 17.3575 33.3065L17.1447 33.6257C17.1447 33.6257 17.1447 33.8385 17.1447 33.9449C17.1447 33.9449 17.1447 33.9449 17.1447 34.0513C17.3575 34.1577 17.5704 34.3705 17.8896 34.4769V34.3705C17.8896 34.2641 17.8896 34.1577 17.8896 34.1577L18.1024 33.7321C18.2088 33.8385 18.3152 33.8385 18.4216 33.9449L18.3152 34.2641C18.3152 34.2641 18.3152 34.2641 18.3152 34.3705C18.3152 34.4769 18.3152 34.4769 18.3152 34.5833C18.3152 34.5833 18.3152 34.5833 18.3152 34.6897C18.528 34.7962 18.8472 34.9026 19.06 35.009V34.9026C19.06 34.7961 18.9536 34.6897 18.9536 34.6897L19.06 34.2641C19.1664 34.2641 19.2728 34.3705 19.4857 34.3705L19.3792 34.6897C19.3792 34.6897 19.3792 34.9026 19.4857 35.009C19.6985 35.1154 20.0177 35.1154 20.2305 35.1154V35.009C20.2305 34.9026 20.1241 34.7962 20.1241 34.7962L20.2305 34.2641C20.3369 34.2641 20.5497 34.2641 20.6561 34.2641V34.5833C20.6561 34.5833 20.7625 34.6897 20.8689 34.9026C20.9753 34.9026 20.9753 34.9026 21.0817 34.9026C21.2945 34.9026 21.5074 34.9026 21.7202 34.9026C21.7202 34.9026 21.7202 34.9026 21.6138 34.7962C21.5074 34.6897 21.5074 34.5833 21.5074 34.5833V34.0513C21.6138 34.0513 21.8266 34.0513 21.933 34.0513V34.3705C21.933 34.3705 22.0394 34.4769 22.1458 34.6897C22.465 34.6897 22.6778 34.5833 22.8906 34.5833C22.8906 34.5833 22.8906 34.5833 22.7842 34.4769C22.6778 34.3705 22.6778 34.3705 22.6778 34.3705L22.5714 33.8385C22.6778 33.8385 22.7842 33.7321 22.997 33.7321L23.1034 34.0513C23.1034 34.0513 23.1034 34.0513 23.2098 34.1577C23.2098 34.1577 23.3162 34.2641 23.4227 34.2641C23.6355 34.1577 23.9547 34.0513 24.1675 33.9449H24.0611C23.9547 33.8385 23.8483 33.8385 23.8483 33.8385L23.6355 33.4129C23.7419 33.4129 23.8483 33.3065 24.0611 33.2001L24.1675 33.5193C24.1675 33.5193 24.2739 33.6257 24.4867 33.7321C24.6995 33.6257 24.9123 33.5193 25.2315 33.3065H25.1251C25.0187 33.3065 25.0187 33.2001 25.0187 33.2001L24.8059 32.7744C24.9123 32.668 25.0187 32.668 25.1251 32.5616L25.338 32.8808C25.338 32.8808 25.4444 32.9873 25.6572 32.9873C25.7636 32.8808 25.87 32.7744 26.0828 32.668C26.1892 32.5616 26.1892 32.5616 26.2956 32.4552H26.1892C26.0828 32.4552 25.9764 32.4552 25.9764 32.4552L25.6572 32.136C25.7636 32.0296 25.87 31.9232 25.9764 31.8168L26.1892 32.0296C26.1892 32.0296 26.402 32.0296 26.5084 32.136C26.5084 32.136 26.5084 32.136 26.6148 32.136C26.8276 31.9232 26.934 31.7104 27.1468 31.4976H27.0404C26.934 31.4976 26.8276 31.4976 26.8276 31.4976L26.402 31.1784C26.5084 31.072 26.6148 30.9655 26.6148 30.8591L26.934 31.072C26.934 31.072 27.1469 31.072 27.2533 31.072C27.2533 31.072 27.2533 31.072 27.3597 31.072C27.4661 30.8591 27.6789 30.6463 27.7853 30.3271H27.6789C27.5725 30.3271 27.4661 30.3271 27.4661 30.3271L27.0404 30.1143C27.1469 30.0079 27.1469 29.9015 27.2533 29.7951L27.5725 29.9015C27.5725 29.9015 27.5725 29.9015 27.6789 29.9015C27.7853 29.9015 27.7853 29.9015 27.8917 29.9015C27.8917 29.9015 27.8917 29.9015 27.9981 29.9015C28.1045 29.6887 28.2109 29.3695 28.3173 29.1567H28.2109C28.1045 29.1567 27.9981 29.2631 27.9981 29.2631L27.5725 29.1567C27.5725 29.0502 27.6789 28.9438 27.6789 28.731L27.9981 28.8374C27.9981 28.8374 28.2109 28.8374 28.3173 28.731C28.4237 28.5182 28.4237 28.199 28.4237 27.9862H28.3173C28.2109 27.9862 28.1045 28.0926 28.1045 28.0926L27.5725 27.9862C27.5725 27.8798 27.5725 27.667 27.5725 27.5606H27.8917C27.8917 27.5606 27.9981 27.4542 28.2109 27.3478C28.2109 27.2414 28.2109 27.2414 28.2109 27.1349C28.2109 26.9221 28.2109 26.7093 28.2109 26.4965C28.2109 26.4965 28.2109 26.4965 28.1045 26.6029C27.9981 26.7093 27.8917 26.7093 27.8917 26.7093H27.3597C27.3597 26.6029 27.3597 26.3901 27.3597 26.2837H27.6789C27.6789 26.2837 27.7853 26.1773 27.9981 26.0709C27.9981 25.7517 27.8917 25.5389 27.8917 25.3261C27.8917 25.3261 27.8917 25.3261 27.7853 25.4325C27.6789 25.5389 27.6789 25.5389 27.6789 25.5389L27.1468 25.6453C27.1468 25.5389 27.0404 25.4325 27.0404 25.2197L27.3597 25.1132C27.3597 25.1132 27.3597 25.1132 27.4661 25.0068C27.4661 25.0068 27.5725 24.9004 27.5725 24.794C27.4661 24.5812 27.3597 24.262 27.2533 24.0492V24.1556C27.1469 24.262 27.1468 24.3684 27.1468 24.3684L26.7212 24.5812C26.7212 24.4748 26.6148 24.3684 26.5084 24.1556L26.8276 24.0492C26.8276 24.0492 26.934 23.9428 27.0404 23.73C26.934 23.5172 26.8276 23.3044 26.6148 22.9851V23.0915C26.6148 23.1979 26.5084 23.1979 26.5084 23.1979L26.0828 23.4108C25.9764 23.3043 25.9764 23.1979 25.87 23.0915L26.1892 22.8787C26.1892 22.8787 26.2956 22.7723 26.2956 22.5595C26.0828 22.3467 25.9764 22.1339 25.7636 21.9211C25.7636 21.9211 25.7636 21.9211 25.7636 22.0275C25.7636 22.1339 25.7636 22.2403 25.7636 22.2403L25.4444 22.5595C25.338 22.4531 25.2316 22.3467 25.1251 22.2403L25.338 22.0275C25.338 22.0275 25.338 21.8147 25.4444 21.7083C25.4444 21.7083 25.4444 21.7083 25.4444 21.6019C25.2316 21.389 25.0187 21.2826 24.8059 21.0698V21.1762C24.8059 21.2826 24.8059 21.3891 24.8059 21.3891L24.4867 21.8147C24.3803 21.7083 24.2739 21.6019 24.1675 21.6019L24.3803 21.2826C24.3803 21.2826 24.3803 21.0698 24.3803 20.9634C24.3803 20.9634 24.3803 20.9634 24.3803 20.857C24.1675 20.7506 23.9547 20.5378 23.6355 20.4314V20.5378C23.6355 20.6442 23.6355 20.7506 23.6355 20.7506L23.4227 21.1762C23.3162 21.0698 23.2098 21.0698 23.1034 20.9634L23.2098 20.6442C23.2098 20.6442 23.2098 20.6442 23.2098 20.5378C23.2098 20.4314 23.2098 20.4314 23.2098 20.325C23.2098 20.325 23.2098 20.325 23.2098 20.2186C22.997 20.1122 22.6778 20.0058 22.465 19.8994V20.0058C22.465 20.1122 22.5714 20.2186 22.5714 20.2186L22.465 20.6442C22.3586 20.6442 22.2522 20.5378 22.0394 20.5378L22.1458 20.2186C22.1458 20.2186 22.1458 20.0058 22.0394 19.8994C21.8266 19.793 21.5074 19.793 21.2945 19.793V19.8994C21.2945 20.0058 21.401 20.1122 21.401 20.1122L21.2945 20.6442C21.1881 20.6442 20.9753 20.6442 20.8689 20.6442V20.325C20.8689 20.325 20.7625 20.2186 20.6561 20.0058C20.5497 20.0058 20.5497 20.0058 20.4433 20.0058C20.2305 20.0058 20.0177 20.0058 19.8049 20.0058C19.8049 20.0058 19.8049 20.0058 19.9113 20.1122C20.0177 20.2186 20.0177 20.325 20.0177 20.325V20.857C19.9113 20.857 19.6985 20.857 19.5921 20.857V20.5378C19.5921 20.5378 19.4856 20.4314 19.3792 20.2186C19.06 20.2186 18.8472 20.325 18.6344 20.325C18.6344 20.325 18.6344 20.325 18.7408 20.4314C18.8472 20.5378 18.8472 20.5378 18.8472 20.5378L18.9536 21.0698C18.8472 21.0698 18.7408 21.1762 18.528 21.1762L18.4216 20.857C18.4216 20.857 18.4216 20.857 18.3152 20.7506C18.3152 20.7506 18.2088 20.6442 18.1024 20.6442C17.8896 20.7506 17.5704 20.857 17.3575 20.9634H17.4639C17.5704 21.0698 17.6768 21.0698 17.6768 21.0698L17.8896 21.4955C17.7832 21.4955 17.6768 21.6019 17.4639 21.7083L17.3575 21.3891C17.3575 21.3891 17.2511 21.2826 17.0383 21.1762C16.8255 21.2826 16.6127 21.389 16.2935 21.6019H16.3999C16.5063 21.6019 16.5063 21.7083 16.5063 21.7083L16.7191 22.1339C16.6127 22.2403 16.5063 22.2403 16.3999 22.3467L16.1871 22.0275C16.1871 22.0275 16.0807 21.9211 15.8679 21.9211C15.6551 22.0275 15.4422 22.2403 15.3358 22.3467C15.3358 22.3467 15.3358 22.3467 15.2294 22.4531H15.3358C15.4422 22.4531 15.5486 22.4531 15.5486 22.4531L15.8679 22.7723C15.7615 22.8787 15.6551 22.9851 15.5486 23.0915L15.3358 22.8787C15.3358 22.8787 15.123 22.8787 15.0166 22.7723C15.0166 22.7723 15.0166 22.7723 14.9102 22.7723C14.6974 22.9851 14.591 23.1979 14.3782 23.4108H14.4846C14.591 23.4108 14.6974 23.4108 14.6974 23.4108L15.123 23.73C15.0166 23.8364 14.9102 23.9428 14.9102 24.0492L14.591 23.8364C14.591 23.8364 14.3782 23.8364 14.2718 23.8364C14.2718 23.8364 14.2718 23.8364 14.1654 23.8364C14.059 24.0492 13.8462 24.262 13.7398 24.5812H13.8462C13.9526 24.5812 14.059 24.5812 14.059 24.5812L14.4846 24.794C14.3782 24.9004 14.3782 25.0068 14.2718 25.1132L13.9526 25.0068C13.9526 25.0068 13.9526 25.0068 13.8462 25.0068C13.7397 25.0068 13.7398 25.0068 13.6333 25.0068C13.6333 25.0068 13.6333 25.0068 13.5269 25.0068C13.4205 25.2196 13.3141 25.5389 13.2077 25.7517H13.3141C13.4205 25.7517 13.5269 25.6453 13.5269 25.6453L13.9526 25.7517C13.9526 25.8581 13.8462 25.9645 13.8462 26.1773L13.5269 26.0709C13.5269 26.0709 13.3141 26.0709 13.2077 26.1773C13.1013 26.3901 13.1013 26.7093 13.1013 26.9221H13.2077C13.3141 26.9221 13.4205 26.8157 13.4205 26.8157L13.9526 26.9221C13.9526 27.0285 13.9526 27.2414 13.9526 27.3478H13.6333C13.6333 27.3478 13.5269 27.4542 13.3141 27.5606C13.3141 27.667 13.3141 27.667 13.3141 27.7734C13.3141 27.9862 13.3141 28.199 13.3141 28.4118C13.3141 28.4118 13.3141 28.4118 13.4205 28.3054C13.5269 28.199 13.6333 28.199 13.6333 28.199L14.2718 28.0926Z" fill="#1D1715"/>
<path d="M26.9341 23.8368C27.0405 23.9432 27.0405 24.0496 27.1469 24.156L27.5725 23.9432C27.5725 23.9432 27.5725 23.8368 27.6789 23.8368C27.5725 23.7304 27.4661 23.5175 27.3597 23.4111C27.2533 23.6239 27.2533 23.7304 27.2533 23.7304L26.9341 23.8368Z" fill="#403430"/>
<path d="M15.123 27.6669C15.2295 24.2619 17.996 21.6018 21.401 21.7082C24.806 21.8146 27.4661 24.5811 27.3597 27.9861C27.2533 31.3911 24.4867 34.0512 21.0818 33.9448C17.7832 33.8384 15.123 31.0719 15.123 27.6669Z" fill="#403430"/>
<path d="M14.4846 27.6673C14.591 23.9431 17.6767 20.9637 21.4009 21.0701C25.1251 21.1766 28.1045 24.2623 27.9981 27.9865C27.8917 31.7107 24.8059 34.6901 21.0817 34.5836C17.3575 34.4772 14.3782 31.3915 14.4846 27.6673ZM14.591 27.6673C14.4846 31.3915 17.4639 34.4772 21.0817 34.4772C24.8059 34.5837 27.8917 31.6043 27.8917 27.9865C27.9981 24.2623 25.0187 21.1766 21.4009 21.1766C17.7831 21.0701 14.6974 23.9431 14.591 27.6673Z" fill="#403430"/>
<path d="M25.87 32.9871L26.1892 33.3064C26.1892 33.3064 26.2956 33.3064 26.402 33.3064C26.5084 33.2 26.6148 33.0935 26.8276 32.8807C26.6148 32.8807 26.5084 32.7743 26.5084 32.7743L26.2956 32.5615C26.0828 32.7743 25.9764 32.8807 25.87 32.9871Z" fill="#403430"/>
<path d="M26.7213 32.1366L27.1469 32.4558C27.1469 32.4558 27.2533 32.4558 27.3597 32.4558C27.4662 32.3494 27.5726 32.1366 27.679 32.0302C27.4661 32.0302 27.3597 32.0302 27.3597 32.0302L27.0405 31.8174C26.9341 31.9238 26.8277 32.0302 26.7213 32.1366Z" fill="#403430"/>
<path d="M23.8484 34.2646C23.9548 34.2646 24.0612 34.1582 24.274 34.0518L24.3804 34.371C24.3804 34.371 24.4868 34.4774 24.6996 34.5838C24.5932 34.6902 24.3804 34.6902 24.1676 34.7966C24.0612 34.6902 23.9548 34.6902 23.9548 34.6902L23.8484 34.2646Z" fill="#403430"/>
<path d="M25.2315 34.158L25.0187 33.7323C25.1251 33.6259 25.2315 33.6259 25.3379 33.5195L25.5507 33.8388C25.5507 33.8388 25.6571 33.9452 25.8699 33.9452C25.7635 34.0516 25.5507 34.158 25.4443 34.2644C25.2315 34.158 25.2315 34.158 25.2315 34.158Z" fill="#403430"/>
<path d="M27.3596 31.0711L27.7852 31.2839C27.7852 31.2839 27.8916 31.2839 27.9981 31.2839C28.1045 31.1775 28.1045 30.9647 28.2109 30.7519C28.1045 30.7519 27.9981 30.7519 27.9981 30.7519C27.8916 30.7519 27.8916 30.7519 27.8916 30.7519L27.5724 30.6455C27.466 30.8583 27.466 30.9647 27.3596 31.0711Z" fill="#403430"/>
<path d="M28.2108 27.1337C28.2108 27.2401 28.2108 27.4529 28.2108 27.5593H28.7428C28.7428 27.5593 28.8492 27.5593 28.9557 27.4529C28.9557 27.2401 28.9557 27.1337 28.9557 26.9209C28.8492 27.0273 28.6364 27.1337 28.6364 27.1337H28.2108Z" fill="#403430"/>
<path d="M22.6779 34.5839C22.7843 34.5839 22.9971 34.4775 23.1035 34.4775L23.2099 34.7968C23.2099 34.7968 23.2099 34.7968 23.3163 34.9032C23.3163 34.9032 23.4227 35.0096 23.5291 35.0096C23.3163 35.0096 23.2099 35.116 22.9971 35.116C22.8907 35.0096 22.8907 35.0096 22.8907 35.0096L22.6779 34.5839Z" fill="#403430"/>
<path d="M27.8916 30.0076L28.3172 30.114C28.3172 30.114 28.4236 30.114 28.53 30.0076C28.6364 29.7948 28.6364 29.6884 28.6364 29.4756C28.4236 29.582 28.3172 29.582 28.3172 29.582L27.998 29.4756C27.8916 29.6884 27.8916 29.9012 27.8916 30.0076Z" fill="#403430"/>
<path d="M27.998 25.9647C27.998 26.0711 28.1045 26.1775 28.1045 26.3903L28.6365 26.2839L28.7429 26.1775C28.7429 25.9647 28.6365 25.8583 28.6365 25.6455C28.6365 25.7519 28.5301 25.7519 28.5301 25.8583C28.5301 25.9647 28.4237 25.9647 28.4237 25.9647H27.998Z" fill="#403430"/>
<path d="M27.5726 24.9012C27.679 25.0076 27.679 25.114 27.7854 25.3268L28.2111 25.114C28.2111 25.114 28.2111 25.0076 28.3175 24.9012C28.2111 24.6884 28.2111 24.582 28.1047 24.3691C27.9983 24.582 27.8918 24.6884 27.8918 24.6884L27.5726 24.9012Z" fill="#403430"/>
<path d="M28.1045 28.8377L28.6365 28.9441C28.6365 28.9441 28.7429 28.9441 28.8493 28.8377C28.8493 28.6249 28.8493 28.5185 28.8493 28.3057C28.6365 28.4121 28.5301 28.5185 28.5301 28.5185H28.2109C28.2109 28.5185 28.1045 28.6249 28.1045 28.8377Z" fill="#403430"/>
<path d="M14.9102 31.7109L15.3359 31.498C15.4423 31.6045 15.4423 31.7109 15.5487 31.8173L15.2295 32.0301C15.2295 32.0301 15.123 32.1365 15.123 32.3493C15.0166 32.2429 14.9102 32.0301 14.8038 31.9237C14.9102 31.8173 14.9102 31.7109 14.9102 31.7109Z" fill="#403430"/>
<path d="M14.8038 30.4336C14.8038 30.54 14.9102 30.6464 15.0166 30.8592L14.6974 30.9656C14.6974 30.9656 14.5909 31.072 14.4845 31.2848C14.3781 31.1784 14.3781 30.9656 14.2717 30.7528C14.3781 30.6464 14.3781 30.54 14.3781 30.54L14.8038 30.4336Z" fill="#403430"/>
<path d="M21.5072 34.7959C21.6136 34.7959 21.8264 34.7959 21.9328 34.7959V35.1151C21.9328 35.1151 22.0392 35.2215 22.1456 35.4343C21.9328 35.4343 21.8264 35.4343 21.6136 35.4343C21.5072 35.3279 21.5072 35.2215 21.5072 35.2215V34.7959Z" fill="#403430"/>
<path d="M16.0805 32.4561C16.1869 32.5625 16.2933 32.6689 16.3997 32.7753L16.1869 32.9881C16.1869 32.9881 16.1869 33.2009 16.0805 33.3073C15.9741 33.2009 15.8677 33.0945 15.6549 32.8817C15.6549 32.7753 15.6549 32.6689 15.6549 32.6689L16.0805 32.4561Z" fill="#403430"/>
<path d="M13.8463 28.0938H14.3783C14.3783 28.2002 14.3783 28.413 14.3783 28.5194H14.0591C14.0591 28.5194 13.9527 28.6258 13.7399 28.7322C13.7399 28.5194 13.7399 28.413 13.7399 28.2002C13.7399 28.0937 13.8463 28.0938 13.8463 28.0938Z" fill="#403430"/>
<path d="M14.4847 29.2637C14.4847 29.3701 14.5911 29.5829 14.5911 29.6893L14.2719 29.7957C14.2719 29.7957 14.2719 29.7957 14.1654 29.9021C14.1654 29.9021 14.059 30.0085 14.059 30.1149C14.059 29.9021 13.9526 29.7957 13.9526 29.5829C14.059 29.4765 14.059 29.4765 14.059 29.4765L14.4847 29.2637Z" fill="#403430"/>
<path d="M19.06 34.4775C19.1664 34.4775 19.2728 34.5839 19.4856 34.5839L19.3792 34.9032C19.3792 34.9032 19.3792 35.116 19.4856 35.2224C19.2728 35.2224 19.1664 35.116 18.9536 35.116C18.9536 35.0096 18.8472 34.9032 18.8472 34.9032L19.06 34.4775Z" fill="#403430"/>
<path d="M20.2305 34.6895C20.3369 34.6895 20.5497 34.6895 20.6561 34.6895V35.0087C20.6561 35.0087 20.7625 35.1151 20.8689 35.3279C20.6561 35.3279 20.5497 35.3279 20.3369 35.3279C20.3369 35.2215 20.2305 35.1151 20.2305 35.1151V34.6895Z" fill="#403430"/>
<path d="M17.996 33.9453C18.1024 34.0517 18.2088 34.0517 18.3152 34.1581L18.2088 34.4773C18.2088 34.4773 18.2088 34.4773 18.2088 34.5837C18.2088 34.6901 18.2088 34.6902 18.2088 34.7966C17.996 34.6902 17.8896 34.6901 17.6768 34.5837C17.6768 34.4773 17.6768 34.3709 17.6768 34.3709L17.996 33.9453Z" fill="#403430"/>
<path d="M16.932 33.3057C17.0384 33.4121 17.1448 33.5185 17.2512 33.5185L17.0384 33.8377C17.0384 33.8377 17.0384 34.0505 17.0384 34.1569C16.932 34.0505 16.7192 33.9441 16.6128 33.8377C16.6128 33.7313 16.6128 33.6249 16.6128 33.6249L16.932 33.3057Z" fill="#403430"/>
<path d="M16.7191 21.7079C16.9319 21.8143 17.0383 21.8143 17.0383 21.8143L17.2511 22.1335C17.3575 22.0271 17.464 22.0271 17.5704 21.9207L17.3576 21.4951C17.3576 21.4951 17.2511 21.4951 17.2511 21.3887C17.0383 21.4951 16.8255 21.6015 16.7191 21.7079Z" fill="#403430"/>
<path d="M21.8266 20.5389V20.8581C21.933 20.8581 22.1458 20.8581 22.2522 20.8581L22.3586 20.3261C22.3586 20.3261 22.3586 20.2197 22.2522 20.1133C22.0394 20.1133 21.933 20.1133 21.7202 20.1133C21.8266 20.4325 21.8266 20.5389 21.8266 20.5389Z" fill="#403430"/>
<path d="M24.1675 21.4959C24.2739 21.6023 24.3803 21.6023 24.4867 21.7087L24.6995 21.283C24.6995 21.283 24.6995 21.1766 24.6995 21.0702C24.5931 20.9638 24.3803 20.9638 24.1675 20.8574C24.1675 20.9638 24.1675 21.0702 24.1675 21.0702C24.1675 21.1766 24.1675 21.1766 24.1675 21.1766V21.4959Z" fill="#403430"/>
<path d="M23.1034 20.7499L22.997 21.0691C23.1034 21.0691 23.2098 21.1755 23.4227 21.1755L23.5291 20.7499C23.5291 20.7499 23.5291 20.6435 23.4227 20.5371C23.2098 20.4307 23.1034 20.4307 22.8906 20.4307C23.1034 20.6435 23.1034 20.7499 23.1034 20.7499Z" fill="#403430"/>
<path d="M19.0601 20.538C19.1665 20.538 19.1665 20.6444 19.2729 20.6444C19.3793 20.6444 19.3793 20.7508 19.3793 20.7508L19.4857 21.07C19.5921 21.07 19.6985 20.9636 19.9113 20.9636L19.8049 20.4316L19.6985 20.3252C19.3793 20.4316 19.2729 20.538 19.0601 20.538Z" fill="#403430"/>
<path d="M15.7614 23.5165C15.655 23.6229 15.5486 23.7293 15.5486 23.8357L15.2294 23.6229C15.2294 23.6229 15.0166 23.6229 14.9102 23.6229C15.0166 23.5165 15.123 23.3037 15.2294 23.1973C15.3358 23.1973 15.4422 23.1973 15.4422 23.1973L15.7614 23.5165Z" fill="#403430"/>
<path d="M14.6975 25.6464C14.6975 25.7528 14.5911 25.8592 14.5911 26.072L14.2719 25.9656C14.2719 25.9656 14.059 25.9656 13.9526 26.072C13.9526 25.8592 14.059 25.7528 14.059 25.54C14.1654 25.54 14.2719 25.4336 14.2719 25.4336L14.6975 25.6464Z" fill="#403430"/>
<path d="M20.3369 20.3252C20.4433 20.4316 20.5497 20.6444 20.5497 20.6444V20.9636C20.6561 20.9636 20.8689 20.9636 20.9753 20.9636V20.4316C20.9753 20.4316 20.9753 20.3252 20.8689 20.2188C20.7625 20.2188 20.5497 20.2188 20.3369 20.3252Z" fill="#403430"/>
<path d="M17.7832 21.0702C17.996 21.1766 18.1024 21.283 18.1024 21.283L18.2088 21.6023C18.3152 21.4959 18.4216 21.4959 18.6344 21.3894L18.4216 20.9638C18.4216 20.9638 18.3152 20.9638 18.2088 20.8574C18.1024 20.8574 17.996 20.9638 17.7832 21.0702Z" fill="#403430"/>
<path d="M15.1231 24.58C15.0167 24.6864 15.0167 24.7928 14.9103 24.8992L14.5911 24.7928C14.5911 24.7928 14.5911 24.7928 14.4847 24.7928C14.3783 24.7928 14.3783 24.7928 14.2719 24.7928C14.3783 24.58 14.3783 24.4736 14.4847 24.2607C14.5911 24.2607 14.6975 24.2607 14.6975 24.2607L15.1231 24.58Z" fill="#403430"/>
<path d="M14.3783 26.8154C14.3783 26.9218 14.3783 27.1346 14.3783 27.2411H14.0591C14.0591 27.2411 13.9527 27.3475 13.7399 27.4539C13.7399 27.2411 13.7399 27.1346 13.7399 26.9218C13.8463 26.9218 13.9527 26.8154 13.9527 26.8154H14.3783Z" fill="#403430"/>
<path d="M25.2316 22.1335C25.338 22.2399 25.4444 22.2399 25.5508 22.3463L25.87 21.9207C25.87 21.9207 25.87 21.8143 25.87 21.7079C25.7636 21.6015 25.5508 21.4951 25.4444 21.3887C25.4444 21.6015 25.4444 21.7079 25.4444 21.7079L25.2316 22.1335Z" fill="#403430"/>
<path d="M16.6127 22.6668C16.5063 22.7732 16.3999 22.8796 16.2935 22.9861L16.0807 22.7732C16.0807 22.7732 15.8679 22.7732 15.7615 22.6668C15.8679 22.5604 15.9743 22.454 16.1871 22.2412C16.2935 22.2412 16.3999 22.2412 16.3999 22.2412L16.6127 22.6668Z" fill="#403430"/>
<path d="M26.1892 22.8806C26.2956 22.987 26.402 23.0934 26.5084 23.1998L26.8276 22.8806C26.8276 22.8806 26.8276 22.7742 26.8276 22.6678C26.7212 22.5614 26.6148 22.455 26.402 22.2422C26.402 22.455 26.2956 22.5614 26.2956 22.5614L26.1892 22.8806Z" fill="#403430"/>
<path opacity="0.1" d="M26.1892 22.8806C26.2956 22.987 26.402 23.0934 26.5084 23.1998L26.8276 22.8806C26.8276 22.8806 26.8276 22.7742 26.8276 22.6678C26.7212 22.5614 26.6148 22.455 26.402 22.2422C26.402 22.455 26.2956 22.5614 26.2956 22.5614L26.1892 22.8806Z" fill="#1D1D1B"/>
<g opacity="0.15">
<path d="M13.8462 29.4756C13.8462 29.582 13.7398 29.582 13.8462 29.4756C13.7398 29.582 13.7398 29.4756 13.8462 29.4756C13.8462 29.4756 13.7398 29.4756 13.8462 29.4756Z" fill="#FFE66A"/>
</g>
<path d="M15.5488 27.7723C15.5488 30.9644 18.1026 33.5182 21.2947 33.5182C24.4869 33.5182 27.0406 30.9644 27.0406 27.7723C27.0406 24.5801 24.4869 22.0264 21.2947 22.0264C18.1026 22.1328 15.5488 24.6865 15.5488 27.7723Z" fill="#FDFDFD"/>
<path d="M21.2946 32.4535C23.8803 32.4535 25.9765 30.3574 25.9765 27.7717C25.9765 25.186 23.8803 23.0898 21.2946 23.0898C18.7089 23.0898 16.6128 25.186 16.6128 27.7717C16.6128 30.3574 18.7089 32.4535 21.2946 32.4535Z" fill="#403430"/>
<path d="M20.9754 28.6259L21.5074 27.0298L16.6128 25.7529L16.2936 26.7106L20.9754 28.6259Z" fill="#474343"/>
<path d="M21.9331 28.3073L20.5498 27.3496L17.8896 31.6058L18.7409 32.2443L21.9331 28.3073Z" fill="#474343"/>
<path d="M21.9331 27.3496L20.5498 28.3073L23.8484 32.2443L24.6996 31.6058L21.9331 27.3496Z" fill="#474343"/>
<path d="M20.9753 27.0298L21.5074 28.6259L26.1892 26.7106L25.87 25.7529L20.9753 27.0298Z" fill="#474343"/>
<path d="M20.4434 27.7735H22.0394L21.8266 22.7725H20.7626L20.4434 27.7735Z" fill="#474343"/>
<path d="M19.4857 27.7728C19.4857 28.7305 20.2306 29.4753 21.1882 29.4753C22.1459 29.4753 22.8907 28.7305 22.8907 27.7728C22.8907 26.8152 22.1459 26.0703 21.1882 26.0703C20.337 26.0703 19.4857 26.8152 19.4857 27.7728Z" fill="#FDFDFD"/>
<path d="M21.2946 20.4299H17.996C14.4846 20.4299 11.5053 23.1965 11.186 26.7078C11.2924 22.8772 12.9949 18.5146 21.2946 20.4299Z" fill="#FFE66A"/>
<path d="M75.0294 20.4299H71.7309C68.2195 20.4299 65.2401 23.1965 64.9209 26.7078C65.0273 22.8772 66.7298 18.5146 75.0294 20.4299Z" fill="#FFE66A"/>
<g opacity="0.75">
<path d="M25.7638 3.2984L31.1905 10.3212L36.83 10.4276L30.552 2.12793H30.3392C29.1688 2.12793 28.1047 2.12794 26.9343 2.23434C26.8279 2.23434 26.7214 2.23434 26.615 2.34075C26.2958 2.65996 26.083 2.97918 25.7638 3.2984Z" fill="#FFE66A"/>
<path d="M31.2969 2.23438L37.5748 10.534H39.3837L33.1058 2.23438C32.893 2.23438 32.7866 2.23438 32.5737 2.23438H32.1481C31.8289 2.23438 31.5097 2.23438 31.2969 2.23438Z" fill="#FFE66A"/>
</g>
<g opacity="0.75">
<path d="M11.5052 6.48982L14.1654 10.0012L16.6127 10.1076H16.7191C17.0383 9.36276 17.464 8.51153 17.8896 7.55388L14.2718 2.76562C13.6334 3.08484 13.3141 3.61686 12.7821 4.2553C12.3565 5.00014 11.9309 5.74498 11.5052 6.48982Z" fill="#FFE66A"/>
<path d="M14.8038 2.55355L18.1024 6.91618C18.3152 6.38415 18.528 5.95854 18.8472 5.42651L16.3999 2.12793C15.7615 2.23434 15.2295 2.34074 14.8038 2.55355Z" fill="#FFE66A"/>
</g>
</svg>
