<svg width="87" height="25" viewBox="0 0 87 25" fill="none" xmlns="http://www.w3.org/2000/svg">
<path opacity="0.1" d="M0 23.3022C0 24.0471 19.2594 24.6855 43.0943 24.6855C66.8227 24.6855 86.1885 24.0471 86.1885 23.3022C86.1885 22.5574 66.9291 21.9189 43.0943 21.9189C19.2594 21.9189 0 22.5574 0 23.3022Z" fill="#1D1D1B"/>
<path d="M59.7998 8.40659L68.2059 8.7258L69.1635 6.7041L61.1831 7.02332C60.4383 6.91691 59.7998 7.55534 59.7998 8.40659Z" fill="#474343"/>
<path d="M1.06417 8.08812L1.17059 8.83296V9.15217L1.48979 12.3443V12.6636L1.70261 14.366V14.4725L1.9154 16.1749C2.02181 17.6646 3.08587 18.9415 4.57554 19.4735L8.51256 20.7504L8.93818 20.8568H85.231L86.1886 17.771C85.0182 13.0892 79.1659 9.36498 71.3983 8.40733C70.015 8.19452 68.5253 8.08812 67.0356 8.08812L57.8847 7.66249L50.862 3.40627C48.0954 1.70378 44.9032 0.852539 41.7111 0.852539H33.6243C31.0705 0.852539 28.5168 1.38456 26.1759 2.34221L19.0467 5.32157L2.55384 6.49203C1.59619 6.38563 0.957768 7.13047 1.06417 8.08812Z" fill="#474343"/>
<path d="M76.5056 10.1084C80.4426 11.3853 83.422 13.5134 84.8052 16.0671C82.8899 15.9607 80.9746 15.4287 78.9529 14.6838C77.7825 13.8326 76.1864 11.8109 76.5056 10.1084Z" fill="#FDFDFD"/>
<path d="M33.3049 1.5957C33.4113 1.5957 36.7099 1.5957 35.2202 1.5957H41.7109C44.7967 1.5957 47.776 2.44695 50.4362 4.04303L57.4589 8.29925L57.2461 17.9822C57.2461 19.0462 56.3949 19.8975 55.3308 19.8975H33.3049C29.2614 19.8975 25.8565 16.9181 25.3244 12.8747L24.686 6.27755C24.5796 6.27755 28.4102 1.5957 33.3049 1.5957Z" fill="#FDFDFD"/>
<path d="M25.1118 6.27868L25.7502 12.5566C26.1758 16.2808 29.368 19.0473 33.0922 19.0473H55.1182C55.863 19.0473 56.5015 18.5153 56.5015 17.6641L56.7142 8.40679L50.0107 4.36338C47.457 2.7673 44.584 2.02246 41.6047 2.02246H35.1139C34.6883 2.02246 34.0499 2.02246 33.1986 2.02246C29.2616 2.02246 25.8567 5.42744 25.1118 6.27868Z" fill="#FFE66A"/>
<path d="M55.3308 8.08774L49.9041 4.78917C47.4567 3.29949 44.5838 2.44824 41.6044 2.44824H35.1137C34.9009 2.44824 34.6881 2.44824 34.3688 2.44824H33.1984C29.4742 2.44824 26.282 5.64041 25.4308 6.59806L55.3308 8.08774Z" fill="#403430"/>
<path d="M62.6727 17.2385V20.7499H77.3567V17.2385C77.3567 13.6207 74.6966 10.5349 71.1852 10.0029C70.866 10.0029 70.4403 9.89648 70.1211 9.89648C65.8649 9.89648 62.6727 13.1951 62.6727 17.2385Z" fill="#403430"/>
<path d="M9.36377 17.2385V20.7499H24.0478V17.2385C24.0478 13.6207 21.3876 10.5349 17.8762 10.0029C17.557 10.0029 17.1314 9.89648 16.8122 9.89648C12.5559 9.89648 9.36377 13.1951 9.36377 17.2385Z" fill="#403430"/>
<path d="M25.963 8.7253C25.963 9.15093 26.2822 9.47014 26.7079 9.47014L29.4744 9.57655C29.9 9.57655 30.2192 9.25733 30.2192 8.83171C30.2192 8.40609 29.9 8.08687 29.4744 8.08687L26.7079 7.98047C26.3886 7.98047 26.0694 8.29968 25.963 8.7253Z" fill="#403430"/>
<path d="M82.4643 17.6631H86.0821L85.1245 20.7488H80.1234L80.6554 18.94C80.9747 18.1951 81.7195 17.6631 82.4643 17.6631Z" fill="#474343"/>
<path d="M84.3795 19.5778L84.5924 18.833H82.5707C82.2514 18.833 82.0386 19.0458 81.9322 19.2586L81.8258 19.5778H84.3795Z" fill="#FFE66A"/>
<path d="M1.70239 14.3652L1.91518 16.0677C2.02159 17.5574 3.08565 18.8343 4.57532 19.3663L8.51234 20.6432L7.76749 16.7062C7.55468 15.4293 6.38422 14.4716 5.10735 14.4716H1.70239V14.3652Z" fill="#474343"/>
<path d="M24.0477 12.555L23.8349 10.5333C23.7285 9.15003 22.558 8.19238 21.1748 8.19238H12.5559C20.5363 8.40519 22.6645 9.68206 24.0477 12.555Z" fill="#D69943"/>
<path d="M61.6089 16.8116C62.4602 10.8529 64.6947 9.78886 67.9933 9.25684H66.1844C60.5449 9.57605 61.6089 16.8116 61.6089 16.8116Z" fill="#D69943"/>
<path d="M7.55485 6.06442L11.1726 5.95801L9.36373 0.744141H7.02283L7.55485 6.06442Z" fill="#D69943"/>
<path d="M1.17065 8.83203V9.15125L1.48986 12.3434V12.6626H2.76674C3.19236 12.6626 3.51158 12.4498 3.83079 12.1306C4.0436 11.8114 4.15 11.3858 4.15 11.0665L3.93717 9.89609C3.83077 9.25765 3.29876 8.83203 2.66033 8.83203H1.17065Z" fill="#FFE66A"/>
<path d="M11.7046 0H3.08574C2.87293 0 2.76653 0.319214 3.08574 0.42562L7.66117 1.38327C9.15085 1.70249 11.9174 1.38327 11.7046 0Z" fill="#474343"/>
<path d="M1.17053 9.15039L1.48974 12.3426H2.76662C3.40505 12.3426 3.93708 11.7041 3.83067 11.0657L3.61785 10.0016C3.51144 9.46961 3.08582 9.15039 2.55379 9.15039H1.17053Z" fill="#474343"/>
<path d="M55.5436 8.19358C55.65 9.04482 54.7988 9.15123 54.1603 9.25763C54.0539 9.25763 53.9475 9.25763 53.9475 9.25763L54.3732 6.17188C54.9052 6.27828 55.4372 7.44874 55.5436 8.19358Z" fill="#D69943"/>
<path opacity="0.1" d="M1.70239 14.3652L1.91518 16.0677C2.02159 17.5574 3.08565 18.8343 4.57532 19.3663L8.51234 20.6432L8.93796 20.7496H85.2308L86.1884 17.6638L1.70239 14.3652Z" fill="#1D1D1B"/>
<path d="M63.9498 17.5563C63.9498 17.6627 63.9498 17.7691 63.9498 17.8755H63.6305C63.6305 17.8755 63.5241 17.982 63.4177 18.0884C63.4177 18.3012 63.5241 18.514 63.5241 18.6204V18.7268C63.5241 18.7268 63.5241 18.7268 63.5241 18.6204C63.6305 18.7268 63.7369 18.7268 63.7369 18.7268L64.1625 18.6204C64.1625 18.7268 64.1626 18.8332 64.269 18.9396L64.0561 19.046C64.0561 19.046 64.0562 19.046 63.9498 19.1524L63.8433 19.2588C63.9497 19.4716 63.9497 19.6844 64.0561 19.8972C64.0561 19.8972 64.0561 19.8973 64.0561 19.7908C64.1625 19.6844 64.1625 19.6844 64.1625 19.6844L64.5882 19.4716C64.5882 19.578 64.6946 19.6844 64.6946 19.7908L64.3754 19.8972C64.3754 19.8972 64.269 20.0037 64.269 20.1101C64.3754 20.3229 64.4818 20.5357 64.5882 20.7485C64.5882 20.7485 64.5882 20.7485 64.5882 20.6421C64.5882 20.5357 64.5882 20.5357 64.5882 20.5357L64.9074 20.3229C65.0138 20.4293 65.0138 20.5357 65.1202 20.6421L64.9074 20.8549C64.9074 20.8549 64.801 20.9613 64.801 21.1741C64.9074 21.3869 65.1202 21.4933 65.2266 21.7061V21.5997C65.2266 21.4933 65.2266 21.3869 65.2266 21.3869L65.5458 21.0677C65.6522 21.1741 65.6522 21.2805 65.7586 21.2805L65.5458 21.4933C65.5458 21.4933 65.5458 21.5997 65.4394 21.8126C65.6522 21.919 65.7586 22.1318 65.9715 22.2382V22.1318C65.9715 22.0254 65.9715 21.919 65.9715 21.919L66.1842 21.5997C66.2906 21.7061 66.3971 21.7061 66.5035 21.8126L66.2907 22.0254C66.2907 22.0254 66.2907 22.1318 66.2907 22.3446C66.5035 22.451 66.7163 22.5574 66.9291 22.6638V22.5574C66.9291 22.451 66.9291 22.3446 66.9291 22.3446L67.1419 21.919C67.2483 22.0254 67.3547 22.0254 67.4611 22.0254L67.3547 22.3446C67.3547 22.3446 67.3547 22.3446 67.3547 22.451C67.3547 22.5574 67.3547 22.5574 67.3547 22.6638C67.5675 22.7702 67.7803 22.8766 67.9932 22.8766V22.7702C67.9932 22.6638 67.9932 22.5574 67.9932 22.5574L68.0996 22.1318C68.206 22.1318 68.3124 22.2382 68.4188 22.2382L68.3124 22.5574C68.3124 22.5574 68.3124 22.6638 68.4188 22.8766C68.6316 22.8766 68.8444 22.983 69.0572 22.983C69.0572 22.983 69.0572 22.983 69.0572 22.8766C69.0572 22.7702 68.9508 22.7702 68.9508 22.7702L69.0572 22.3446C69.1636 22.3446 69.27 22.3446 69.3764 22.3446V22.6638C69.3764 22.6638 69.4828 22.7702 69.4828 22.983C69.4828 22.983 69.5892 22.983 69.6956 22.983C69.9085 22.983 70.0149 22.983 70.2277 22.983C70.2277 22.983 70.2277 22.983 70.2277 22.8766C70.1213 22.7702 70.1213 22.7702 70.1213 22.7702V22.3446C70.2277 22.3446 70.3341 22.3446 70.4405 22.3446V22.6638C70.4405 22.6638 70.5469 22.7702 70.6533 22.8766C70.8661 22.8766 71.0789 22.7702 71.2917 22.7702C71.2917 22.7702 71.2917 22.7702 71.1853 22.6638C71.0789 22.5574 71.0789 22.5574 71.0789 22.5574L70.9725 22.1318C71.0789 22.1318 71.1853 22.1318 71.2917 22.0254L71.3981 22.3446C71.3981 22.3446 71.3981 22.3446 71.5045 22.451L71.6109 22.5574C71.8237 22.451 72.0366 22.451 72.2494 22.3446C72.2494 22.3446 72.2494 22.3446 72.143 22.3446C72.0366 22.2382 72.0365 22.2382 72.0365 22.2382L71.8238 21.8126C71.9302 21.8126 72.0366 21.7061 72.143 21.7061L72.2494 22.0254C72.2494 22.0254 72.3558 22.1318 72.4622 22.1318C72.675 22.0254 72.8878 21.919 73.1006 21.8126C73.1006 21.8126 73.1006 21.8126 72.9942 21.8126C72.8878 21.8126 72.8878 21.7061 72.8878 21.7061L72.675 21.3869C72.7814 21.2805 72.8878 21.2805 72.9942 21.1741L73.207 21.3869C73.207 21.3869 73.3134 21.4933 73.5263 21.4933C73.6327 21.3869 73.7391 21.2805 73.8455 21.1741C73.9519 21.0677 73.9519 21.0677 74.0583 20.9613C74.0583 20.9613 74.0583 20.9613 73.9519 20.9613C73.8455 20.9613 73.739 20.9613 73.739 20.9613L73.4198 20.6421C73.5262 20.5357 73.6326 20.5357 73.6326 20.4293L73.8455 20.6421C73.8455 20.6421 73.9518 20.6421 74.1647 20.7485C74.2711 20.5357 74.4839 20.4293 74.5903 20.2165H74.4839C74.3775 20.2165 74.2711 20.2165 74.2711 20.2165L73.9519 20.0037C74.0583 19.8973 74.0583 19.7908 74.1647 19.6844L74.3775 19.8972C74.3775 19.8972 74.4839 19.8972 74.6967 19.8972C74.8031 19.6844 74.9095 19.4716 75.0159 19.2588H74.9095C74.8031 19.2588 74.6967 19.2588 74.6967 19.2588L74.2711 19.046C74.3775 18.9396 74.3775 18.8332 74.3775 18.7268L74.6967 18.8332C74.6967 18.8332 74.6967 18.8332 74.8031 18.8332C74.8031 18.8332 74.9095 18.8332 75.0159 18.8332C75.1223 18.6204 75.2287 18.4076 75.2287 18.1948H75.1223C75.0159 18.1948 74.9095 18.1948 74.9095 18.1948L74.4839 18.0884C74.4839 17.982 74.5903 17.8755 74.5903 17.7691L74.9095 17.8755C74.9095 17.8755 75.0159 17.8755 75.2287 17.7691C75.2287 17.5563 75.3351 17.3435 75.3351 17.1307C75.3351 17.1307 75.3351 17.1307 75.2287 17.1307C75.1223 17.1307 75.1223 17.2371 75.1223 17.2371L74.6967 17.1307C74.6967 17.0243 74.6967 16.9179 74.6967 16.8115H75.0159C75.0159 16.8115 75.1223 16.7051 75.3351 16.7051C75.3351 16.7051 75.3351 16.5987 75.3351 16.4923C75.3351 16.2795 75.3351 16.1731 75.3351 15.9602C75.3351 15.9602 75.3351 15.9602 75.2287 15.9602C75.1223 16.0667 75.1223 16.0666 75.1223 16.0666H74.6967C74.6967 15.9602 74.6967 15.8538 74.6967 15.7474H75.0159C75.0159 15.7474 75.1223 15.641 75.2287 15.5346C75.2287 15.3218 75.1223 15.109 75.1223 14.8962C75.1223 14.8962 75.1223 14.8962 75.0159 15.0026C74.9095 15.109 74.9095 15.109 74.9095 15.109L74.4839 15.2154C74.4839 15.109 74.4839 15.0026 74.3775 14.8962L74.6967 14.7898C74.6967 14.7898 74.6967 14.7898 74.8031 14.6834L74.9095 14.577C74.8031 14.3642 74.8031 14.1513 74.6967 13.9385C74.6967 13.9385 74.6967 13.9385 74.6967 14.0449C74.5903 14.1513 74.5903 14.1514 74.5903 14.1514L74.1647 14.3642C74.1647 14.2578 74.0583 14.1513 74.0583 14.0449L74.3775 13.9385C74.3775 13.9385 74.4839 13.8321 74.5903 13.7257C74.4839 13.5129 74.3775 13.3001 74.2711 13.0873C74.2711 13.0873 74.2711 13.0873 74.2711 13.1937C74.2711 13.3001 74.1647 13.3001 74.1647 13.3001L73.8455 13.5129C73.7391 13.4065 73.739 13.3001 73.6326 13.1937L73.8455 12.9809C73.8455 12.9809 73.9519 12.8745 73.9519 12.6617C73.8455 12.4489 73.6327 12.3425 73.5263 12.1296C73.5263 12.236 73.5263 12.3425 73.5263 12.3425L74.3775 13.4065C74.2711 13.3001 74.2711 13.1937 74.1647 13.1937L74.3775 12.9809C74.3775 12.9809 74.3775 12.8745 74.4839 12.6617C74.2711 12.5553 74.1647 12.3425 73.9519 12.2361V12.3425C73.9519 12.4489 73.9519 12.5553 73.9519 12.5553L73.739 12.8745C73.6326 12.7681 73.5262 12.7681 73.4198 12.6617L73.6326 12.4489C73.6326 12.4489 73.6326 12.3425 73.6326 12.1296C73.4198 12.0232 73.207 11.9168 72.9942 11.8104V11.9168C72.9942 12.0232 72.9942 12.1296 72.9942 12.1296L72.7814 12.5553C72.675 12.4489 72.5686 12.4489 72.4622 12.4489L72.5686 12.1296C72.5686 12.1296 72.5686 12.1296 72.5686 12.0232C72.5686 12.0232 72.5686 11.9168 72.5686 11.8104C72.3558 11.704 72.143 11.5976 71.9302 11.5976V11.704C71.9302 11.8104 71.9302 11.9168 71.9302 11.9168L71.8238 12.3425C71.7174 12.3425 71.6109 12.2361 71.5045 12.2361L71.6109 11.9168C71.6109 11.9168 71.6109 11.8104 71.5045 11.5976C71.2917 11.5976 71.0789 11.4912 70.8661 11.4912C70.8661 11.4912 70.8661 11.4912 70.8661 11.5976C70.8661 11.704 70.9725 11.704 70.9725 11.704L70.8661 12.1296C70.7597 12.1296 70.6533 12.1296 70.5469 12.1296V11.8104C70.5469 11.8104 70.4405 11.704 70.4405 11.4912C70.4405 11.4912 70.3341 11.4912 70.2277 11.4912C70.0149 11.4912 69.9085 11.4912 69.6956 11.4912C69.6956 11.4912 69.6956 11.4912 69.6956 11.5976C69.8021 11.704 69.8021 11.704 69.8021 11.704V12.1296C69.6957 12.1296 69.5892 12.1296 69.4828 12.1296V11.8104C69.4828 11.8104 69.3764 11.704 69.27 11.5976C69.0572 11.5976 68.8444 11.704 68.6316 11.704C68.6316 11.704 68.6316 11.704 68.738 11.8104C68.8444 11.9168 68.8444 11.9168 68.8444 11.9168L68.9508 12.3425C68.8444 12.3425 68.738 12.3425 68.6316 12.4489L68.5252 12.1296C68.5252 12.1296 68.5252 12.1296 68.4188 12.0232L68.3124 11.9168C68.0995 12.0232 67.8868 12.0232 67.6739 12.1296C67.6739 12.1296 67.6739 12.1296 67.7803 12.1296C67.8867 12.236 67.8867 12.2361 67.8867 12.2361L68.0996 12.6617C67.9932 12.6617 67.8867 12.7681 67.7803 12.7681L67.6739 12.4489C67.6739 12.4489 67.5675 12.3425 67.4611 12.3425C67.2483 12.4489 67.0355 12.5553 66.8227 12.6617C66.8227 12.6617 66.8227 12.6617 66.9291 12.6617C67.0355 12.6617 67.0355 12.7681 67.0355 12.7681L67.2483 13.0873C67.1419 13.1937 67.0355 13.1937 66.9291 13.3001L66.7163 13.0873C66.7163 13.0873 66.6099 12.9809 66.3971 12.9809C66.1843 13.0873 66.0779 13.1937 65.9715 13.4065C65.9715 13.4065 65.9715 13.4065 66.0779 13.4065C66.1843 13.4065 66.2907 13.4065 66.2907 13.4065L66.6099 13.7257C66.5035 13.8321 66.3971 13.8321 66.3971 13.9385L66.1842 13.7257C66.1842 13.7257 66.0779 13.7257 65.865 13.6193C65.7586 13.8321 65.5458 13.9385 65.4394 14.1514H65.5458C65.6522 14.1514 65.7586 14.1514 65.7586 14.1514L66.0779 14.3642C65.9715 14.4706 65.9714 14.577 65.865 14.6834L65.6522 14.4706C65.6522 14.4706 65.5458 14.4706 65.333 14.4706C65.2266 14.6834 65.1202 14.8962 65.0138 15.109H65.1202C65.2266 15.109 65.333 15.109 65.333 15.109L65.7586 15.3218C65.6522 15.4282 65.6522 15.5346 65.6522 15.641L65.333 15.5346C65.333 15.5346 65.333 15.5346 65.2266 15.5346C65.1202 15.5346 65.1202 15.5346 65.0138 15.5346C64.9074 15.7474 64.801 15.9602 64.801 16.1731H64.9074C65.0138 16.1731 65.1202 16.1731 65.1202 16.1731L65.5458 16.2795C65.5458 16.3859 65.4394 16.4923 65.4394 16.5987L65.1202 16.4923C65.1202 16.4923 65.0138 16.4923 64.801 16.5987C64.801 16.8115 64.6946 17.0243 64.6946 17.2371C64.6946 17.2371 64.6946 17.2371 64.801 17.2371C64.9074 17.2371 64.9074 17.1307 64.9074 17.1307L65.333 17.2371C65.333 17.3435 65.333 17.4499 65.333 17.5563H65.0138C65.0138 17.5563 64.9074 17.6627 64.6946 17.6627C64.6946 17.6627 64.6946 17.7691 64.6946 17.8755C64.6946 18.0884 64.6946 18.1948 64.6946 18.4076C64.6946 18.4076 64.6946 18.4076 64.801 18.4076C64.9074 18.3012 64.9074 18.3012 64.9074 18.3012L63.9498 17.5563Z" fill="#1D1715"/>
<path d="M74.8031 13.9393C74.9095 14.0457 74.9095 14.1521 75.0159 14.2585L75.3351 14.0457C75.3351 14.0457 75.3351 14.0457 75.4415 13.9393C75.3351 13.8329 75.2287 13.7265 75.2287 13.5137C75.1223 13.6201 75.1223 13.8329 75.1223 13.8329L74.8031 13.9393Z" fill="#403430"/>
<path d="M64.6946 17.2389C64.801 14.3659 67.1419 12.025 70.0149 12.1314C72.8878 12.2378 75.2288 14.5787 75.1223 17.4517C75.0159 20.3246 72.675 22.6656 69.8021 22.5592C66.9291 22.4528 64.6946 20.1118 64.6946 17.2389Z" fill="#403430"/>
<path d="M64.1626 17.2384C64.269 14.0462 66.9292 11.4925 70.1214 11.5989C73.3135 11.7053 75.8672 14.3655 75.7608 17.5576C75.6544 20.7498 72.9943 23.3035 69.8021 23.1971C66.61 23.0907 64.0562 20.4306 64.1626 17.2384ZM64.269 17.2384C64.1626 20.4306 66.7164 23.0907 69.9085 23.0907C73.1007 23.1971 75.7608 20.6434 75.7608 17.4512C75.8672 14.2591 73.3135 11.5989 70.1214 11.5989C66.9292 11.5989 64.269 14.0462 64.269 17.2384Z" fill="#403430"/>
<path d="M73.9519 21.8134L74.2711 22.1326C74.2711 22.1326 74.3775 22.1326 74.4839 22.1326C74.5903 22.0262 74.6967 21.9198 74.8031 21.8134C74.6967 21.8134 74.4839 21.707 74.4839 21.707L74.2711 21.4941C74.1647 21.707 74.0583 21.707 73.9519 21.8134Z" fill="#403430"/>
<path d="M74.6968 21.0672L75.016 21.28C75.016 21.28 75.1224 21.28 75.2288 21.28C75.3352 21.1736 75.4416 21.0672 75.4416 20.8544C75.3352 20.8544 75.1224 20.8544 75.1224 20.8544L74.9096 20.6416C74.8032 20.8544 74.6968 20.9608 74.6968 21.0672Z" fill="#403430"/>
<path d="M72.1429 22.8769C72.2493 22.8769 72.3558 22.7705 72.4622 22.7705L72.5686 23.0897C72.5686 23.0897 72.675 23.1961 72.7814 23.1961C72.675 23.3025 72.4622 23.3025 72.3558 23.4089C72.2494 23.3025 72.2494 23.3025 72.2494 23.3025L72.1429 22.8769Z" fill="#403430"/>
<path d="M73.3135 22.7703L73.1007 22.4511C73.2071 22.3447 73.3135 22.3447 73.4199 22.2383L73.6327 22.4511C73.6327 22.4511 73.7392 22.5575 73.952 22.5575C73.8456 22.6639 73.7392 22.7703 73.5264 22.7703C73.42 22.8767 73.3135 22.7703 73.3135 22.7703Z" fill="#403430"/>
<path d="M75.2288 20.2177L75.6544 20.4305C75.6544 20.4305 75.7608 20.4305 75.8672 20.4305C75.9736 20.3241 75.9736 20.1113 76.08 20.0048C75.9736 20.0048 75.9736 20.0048 75.8672 20.0048C75.7608 20.0048 75.7608 20.0048 75.7608 20.0048L75.4416 19.8984C75.3352 20.0048 75.2288 20.1113 75.2288 20.2177Z" fill="#403430"/>
<path d="M75.8671 16.8124C75.8671 16.9188 75.8671 17.0252 75.8671 17.1316H76.2927C76.2927 17.1316 76.3991 17.1316 76.3991 17.0252C76.3991 16.9188 76.3991 16.706 76.3991 16.5996C76.2927 16.706 76.1863 16.8124 76.1863 16.8124H75.8671Z" fill="#403430"/>
<path d="M71.1853 23.1963C71.2917 23.1963 71.3981 23.1962 71.5045 23.0898L71.6109 23.4091C71.6109 23.4091 71.6109 23.4091 71.7173 23.5155L71.8237 23.6219C71.7173 23.6219 71.5045 23.7283 71.3981 23.7283C71.2917 23.6219 71.2917 23.6219 71.2917 23.6219L71.1853 23.1963Z" fill="#403430"/>
<path d="M75.6543 19.2587L76.0799 19.3651C76.0799 19.3651 76.1863 19.3651 76.2927 19.3651C76.2927 19.2587 76.3991 19.0459 76.3991 18.9395C76.2927 19.0459 76.0799 19.0459 76.0799 19.0459L75.7607 18.9395C75.6543 19.0459 75.6543 19.1523 75.6543 19.2587Z" fill="#403430"/>
<path d="M75.7609 15.8553C75.7609 15.9618 75.8673 16.0682 75.8673 16.1746L76.2929 16.0682C76.2929 16.0682 76.2929 16.0682 76.3993 15.9618C76.3993 15.8554 76.2929 15.6425 76.2929 15.5361C76.2929 15.6425 76.1865 15.6425 76.1865 15.6425L76.0801 15.7489L75.7609 15.8553Z" fill="#403430"/>
<path d="M75.3351 14.7918C75.3351 14.8982 75.4415 15.0046 75.4415 15.111L75.8671 14.8982C75.8671 14.8982 75.8671 14.7918 75.9735 14.7918C75.8671 14.6854 75.8671 14.4726 75.7607 14.3662C75.6543 14.4726 75.5479 14.579 75.5479 14.579L75.3351 14.7918Z" fill="#403430"/>
<path d="M75.8672 18.1952L76.2928 18.3016C76.2928 18.3016 76.3992 18.3016 76.3992 18.1952C76.3992 18.0887 76.3992 17.8759 76.3992 17.7695C76.2928 17.8759 76.08 17.8759 76.08 17.8759H75.7607C75.8671 17.9823 75.8672 18.0887 75.8672 18.1952Z" fill="#403430"/>
<path d="M64.5883 20.7489L64.9075 20.5361C65.0139 20.6425 65.0139 20.7489 65.1203 20.8553L64.9075 21.0682C64.9075 21.0682 64.8011 21.1746 64.8011 21.3874C64.6947 21.281 64.5883 21.1746 64.5883 20.9618C64.4819 20.7489 64.5883 20.7489 64.5883 20.7489Z" fill="#403430"/>
<path d="M64.3753 19.5781C64.3753 19.6845 64.4817 19.7909 64.4817 19.8973L64.1625 20.0037C64.1625 20.0037 64.0561 20.1102 64.0561 20.2166C63.9496 20.1102 63.9497 19.8973 63.8433 19.7909C63.9497 19.6845 63.9497 19.6845 63.9497 19.6845L64.3753 19.5781Z" fill="#403430"/>
<path d="M70.1213 23.3018C70.2277 23.3018 70.3341 23.3018 70.4405 23.3018V23.621C70.4405 23.621 70.547 23.7274 70.6534 23.8338C70.547 23.8338 70.3342 23.8338 70.2277 23.8338C70.1213 23.7274 70.1213 23.7274 70.1213 23.7274V23.3018Z" fill="#403430"/>
<path d="M65.546 21.3877C65.6524 21.4941 65.6524 21.6005 65.7588 21.6005L65.546 21.8133C65.546 21.8133 65.546 21.9197 65.4396 22.1325C65.3332 22.0261 65.2268 21.9197 65.1204 21.8133C65.1204 21.7069 65.1204 21.6005 65.1204 21.6005L65.546 21.3877Z" fill="#403430"/>
<path d="M63.6306 17.5576H64.0562C64.0562 17.664 64.0562 17.7704 64.0562 17.8768H63.737C63.737 17.8768 63.6306 17.9832 63.5242 18.0896C63.5242 17.9832 63.5242 17.7704 63.5242 17.664C63.5242 17.664 63.6306 17.5576 63.6306 17.5576Z" fill="#403430"/>
<path d="M64.1625 18.6221C64.1625 18.7285 64.1625 18.8349 64.2689 18.9413L63.9497 19.0477C63.9497 19.0477 63.9497 19.0477 63.8433 19.1541L63.7369 19.2605C63.7369 19.1541 63.6305 18.9413 63.6305 18.8349C63.6305 18.7285 63.7369 18.7285 63.7369 18.7285L64.1625 18.6221Z" fill="#403430"/>
<path d="M68.0996 23.0898C68.206 23.0898 68.3124 23.1963 68.4188 23.1963L68.3124 23.5155C68.3124 23.5155 68.3124 23.6219 68.4188 23.8347C68.3124 23.8347 68.0996 23.7283 67.9932 23.7283C67.9932 23.6219 67.9932 23.5155 67.9932 23.5155L68.0996 23.0898Z" fill="#403430"/>
<path d="M69.1637 23.3018C69.2701 23.3018 69.3765 23.3018 69.4829 23.3018V23.621C69.4829 23.621 69.5893 23.7274 69.5893 23.9402C69.4829 23.9402 69.2701 23.9402 69.1637 23.9402C69.1637 23.8338 69.0573 23.8338 69.0573 23.8338L69.1637 23.3018Z" fill="#403430"/>
<path d="M67.142 22.6641C67.2484 22.7705 67.3548 22.7705 67.4612 22.7705L67.3548 23.0897C67.3548 23.0897 67.3548 23.0897 67.3548 23.1961C67.3548 23.3025 67.3548 23.3025 67.3548 23.4089C67.2484 23.3025 67.0356 23.3025 66.9292 23.1961C66.9292 23.0897 66.9292 22.9833 66.9292 22.9833L67.142 22.6641Z" fill="#403430"/>
<path d="M66.2906 22.0264C66.397 22.1328 66.5035 22.1328 66.6099 22.2392L66.3971 22.452C66.3971 22.452 66.3971 22.5584 66.3971 22.7712C66.2906 22.6648 66.1842 22.5584 65.9714 22.5584C65.9714 22.452 65.9714 22.3456 65.9714 22.3456L66.2906 22.0264Z" fill="#403430"/>
<path d="M66.0779 12.1307C66.1843 12.2371 66.3971 12.2371 66.3971 12.2371L66.6099 12.45C66.7163 12.3435 66.8227 12.3436 66.9291 12.2371L66.7163 11.9179C66.7163 11.9179 66.7163 11.9179 66.6099 11.8115C66.2907 11.9179 66.1843 12.0243 66.0779 12.1307Z" fill="#403430"/>
<path d="M70.4405 11.1728V11.492C70.5469 11.492 70.6533 11.492 70.7597 11.492L70.8661 11.0664C70.8661 11.0664 70.8661 10.96 70.7597 10.96C70.6533 10.96 70.4405 10.96 70.3341 10.96C70.4405 10.96 70.4405 11.1728 70.4405 11.1728Z" fill="#403430"/>
<path d="M72.4622 11.9187C72.5686 11.9187 72.675 12.0251 72.7814 12.0251L72.9942 11.5994C72.9942 11.5994 72.9942 11.493 72.9942 11.3866C72.8878 11.2802 72.6749 11.2802 72.5685 11.1738C72.5685 11.2802 72.5685 11.2802 72.5685 11.3866C72.5685 11.493 72.5685 11.493 72.5685 11.493L72.4622 11.9187Z" fill="#403430"/>
<path d="M71.5046 11.2792L71.3982 11.5984C71.5046 11.5984 71.611 11.7048 71.7174 11.7048L71.8238 11.2792C71.8238 11.2792 71.8238 11.1728 71.8238 11.0664C71.7174 11.0664 71.5046 10.96 71.3982 10.96C71.5046 11.1728 71.5046 11.2792 71.5046 11.2792Z" fill="#403430"/>
<path d="M68.0995 11.1718C68.2059 11.1718 68.2059 11.2782 68.2059 11.2782L68.3123 11.3846L68.4187 11.7039C68.5251 11.7039 68.6315 11.5975 68.7379 11.5975L68.6315 11.1718C68.6315 11.1718 68.6315 11.1718 68.5251 11.0654C68.4187 11.0654 68.2059 11.0654 68.0995 11.1718Z" fill="#403430"/>
<path d="M65.2265 13.7264C65.1201 13.8328 65.1201 13.9393 65.0137 14.0457L64.8009 13.8329C64.8009 13.8329 64.6945 13.8329 64.4817 13.8329C64.5881 13.7264 64.6945 13.62 64.6945 13.4072C64.8009 13.4072 64.9073 13.4072 64.9073 13.4072L65.2265 13.7264Z" fill="#403430"/>
<path d="M64.2691 15.5361C64.2691 15.6425 64.1627 15.7489 64.1627 15.8553L63.8435 15.7489C63.8435 15.7489 63.7371 15.7489 63.5243 15.8553C63.5243 15.7489 63.6307 15.5361 63.6307 15.4297C63.7371 15.4297 63.8435 15.4297 63.8435 15.4297L64.2691 15.5361Z" fill="#403430"/>
<path d="M69.1637 10.8535C69.2701 10.9599 69.3765 11.0663 69.3765 11.0663V11.3855C69.4829 11.3855 69.5893 11.3855 69.6957 11.3855V10.9599C69.6957 10.9599 69.6957 10.8535 69.5893 10.8535C69.4829 10.8535 69.3765 10.8535 69.1637 10.8535Z" fill="#403430"/>
<path d="M67.0354 11.4921C67.1418 11.5985 67.2482 11.5985 67.2482 11.5985L67.3546 11.9177C67.461 11.9177 67.5674 11.8113 67.6738 11.8113L67.461 11.3857C67.461 11.3857 67.3546 11.3857 67.3546 11.2793C67.2482 11.3857 67.1418 11.4921 67.0354 11.4921Z" fill="#403430"/>
<path d="M64.6945 14.579C64.5881 14.6854 64.5881 14.7918 64.5881 14.8982L64.2689 14.7918C64.2689 14.7918 64.2689 14.7918 64.1625 14.7918C64.1625 14.7918 64.0561 14.7918 63.9497 14.7918C64.0561 14.6854 64.0561 14.4726 64.1625 14.3662C64.2689 14.3662 64.3753 14.3662 64.3753 14.3662L64.6945 14.579Z" fill="#403430"/>
<path d="M64.0561 16.4922C64.0561 16.5986 64.0561 16.705 64.0561 16.8114H63.7369C63.7369 16.8114 63.6305 16.9178 63.4177 16.9178C63.4177 16.8114 63.4177 16.5986 63.4177 16.4922C63.5241 16.4922 63.5241 16.3857 63.5241 16.3857L64.0561 16.4922Z" fill="#403430"/>
<path d="M73.3135 12.45C73.4199 12.5564 73.5263 12.5564 73.6327 12.6628L73.8455 12.3436C73.8455 12.3436 73.8455 12.2372 73.8455 12.1308C73.7391 12.0244 73.6327 11.918 73.4199 11.918C73.4199 12.0244 73.4199 12.2372 73.4199 12.2372L73.3135 12.45Z" fill="#403430"/>
<path d="M65.9714 12.9813C65.865 13.0877 65.7586 13.0877 65.7586 13.1941L65.5458 12.9813C65.5458 12.9813 65.4394 12.9813 65.2266 12.8749C65.333 12.7685 65.4394 12.6621 65.5458 12.5557C65.6522 12.5557 65.7586 12.5557 65.7586 12.5557L65.9714 12.9813Z" fill="#403430"/>
<path d="M74.1647 13.0877C74.2711 13.1941 74.3775 13.3005 74.3775 13.3005L74.6967 12.9812C74.6967 12.9812 74.6967 12.8748 74.6967 12.7684C74.5903 12.662 74.4839 12.5556 74.3775 12.4492C74.3775 12.5556 74.2711 12.7684 74.2711 12.7684L74.1647 13.0877Z" fill="#403430"/>
<path opacity="0.1" d="M74.1647 13.0877C74.2711 13.1941 74.3775 13.3005 74.3775 13.3005L74.6967 12.9812C74.6967 12.9812 74.6967 12.8748 74.6967 12.7684C74.5903 12.662 74.4839 12.5556 74.3775 12.4492C74.3775 12.5556 74.2711 12.7684 74.2711 12.7684L74.1647 13.0877Z" fill="#1D1D1B"/>
<path d="M65.0139 17.3439C65.0139 20.1104 67.2484 22.2385 69.9085 22.2385C72.6751 22.2385 74.8032 20.004 74.8032 17.3439C74.8032 14.5773 72.5687 12.4492 69.9085 12.4492C67.2484 12.4492 65.0139 14.6837 65.0139 17.3439Z" fill="#FDFDFD"/>
<path d="M65.8652 17.3442C65.8652 19.5787 67.6741 21.3876 69.9086 21.3876C72.1431 21.3876 73.9521 19.5787 73.9521 17.3442C73.9521 15.1097 72.1431 13.3008 69.9086 13.3008C67.6741 13.3008 65.8652 15.1097 65.8652 17.3442Z" fill="#403430"/>
<path d="M69.6958 18.0899L70.2278 16.7066L65.9716 15.5361L65.6523 16.4938L69.6958 18.0899Z" fill="#474343"/>
<path d="M70.547 17.7692L69.3765 16.918L67.0356 20.6422L67.7805 21.1742L70.547 17.7692Z" fill="#474343"/>
<path d="M70.5471 16.918L69.3766 17.7692L72.1431 21.1742L72.888 20.6422L70.5471 16.918Z" fill="#474343"/>
<path d="M69.6958 16.7066L70.2278 18.0899L74.2712 16.4938L73.952 15.5361L69.6958 16.7066Z" fill="#474343"/>
<path d="M69.2701 17.3451H70.6534L70.4406 12.9824H69.4829L69.2701 17.3451Z" fill="#474343"/>
<path d="M68.5253 17.3432C68.5253 18.1944 69.1637 18.8329 70.0149 18.8329C70.8662 18.8329 71.5046 18.1944 71.5046 17.3432C71.5046 16.492 70.8662 15.8535 70.0149 15.8535C69.1637 15.8535 68.5253 16.5984 68.5253 17.3432Z" fill="#FDFDFD"/>
<path d="M10.6407 17.5569C10.6407 17.6634 10.6407 17.7698 10.6407 17.8762H10.3214C10.3214 17.8762 10.215 17.9826 10.1086 18.089C10.1086 18.3018 10.2151 18.5146 10.2151 18.621V18.7274C10.2151 18.7274 10.2151 18.7274 10.2151 18.621C10.3215 18.5146 10.3214 18.5146 10.3214 18.5146L10.7471 18.4082C10.7471 18.5146 10.7471 18.621 10.8535 18.7274L10.6407 18.8338C10.6407 18.8338 10.6407 18.8338 10.5343 18.9402L10.4278 19.0466C10.5343 19.2594 10.5343 19.4722 10.6407 19.6851C10.6407 19.6851 10.6407 19.6851 10.6407 19.5787C10.7471 19.4722 10.7471 19.4722 10.7471 19.4722L11.1727 19.2594C11.1727 19.3658 11.2791 19.4722 11.2791 19.5787L10.9599 19.6851C10.9599 19.6851 10.8535 19.7915 10.8535 19.8979C10.9599 20.1107 11.0663 20.3235 11.1727 20.5363C11.1727 20.5363 11.1727 20.5363 11.1727 20.4299C11.1727 20.3235 11.2791 20.3235 11.2791 20.3235L11.5983 20.1107C11.7047 20.2171 11.7047 20.3235 11.8111 20.4299L11.5983 20.6427C11.5983 20.6427 11.4919 20.7491 11.4919 20.9619C11.5983 21.1747 11.8111 21.2811 11.9175 21.494V21.3875C11.9175 21.2811 11.9175 21.1747 11.9175 21.1747L12.2368 20.8555C12.3432 20.9619 12.3431 21.0683 12.4495 21.0683L12.2368 21.2811C12.2368 21.2811 12.2367 21.3875 12.1303 21.6004C12.3432 21.7068 12.4496 21.9196 12.6624 22.026V21.9196C12.6624 21.8132 12.6624 21.7068 12.6624 21.7068L12.8752 21.3875C12.9816 21.494 13.088 21.494 13.1944 21.6004L12.9816 21.8132C12.9816 21.8132 12.9816 21.9196 12.9816 22.1324C13.1944 22.2388 13.4072 22.3452 13.62 22.4516V22.3452C13.62 22.2388 13.62 22.1324 13.62 22.1324L13.8328 21.7068C13.9392 21.8132 14.0456 21.8132 14.152 21.8132L14.0456 22.1324C14.0456 22.1324 14.0456 22.1324 14.0456 22.2388C14.0456 22.3452 14.0456 22.3452 14.0456 22.4516C14.2584 22.558 14.4713 22.6644 14.6841 22.6644V22.558C14.6841 22.4516 14.6841 22.3452 14.6841 22.3452L14.7905 21.9196C14.8969 21.9196 15.0033 22.026 15.1097 22.026L15.0033 22.3452C15.0033 22.3452 15.0033 22.4516 15.1097 22.6644C15.3225 22.6644 15.5353 22.7708 15.7481 22.7708C15.7481 22.7708 15.7481 22.7708 15.7481 22.6644C15.7481 22.558 15.6417 22.558 15.6417 22.558L15.7481 22.1324C15.8545 22.1324 15.961 22.1324 16.0674 22.1324V22.4516C16.0674 22.4516 16.1737 22.558 16.1737 22.7708C16.1737 22.7708 16.2802 22.7708 16.3866 22.7708C16.5994 22.7708 16.7058 22.7708 16.9186 22.7708C16.9186 22.7708 16.9186 22.7708 16.9186 22.6644C16.8122 22.558 16.8122 22.558 16.8122 22.558V22.1324C16.9186 22.1324 17.025 22.1324 17.1314 22.1324V22.4516C17.1314 22.4516 17.2378 22.558 17.3442 22.6644C17.557 22.6644 17.7698 22.558 17.9826 22.558C17.9826 22.558 17.9826 22.558 17.8762 22.4516C17.7698 22.3452 17.7698 22.3452 17.7698 22.3452L17.6634 21.9196C17.7698 21.9196 17.8762 21.9196 17.9826 21.8132L18.0891 22.1324C18.0891 22.1324 18.0891 22.1324 18.1955 22.2388L18.3019 22.3452C18.5147 22.2388 18.7275 22.2388 18.9403 22.1324C18.9403 22.1324 18.9403 22.1324 18.8339 22.1324C18.7275 22.026 18.7275 22.026 18.7275 22.026L18.5147 21.6004C18.6211 21.6004 18.7275 21.494 18.8339 21.494L18.9403 21.8132C18.9403 21.8132 19.0467 21.9196 19.1531 21.9196C19.3659 21.8132 19.5787 21.7068 19.7916 21.6004C19.7916 21.6004 19.7915 21.6004 19.6851 21.6004C19.5787 21.6004 19.5787 21.494 19.5787 21.494L19.3659 21.1747C19.4723 21.0683 19.5787 21.0683 19.6851 20.9619L19.8979 21.1747C19.8979 21.1747 20.0044 21.2811 20.2172 21.2811C20.3236 21.1747 20.43 21.0683 20.5364 20.9619C20.6428 20.8555 20.6428 20.8555 20.7492 20.7491C20.7492 20.7491 20.7492 20.7491 20.6428 20.7491C20.5364 20.7491 20.43 20.7491 20.43 20.7491L20.1108 20.4299C20.2172 20.3235 20.3236 20.3235 20.3236 20.2171L20.5364 20.4299C20.5364 20.4299 20.6428 20.4299 20.8556 20.5363C20.962 20.3235 21.1748 20.2171 21.2812 20.0043H21.1748C21.0684 20.0043 20.962 20.0043 20.962 20.0043L20.6428 19.7915C20.7492 19.6851 20.7492 19.5787 20.8556 19.4722L21.0684 19.6851C21.0684 19.6851 21.1748 19.6851 21.3876 19.6851C21.494 19.4722 21.6004 19.2594 21.7068 19.0466H21.6004C21.494 19.0466 21.3876 19.0466 21.3876 19.0466L20.962 18.8338C21.0684 18.7274 21.0684 18.621 21.0684 18.5146L21.3876 18.621C21.3876 18.621 21.3876 18.621 21.494 18.621C21.6004 18.621 21.6004 18.621 21.7068 18.621C21.8132 18.4082 21.9197 18.1954 21.9197 17.9826H21.8133C21.7068 17.9826 21.6004 17.9826 21.6004 17.9826L21.1748 17.8762C21.1748 17.7698 21.2812 17.6634 21.2812 17.5569L21.6004 17.6634C21.6004 17.6634 21.7069 17.6634 21.9197 17.5569C21.9197 17.3441 22.026 17.1313 22.026 16.9185C22.026 16.9185 22.0261 16.9185 21.9197 16.9185C21.8133 16.9185 21.8133 17.0249 21.8133 17.0249L21.3876 16.9185C21.3876 16.8121 21.3876 16.7057 21.3876 16.5993H21.7068C21.7068 16.5993 21.8132 16.4929 22.026 16.4929C22.026 16.4929 22.026 16.3865 22.026 16.2801C22.026 16.0673 22.026 15.9609 22.026 15.7481C22.026 15.7481 22.0261 15.7481 21.9197 15.7481C21.8133 15.8545 21.8133 15.8545 21.8133 15.8545H21.3876C21.3876 15.7481 21.3876 15.6416 21.3876 15.5352H21.7068C21.7068 15.5352 21.8133 15.4288 21.9197 15.3224C21.9197 15.1096 21.8133 14.8968 21.8133 14.684C21.8133 14.684 21.8132 14.684 21.7068 14.7904C21.6004 14.8968 21.6004 14.8968 21.6004 14.8968L21.1748 15.0032C21.1748 14.8968 21.1748 14.7904 21.0684 14.684L21.3876 14.5776C21.3876 14.5776 21.3876 14.5776 21.494 14.4712L21.6004 14.3648C21.494 14.152 21.494 13.9392 21.3876 13.7263C21.3876 13.7263 21.3876 13.7263 21.3876 13.8328C21.2812 13.9392 21.2812 13.9392 21.2812 13.9392L20.8556 14.152C20.8556 14.0456 20.7492 13.9392 20.7492 13.8328L21.0684 13.7263C21.0684 13.7263 21.1748 13.6199 21.1748 13.5135C21.0684 13.3007 20.962 13.0879 20.8556 12.8751C20.8556 12.8751 20.8556 12.8751 20.8556 12.9815C20.8556 13.0879 20.8556 13.0879 20.8556 13.0879L20.5364 13.3007C20.43 13.1943 20.43 13.0879 20.3236 12.9815L20.5364 12.7687C20.5364 12.7687 20.6428 12.6623 20.6428 12.4495C20.5364 12.2367 20.3236 12.1303 20.2172 11.9175C20.2172 12.0239 20.2172 12.1303 20.2172 12.1303L19.8979 12.4495C19.7915 12.3431 19.7915 12.2367 19.6851 12.2367L19.8979 12.0239C19.8979 12.0239 19.8979 11.9175 20.0043 11.7046C19.7915 11.5982 19.6851 11.3854 19.4723 11.279V11.3854C19.4723 11.4918 19.4723 11.5982 19.4723 11.5982L19.2595 11.9175C19.1531 11.811 19.0467 11.811 18.9403 11.7046L19.1531 11.4918C19.1531 11.4918 19.1531 11.3854 19.1531 11.1726C18.9403 11.0662 18.7275 10.9598 18.5147 10.8534V10.9598C18.5147 11.0662 18.5147 11.1726 18.5147 11.1726L18.3019 11.5982C18.1954 11.4918 18.0891 11.4918 17.9826 11.4918L18.0891 11.1726C18.0891 11.1726 18.0891 11.1726 18.0891 11.0662C18.0891 11.0662 18.0891 10.9598 18.0891 10.8534C17.8762 10.747 17.6634 10.6406 17.4506 10.6406V10.747C17.4506 10.8534 17.4506 10.9598 17.4506 10.9598L17.3442 11.3854C17.2378 11.3854 17.1314 11.279 17.025 11.279L17.1314 10.9598C17.1314 10.9598 17.1314 10.8534 17.025 10.6406C16.8122 10.6406 16.5994 10.5342 16.3866 10.5342C16.3866 10.5342 16.3866 10.5342 16.3866 10.6406C16.3866 10.747 16.493 10.747 16.493 10.747L16.3866 11.1726C16.2802 11.1726 16.1738 11.1726 16.0674 11.1726V10.8534C16.0674 10.8534 15.9609 10.747 15.9609 10.5342C15.9609 10.5342 15.8545 10.5342 15.7481 10.5342C15.5353 10.5342 15.4289 10.5342 15.2161 10.5342C15.2161 10.5342 15.2161 10.5342 15.2161 10.6406C15.3225 10.747 15.3225 10.747 15.3225 10.747V11.1726C15.2161 11.1726 15.1097 11.1726 15.0033 11.1726V10.8534C15.0033 10.8534 14.8969 10.747 14.7905 10.6406C14.5777 10.6406 14.3649 10.747 14.152 10.747C14.152 10.747 14.152 10.747 14.2585 10.8534C14.3649 10.9598 14.3649 10.9598 14.3649 10.9598L14.4713 11.3854C14.3649 11.3854 14.2584 11.3854 14.152 11.4918L14.0456 11.1726C14.0456 11.1726 14.0457 11.1726 13.9392 11.0662L13.8328 10.9598C13.62 11.0662 13.4072 11.0662 13.1944 11.1726C13.1944 11.1726 13.1944 11.1726 13.3008 11.1726C13.4072 11.279 13.4072 11.279 13.4072 11.279L13.5136 11.7046C13.4072 11.7046 13.3008 11.811 13.1944 11.811L13.088 11.4918C13.088 11.4918 12.9816 11.3854 12.8752 11.3854C12.6624 11.4918 12.4496 11.5982 12.2368 11.7046C12.2368 11.7046 12.2368 11.7046 12.3432 11.7046C12.4496 11.7046 12.4495 11.811 12.4495 11.811L12.6624 12.1303C12.556 12.2367 12.4496 12.2367 12.3432 12.3431L12.1303 12.1303C12.1303 12.1303 12.0239 12.0239 11.8111 12.0239C11.5983 12.1303 11.4919 12.2367 11.3855 12.4495C11.3855 12.4495 11.3855 12.4495 11.4919 12.4495C11.5983 12.4495 11.7047 12.4495 11.7047 12.4495L12.0239 12.7687C11.9175 12.8751 11.8111 12.8751 11.8111 12.9815L11.5983 12.7687C11.5983 12.7687 11.4919 12.7687 11.2791 12.6623C11.1727 12.8751 10.9599 12.9815 10.8535 13.1943H10.9599C11.0663 13.1943 11.1727 13.1943 11.1727 13.1943L11.4919 13.4071C11.3855 13.5135 11.3855 13.6199 11.2791 13.7263L11.0663 13.5135C11.0663 13.5135 10.9599 13.5135 10.7471 13.5135C10.6407 13.7263 10.5343 13.9392 10.4278 14.152H10.5343C10.6407 14.152 10.7471 14.152 10.7471 14.152L11.1727 14.3648C11.0663 14.4712 11.0663 14.5776 11.0663 14.684L10.7471 14.5776C10.7471 14.5776 10.7471 14.5776 10.6407 14.5776C10.6407 14.5776 10.5343 14.5776 10.4278 14.5776C10.3214 14.7904 10.2151 15.0032 10.2151 15.216C10.2151 15.216 10.215 15.216 10.3214 15.216C10.4278 15.216 10.5343 15.216 10.5343 15.216L10.9599 15.3224C10.9599 15.4288 10.8535 15.5352 10.8535 15.6416L10.5343 15.5352C10.5343 15.5352 10.4279 15.5352 10.2151 15.6416C10.2151 15.8545 10.1086 16.0673 10.1086 16.2801C10.1086 16.2801 10.1086 16.2801 10.2151 16.2801C10.3215 16.2801 10.3214 16.1737 10.3214 16.1737L10.7471 16.2801C10.7471 16.3865 10.7471 16.4929 10.7471 16.5993H10.4278C10.4278 16.5993 10.3215 16.7057 10.1086 16.7057C10.1086 16.7057 10.1086 16.8121 10.1086 16.9185C10.1086 17.1313 10.1086 17.2377 10.1086 17.4505C10.1086 17.4505 10.1086 17.4505 10.2151 17.4505C10.3215 17.3441 10.3214 17.3441 10.3214 17.3441L10.6407 17.5569Z" fill="#1D1715"/>
<path d="M21.4939 13.9403C21.6003 14.0467 21.6003 14.1531 21.7067 14.2595L22.0259 14.0467C22.0259 14.0467 22.0259 14.0467 22.0259 13.9403C21.9195 13.8339 21.8131 13.7275 21.8131 13.5146C21.7067 13.6211 21.7067 13.8339 21.7067 13.8339L21.4939 13.9403Z" fill="#403430"/>
<path d="M11.3855 17.2369C11.4919 14.364 13.8328 12.0231 16.7058 12.1295C19.5787 12.2359 21.9197 14.5768 21.8133 17.4497C21.7069 20.3227 19.3659 22.6636 16.493 22.5572C13.62 22.5572 11.3855 20.1099 11.3855 17.2369Z" fill="#403430"/>
<path d="M10.8536 17.2365C10.96 14.0443 13.6201 11.4906 16.8123 11.597C20.0044 11.7034 22.5582 14.3635 22.4518 17.5557C22.3454 20.7478 19.6852 23.3016 16.4931 23.1952C13.3009 23.0888 10.7471 20.4286 10.8536 17.2365ZM10.96 17.2365C10.8536 20.4286 13.4073 23.0888 16.5995 23.0888C19.7916 23.1952 22.4518 20.6414 22.4518 17.4493C22.5582 14.2571 20.0044 11.597 16.8123 11.597C13.6201 11.597 10.96 14.0443 10.96 17.2365Z" fill="#403430"/>
<path d="M20.6427 21.8143L20.9619 22.1336C20.9619 22.1336 21.0683 22.1336 21.1747 22.1336C21.2811 22.0271 21.3875 21.9207 21.4939 21.8143C21.3875 21.8143 21.1747 21.7079 21.1747 21.7079L20.9619 21.4951C20.8555 21.7079 20.7491 21.7079 20.6427 21.8143Z" fill="#403430"/>
<path d="M21.3876 21.0682L21.7068 21.281C21.7068 21.281 21.8132 21.281 21.9196 21.281C22.026 21.1746 22.1324 21.0682 22.1324 20.8554C22.026 20.8554 21.8132 20.8554 21.8132 20.8554L21.6004 20.6426C21.494 20.8554 21.3876 20.9618 21.3876 21.0682Z" fill="#403430"/>
<path d="M18.8339 22.8769C18.9403 22.8769 19.0467 22.7705 19.1531 22.7705L19.2595 23.0897C19.2595 23.0897 19.3659 23.1961 19.4723 23.1961C19.3659 23.3025 19.1531 23.3025 19.0467 23.4089C18.9403 23.3025 18.9403 23.3025 18.9403 23.3025L18.8339 22.8769Z" fill="#403430"/>
<path d="M20.0043 22.7713L19.7915 22.4521C19.8979 22.3457 20.0043 22.3457 20.1107 22.2393L20.3235 22.4521C20.3235 22.4521 20.4299 22.5585 20.6427 22.5585C20.5363 22.6649 20.4299 22.7713 20.2171 22.7713C20.1107 22.8777 20.0043 22.7713 20.0043 22.7713Z" fill="#403430"/>
<path d="M21.9197 20.2177L22.3453 20.4305C22.3453 20.4305 22.4517 20.4305 22.5581 20.4305C22.6645 20.3241 22.6645 20.1113 22.7709 20.0048C22.6645 20.0048 22.6645 20.0048 22.5581 20.0048C22.4517 20.0048 22.4517 20.0048 22.4517 20.0048L22.1325 19.8984C22.0261 20.0048 21.9197 20.1113 21.9197 20.2177Z" fill="#403430"/>
<path d="M22.558 16.8114C22.558 16.9179 22.558 17.0243 22.558 17.1307H22.9836C22.9836 17.1307 23.09 17.1307 23.09 17.0243C23.09 16.9179 23.09 16.705 23.09 16.5986C22.9836 16.705 22.8772 16.8114 22.8772 16.8114H22.558Z" fill="#403430"/>
<path d="M17.8763 23.1972C17.9827 23.1972 18.0892 23.1972 18.1956 23.0908L18.302 23.41C18.302 23.41 18.302 23.41 18.4084 23.5164L18.5148 23.6228C18.4084 23.6228 18.1956 23.7293 18.0892 23.7293C17.9828 23.6229 17.9828 23.6228 17.9828 23.6228L17.8763 23.1972Z" fill="#403430"/>
<path d="M22.3453 19.2596L22.771 19.366C22.771 19.366 22.8774 19.366 22.9838 19.366C22.9838 19.2596 23.0902 19.0468 23.0902 18.9404C22.9838 19.0468 22.771 19.0468 22.771 19.0468L22.4517 18.9404C22.3453 19.0468 22.3453 19.1532 22.3453 19.2596Z" fill="#403430"/>
<path d="M22.4518 15.8534C22.4518 15.9598 22.5582 16.0662 22.5582 16.1726L22.9838 16.0662C22.9838 16.0662 22.9838 16.0662 23.0902 15.9598C23.0902 15.8534 22.9838 15.6406 22.9838 15.5342C22.9838 15.6406 22.8774 15.6406 22.8774 15.6406L22.771 15.747L22.4518 15.8534Z" fill="#403430"/>
<path d="M22.026 14.7899C22.026 14.8963 22.1324 15.0027 22.1324 15.1091L22.558 14.8963C22.558 14.8963 22.558 14.7899 22.6644 14.7899C22.558 14.6835 22.5581 14.4707 22.4516 14.3643C22.3452 14.4707 22.3452 14.5771 22.3452 14.5771L22.026 14.7899Z" fill="#403430"/>
<path d="M22.5582 18.1961L22.9838 18.3025C22.9838 18.3025 23.0902 18.3025 23.0902 18.1961C23.0902 18.0897 23.0902 17.8769 23.0902 17.7705C22.9838 17.8769 22.771 17.8769 22.771 17.8769H22.4518C22.5582 17.9833 22.5582 18.0897 22.5582 18.1961Z" fill="#403430"/>
<path d="M11.2792 20.7499L11.5984 20.5371C11.7048 20.6435 11.7048 20.7499 11.8113 20.8563L11.5984 21.0691C11.5984 21.0691 11.492 21.1755 11.492 21.3884C11.3856 21.2819 11.2792 21.1755 11.2792 20.9627C11.1728 20.7499 11.2792 20.7499 11.2792 20.7499Z" fill="#403430"/>
<path d="M11.0663 19.5791C11.0663 19.6855 11.1727 19.7919 11.1727 19.8983L10.8535 20.0047C10.8535 20.0047 10.7471 20.1111 10.7471 20.2175C10.6407 20.1111 10.6407 19.8983 10.5343 19.7919C10.6407 19.6855 10.6407 19.6855 10.6407 19.6855L11.0663 19.5791Z" fill="#403430"/>
<path d="M16.8121 23.3027C16.9185 23.3027 17.025 23.3027 17.1314 23.3027V23.622C17.1314 23.622 17.2378 23.7284 17.3442 23.8348C17.2378 23.8348 17.025 23.8348 16.9185 23.8348C16.8121 23.7284 16.8121 23.7284 16.8121 23.7284V23.3027Z" fill="#403430"/>
<path d="M12.2369 21.3867C12.3433 21.4931 12.3433 21.5995 12.4497 21.5995L12.2369 21.8123C12.2369 21.8123 12.2369 21.9187 12.1305 22.1316C12.0241 22.0252 11.9177 21.9187 11.8113 21.8123C11.8113 21.7059 11.8113 21.5995 11.8113 21.5995L12.2369 21.3867Z" fill="#403430"/>
<path d="M10.3216 17.5566H10.7472C10.7472 17.663 10.7472 17.7695 10.7472 17.8759H10.428C10.428 17.8759 10.3216 17.9823 10.2152 18.0887C10.2152 17.9823 10.2152 17.7695 10.2152 17.663L10.3216 17.5566Z" fill="#403430"/>
<path d="M10.8534 18.6201C10.8534 18.7265 10.8534 18.8329 10.9599 18.9393L10.6406 19.0457C10.6406 19.0457 10.6406 19.0457 10.5342 19.1521L10.4278 19.2585C10.4278 19.1521 10.3214 18.9393 10.3214 18.8329C10.4278 18.7265 10.4278 18.7265 10.4278 18.7265L10.8534 18.6201Z" fill="#403430"/>
<path d="M14.7905 23.0908C14.8969 23.0908 15.0033 23.1972 15.1097 23.1972L15.0033 23.5164C15.0033 23.5164 15.0033 23.6228 15.1097 23.8357C15.0033 23.8357 14.7905 23.7293 14.6841 23.7293C14.6841 23.6229 14.6841 23.5164 14.6841 23.5164L14.7905 23.0908Z" fill="#403430"/>
<path d="M15.8546 23.3027C15.961 23.3027 16.0674 23.3027 16.1738 23.3027V23.622C16.1738 23.622 16.2802 23.7284 16.2802 23.9412C16.1738 23.9412 15.961 23.9412 15.8546 23.9412C15.8546 23.8348 15.7482 23.8348 15.7482 23.8348L15.8546 23.3027Z" fill="#403430"/>
<path d="M13.8329 22.665C13.9393 22.7714 14.0457 22.7714 14.1521 22.7714L14.0457 23.0907C14.0457 23.0907 14.0457 23.0907 14.0457 23.1971C14.0457 23.3035 14.0457 23.3035 14.0457 23.4099C13.9393 23.3035 13.7265 23.3035 13.6201 23.1971C13.6201 23.0907 13.6201 22.9843 13.6201 22.9843L13.8329 22.665Z" fill="#403430"/>
<path d="M12.9816 22.0264C13.088 22.1328 13.1944 22.1328 13.3008 22.2392L13.088 22.452C13.088 22.452 13.088 22.5584 13.088 22.7712C12.9816 22.6648 12.8752 22.5584 12.6624 22.5584C12.6624 22.452 12.6624 22.3456 12.6624 22.3456L12.9816 22.0264Z" fill="#403430"/>
<path d="M12.7688 12.1298C12.8752 12.2362 13.088 12.2362 13.088 12.2362L13.3008 12.449C13.4072 12.3426 13.5136 12.3426 13.62 12.2362L13.4072 11.917C13.4072 11.917 13.4072 11.917 13.3008 11.8105C12.9816 11.917 12.8752 12.0234 12.7688 12.1298Z" fill="#403430"/>
<path d="M17.1314 11.1728V11.492C17.2378 11.492 17.3442 11.492 17.4506 11.492L17.5571 11.0664C17.5571 11.0664 17.557 10.96 17.4506 10.96C17.3442 10.96 17.1314 10.96 17.025 10.96C17.1314 10.96 17.1314 11.1728 17.1314 11.1728Z" fill="#403430"/>
<path d="M19.1531 11.9167C19.2595 11.9167 19.3659 12.0231 19.4723 12.0231L19.6851 11.5975C19.6851 11.5975 19.6851 11.4911 19.6851 11.3847C19.5787 11.2783 19.3659 11.2783 19.2595 11.1719C19.2595 11.2783 19.2595 11.2783 19.2595 11.3847C19.2595 11.4911 19.2595 11.4911 19.2595 11.4911L19.1531 11.9167Z" fill="#403430"/>
<path d="M18.1955 11.2792L18.0891 11.5984C18.1955 11.5984 18.3019 11.7048 18.4083 11.7048L18.5147 11.2792C18.5147 11.2792 18.5147 11.1728 18.5147 11.0664C18.4083 11.0664 18.1955 10.96 18.0891 10.96C18.1955 11.1728 18.1955 11.2792 18.1955 11.2792Z" fill="#403430"/>
<path d="M14.7905 11.1728C14.8969 11.1728 14.8969 11.2792 14.8969 11.2792L15.0034 11.3856L15.1097 11.7048C15.2161 11.7048 15.3226 11.5984 15.429 11.5984L15.3226 11.1728C15.3226 11.1728 15.3225 11.1728 15.2161 11.0664C15.1097 11.0664 14.8969 11.0664 14.7905 11.1728Z" fill="#403430"/>
<path d="M11.9175 13.7255C11.8111 13.8319 11.8112 13.9383 11.7048 14.0447L11.4919 13.8319C11.4919 13.8319 11.3855 13.8319 11.1727 13.8319C11.2791 13.7255 11.3855 13.6191 11.3855 13.4062C11.4919 13.4062 11.5983 13.4062 11.5983 13.4062L11.9175 13.7255Z" fill="#403430"/>
<path d="M10.9599 15.5351C10.9599 15.6415 10.8535 15.7479 10.8535 15.8543L10.5343 15.7479C10.5343 15.7479 10.4279 15.7479 10.2151 15.8543C10.2151 15.7479 10.3215 15.5351 10.3215 15.4287C10.4279 15.4287 10.5343 15.4287 10.5343 15.4287L10.9599 15.5351Z" fill="#403430"/>
<path d="M15.8545 10.8545C15.9609 10.9609 16.0673 11.0673 16.0673 11.0673V11.3865C16.1737 11.3865 16.2801 11.3865 16.3865 11.3865V10.9609C16.3865 10.9609 16.3865 10.8545 16.2801 10.8545C16.1737 10.8545 16.0673 10.8545 15.8545 10.8545Z" fill="#403430"/>
<path d="M13.7263 11.4911C13.8327 11.5975 13.9391 11.5975 13.9391 11.5975L14.0455 11.9168C14.1519 11.9168 14.2584 11.8103 14.3648 11.8103L14.2583 11.3847C14.2583 11.3847 14.1519 11.3847 14.1519 11.2783C13.9391 11.3847 13.8327 11.4911 13.7263 11.4911Z" fill="#403430"/>
<path d="M11.3854 14.5771C11.279 14.6835 11.2791 14.7899 11.2791 14.8963L10.9598 14.7899C10.9598 14.7899 10.9598 14.7899 10.8534 14.7899C10.8534 14.7899 10.747 14.7899 10.6406 14.7899C10.747 14.6835 10.747 14.4707 10.8534 14.3643C10.9598 14.3643 11.0662 14.3643 11.0662 14.3643L11.3854 14.5771Z" fill="#403430"/>
<path d="M10.7471 16.4931C10.7471 16.5995 10.7471 16.7059 10.7471 16.8123H10.4278C10.4278 16.8123 10.3215 16.9187 10.1086 16.9187C10.1086 16.8123 10.1086 16.5995 10.1086 16.4931C10.215 16.4931 10.2151 16.3867 10.2151 16.3867L10.7471 16.4931Z" fill="#403430"/>
<path d="M20.0044 12.45C20.1108 12.5564 20.2172 12.5564 20.3236 12.6628L20.5364 12.3436C20.5364 12.3436 20.5364 12.2372 20.5364 12.1308C20.43 12.0244 20.3236 11.918 20.1108 11.918C20.1108 12.0244 20.1108 12.2372 20.1108 12.2372L20.0044 12.45Z" fill="#403430"/>
<path d="M12.6623 12.9823C12.5559 13.0887 12.4495 13.0887 12.4495 13.1951L12.2367 12.9823C12.2367 12.9823 12.1303 12.9823 11.9175 12.8759C12.0239 12.7695 12.1303 12.663 12.2367 12.5566C12.3431 12.5566 12.4495 12.5566 12.4495 12.5566L12.6623 12.9823Z" fill="#403430"/>
<path d="M20.8557 13.0886C20.9621 13.195 21.0685 13.3014 21.0685 13.3014L21.3877 12.9822C21.3877 12.9822 21.3877 12.8758 21.3877 12.7694C21.2813 12.663 21.1749 12.5566 21.0685 12.4502C21.0685 12.5566 20.9621 12.7694 20.9621 12.7694L20.8557 13.0886Z" fill="#403430"/>
<path opacity="0.1" d="M20.8557 13.0886C20.9621 13.195 21.0685 13.3014 21.0685 13.3014L21.3877 12.9822C21.3877 12.9822 21.3877 12.8758 21.3877 12.7694C21.2813 12.663 21.1749 12.5566 21.0685 12.4502C21.0685 12.5566 20.9621 12.7694 20.9621 12.7694L20.8557 13.0886Z" fill="#1D1D1B"/>
<path d="M11.7047 17.3458C11.7047 20.1124 13.9392 22.2405 16.5994 22.2405C19.3659 22.2405 21.494 20.006 21.494 17.3458C21.494 14.5793 19.2595 12.4512 16.5994 12.4512C13.9392 12.4512 11.7047 14.6857 11.7047 17.3458Z" fill="#FDFDFD"/>
<path d="M12.556 17.3442C12.556 19.5787 14.3649 21.3876 16.5995 21.3876C18.834 21.3876 20.6429 19.5787 20.6429 17.3442C20.6429 15.1097 18.834 13.3008 16.5995 13.3008C14.3649 13.3008 12.556 15.1097 12.556 17.3442Z" fill="#403430"/>
<path d="M16.3867 18.0899L16.9187 16.7066L12.6625 15.5361L12.3433 16.4938L16.3867 18.0899Z" fill="#474343"/>
<path d="M17.2379 17.7692L16.0675 16.918L13.7266 20.6422L14.4714 21.1742L17.2379 17.7692Z" fill="#474343"/>
<path d="M17.2379 16.918L16.0675 17.7692L18.834 21.1742L19.5789 20.6422L17.2379 16.918Z" fill="#474343"/>
<path d="M16.3867 16.7066L16.9187 18.0899L20.9621 16.4938L20.6429 15.5361L16.3867 16.7066Z" fill="#474343"/>
<path d="M15.9611 17.3441H17.3443L17.1315 12.9814H16.1739L15.9611 17.3441Z" fill="#474343"/>
<path d="M15.2162 17.3442C15.2162 18.1954 15.8546 18.8338 16.7059 18.8338C17.5571 18.8338 18.1956 18.1954 18.1956 17.3442C18.1956 16.4929 17.5571 15.8545 16.7059 15.8545C15.8546 15.8545 15.2162 16.5993 15.2162 17.3442Z" fill="#FDFDFD"/>
<g opacity="0.15">
<path d="M35.7524 2.7666L38.9446 6.91642L43.2008 7.12923L39.9023 2.7666H35.7524Z" fill="#FFE66A"/>
<path d="M40.4343 2.7666L43.7329 7.23564H45.2226L41.8176 2.7666H40.4343Z" fill="#FFE66A"/>
</g>
</svg>
