<svg width="93" height="30" viewBox="0 0 93 30" fill="none" xmlns="http://www.w3.org/2000/svg">
<path opacity="0.1" d="M46.4993 29.2619C71.5337 29.2619 91.8281 28.7855 91.8281 28.1978C91.8281 27.6102 71.5337 27.1338 46.4993 27.1338C21.4649 27.1338 1.17053 27.6102 1.17053 28.1978C1.17053 28.7855 21.4649 29.2619 46.4993 29.2619Z" fill="#1D1D1B"/>
<path d="M1.59623 16.8129H1.80906C2.02187 16.8129 2.23467 16.4937 2.23467 16.0681L2.55388 13.5143C2.55388 13.0887 2.44748 12.6631 2.23467 12.6631H2.12826C1.91545 12.6631 1.80905 12.9823 1.70265 13.3015L1.38344 15.7488C1.17063 16.2809 1.38342 16.8129 1.59623 16.8129Z" fill="#E94E1B"/>
<path d="M90.232 17.451L90.9768 17.3446C91.4024 17.3446 91.7216 16.9189 91.6152 16.3869L91.1896 12.8755C91.0832 12.3435 90.764 11.9179 90.232 11.8115L89.7 11.7051L90.232 17.451Z" fill="#474343"/>
<path d="M89.9126 17.5574H90.9767L90.3382 11.5986H89.0614L89.9126 17.5574Z" fill="#FFE66A"/>
<path d="M90.232 21.7068H91.4024C91.7217 21.7068 91.9345 21.494 92.0409 21.1748L92.3601 19.2595C92.3601 18.9403 92.1473 18.6211 91.7217 18.6211H90.1256L89.8064 21.1748C89.7 21.494 89.9128 21.7068 90.232 21.7068Z" fill="#474343"/>
<path d="M5.32019 22.1323L11.0661 22.7708L12.343 22.8772H12.9814L14.3647 22.9836H81.4002L81.9322 22.8772L85.55 22.4516L87.8909 22.1323C89.2742 21.9195 90.3382 20.8555 90.551 19.4722L89.8062 12.1302C89.6998 11.811 89.5934 11.4918 89.487 11.279C88.7421 10.0021 87.2525 10.0021 85.7628 9.89571L67.5674 8.40603C67.1418 8.40603 66.8226 8.29961 66.397 8.19321C66.2906 8.19321 66.2906 8.19324 66.1842 8.08683C65.6522 7.87402 65.1201 7.66119 64.5881 7.23557L56.0757 0.63844C55.5436 0.212818 54.7988 0 54.054 0H23.9412C22.6643 0 21.3874 0.212818 20.217 0.63844C19.3657 0.851251 18.6209 1.17045 17.8761 1.48967C17.6633 1.59608 17.4504 1.70247 17.2376 1.80888C17.0248 1.91528 16.812 2.02171 16.5992 2.12811C12.0237 4.14982 8.51238 6.59715 6.17145 8.61886C6.06505 8.72526 5.95862 8.83166 5.85222 8.93806C5.74581 9.04447 5.63942 9.15086 5.53301 9.25727C3.4049 11.1726 2.34085 12.6622 2.34085 13.0879L1.91523 17.8761C1.3832 20.0042 3.08567 22.0259 5.32019 22.1323Z" fill="#474343"/>
<path d="M53.9477 0.958008C54.4797 0.958008 55.0117 1.17082 55.4374 1.49004L63.9498 8.08719C64.269 8.40641 64.6947 8.6192 65.1203 8.83201L66.2907 13.5139L65.1203 22.2391H42.3495L43.2007 13.1946L42.3495 1.06442H53.9477V0.958008Z" fill="#FFE66A"/>
<path d="M43.307 1.80762H53.9476C54.2668 1.80762 54.586 1.91404 54.9052 2.12685L63.4177 8.72398C63.5241 8.72398 63.5241 8.83039 63.6305 8.83039H43.839L43.307 1.80762Z" fill="#7A7A7A"/>
<path d="M43.0942 1.5957H53.9476C54.3732 1.5957 54.7989 1.7021 55.1181 2.02132L63.6305 8.61848C63.6305 8.61848 63.7369 8.61845 63.7369 8.72486L64.4818 9.25688H43.5199L43.0942 1.5957ZM54.7988 2.34052C54.586 2.12771 54.2668 2.02132 53.9476 2.02132H43.6263L44.0519 8.51206H62.8857L54.7988 2.34052Z" fill="#FFE66A"/>
<path d="M26.2821 2.23489C26.8142 1.49005 27.7718 0.958008 28.7294 0.958008H41.4981L42.3494 13.0882L41.4981 22.1327H28.091C27.7718 18.4085 25.218 14.8971 21.7067 13.8331V9.78966C21.7067 9.15122 21.9195 8.4064 22.3451 7.87437L26.2821 2.23489Z" fill="#FFE66A"/>
<path d="M27.0271 2.76529C27.4528 2.12686 28.0912 1.80762 28.836 1.80762H40.8599L41.3919 8.83039H22.8773L27.0271 2.76529Z" fill="#7A7A7A"/>
<path d="M22.2388 9.1505L26.8142 2.65976C27.2399 2.02133 27.9847 1.5957 28.8359 1.5957H41.0726L41.6046 9.25688L22.2388 9.1505ZM28.8359 2.12773C28.1975 2.12773 27.6655 2.44693 27.2398 2.97896L23.3028 8.61848H40.9662L40.5405 2.12773H28.8359Z" fill="#FFE66A"/>
<path d="M5.63965 8.93879H12.9816C13.7265 8.93879 14.4713 8.61956 15.0033 8.19394L20.7492 3.1929C21.2812 2.76727 20.962 1.91602 20.2172 1.91602H17.025C16.8122 2.02242 16.5994 2.12885 16.3866 2.23525C11.8111 4.25696 8.29977 6.70426 5.95885 8.72597C5.85245 8.72597 5.74605 8.83238 5.63965 8.93879Z" fill="#7A7A7A"/>
<path d="M5.32031 9.15051H12.9815C13.8328 9.15051 14.5776 8.83127 15.216 8.29924L20.9619 3.2982C21.2812 2.97898 21.3876 2.55336 21.2811 2.23414C21.1747 1.80852 20.7491 1.5957 20.3235 1.5957H17.7698C17.557 1.70211 17.3441 1.8085 17.1313 1.91491C16.9185 2.02131 16.7057 2.12774 16.4929 2.23414H20.3235C20.5363 2.23414 20.7491 2.34054 20.7491 2.55335C20.7491 2.65975 20.7491 2.87256 20.6427 3.08537L14.8968 8.08645C14.3648 8.51207 13.7264 8.83127 12.9815 8.83127V9.15051V8.83127H5.95875C5.85235 8.93767 5.74595 9.0441 5.63955 9.15051C5.53314 8.93769 5.42672 9.0441 5.32031 9.15051Z" fill="#FFE66A"/>
<path d="M48.2017 10.1084H44.3711V11.2789H48.2017V10.1084Z" fill="#474343"/>
<path d="M26.6015 10.1084H22.7709V11.2789H26.6015V10.1084Z" fill="#474343"/>
<path d="M1.70265 17.7686V18.3006H4.04359C5.21405 18.3006 6.1717 19.2582 6.1717 20.4287L1.17062 20.2159C0.638595 20.2159 0.106567 19.7903 0.106567 19.1518C0.106567 19.0454 0.106567 18.939 0.106567 18.8326C0.212973 18.1942 0.638602 17.7686 1.27704 17.7686H1.70265Z" fill="#474343"/>
<path d="M88.1037 21.1741H91.1895C91.4023 21.1741 91.7215 20.9613 91.7215 20.7485L91.9343 19.8972C92.0407 19.578 91.7215 19.2588 91.4022 19.2588H88.3165C88.1037 19.2588 87.7845 19.4716 87.7845 19.6844L87.5717 20.5356C87.4653 20.8549 87.6781 21.1741 88.1037 21.1741Z" fill="#474343"/>
<path d="M60.2257 9.25624L62.0346 10.0011L62.141 9.14986L60.6513 7.66016L60.2257 9.25624Z" fill="#474343"/>
<path d="M59.6936 6.49023H59.8001C60.2257 6.59664 60.6513 6.91584 60.7577 7.34147L60.9705 8.29911C61.1833 9.25676 60.4385 10.2144 59.3744 10.108H59.1616L59.6936 6.49023Z" fill="#474343"/>
<path d="M70.3342 23.0894H81.4004L81.9324 22.983L85.5502 22.5574L85.231 20.6421C85.0182 19.1524 83.9541 17.8755 82.6773 17.2371C82.0388 16.9179 81.294 16.7051 80.4428 16.7051H75.8673C74.8033 16.7051 73.8456 17.0243 73.1008 17.5563C71.9303 18.3012 71.0791 19.578 70.7598 21.0677L70.3342 23.0894Z" fill="#403430"/>
<g opacity="0.75">
<path d="M50.5427 2.44824L55.5438 8.40696H51.6068L46.6057 2.44824H50.5427Z" fill="#FFE66A"/>
<path d="M52.3516 2.44824L57.2462 8.40696H55.9694L51.0747 2.44824H52.3516Z" fill="#FFE66A"/>
</g>
<g opacity="0.75">
<path d="M33.3051 2.44824L38.3061 8.40696H34.3691L29.368 2.44824H33.3051Z" fill="#FFE66A"/>
<path d="M35.1139 2.44824L40.0085 8.40696H38.7317L33.837 2.44824H35.1139Z" fill="#FFE66A"/>
</g>
<path d="M10.9598 22.7701L12.2367 22.8766H12.8751L14.2584 22.983H26.0694L25.7502 20.5356C25.5374 19.0459 24.4733 17.7691 23.1965 17.1307C22.558 16.8114 21.8132 16.5986 20.962 16.5986H16.3865C15.3224 16.5986 14.3648 16.9178 13.62 17.4499C12.4495 18.1947 11.5983 19.4716 11.279 20.9612L10.9598 22.7701Z" fill="#403430"/>
<path opacity="0.1" d="M0 18.833C0 18.9394 0 19.0458 0 19.1522C0 19.6842 0.532028 20.2163 1.06406 20.2163L2.23452 20.3227C2.87296 21.3867 3.93701 22.0251 5.32028 22.1316L12.2366 22.8764H12.8751L14.2583 22.9828H81.2938L87.7846 22.1316C88.5294 22.0251 89.1679 21.7059 89.6999 21.0675H89.8063C89.8063 21.3867 90.0191 21.5995 90.2319 21.5995H91.4024C91.7216 21.5995 91.9344 21.3867 92.0408 21.0675L92.36 19.1522C92.36 18.833 92.1472 18.5138 91.7216 18.5138H90.4447V18.0882L1.7025 13.5127L1.38329 15.7472C1.27689 16.2792 1.48968 16.7049 1.7025 16.7049H1.91532L1.80891 17.6625H1.38329C0.638453 17.7689 0.106406 18.3009 0 18.833ZM1.59608 18.3009C1.70249 18.3009 1.70249 18.3009 1.59608 18.3009V18.3009Z" fill="#1D1D1B"/>
<path d="M73.7391 21.7074C73.7391 24.0483 75.6544 25.8572 77.8889 25.8572C80.2299 25.8572 82.0388 23.9419 82.0388 21.7074C82.0388 19.3665 80.1235 17.5576 77.8889 17.5576C75.548 17.5576 73.7391 19.4729 73.7391 21.7074Z" fill="#474343"/>
<path d="M71.2917 21.8126C71.2917 22.2382 71.2918 22.6638 71.3982 23.0894C71.9302 26.1752 74.6967 28.4097 77.8889 28.4097C81.0811 28.4097 83.7412 26.0688 84.3797 23.0894C84.4861 22.6638 84.486 22.2382 84.486 21.8126C84.486 20.0037 83.7412 18.4076 82.5707 17.2371C81.9323 16.9179 81.1875 16.7051 80.3362 16.7051H75.7608C74.6967 16.7051 73.7391 17.0243 72.9942 17.5563C71.9302 18.6204 71.2917 20.1101 71.2917 21.8126ZM77.8889 25.856C76.08 25.856 74.5903 24.6855 74.0583 23.0894C73.9519 22.6638 73.8455 22.2382 73.8455 21.8126C73.8455 19.578 75.6544 17.7691 77.8889 17.7691C80.1234 17.7691 81.9323 19.578 81.9323 21.8126C81.9323 22.2382 81.8259 22.6638 81.7195 23.0894C81.2939 24.5791 79.6978 25.7496 77.8889 25.856Z" fill="#1D1715"/>
<path d="M74.8032 21.7068C74.8032 23.4093 76.1865 24.7926 77.889 24.7926C79.5915 24.7926 80.9747 23.4093 80.9747 21.7068C80.9747 20.0044 79.5915 18.6211 77.889 18.6211C76.1865 18.7275 74.8032 20.1108 74.8032 21.7068Z" fill="#FFE66A"/>
<path d="M77.8889 23.5153C78.8879 23.5153 79.6977 22.7054 79.6977 21.7064C79.6977 20.7073 78.8879 19.8975 77.8889 19.8975C76.8898 19.8975 76.08 20.7073 76.08 21.7064C76.08 22.7054 76.8898 23.5153 77.8889 23.5153Z" fill="#474343"/>
<path opacity="0.5" d="M79.4849 18.4072C80.1233 18.7264 80.6553 19.2585 81.081 19.7905L77.8888 21.7058L79.4849 18.4072Z" fill="#FFE66A"/>
<path opacity="0.5" d="M77.8888 21.7051L76.2927 25.0037C75.6543 24.6844 75.1223 24.1524 74.6967 23.6204L77.8888 21.7051Z" fill="#FFE66A"/>
<path d="M14.3647 21.7074C14.3647 24.0483 16.28 25.8572 18.5146 25.8572C20.8555 25.8572 22.6644 23.9419 22.6644 21.7074C22.6644 19.3665 20.7491 17.5576 18.5146 17.5576C16.1736 17.5576 14.3647 19.4729 14.3647 21.7074Z" fill="#474343"/>
<path d="M11.9174 21.8126C11.9174 22.2382 11.9174 22.6638 12.0238 23.0894C12.5558 26.1752 15.3223 28.4097 18.5145 28.4097C21.7067 28.4097 24.3668 26.0688 25.0052 23.0894C25.1116 22.6638 25.1116 22.2382 25.1116 21.8126C25.1116 20.0037 24.3668 18.4076 23.1964 17.2371C22.5579 16.9179 21.8131 16.7051 20.9618 16.7051H16.3864C15.3223 16.7051 14.3647 17.0243 13.6199 17.5563C12.5558 18.6204 11.9174 20.1101 11.9174 21.8126ZM18.5145 25.856C16.7056 25.856 15.2159 24.6855 14.6839 23.0894C14.5775 22.6638 14.4711 22.2382 14.4711 21.8126C14.4711 19.578 16.28 17.7691 18.5145 17.7691C20.749 17.7691 22.5579 19.578 22.5579 21.8126C22.5579 22.2382 22.4515 22.6638 22.3451 23.0894C21.8131 24.5791 20.3234 25.7496 18.5145 25.856Z" fill="#1D1715"/>
<path d="M15.4288 21.7068C15.4288 23.4093 16.8121 24.7926 18.5146 24.7926C20.2171 24.7926 21.6004 23.4093 21.6004 21.7068C21.6004 20.0044 20.2171 18.6211 18.5146 18.6211C16.8121 18.7275 15.4288 20.1108 15.4288 21.7068Z" fill="#FFE66A"/>
<path d="M18.5144 23.5153C19.5135 23.5153 20.3233 22.7054 20.3233 21.7064C20.3233 20.7073 19.5135 19.8975 18.5144 19.8975C17.5154 19.8975 16.7056 20.7073 16.7056 21.7064C16.7056 22.7054 17.5154 23.5153 18.5144 23.5153Z" fill="#474343"/>
<path opacity="0.5" d="M20.1105 18.4072C20.7489 18.7264 21.2809 19.2585 21.7066 19.7905L18.5144 21.7058L20.1105 18.4072Z" fill="#FFE66A"/>
<path opacity="0.5" d="M18.5144 21.7051L16.9183 25.0037C16.2799 24.6844 15.7479 24.1524 15.3223 23.6204L18.5144 21.7051Z" fill="#FFE66A"/>
<path d="M66.2908 8.30078L66.3972 8.7264C66.61 9.68405 67.4612 10.4289 68.5253 10.4289L89.4872 11.3865C88.7423 10.1097 87.2527 10.1097 85.763 10.0033L67.5676 8.51361C67.0356 8.51361 66.7164 8.40719 66.2908 8.30078Z" fill="#FFE66A"/>
</svg>
