<svg width="55" height="28" viewBox="0 0 55 28" fill="none" xmlns="http://www.w3.org/2000/svg">
<path d="M0.638395 17.5569C0.638395 18.621 0.74482 19.5786 0.957631 20.4299C0.957631 20.6427 1.06404 20.7491 1.06404 20.9619C1.06404 21.0683 1.17042 21.1747 1.17042 21.3875C1.48964 22.2388 1.80887 22.7708 2.4473 22.9836H2.55371H2.66013C3.51137 22.9836 9.78927 22.9836 17.6633 22.9836C23.7284 22.9836 30.8576 22.9836 37.0291 22.9836H38.0932C42.9878 22.9836 47.2441 22.9836 50.0106 22.9836H51.9259C51.9259 22.9836 51.9259 22.9836 52.0323 22.9836C52.1387 22.9836 52.1387 22.9836 52.2451 22.9836C52.3515 22.9836 52.4579 22.8772 52.5643 22.8772C52.5643 22.8772 52.6707 22.8772 52.6707 22.7708C52.6707 22.7708 52.7771 22.7708 52.7771 22.6644C52.8835 22.6644 52.9899 22.558 52.9899 22.4516C52.9899 22.4516 52.99 22.4516 53.0964 22.4516L53.2028 22.3452L53.3092 22.2388C53.4156 22.1324 53.522 22.026 53.6284 21.9195C53.6284 21.9195 53.6284 21.9195 53.6284 21.8131C53.6284 21.7067 53.7348 21.7067 53.7348 21.6003L53.8412 21.4939C53.8412 21.4939 53.8412 21.3875 53.9476 21.3875C53.9476 21.2811 54.054 21.2811 54.054 21.1747C54.054 21.0683 54.1604 21.0683 54.1604 20.9619C54.1604 20.9619 54.1604 20.9619 54.1604 20.8555V20.7491C54.1604 20.6427 54.2668 20.6427 54.2668 20.5363V20.4299C54.4796 19.685 54.586 18.7274 54.4796 17.5569C54.3732 16.8121 54.2668 15.8544 54.054 14.7904C53.7348 13.5135 52.5643 11.811 52.0323 11.3854C46.3928 5.7459 33.8369 1.9153 30.964 1.38327C30.6448 1.27687 30.2192 1.27687 29.6871 1.17046C25.0053 0.532028 12.5558 -0.638433 8.93805 0.532028C8.40602 0.744839 7.76758 0.957651 7.23555 1.27687L6.91635 0.638434L7.66117 0.532028L7.55476 0.425622C7.34195 0.212811 7.12915 0.106406 6.80994 0.106406L5.10744 0C4.68182 0 4.36259 0.106405 4.36259 0.319216V0.74484C4.36259 0.957651 4.68182 1.06406 5.10744 0.95765H5.32027L5.42665 2.76654C3.19213 4.78825 1.48967 7.76761 1.06404 10.5342C0.744826 12.343 0.531989 15.1096 0.638395 17.5569Z" fill="#474343"/>
<path d="M53.309 16.7054C53.4154 16.8118 53.5218 16.9182 53.6282 16.8118C53.7346 16.8118 53.841 16.7054 53.841 16.599C53.841 15.6413 53.5218 14.1517 52.9898 13.194C52.6705 12.662 52.1385 12.3428 51.5001 12.3428C51.2873 12.3428 50.968 12.3428 50.7552 12.4492C50.5424 12.4492 50.436 12.662 50.436 12.8748C50.436 13.0876 50.436 13.194 50.6488 13.3004C51.7129 14.0453 52.5641 15.3221 53.309 16.7054Z" fill="#FFE66A"/>
<path d="M46.7119 8.51177C46.8183 8.61818 46.9247 8.72458 46.8183 8.83099C46.8183 8.93739 46.6055 9.0438 46.4991 9.0438H37.2418C36.9226 9.0438 36.6033 8.83099 36.3905 8.51177L33.3048 3.61712C33.1984 3.51071 33.1984 3.2979 33.3048 3.19149C33.4112 3.08509 33.5176 2.97869 33.7304 3.08509C37.4546 4.04274 42.7749 5.85163 46.7119 8.51177Z" fill="#7A7A7A"/>
<path d="M33.092 3.83045L36.1778 8.7251C36.2842 8.83151 36.2842 8.93791 36.3906 9.04432C36.6034 9.25713 36.9226 9.36354 37.2419 9.36354H46.4991C46.7119 9.36354 47.0311 9.15073 47.0311 8.93792C47.1376 8.7251 47.0312 8.40589 46.8184 8.29948C41.9237 5.10731 35.5393 3.29842 33.7305 2.8728C33.5176 2.76639 33.1984 2.8728 33.092 3.08561C32.9856 3.29842 32.9856 3.61763 33.092 3.83045ZM46.6055 9.04432V8.7251H38.0931H37.3482C37.1354 8.7251 36.8162 8.6187 36.7098 8.40589L36.6034 8.29948L33.624 3.51123V3.40483C33.624 3.40483 33.624 3.40483 33.7305 3.40483C35.5393 3.83045 41.9237 5.53294 46.7119 8.7251L46.6055 9.04432Z" fill="#FFE66A"/>
<path d="M3.61782 9.15156C3.405 9.15156 3.19219 9.04515 3.08579 8.83234C2.97938 8.61953 2.87297 8.40672 2.97938 8.19391C4.04343 5.21455 6.49077 2.66082 9.04451 1.59676C10.0022 1.27755 14.3648 1.27755 16.8121 1.38395C17.1313 1.38395 17.4505 1.70317 17.4505 2.02238V8.40672C17.4505 8.83234 17.1313 9.04515 16.7057 9.04515L3.61782 9.15156Z" fill="#7A7A7A"/>
<path d="M2.7665 8.93847C2.97931 9.15128 3.29855 9.36409 3.61777 9.36409H16.7056C17.2377 9.36409 17.6633 8.93847 17.6633 8.40644V2.0221C17.6633 1.49007 17.2377 1.06445 16.7056 1.06445H16.0672C15.216 1.06445 14.2583 1.06445 13.3007 1.06445C10.7469 1.06445 9.36366 1.17086 8.83163 1.38367C6.2779 2.34132 3.72417 5.10786 2.55371 8.08722C2.55371 8.40644 2.55369 8.72565 2.7665 8.93847ZM3.19215 8.30003C4.1498 5.63989 6.27791 3.29897 8.51243 2.23491C8.72524 2.12851 8.93803 2.0221 9.15084 1.9157C9.57646 1.70289 11.0661 1.70289 13.4071 1.70289C14.3647 1.70289 15.3224 1.70289 16.1736 1.70289H16.8121C17.0249 1.70289 17.2377 1.9157 17.2377 2.12851V8.51284C17.2377 8.72565 17.0249 8.93847 16.8121 8.93847H9.15084H3.72418C3.61777 8.93847 3.40494 8.83206 3.40494 8.72565C3.19213 8.51284 3.08575 8.40644 3.19215 8.30003Z" fill="#FFE66A"/>
<path d="M1.27688 12.5548C1.17047 13.7253 0.957666 15.747 1.38329 15.747C1.80891 15.747 2.97937 13.6189 2.97937 12.4484C2.97937 11.2779 2.34094 11.3844 1.91532 11.3844C1.48969 11.3844 1.38328 11.4908 1.27688 12.5548Z" fill="#FFE66A"/>
<path d="M21.8131 21.7071H33.4113C34.369 21.7071 35.0074 20.9623 35.0074 20.111V8.83203H18.9402V18.8342C18.9402 20.4302 20.2171 21.7071 21.8131 21.7071Z" fill="#FFE66A"/>
<path d="M30.3257 2.34242C30.6449 2.34242 30.8577 2.55523 31.0705 2.87445L34.6883 8.62034C34.7947 8.72675 34.7947 8.83316 34.6883 8.93956C34.5819 9.04597 34.4755 9.15237 34.3691 9.15237H29.4744H19.6851C19.3659 9.15237 19.1531 8.93956 19.1531 8.62034V2.12961C19.1531 1.91679 19.2595 1.81039 19.3659 1.59758C19.4723 1.49117 19.6851 1.38477 19.8979 1.38477C23.9413 1.59758 28.4104 2.0232 30.3257 2.34242Z" fill="#7A7A7A"/>
<path d="M18.8337 2.0221V8.51284C18.8337 8.61925 18.8337 8.72565 18.9402 8.83206C19.0466 9.15127 19.3658 9.36409 19.685 9.36409H34.2625C34.4754 9.36409 34.6882 9.25768 34.7946 9.04487C34.7946 8.93846 34.901 8.93846 34.901 8.83206C34.901 8.72565 34.901 8.51284 34.7946 8.40644L31.1768 2.66054C30.964 2.34132 30.6448 2.12851 30.2191 2.0221C30.0063 2.0221 29.8999 2.0221 29.6871 1.9157C27.6654 1.59648 23.7284 1.27726 19.7914 1.06445C19.4722 1.06445 19.2594 1.17086 19.153 1.27727C18.9402 1.49008 18.8337 1.80929 18.8337 2.0221ZM34.369 8.72565C34.369 8.83206 34.369 8.83206 34.369 8.72565H19.685C19.4722 8.72565 19.3658 8.61925 19.3658 8.40644V1.9157C19.3658 1.80929 19.3658 1.70289 19.4722 1.59648C19.5786 1.49008 19.685 1.49007 19.7914 1.49007C20.217 1.49007 20.6426 1.49008 20.9619 1.59648C24.8989 1.80929 28.6231 2.23491 30.2191 2.44772C30.432 2.44772 30.6448 2.66053 30.7512 2.76694L34.369 8.72565Z" fill="#FFE66A"/>
<path d="M52.9899 19.6853H53.5219C53.7347 19.6853 54.0539 19.4725 54.0539 19.1533L54.1603 18.6213C54.2667 18.3021 54.0539 18.0892 53.8411 18.1956L53.3091 18.3021C53.0963 18.3021 52.8834 18.5149 52.777 18.8341L52.6707 19.3661C52.6707 19.4725 52.777 19.6853 52.9899 19.6853Z" fill="#FFE66A"/>
<path d="M0.63855 17.5576C0.63855 18.6216 0.744975 19.5793 0.957786 20.4305C0.957786 20.6433 1.0642 20.7497 1.0642 20.9626C1.0642 21.069 1.17058 21.1754 1.17058 21.3882C1.48979 22.2394 1.91543 22.7714 2.44746 22.9843H2.55387H2.66028C3.51153 22.9843 9.78943 22.9843 17.6634 22.9843C23.7286 22.9843 30.8577 22.9843 37.0293 22.9843H38.0933C42.988 22.9843 47.2442 22.9843 50.0108 22.9843H51.926C51.926 22.9843 51.9261 22.9843 52.0325 22.9843C52.1389 22.9843 52.1388 22.9843 52.2453 22.9843C52.3517 22.9843 52.4581 22.8779 52.5645 22.8779C52.5645 22.8779 52.6709 22.8779 52.6709 22.7714C52.6709 22.7714 52.7773 22.7714 52.7773 22.665C52.8837 22.665 52.9901 22.5586 52.9901 22.4522C52.9901 22.4522 52.9901 22.4522 53.0965 22.4522L53.2029 22.3458L53.3093 22.2394C53.4157 22.133 53.5221 22.0266 53.6285 21.9202C53.6285 21.9202 53.6285 21.9202 53.6285 21.8138C53.6285 21.7074 53.735 21.7074 53.735 21.601L53.8413 21.4946C53.8413 21.4946 53.8413 21.3882 53.9477 21.3882C53.9477 21.2818 54.0542 21.2818 54.0542 21.1754C54.0542 21.069 54.1606 21.069 54.1606 20.9626C54.1606 20.9626 54.1606 20.9626 54.1606 20.8561V20.7497V20.6433C54.1606 20.6433 54.1606 20.5369 54.267 20.5369V20.4305C54.4798 19.6857 54.5862 18.728 54.4798 17.5576H53.3093C52.4581 17.5576 51.6068 18.196 51.5004 19.0473V19.1537C51.394 19.8985 50.7556 20.3241 50.0108 20.3241H4.78839C4.04355 20.3241 3.40512 19.7921 3.19231 19.1537C2.9795 18.196 2.02185 17.4512 1.0642 17.4512H0.63855V17.5576Z" fill="#FFE66A"/>
<path d="M19.4723 10.7459C19.4723 10.9587 20.1107 11.1716 20.962 11.1716C21.8132 11.1716 22.4516 10.9587 22.4516 10.7459C22.4516 10.5331 21.8132 10.3203 20.962 10.3203C20.1107 10.3203 19.4723 10.5331 19.4723 10.7459Z" fill="#474343"/>
<g opacity="0.5">
<path d="M20.6426 1.91602L25.0052 8.61957H29.7935L25.75 2.34164C24.1539 2.12883 22.3451 2.02242 20.6426 1.91602Z" fill="#FFE66A"/>
<path d="M26.2821 2.3418L30.2191 8.51332H31.7088L27.8782 2.4482C27.4526 2.4482 26.9205 2.4482 26.2821 2.3418Z" fill="#FFE66A"/>
</g>
<g opacity="0.5">
<path d="M35.1138 4.04395L38.0931 8.61938H42.8814L41.3917 6.27846C38.9444 5.108 36.7099 4.46957 35.1138 4.04395Z" fill="#FFE66A"/>
<path d="M42.1366 6.49219L43.4135 8.51389H44.9031L44.3711 7.66265C43.6263 7.23703 42.8814 6.91781 42.1366 6.49219Z" fill="#FFE66A"/>
</g>
<g opacity="0.5">
<path d="M6.17151 4.14764L9.04447 8.61668H13.8327L9.5765 2.01953C9.36369 2.01953 9.25726 2.12594 9.25726 2.12594C8.0868 2.44515 7.02275 3.18999 6.17151 4.14764Z" fill="#FFE66A"/>
<path d="M10.1085 1.91402L14.3647 8.51117H15.8544L11.5982 1.80762C10.9598 1.91402 10.4277 1.91402 10.1085 1.91402Z" fill="#FFE66A"/>
</g>
<path d="M36.7099 7.23527C36.7099 7.12887 36.9227 7.02246 37.0291 7.02246C37.774 7.44808 38.1996 8.72495 37.9868 9.78901C37.774 10.8531 37.0292 11.2787 36.1779 11.2787C36.0715 11.2787 35.9651 11.1723 35.9651 10.9595L36.7099 7.23527Z" fill="#FFE66A"/>
<path opacity="0.1" d="M54.5859 19.8983C54.5859 20.1111 54.4795 20.3239 54.4795 20.4303V20.5367C54.4795 20.6431 54.3731 20.7495 54.3731 20.8559C54.3731 20.8559 54.3731 20.856 54.3731 20.9624C54.3731 21.0688 54.2667 21.0688 54.2667 21.1752C54.2667 21.2816 54.1603 21.2816 54.1603 21.388C54.1603 21.388 54.1603 21.388 54.1603 21.4944C54.0539 21.6008 54.0539 21.7072 53.9475 21.8136C53.9475 21.8136 53.9475 21.8136 53.9475 21.92C53.8411 22.0264 53.7347 22.1328 53.6283 22.2392L53.5219 22.3456L53.4154 22.452C53.309 22.5584 53.2026 22.5584 53.0962 22.6648L52.9898 22.7713C52.9898 22.7713 52.8834 22.7712 52.8834 22.8777C52.777 22.8777 52.6706 22.9841 52.5642 22.9841C52.4578 22.9841 52.3514 22.9841 52.3514 22.9841H52.245C49.9041 22.9841 44.6902 22.9841 38.4123 22.9841C31.9215 22.9841 24.3667 22.9841 17.9824 22.9841C10.1084 22.9841 3.93687 22.9841 2.97922 22.9841H2.87281H2.76639C2.23437 22.8777 1.80876 22.3456 1.48955 21.388C1.48955 21.2816 1.38314 21.1752 1.38314 20.9624C1.38314 20.7495 1.27672 20.6431 1.27672 20.4303C1.06391 19.5791 1.06393 18.6214 0.95752 17.5574C0.95752 17.3446 0.95752 17.1318 0.95752 16.9189L54.5859 19.8983Z" fill="#1D1D1B"/>
<path d="M36.9226 22.8774H37.9867C42.8813 22.8774 47.1376 22.8774 49.9041 22.8774L49.4785 20.6429C49.4785 20.5365 49.4785 20.5365 49.4785 20.4301C48.9465 17.9828 47.0312 16.2803 44.6902 16.2803H42.0301C39.7956 16.2803 37.7739 17.9828 37.2418 20.4301C37.2418 20.5365 37.2418 20.5365 37.2418 20.6429L36.9226 22.8774Z" fill="#403430"/>
<path d="M39.9021 20.8561C39.9021 22.8778 41.4982 24.4739 43.5199 24.4739C45.5416 24.4739 47.1377 22.8778 47.1377 20.8561C47.1377 18.8344 45.5416 17.2383 43.5199 17.2383C41.4982 17.2383 39.9021 18.8344 39.9021 20.8561Z" fill="#474343"/>
<path d="M37.7739 20.8563C37.7739 23.9421 40.3276 26.4958 43.4134 26.4958C46.4992 26.4958 49.0529 23.9421 49.0529 20.8563C49.0529 17.7705 46.4992 15.2168 43.4134 15.2168C40.3276 15.2168 37.7739 17.7705 37.7739 20.8563ZM40.0084 20.8563C40.0084 18.941 41.4981 17.4513 43.4134 17.4513C45.3287 17.4513 46.8184 18.941 46.8184 20.8563C46.8184 22.7716 45.3287 24.2613 43.4134 24.2613C41.4981 24.2613 40.0084 22.7716 40.0084 20.8563Z" fill="#1D1715"/>
<path d="M40.8596 20.8573C40.8596 22.347 42.0301 23.4111 43.4133 23.4111C44.903 23.4111 45.9671 22.2406 45.9671 20.8573C45.9671 19.3676 44.7966 18.3036 43.4133 18.3036C42.0301 18.1972 40.8596 19.3676 40.8596 20.8573Z" fill="#FFE66A"/>
<path d="M41.8174 20.8568C41.8174 21.7081 42.5622 22.4529 43.4135 22.4529C44.2647 22.4529 45.0095 21.7081 45.0095 20.8568C45.0095 20.0056 44.2647 19.2607 43.4135 19.2607C42.5622 19.2607 41.8174 20.0056 41.8174 20.8568Z" fill="#474343"/>
<path opacity="0.5" d="M44.7967 17.9824C45.3287 18.1952 45.7544 18.6209 46.0736 19.1529L43.4135 20.749L44.7967 17.9824Z" fill="#FFE66A"/>
<path opacity="0.5" d="M43.4134 20.8574L42.0302 23.7304C41.4981 23.4112 40.9661 22.9855 40.7533 22.5599L43.4134 20.8574Z" fill="#FFE66A"/>
<path d="M3.08569 22.8774H4.14975C9.0444 22.8774 13.3006 22.8774 16.0672 22.8774L15.6415 20.6429C15.6415 20.5365 15.6415 20.5365 15.6415 20.4301C15.1095 17.9828 13.1942 16.2803 10.8533 16.2803H8.19315C5.95863 16.2803 3.93692 17.9828 3.4049 20.4301C3.4049 20.5365 3.4049 20.5365 3.4049 20.6429L3.08569 22.8774Z" fill="#403430"/>
<path d="M5.9585 20.8561C5.9585 22.8778 7.55461 24.4739 9.57631 24.4739C11.598 24.4739 13.1941 22.8778 13.1941 20.8561C13.1941 18.8344 11.598 17.2383 9.57631 17.2383C7.55461 17.2383 5.9585 18.8344 5.9585 20.8561Z" fill="#474343"/>
<path d="M3.93689 20.8563C3.93689 23.9421 6.49064 26.4958 9.5764 26.4958C12.6622 26.4958 15.2159 23.9421 15.2159 20.8563C15.2159 17.7705 12.6622 15.2168 9.5764 15.2168C6.49064 15.2168 3.93689 17.7705 3.93689 20.8563ZM6.065 20.8563C6.065 18.941 7.55469 17.4513 9.46999 17.4513C11.3853 17.4513 12.875 18.941 12.875 20.8563C12.875 22.7716 11.3853 24.2613 9.46999 24.2613C7.6611 24.2613 6.065 22.7716 6.065 20.8563Z" fill="#1D1715"/>
<path d="M6.91626 20.8573C6.91626 22.347 8.08671 23.4111 9.46999 23.4111C10.9597 23.4111 12.0237 22.2406 12.0237 20.8573C12.0237 19.3676 10.8533 18.3036 9.46999 18.3036C8.08671 18.1972 6.91626 19.3676 6.91626 20.8573Z" fill="#FFE66A"/>
<path d="M7.98035 20.8568C7.98035 21.7081 8.72519 22.4529 9.57643 22.4529C10.4277 22.4529 11.1725 21.7081 11.1725 20.8568C11.1725 20.0056 10.4277 19.2607 9.57643 19.2607C8.72519 19.2607 7.98035 20.0056 7.98035 20.8568Z" fill="#474343"/>
<path opacity="0.5" d="M10.8532 17.9824C11.3853 18.1952 11.8109 18.6209 12.1301 19.1529L9.46997 20.749L10.8532 17.9824Z" fill="#FFE66A"/>
<path opacity="0.5" d="M9.5764 20.8574L8.19311 23.7304C7.66108 23.4112 7.12907 22.9855 6.91626 22.5599L9.5764 20.8574Z" fill="#FFE66A"/>
<path opacity="0.1" d="M0 26.3884C0 26.814 12.0238 27.2396 26.9206 27.2396C41.8174 27.2396 53.8412 26.9204 53.8412 26.3884C53.8412 25.9627 41.8174 25.5371 26.9206 25.5371C12.0238 25.5371 0 25.9627 0 26.3884Z" fill="#1D1D1B"/>
</svg>
