<svg width="58" height="30" viewBox="0 0 58 30" fill="none" xmlns="http://www.w3.org/2000/svg">
<g clip-path="url(#clip0_315_4360)">
<path d="M48.7608 12.1035C43.9193 12.1035 39.9856 16.0372 39.9856 20.8787C39.9856 25.7202 43.9193 29.6539 48.7608 29.6539C53.6023 29.6539 57.536 25.7202 57.536 20.8787C57.536 16.0372 53.6023 12.1035 48.7608 12.1035ZM48.7608 27.4926C45.0865 27.4926 42.147 24.5099 42.147 20.8787C42.147 17.2476 45.1297 14.2649 48.7608 14.2649C52.3919 14.2649 55.3746 17.2476 55.3746 20.8787C55.3746 24.5099 52.4352 27.4926 48.7608 27.4926Z" fill="#333334"/>
<path d="M48.7608 13.6167C44.7406 13.6167 41.4985 16.8588 41.4985 20.8789C41.4985 24.8991 44.7406 28.098 48.7608 28.098C52.781 28.098 56.023 24.8559 56.023 20.8357C56.023 16.8155 52.781 13.6167 48.7608 13.6167ZM48.7608 27.4928C45.0864 27.4928 42.147 24.5101 42.147 20.8789C42.147 17.2478 45.1297 14.2651 48.7608 14.2651C52.3919 14.2651 55.3746 17.2478 55.3746 20.8789C55.3746 24.5101 52.4351 27.4928 48.7608 27.4928Z" fill="black"/>
<path d="M43.4437 15.4323C44.1353 16.0807 45.216 15.9942 45.8645 15.2594C48.0258 12.7522 52.5647 11.585 51.3111 11.2824C47.9826 10.3746 44.3083 11.2824 41.7146 13.8761L43.4437 15.4323Z" fill="#474343"/>
<path d="M9.12104 11.7148C4.10663 11.7148 0 15.8215 0 20.8791C0 25.9367 4.10663 30.0001 9.12104 30.0001C14.1787 30.0001 18.2421 25.8935 18.2421 20.8791C18.2421 15.8647 14.1787 11.7148 9.12104 11.7148ZM9.12104 26.8013C5.83573 26.8013 3.19885 24.1644 3.19885 20.8791C3.19885 17.5938 5.83573 14.9569 9.12104 14.9569C12.4063 14.9569 15.0432 17.5938 15.0432 20.8791C15.0432 24.1644 12.4063 26.8013 9.12104 26.8013Z" fill="#333334"/>
<path d="M9.121 13.6602C5.14405 13.6602 1.90198 16.9022 1.90198 20.8792C1.90198 24.8561 5.14405 28.0982 9.121 28.0982C13.0979 28.0982 16.34 24.8561 16.34 20.8792C16.34 16.9022 13.1412 13.6602 9.121 13.6602ZM9.121 26.8014C5.8357 26.8014 3.19881 24.1645 3.19881 20.8792C3.19881 17.5939 5.8357 14.957 9.121 14.957C12.4063 14.957 15.0432 17.5939 15.0432 20.8792C15.0432 24.1645 12.4063 26.8014 9.121 26.8014Z" fill="black"/>
<path d="M49.7056 24.8773C51.9135 24.3584 53.2827 22.1478 52.7638 19.9399C52.2449 17.732 50.0343 16.3628 47.8264 16.8817C45.6185 17.4006 44.2493 19.6112 44.7682 21.8191C45.2871 24.027 47.4977 25.3962 49.7056 24.8773Z" fill="#7C795C"/>
<path d="M46.1672 20.8788C46.1672 22.3053 47.3344 23.4725 48.7609 23.4725C50.1874 23.4725 51.3546 22.3053 51.3546 20.8788C51.3546 19.4523 50.1874 18.2852 48.7609 18.2852C47.3344 18.2852 46.1672 19.4091 46.1672 20.8788Z" fill="black"/>
<path d="M12.8617 22.6327C13.8279 20.5808 12.9478 18.1342 10.8959 17.168C8.84399 16.2018 6.39737 17.082 5.43119 19.1339C4.46501 21.1857 5.34514 23.6324 7.39703 24.5985C9.44891 25.5647 11.8955 24.6846 12.8617 22.6327Z" fill="#7C795C"/>
<path d="M40.2449 11.8444L47.5503 22.7378L49.3227 21.4842L42.0172 10.5908L40.2449 11.8444Z" fill="black"/>
<path d="M9.25076 23.4725H25.3747L28.9194 18.2852H9.25076C7.82425 18.2852 6.6571 19.4523 6.6571 20.8788C6.6571 22.3053 7.82425 23.4725 9.25076 23.4725Z" fill="black"/>
<path d="M10.9367 5.36028C14.0923 5.44674 17.6802 5.83579 21.0952 6.95971C21.4842 7.08939 21.7868 7.34875 21.9597 7.69458L22.5649 8.8185C22.9539 9.33723 23.5159 9.59659 24.1643 9.59659H27.6658L30.9943 5.2306C32.8099 3.15567 35.7061 2.33435 38.2998 3.15567L44.8271 5.66288L39.4669 18.6312C37.9972 22.2191 34.4957 24.5534 30.6485 24.5534H20.5764L21.5274 19.8848C17.2047 10.5908 14.1355 9.07786 7.69458 8.38622L9.03464 6.31129C9.46691 5.7061 10.1586 5.36028 10.9367 5.36028Z" fill="#474343"/>
<path d="M10.2018 7.95395L11.8444 6.26807H9.1211C9.1211 6.31129 9.07787 6.31129 9.07787 6.35452L8.04041 7.95395H10.2018Z" fill="#CF0000"/>
<path d="M21.5274 19.8846L20.5332 24.5532H30.6053C34.4957 24.5532 37.954 22.2189 39.4237 18.631L44.5246 6.13818C44.611 6.13818 16.513 11.3255 21.5274 19.8846Z" fill="#FFE66A"/>
<path d="M24.0778 9.63974C23.4726 9.63974 22.8674 9.33714 22.4784 8.86164L21.8732 7.73772C21.7003 7.3919 21.3977 7.13253 21.0086 7.00285C20.4467 6.82994 19.8847 6.65703 19.3228 6.52734V6.70025C19.4957 8.6455 20.6196 10.4178 22.3919 11.3256C24.0346 12.1902 26.023 11.7147 27.1037 10.2017L27.4928 9.63974H24.0778Z" fill="#333334"/>
<path d="M23.905 23.4725V20.1872C23.6889 15.4322 39.6399 12.4927 39.6399 12.4927L37.4785 17.8961C36.0952 21.2679 32.8531 23.4725 29.222 23.4725H23.905Z" fill="#333334"/>
<path d="M27.4495 16.9453C27.1469 17.1182 26.8875 17.2479 26.6282 17.4208V22.9107H27.4495V16.9453Z" fill="#333334"/>
<path d="M37.8241 15.5189L38.2132 14.5679H33.4581C32.0316 15.0001 30.6916 15.4757 29.438 15.9944V21.7004H29.0489V20.7062H28.8328V16.2537C28.5734 16.3834 28.3573 16.4699 28.0979 16.5996V22.9108H29.2218C32.1181 22.9108 34.7117 21.4411 36.2247 19.1068H35.4466V18.2422L36.8731 17.8532C36.8731 17.8099 36.9163 17.7667 36.9163 17.7235L37.1325 17.1615H35.4466L37.3054 16.686L37.5648 16.0376H35.4466L37.8241 15.5189Z" fill="#7C795C"/>
<path d="M24.7693 18.1987C24.2074 18.8039 23.9048 19.4956 23.9048 20.1872V23.4725H29.1786C32.68 23.4725 35.8356 21.3976 37.2621 18.1987H24.7693Z" fill="black"/>
<path d="M40.1585 10.6772L47.1182 8.94813C47.464 8.86167 47.7233 8.55908 47.6801 8.21326C47.464 4.75504 45.6484 2.29107 43.2277 0L38.6455 0.345821C38.17 0.389049 37.9971 0.951009 38.2997 1.2536L43.4438 6.0951C45.0432 8.08357 42.7089 9.42363 40.1585 10.6772Z" fill="#FFE66A"/>
<path d="M47.3775 6.31104H44.9136L45.9078 7.65109C46.2969 8.21305 46.9453 8.51565 47.6369 8.51565C47.6801 8.42919 47.6801 8.34274 47.6801 8.25628C47.6369 7.52141 47.5505 6.91622 47.3775 6.31104Z" fill="#FFD38D"/>
<path d="M43.2277 0L39.1643 0.302594L45.0433 5.48991L47.1614 5.6196C46.4266 3.45821 45 1.68588 43.2277 0Z" fill="#C4E0E5"/>
<path d="M45.4755 4.75498L41.196 0.172852L39.1643 0.345762L45.0433 5.53308L47.1614 5.66277C47.075 5.44663 46.9885 5.23049 46.9021 5.01435L45.4755 4.75498Z" fill="#A4C2BD"/>
<path d="M42.1038 7.99723C42.6291 7.99723 43.0548 7.57145 43.0548 7.04622C43.0548 6.521 42.6291 6.09521 42.1038 6.09521C41.5786 6.09521 41.1528 6.521 41.1528 7.04622C41.1528 7.57145 41.5786 7.99723 42.1038 7.99723Z" fill="#333334"/>
<path d="M24.7263 20.8787C24.7263 21.3975 25.1586 21.8298 25.6773 21.8298C26.1961 21.8298 26.6283 21.3975 26.6283 20.8787C26.6283 20.36 26.1961 19.9277 25.6773 19.9277C25.1586 19.9277 24.7263 20.3168 24.7263 20.8787Z" fill="#7C795C"/>
<path d="M30.4756 17.9829C30.4756 19.1933 31.4698 20.1875 32.6802 20.1875C33.8906 20.1875 34.8848 19.1933 34.8848 17.9829C34.8848 16.7726 33.8906 15.7783 32.6802 15.7783C31.4698 15.7783 30.4756 16.7726 30.4756 17.9829Z" fill="#B0B3A1"/>
<path d="M37.6513 2.72314H35.1008V3.11219H37.6513V2.72314Z" fill="#7C795C"/>
</g>
<defs>
<clipPath id="clip0_315_4360">
<rect width="57.536" height="30" fill="white"/>
</clipPath>
</defs>
</svg>
