<svg width="95" height="43" viewBox="0 0 95 43" fill="none" xmlns="http://www.w3.org/2000/svg">
<path d="M19.4723 11.8105H26.495H54.3733V12.7682H50.1171V16.5988H49.585V12.7682H43.7327V16.5988H43.2007V12.7682H37.3484V16.5988H36.8164V12.7682H30.9641V16.5988H30.432V12.7682H26.495H24.7925V16.5988H24.6861H24.2605H24.1541V12.7682H19.4723H18.3018V16.5988H17.7698V12.7682H11.9175V16.5988H11.3854V12.7682H7.34202C6.38437 12.7682 5.53313 13.6194 5.53313 14.5771V16.5988H5.0011V14.3643C5.0011 12.981 6.17156 11.8105 7.55483 11.8105H19.4723Z" fill="#474343"/>
<path d="M2.02173 18.3017V34.5818H88.8487L91.0832 33.837C91.6152 33.6241 92.0408 33.3049 92.2536 32.7729C92.36 32.5601 92.4665 32.2409 92.4665 31.9217V29.5807V28.6231V28.1975V27.2398V26.8142V25.8565V24.8989C92.4665 24.1541 92.2536 22.7708 91.9344 21.4939C91.6152 20.0042 90.3383 18.9402 88.8487 18.8338L75.8672 16.5993C75.6544 16.5993 75.548 16.4929 75.3352 16.3864C75.2288 16.28 75.1223 16.28 75.1223 16.1736C75.0159 16.0672 75.0159 16.0672 74.9095 15.9608C74.8031 15.748 74.8031 15.6416 74.6967 15.4288C74.4839 13.3007 73.6327 7.02277 73.6327 7.02277C73.4199 5.6395 73.3135 4.46904 73.1006 3.29858C73.1006 3.19217 73.1006 3.19216 72.9942 3.08575C72.9942 2.97935 72.9942 2.97934 72.8878 2.87293C72.3558 1.17044 71.0789 0 68.0996 0H57.7782C55.7565 0 54.1604 1.59608 54.1604 3.61778V16.28H3.93703C2.87297 16.3864 2.02173 17.2377 2.02173 18.3017Z" fill="#474343"/>
<path d="M3.93701 20.5371H40.0085C45.9672 20.5371 50.8619 25.4318 50.8619 31.3905V32.3481H3.93701V20.5371Z" fill="#FFE66A"/>
<path d="M92.4663 32.3477C92.4663 32.4541 92.3599 32.6669 92.3599 32.7733C92.1471 33.3053 91.7215 33.6245 91.1895 33.8373L88.9549 34.5822H2.02161V32.3477H92.4663Z" fill="#474343"/>
<path d="M2.12821 18.8343C0.957752 18.7279 1.06416 25.0059 2.12821 25.0059C2.23462 23.8354 2.23462 20.0048 2.12821 18.8343Z" fill="#FF4515"/>
<path d="M72.0366 33.3041V34.581H88.1039V33.3041C88.1039 28.8351 84.4861 25.2173 80.017 25.2173C75.6544 25.3237 72.0366 28.8351 72.0366 33.3041Z" fill="#474343"/>
<path d="M15.8544 33.3041V34.581H31.9216V33.3041C31.9216 28.8351 28.3038 25.2173 23.8348 25.2173C19.4722 25.3237 15.8544 28.8351 15.8544 33.3041Z" fill="#474343"/>
<path d="M72.7812 34.157V34.5826H87.3588V34.157C87.3588 34.0506 87.3588 33.8377 87.3588 33.7313C87.146 29.9007 83.9538 26.9214 80.1232 26.9214H80.0168C75.9734 26.9214 72.7812 30.1136 72.7812 34.157Z" fill="#3E312C"/>
<path d="M92.6794 19.4729C93.8498 19.3665 93.8498 24.3675 92.6794 24.3675C92.6794 23.4099 92.573 20.4305 92.6794 19.4729Z" fill="#FFE697"/>
<path d="M89.3806 31.8145C89.3806 32.5593 89.9126 33.0914 90.6575 33.0914H92.7856C93.5304 33.0914 94.0625 32.5593 94.0625 31.8145C94.0625 31.0696 93.5304 30.5376 92.7856 30.5376H90.6575C89.9126 30.5376 89.3806 31.176 89.3806 31.8145Z" fill="#EDEDED"/>
<path d="M89.4873 26.3894C89.4873 26.6023 89.7001 26.8151 89.9129 26.8151H92.3603V25.8574H89.9129C89.7001 25.9638 89.4873 26.1766 89.4873 26.3894Z" fill="#474343"/>
<path d="M89.4873 27.7713C89.4873 27.9841 89.7001 28.1969 89.9129 28.1969H92.3603V27.2393H89.9129C89.7001 27.3457 89.4873 27.5585 89.4873 27.7713Z" fill="#474343"/>
<path d="M89.4873 29.1556C89.4873 29.3684 89.7001 29.5812 89.9129 29.5812H92.3603V28.6235H89.9129C89.7001 28.7299 89.4873 28.9428 89.4873 29.1556Z" fill="#474343"/>
<path d="M16.5994 34.157V34.5826H31.1769V34.157C31.1769 34.0506 31.1769 33.8377 31.1769 33.7313C30.9641 29.9007 27.7719 26.9214 23.9413 26.9214H23.8349C19.7915 26.9214 16.5994 30.1136 16.5994 34.157Z" fill="#3E312C"/>
<path d="M90.019 18.833C90.9766 18.833 91.6151 18.9394 92.1471 19.0458V19.365C92.0407 20.3227 92.0407 23.4085 92.1471 24.3661V24.6853C91.6151 24.8981 90.9766 25.0046 90.019 25.0046C86.7204 25.0046 76.8247 23.6213 76.8247 21.9188C76.8247 20.2163 86.7204 18.833 90.019 18.833Z" fill="#FFE66A"/>
<path d="M92.1473 19.3661V19.0469C92.3601 19.1533 92.5729 19.2597 92.6793 19.4725C93.1049 20.0045 92.7857 20.9622 92.8921 21.9198C92.8921 22.8775 93.2113 23.8351 92.7857 24.3672C92.6793 24.4736 92.4665 24.6864 92.2537 24.7928V24.4736C92.0409 23.5159 92.0409 20.3237 92.1473 19.3661Z" fill="#474343"/>
<path d="M92.6794 19.4729C93.8498 19.3665 93.8498 24.3675 92.6794 24.3675C92.6794 23.4099 92.573 20.4305 92.6794 19.4729Z" fill="#FFE697"/>
<path d="M3.93701 32.2407C3.93701 32.9856 3.40498 33.5176 2.87295 33.5176H1.06406C0.425622 33.5176 0 32.9856 0 32.2407C0 31.4959 0.532028 30.9639 1.06406 30.9639H2.87295C3.51138 30.9639 3.93701 31.6023 3.93701 32.2407Z" fill="#EDEDED"/>
<path d="M65.7587 31.7098H69.27C70.2277 31.7098 70.8661 30.9649 70.8661 30.1137V4.68277C70.8661 3.4059 69.8021 2.44824 68.6316 2.44824H59.1615C57.8847 2.44824 56.927 3.5123 56.927 4.68277V30.1137C56.927 31.0713 57.6718 31.7098 58.5231 31.7098H62.0345H65.7587Z" fill="#FFE66A"/>
<path d="M72.0364 4.14956V15.0029C72.0364 15.7478 72.5684 16.2798 73.3132 16.2798H75.1221C75.0157 16.1734 75.0157 16.1734 74.9093 16.067C74.8029 15.8542 74.8029 15.7478 74.6965 15.535C74.4837 13.4069 73.6325 7.1289 73.6325 7.1289C73.4196 5.74563 73.3132 4.57517 73.1004 3.40471C73.1004 3.2983 73.1004 3.29832 72.994 3.19192H72.8876C72.462 3.08551 72.0364 3.61753 72.0364 4.14956Z" fill="#7A7A7A"/>
<path d="M71.8237 4.15033V15.0037C71.8237 15.855 72.4622 16.4934 73.3134 16.4934H75.4415C75.3351 16.387 75.2287 16.387 75.2287 16.2806C75.1223 16.1742 75.1223 16.1742 75.0159 16.0678H73.3134C72.675 16.0678 72.2494 15.5357 72.2494 15.0037V4.15033C72.2494 3.72471 72.5686 3.40548 72.9942 3.40548H73.207C73.207 3.29908 73.207 3.2991 73.1006 3.19269C73.1006 3.08628 73.1006 3.08627 72.9942 2.97987H72.8878C72.3558 2.87346 71.8237 3.4055 71.8237 4.15033Z" fill="#474343"/>
<path d="M59.0552 16.1738H68.7381C69.4829 16.1738 70.015 15.6418 70.015 14.897V4.36282C70.015 3.61798 69.4829 3.08594 68.7381 3.08594H59.0552C58.3103 3.08594 57.7783 3.61798 57.7783 4.36282V14.897C57.7783 15.6418 58.3103 16.1738 59.0552 16.1738Z" fill="#7A7A7A"/>
<path d="M57.5657 15.0038V4.46965C57.5657 3.61841 58.2041 2.97998 59.0554 2.97998H68.7383C69.5895 2.97998 70.2279 3.61841 70.2279 4.46965V15.0038C70.2279 15.8551 69.5895 16.4935 68.7383 16.4935H59.0554C58.2041 16.4935 57.5657 15.7487 57.5657 15.0038ZM59.0554 3.4056C58.5233 3.4056 57.9913 3.83122 57.9913 4.46965V15.0038C57.9913 15.5359 58.4169 16.0679 59.0554 16.0679H68.7383C69.2703 16.0679 69.8023 15.6423 69.8023 15.0038V4.46965C69.8023 3.93762 69.3767 3.4056 68.7383 3.4056H59.0554Z" fill="#474343"/>
<path d="M58.4165 18.3011C58.4165 18.6203 59.2678 18.8331 60.3318 18.8331C61.3959 18.8331 62.2471 18.6203 62.2471 18.3011C62.2471 17.9819 61.3959 17.769 60.3318 17.769C59.2678 17.769 58.4165 17.9819 58.4165 18.3011Z" fill="#474343"/>
<path d="M9.78942 27.7717C9.78942 28.7293 7.5549 29.5806 4.25633 29.5806C2.76665 29.5806 1.27697 29.4742 0.957755 29.1549C0.425727 28.8357 0.532132 26.7076 0.957755 26.3884C1.27697 26.1756 2.76665 26.0692 4.25633 26.0692C7.5549 25.9628 9.78942 26.7076 9.78942 27.7717Z" fill="#474343"/>
<path d="M0.957677 26.2812C0.212838 26.2812 0.212838 29.2606 0.957677 29.2606C0.957677 28.6222 0.957677 26.8133 0.957677 26.2812Z" fill="#FFE697"/>
<g opacity="0.65">
<path d="M58.3103 4.36256V5.00097L63.0986 15.6415H67.3548L62.0345 3.72412H58.9487C58.6295 3.72412 58.3103 4.04334 58.3103 4.36256Z" fill="#474343"/>
<path d="M62.5664 3.72412L67.8867 15.6415H68.7379C68.9507 15.6415 69.0571 15.5351 69.1635 15.4287L63.9497 3.72412H62.5664Z" fill="#474343"/>
</g>
<path d="M68.3125 15.0027C68.3125 15.2155 68.5253 15.4283 68.7381 15.4283H70.015C70.2278 15.4283 70.4406 15.2155 70.4406 15.0027V9.7888C70.4406 9.46958 70.1214 9.15039 69.8022 9.15039H68.8445C68.5253 9.15039 68.3125 9.3632 68.3125 9.68242V15.0027Z" fill="#474343"/>
<path d="M72.1431 17.7694C72.2495 17.7694 72.2495 17.7694 72.3559 17.7694C72.5687 17.663 72.5687 17.4502 72.5687 17.2374L70.1214 12.4491C70.015 12.2363 69.8022 12.2363 69.5894 12.2363C69.3766 12.3427 69.3766 12.5555 69.483 12.7684L71.9303 17.5566C71.8239 17.663 72.0367 17.7694 72.1431 17.7694Z" fill="#3C3C3B"/>
<path opacity="0.1" d="M1.06422 30.9638H2.02187V29.3677C1.48984 29.2613 1.17062 29.2613 0.957811 29.1549C0.957811 29.1549 0.957811 29.1549 0.957811 29.2613C0.212972 29.2613 0.212972 26.1756 0.957811 26.282C0.957811 26.282 0.957811 26.282 0.957811 26.3884C1.17062 26.282 1.48984 26.1756 2.02187 26.1756V25.6436L92.4666 30.219V30.6446H92.7858C93.5307 30.6446 94.0627 31.1766 94.0627 31.9215C94.0627 32.6663 93.5307 33.1983 92.7858 33.1983H92.1474C91.9346 33.5175 91.5089 33.8368 91.0833 33.9432L88.8488 34.688H88.104H87.3591H72.7816H72.0367H31.9218H31.177H16.5994H15.8546H2.02187V33.7304H1.17062C0.53219 33.7304 0.106567 33.1983 0.106567 32.4535C0.106567 31.7087 0.532187 30.9638 1.06422 30.9638Z" fill="black"/>
<path d="M82.6772 34.3706C82.6772 35.8603 81.5068 37.0307 80.0171 37.0307C78.5274 37.0307 77.3569 35.8603 77.3569 34.3706C77.3569 32.8809 78.5274 31.7104 80.0171 31.7104C81.5068 31.7104 82.6772 32.8809 82.6772 34.3706Z" fill="#474343"/>
<path d="M73.4199 34.3699C73.4199 37.9877 76.3993 40.9671 80.0171 40.9671C83.6349 40.9671 86.6142 37.9877 86.6142 34.3699C86.6142 30.7521 83.6349 27.7728 80.0171 27.7728C76.3993 27.6664 73.4199 30.6457 73.4199 34.3699ZM75.548 34.3699C75.548 31.9226 77.5697 29.9009 80.0171 29.9009C82.4644 29.9009 84.4861 31.9226 84.4861 34.3699C84.4861 36.8172 82.4644 38.839 80.0171 38.839C77.5697 38.839 75.548 36.8172 75.548 34.3699Z" fill="#1D1715"/>
<path d="M80.0171 29.688C77.4633 29.688 75.3352 31.8161 75.3352 34.3698C75.3352 36.9236 77.4633 39.0517 80.0171 39.0517C82.5708 39.0517 84.6989 36.9236 84.6989 34.3698C84.6989 31.8161 82.6772 29.688 80.0171 29.688ZM81.5067 36.4979C81.1875 36.7107 80.9747 36.8171 80.6555 36.9236C80.4427 36.9236 80.3363 37.03 80.1235 37.03C79.9106 37.03 79.8042 37.03 79.5914 36.9236C79.2722 36.8171 78.953 36.7107 78.7402 36.4979C78.421 36.2851 78.2082 36.0723 77.9953 35.7531C77.7825 35.4339 77.6761 35.2211 77.6761 34.9019C77.6761 34.689 77.6761 34.5826 77.6761 34.3698C77.6761 34.157 77.6761 34.0506 77.7825 33.8378C77.8889 33.5186 77.9953 33.1994 78.2082 32.9866C78.421 32.6674 78.6338 32.4545 78.953 32.2417C79.1658 32.0289 79.485 31.9225 79.8042 31.9225C80.017 31.9225 80.1235 31.9225 80.3363 31.9225C80.5491 31.9225 80.6555 31.9225 80.8683 31.9225C81.1875 32.0289 81.5067 32.1353 81.7195 32.2417C82.0388 32.4545 82.2516 32.6674 82.4644 32.9866C82.6772 33.1994 82.7836 33.5186 82.7836 33.8378C82.7836 34.0506 82.89 34.157 82.89 34.3698C82.89 34.5826 82.89 34.689 82.89 34.9019C82.7836 35.2211 82.6772 35.5403 82.5708 35.7531C82.0388 36.0723 81.8259 36.2851 81.5067 36.4979ZM81.7195 31.9225C81.4003 31.7097 80.9747 31.4969 80.5491 31.3905V30.1136C81.2939 30.22 82.0388 30.5392 82.5708 30.9649L81.7195 31.9225ZM79.5914 31.3905C79.1658 31.4969 78.7402 31.6033 78.421 31.9225L77.5697 31.0712C78.2082 30.6456 78.8466 30.3264 79.5914 30.22V31.3905ZM77.6761 32.6673C77.4633 32.9865 77.2505 33.4122 77.1441 33.8378H75.8672C75.9736 33.093 76.2929 32.3481 76.7185 31.8161L77.6761 32.6673ZM77.1441 34.7954C77.2505 35.2211 77.3569 35.6467 77.6761 35.9659L76.8249 36.8172C76.3993 36.1787 76.08 35.5403 75.9736 34.6891H77.1441V34.7954ZM78.3146 36.8172C78.6338 37.03 79.0594 37.2428 79.485 37.3492V38.626C78.7402 38.5196 77.9953 38.2004 77.3569 37.7748L78.3146 36.8172ZM80.5491 37.2428C80.9747 37.1364 81.4003 37.03 81.7195 36.7108L82.5708 37.562C81.9323 37.9876 81.2939 38.3069 80.4427 38.4133V37.2428H80.5491ZM82.5708 36.0723C82.7836 35.7531 82.9964 35.3275 83.1028 34.9019H84.3797C84.2733 35.6467 83.9541 36.3915 83.5284 37.03L82.5708 36.0723ZM82.9964 33.8378C82.89 33.4122 82.7836 32.9865 82.4644 32.6673L83.3156 31.8161C83.7412 32.4545 84.0605 33.093 84.1669 33.8378H82.9964Z" fill="#FFE66A"/>
<path d="M26.4951 34.3706C26.4951 35.8603 25.3246 37.0307 23.8349 37.0307C22.3453 37.0307 21.1748 35.8603 21.1748 34.3706C21.1748 32.8809 22.3453 31.7104 23.8349 31.7104C25.3246 31.7104 26.4951 32.8809 26.4951 34.3706Z" fill="#474343"/>
<path d="M17.2378 34.3699C17.2378 37.9877 20.2171 40.9671 23.8349 40.9671C27.4527 40.9671 30.4321 37.9877 30.4321 34.3699C30.4321 30.7521 27.4527 27.7728 23.8349 27.7728C20.2171 27.6664 17.2378 30.6457 17.2378 34.3699ZM19.3659 34.3699C19.3659 31.9226 21.3876 29.9009 23.8349 29.9009C26.2823 29.9009 28.304 31.9226 28.304 34.3699C28.304 36.8172 26.2823 38.839 23.8349 38.839C21.3876 38.839 19.3659 36.8172 19.3659 34.3699Z" fill="#1D1715"/>
<path d="M23.835 29.688C21.2813 29.688 19.1532 31.8161 19.1532 34.3698C19.1532 36.9236 21.2813 39.0517 23.835 39.0517C26.3888 39.0517 28.5169 36.9236 28.5169 34.3698C28.5169 31.8161 26.4952 29.688 23.835 29.688ZM25.3247 36.4979C25.0055 36.7107 24.7927 36.8171 24.4735 36.9236C24.2607 36.9236 24.1543 37.03 23.9414 37.03C23.7286 37.03 23.6222 37.03 23.4094 36.9236C23.0902 36.8171 22.771 36.7107 22.5582 36.4979C22.239 36.2851 22.0261 36.0723 21.8133 35.7531C21.6005 35.4339 21.4941 35.2211 21.4941 34.9019C21.4941 34.689 21.4941 34.5826 21.4941 34.3698C21.4941 34.157 21.4941 34.0506 21.6005 33.8378C21.7069 33.5186 21.8133 33.1994 22.0261 32.9866C22.239 32.6674 22.4518 32.4545 22.771 32.2417C22.9838 32.0289 23.303 31.9225 23.6222 31.9225C23.835 31.9225 23.9414 31.9225 24.1543 31.9225C24.3671 31.9225 24.4735 31.9225 24.6863 31.9225C25.0055 32.0289 25.3247 32.1353 25.5375 32.2417C25.8567 32.4545 26.0696 32.6674 26.2824 32.9866C26.4952 33.1994 26.6016 33.5186 26.6016 33.8378C26.6016 34.0506 26.708 34.157 26.708 34.3698C26.708 34.5826 26.708 34.689 26.708 34.9019C26.6016 35.2211 26.4952 35.5403 26.3888 35.7531C25.8568 36.0723 25.6439 36.2851 25.3247 36.4979ZM25.5375 31.9225C25.2183 31.7097 24.7927 31.4969 24.3671 31.3905V30.1136C25.1119 30.22 25.8568 30.5392 26.3888 30.9649L25.5375 31.9225ZM23.4094 31.3905C22.9838 31.4969 22.5582 31.6033 22.239 31.9225L21.3877 31.0712C22.0262 30.6456 22.6646 30.3264 23.4094 30.22V31.3905ZM21.4941 32.6673C21.2813 32.9865 21.0685 33.4122 20.9621 33.8378H19.6852C19.7916 33.093 20.1109 32.3481 20.5365 31.8161L21.4941 32.6673ZM20.9621 34.7954C21.0685 35.2211 21.1749 35.6467 21.4941 35.9659L20.6429 36.8172C20.2173 36.1787 19.898 35.5403 19.7916 34.6891H20.9621V34.7954ZM22.1326 36.8172C22.4518 37.03 22.8774 37.2428 23.303 37.3492V38.626C22.5582 38.5196 21.8133 38.2004 21.1749 37.7748L22.1326 36.8172ZM24.3671 37.2428C24.7927 37.1364 25.2183 37.03 25.5375 36.7108L26.3888 37.562C25.7503 37.9876 25.1119 38.3069 24.2607 38.4133V37.2428H24.3671ZM26.2824 36.0723C26.4952 35.7531 26.708 35.3275 26.8144 34.9019H28.0913C27.9849 35.6467 27.6656 36.3915 27.24 37.03L26.2824 36.0723ZM26.8144 33.8378C26.708 33.4122 26.6016 32.9865 26.2824 32.6673L27.1336 31.8161C27.5592 32.4545 27.8785 33.093 27.9849 33.8378H26.8144Z" fill="#FFE66A"/>
<path opacity="0.1" d="M47.2441 42.2437C72.161 42.2437 92.3601 41.672 92.3601 40.9668C92.3601 40.2616 72.161 39.6899 47.2441 39.6899C22.3273 39.6899 2.12817 40.2616 2.12817 40.9668C2.12817 41.672 22.3273 42.2437 47.2441 42.2437Z" fill="#1D1D1B"/>
</svg>
