<svg width="93" height="28" viewBox="0 0 93 28" fill="none" xmlns="http://www.w3.org/2000/svg">
<path d="M52.519 6.54823L52.14 7.42773L54.4854 8.43825L54.8643 7.55875L52.519 6.54823Z" fill="#FFE66A"/>
<path d="M50.9683 9.57687C51.1811 9.68327 51.5004 9.57686 51.6068 9.36405L53.3092 4.89502C53.4156 4.68221 53.3092 4.36299 53.0964 4.25659C52.8836 4.15018 52.5644 4.25658 52.458 4.4694L50.7555 8.93843C50.5427 9.25764 50.7555 9.57687 50.9683 9.57687Z" fill="#FFE66A"/>
<path d="M31.6024 15.7485H36.3907L33.3049 4.4695C32.9857 3.29904 31.9217 2.5542 30.7512 2.5542H29.6871C28.8359 2.5542 28.0911 3.40545 28.4103 4.25669L31.6024 15.7485Z" fill="#FFE66A"/>
<path opacity="0.1" d="M0 26.495C0 27.3463 20.7491 27.9847 46.3928 27.9847C72.0366 27.9847 92.7856 27.3463 92.7856 26.495C92.7856 25.6438 72.0366 25.0054 46.3928 25.0054C20.7491 25.0054 0 25.6438 0 26.495Z" fill="#1D1D1B"/>
<path d="M1.17052 8.61885V9.04447V9.36368L1.48974 12.343V12.6623L1.70255 14.5776V14.684V15.1096V15.4288L1.80896 16.4929C1.80896 16.8121 1.91536 17.1313 2.02177 17.3441C2.44739 18.621 3.40504 19.5786 4.68191 20.0042L8.93813 21.3875L9.25735 21.4939H9.36376H90.1256C91.0832 21.4939 91.9345 20.8555 92.2537 19.8978L92.7857 18.1953C93.3177 7.6612 83.2092 8.40603 64.4818 7.23557C56.6078 1.9153 53.9477 0.106406 51.7132 0C51.3939 0 51.0747 0 50.7555 0L57.8847 7.44839L28.836 5.85231L28.0911 2.44732L20.2171 4.68184L19.3659 4.78825L18.1954 4.89465H17.4506L16.2801 5.00106H15.5353L14.3648 5.10746H13.62L12.4495 5.21387H11.7047L10.5342 5.32028H9.78938L8.61891 5.42668L6.17159 5.63949C1.80897 5.95871 1.06411 7.7676 1.17052 8.61885Z" fill="#474343"/>
<path d="M86.8269 10.0025C89.3807 10.9602 90.8703 12.0242 91.6152 14.7908C91.7216 15.2164 91.4024 15.7484 90.8704 15.642C90.7639 15.642 90.8704 15.642 89.8063 15.642C88.8486 15.642 88.1038 15.0036 87.891 14.0459C87.6782 12.9819 87.0397 11.8114 86.2949 10.6409C86.0821 10.3217 86.4013 9.8961 86.8269 10.0025Z" fill="#474343"/>
<path d="M57.8359 18.4494C57.8359 19.3007 57.1975 19.8327 56.3462 19.8327H37.6189C33.5754 19.8327 30.1705 16.8534 29.6384 12.8099L29 6L58.0487 7.59608L57.8359 18.4494Z" fill="#FFE66A"/>
<path d="M67.4611 19.3646V21.4927H83.2091V19.3646C83.2091 15.4276 80.3361 12.129 76.5055 11.597C76.0799 11.4906 75.7607 11.4906 75.3351 11.4906C70.9725 11.3842 67.4611 15.002 67.4611 19.3646Z" fill="#1D1715"/>
<path d="M10.0021 19.3646V21.4927H25.7501V19.3646C25.7501 15.4276 22.8771 12.129 19.0465 11.597C18.6209 11.4906 18.3017 11.4906 17.8761 11.4906C13.5135 11.3842 10.0021 15.002 10.0021 19.3646Z" fill="#1D1715"/>
<path d="M30.6449 8.19308C30.6449 8.6187 30.9641 8.93792 31.3897 9.04433L34.3691 9.15073C34.7947 9.15073 35.1139 8.83151 35.2203 8.40589C35.2203 7.98026 34.9011 7.66105 34.4755 7.55465L31.4961 7.44824C30.9641 7.44824 30.6449 7.76746 30.6449 8.19308Z" fill="#474343"/>
<path d="M88.8486 18.1948H92.7856L92.2536 19.8973C91.9343 20.855 91.0831 21.4934 90.1254 21.4934H86.4012L87.0397 19.5781C87.2525 18.7268 87.9973 18.1948 88.8486 18.1948Z" fill="#474343"/>
<path d="M90.9767 20.218L91.0831 19.4731H89.5934C89.3806 19.4731 89.2742 19.686 89.1678 19.8988L89.0614 20.218H90.9767Z" fill="#FFE66A"/>
<path d="M2.23462 17.3432C2.66024 18.6201 3.61789 19.5777 4.89476 20.0034L9.15098 21.3866L9.4702 21.493L9.04458 19.6841C8.72537 18.3009 7.23569 17.2368 5.63961 17.2368H2.23462V17.3432Z" fill="#474343"/>
<path d="M1.27686 9.15039V9.4696L1.59608 12.449V12.7682L1.80888 14.6835V14.7899V15.2155V15.5347H2.02169C2.44731 15.5347 2.87294 15.3219 3.08575 15.0027C3.40496 14.6835 3.51137 14.2579 3.40497 13.8322L3.08575 10.4273C2.97934 9.78882 2.3409 9.25679 1.70247 9.25679H1.27686V9.15039Z" fill="#FFE66A"/>
<path d="M1.27686 9.4707L1.59608 12.4501V12.7693L1.80888 14.6846V14.791V15.2166H2.1281C2.87294 15.2166 3.29856 14.5782 3.19216 13.9397L2.87294 10.5348C2.76653 10.0027 2.34091 9.68352 1.80888 9.68352H1.27686V9.4707Z" fill="#474343"/>
<path d="M58.7357 7.66213C58.9485 8.72619 57.8845 8.83259 57.1397 8.939C57.0332 8.939 56.9268 8.939 56.8204 8.939L57.3525 5.1084C57.9909 5.42762 58.5229 6.81089 58.7357 7.66213Z" fill="#FFE66A"/>
<path d="M53.9476 0.638631C55.9693 1.48988 58.9487 3.51158 64.4818 7.23577H60.5448L52.7772 0.851438C52.6708 0.745033 52.6708 0.532227 52.8836 0.532227H53.9476V0.638631Z" fill="#7A7A7A"/>
<path d="M18.4082 4.89404L18.5146 6.17091C18.5146 6.49012 18.8338 6.70293 19.153 6.70293C19.4723 6.70293 19.6851 6.38372 19.6851 6.17091L19.5787 4.89404H18.4082Z" fill="#FFE66A"/>
<path d="M16.5994 5L16.7058 6.27686C16.7058 6.59608 17.025 6.80889 17.3442 6.80889C17.6634 6.80889 17.8762 6.48967 17.8762 6.27686L17.7698 5H16.5994Z" fill="#FFE66A"/>
<path d="M14.6841 5.10596L14.7905 6.38283C14.7905 6.70205 15.1097 6.91486 15.4289 6.91486C15.7481 6.91486 15.9609 6.59564 15.9609 6.38283L15.8545 5.10596H14.6841Z" fill="#FFE66A"/>
<path d="M12.8752 5.21436L12.9817 6.59763C12.9817 6.91685 13.3009 7.12966 13.6201 7.12966C13.9393 7.12966 14.1521 6.81044 14.1521 6.59763L14.0457 5.32077L12.8752 5.21436Z" fill="#FFE66A"/>
<path d="M11.0663 5.42627L11.1727 6.80954C11.1727 7.12875 11.4919 7.34156 11.8111 7.34156C12.1303 7.34156 12.3431 7.02235 12.3431 6.80954L12.2368 5.42627H11.0663Z" fill="#FFE66A"/>
<path d="M9.151 5.53223L9.25741 6.9155C9.25741 7.23472 9.57664 7.44753 9.89585 7.44753C10.2151 7.44753 10.4279 7.12831 10.4279 6.9155L10.3215 5.53223H9.151Z" fill="#FFE66A"/>
<path opacity="0.2" d="M92.7858 17.3434C92.7858 17.5562 92.7858 17.8754 92.7858 18.0882L92.2538 19.8971C92.041 20.5356 91.6153 21.0676 90.9769 21.2804C90.7641 21.3868 90.4449 21.4932 90.1257 21.4932H83.2093H67.4613H25.7503H10.0023H9.57666H9.47025L9.15103 21.3868L4.8948 20.0035C3.61794 19.5779 2.66029 18.6203 2.23466 17.3434C2.12826 17.0242 2.12826 16.8114 2.02186 16.4921L1.91546 15.4281V15.1089V14.6832V14.5768L1.70264 12.6615V12.4487L92.7858 17.3434Z" fill="black"/>
<path d="M78.2079 19.471C78.2079 21.0671 76.931 22.2375 75.4413 22.2375C73.8453 22.2375 72.6748 20.9607 72.6748 19.471C72.6748 17.8749 73.9517 16.7044 75.4413 16.7044C76.931 16.598 78.2079 17.8749 78.2079 19.471Z" fill="#F6F6F6"/>
<path d="M68.3123 19.471C68.3123 23.3016 71.5044 26.4938 75.335 26.4938C79.1656 26.4938 82.3578 23.3016 82.3578 19.471C82.3578 15.6404 79.1656 12.4482 75.335 12.4482C71.5044 12.4482 68.3123 15.534 68.3123 19.471ZM70.5468 19.471C70.5468 16.8109 72.6749 14.6828 75.335 14.6828C77.9952 14.6828 80.1233 16.8109 80.1233 19.471C80.1233 22.1311 77.9952 24.2593 75.335 24.2593C72.7813 24.2593 70.5468 22.0247 70.5468 19.471Z" fill="#1D1715"/>
<path d="M75.335 14.4702C72.5684 14.4702 70.4403 16.7047 70.4403 19.3649C70.4403 22.1314 72.6748 24.2595 75.335 24.2595C78.1015 24.2595 80.2296 22.025 80.2296 19.3649C80.336 16.7047 78.1015 14.4702 75.335 14.4702ZM76.8246 21.7058C76.5054 21.9186 76.1862 22.025 75.867 22.1314C75.6542 22.1314 75.5478 22.2378 75.335 22.2378C75.1222 22.2378 74.9093 22.2378 74.8029 22.1314C74.4837 22.025 74.1645 21.9186 73.8453 21.7058C73.5261 21.493 73.3133 21.2802 73.1004 20.961C72.8876 20.6417 72.7812 20.3225 72.6748 20.0033C72.6748 19.7905 72.5684 19.6841 72.5684 19.4713C72.5684 19.2585 72.5684 19.0457 72.6748 18.9392C72.7812 18.62 72.8876 18.3008 73.1004 17.9816C73.3133 17.6624 73.5261 17.4496 73.8453 17.2368C74.1645 17.0239 74.4837 16.9175 74.8029 16.8111C75.0158 16.8111 75.1222 16.7047 75.335 16.7047C75.5478 16.7047 75.7606 16.7047 75.867 16.8111C76.1862 16.9175 76.5054 17.0239 76.8246 17.2368C77.1439 17.4496 77.3567 17.6624 77.5695 17.9816C77.7823 18.3008 77.8887 18.62 77.9951 18.9392C77.9951 19.1521 78.1015 19.3649 78.1015 19.4713C78.1015 19.6841 78.1015 19.7905 78.1015 20.0033C77.9951 20.3225 77.8887 20.6417 77.6759 20.961C77.4631 21.2802 77.1439 21.493 76.8246 21.7058ZM77.1439 16.8111C76.8246 16.5983 76.399 16.3855 75.867 16.2791V14.8958C76.7182 15.0022 77.4631 15.3215 78.1015 15.8535L77.1439 16.8111ZM74.8029 16.2791C74.3773 16.3855 73.9517 16.4919 73.5261 16.8111L72.5684 15.8535C73.2069 15.3215 73.9517 15.0022 74.8029 14.8958V16.2791ZM72.7812 17.6624C72.5684 17.9816 72.3556 18.4072 72.2492 18.9392H70.8659C70.9723 18.088 71.2916 17.3432 71.8236 16.7047L72.7812 17.6624ZM72.2492 20.0033C72.3556 20.4289 72.462 20.8546 72.7812 21.2802L71.8236 22.2378C71.2916 21.5994 70.9723 20.8545 70.8659 20.0033H72.2492ZM73.5261 22.025C73.8453 22.2378 74.3773 22.4506 74.8029 22.557V23.9403C73.9517 23.8339 73.2069 23.5147 72.5684 22.9827L73.5261 22.025ZM75.867 22.557C76.2926 22.4506 76.7182 22.3442 77.1439 22.025L78.1015 22.9827C77.4631 23.5147 76.7182 23.8339 75.867 23.9403V22.557ZM77.9951 21.2802C78.2079 20.961 78.4207 20.4289 78.5271 20.0033H79.9104C79.804 20.8545 79.4848 21.5994 78.9528 22.2378L77.9951 21.2802ZM78.5271 18.8328C78.4207 18.4072 78.2079 17.9816 77.9951 17.556L78.9528 16.5983C79.4848 17.2368 79.804 17.9816 79.9104 18.8328H78.5271Z" fill="#474343"/>
<path d="M20.6427 19.471C20.6427 21.0671 19.3658 22.2375 17.8762 22.2375C16.2801 22.2375 15.1096 20.9607 15.1096 19.471C15.1096 17.8749 16.3865 16.7044 17.8762 16.7044C19.3658 16.598 20.6427 17.8749 20.6427 19.471Z" fill="#F6F6F6"/>
<path d="M10.8534 19.471C10.8534 23.3016 14.0456 26.4938 17.8762 26.4938C21.7068 26.4938 24.8989 23.3016 24.8989 19.471C24.8989 15.6404 21.7068 12.4482 17.8762 12.4482C13.9392 12.4482 10.8534 15.534 10.8534 19.471ZM13.0879 19.471C13.0879 16.8109 15.216 14.6828 17.8762 14.6828C20.5363 14.6828 22.6644 16.8109 22.6644 19.471C22.6644 22.1311 20.5363 24.2593 17.8762 24.2593C15.216 24.2593 13.0879 22.0247 13.0879 19.471Z" fill="#1D1715"/>
<path d="M17.7697 14.4702C15.0031 14.4702 12.875 16.7047 12.875 19.3649C12.875 22.1314 15.1095 24.2595 17.7697 24.2595C20.5362 24.2595 22.6643 22.025 22.6643 19.3649C22.7707 16.7047 20.5362 14.4702 17.7697 14.4702ZM19.3657 21.7058C19.0465 21.9186 18.7273 22.025 18.4081 22.1314C18.1953 22.1314 18.0889 22.2378 17.8761 22.2378C17.6633 22.2378 17.4505 22.2378 17.344 22.1314C17.0248 22.025 16.7056 21.9186 16.3864 21.7058C16.0672 21.493 15.8544 21.2802 15.6416 20.961C15.4287 20.6417 15.3223 20.3225 15.2159 20.0033C15.2159 19.7905 15.1095 19.6841 15.1095 19.4713C15.1095 19.2585 15.1095 19.0457 15.2159 18.9392C15.3223 18.62 15.4287 18.3008 15.6416 17.9816C15.8544 17.6624 16.0672 17.4496 16.3864 17.2368C16.7056 17.0239 17.0248 16.9175 17.344 16.8111C17.5569 16.8111 17.6633 16.7047 17.8761 16.7047C18.0889 16.7047 18.3017 16.7047 18.4081 16.8111C18.7273 16.9175 19.0465 17.0239 19.3657 17.2368C19.685 17.4496 19.8978 17.6624 20.1106 17.9816C20.3234 18.3008 20.4298 18.62 20.5362 18.9392C20.5362 19.1521 20.6426 19.3649 20.6426 19.4713C20.6426 19.6841 20.6426 19.7905 20.6426 20.0033C20.5362 20.3225 20.4298 20.6417 20.217 20.961C19.8978 21.2802 19.685 21.493 19.3657 21.7058ZM19.5786 16.8111C19.2593 16.5983 18.8337 16.3855 18.3017 16.2791V14.8958C19.1529 15.0022 19.8978 15.3215 20.5362 15.8535L19.5786 16.8111ZM17.2376 16.2791C16.812 16.3855 16.3864 16.4919 15.9608 16.8111L15.0031 15.8535C15.6415 15.3215 16.3864 15.0022 17.2376 14.8958V16.2791ZM15.2159 17.6624C15.0031 17.9816 14.7903 18.4072 14.6839 18.9392H13.3006C13.407 18.088 13.7262 17.3432 14.2583 16.7047L15.2159 17.6624ZM14.6839 20.0033C14.7903 20.4289 14.8967 20.8546 15.2159 21.2802L14.2583 22.2378C13.7262 21.5994 13.407 20.8545 13.3006 20.0033H14.6839ZM15.9608 22.025C16.28 22.2378 16.812 22.4506 17.2376 22.557V23.9403C16.3864 23.8339 15.6415 23.5147 15.0031 22.9827L15.9608 22.025ZM18.4081 22.557C18.8337 22.4506 19.2593 22.3442 19.685 22.025L20.6426 22.9827C20.0042 23.5147 19.2593 23.8339 18.4081 23.9403V22.557ZM20.4298 21.2802C20.6426 20.961 20.8554 20.4289 20.9618 20.0033H22.3451C22.2387 20.8545 21.9195 21.5994 21.3874 22.2378L20.4298 21.2802ZM20.9618 18.8328C20.8554 18.4072 20.6426 17.9816 20.4298 17.556L21.3874 16.5983C21.9195 17.2368 22.2387 17.9816 22.3451 18.8328H20.9618Z" fill="#474343"/>
</svg>
