<svg width="86" height="42" viewBox="0 0 86 42" fill="none" xmlns="http://www.w3.org/2000/svg">
<path d="M1.27686 29.5801H4.46903C5.10746 29.5801 5.74589 29.0481 5.74589 28.3032V15.2153C5.74589 14.5769 5.21387 13.9385 4.46903 13.9385H1.27686C0.63843 13.9385 0 14.4705 0 15.2153V28.3032C0 29.0481 0.532025 29.5801 1.27686 29.5801Z" fill="#FFE66A"/>
<path d="M5.74594 25.2191H4.46908C4.04346 25.2191 3.72424 24.8999 3.72424 24.4743V19.154C3.72424 18.7284 4.04346 18.4092 4.46908 18.4092H5.74594V25.2191Z" fill="#474343"/>
<path d="M80.1235 21.8128C80.1235 23.5153 81.0812 24.8986 82.358 24.8986C83.6349 24.8986 84.5926 23.5153 84.5926 21.8128C84.5926 20.1103 83.6349 18.7271 82.358 18.7271C81.1876 18.7271 80.1235 20.1103 80.1235 21.8128Z" fill="#FFCB82"/>
<path d="M83.6346 18.4092H82.677V25.2191H83.6346V18.4092Z" fill="#FFE66A"/>
<path d="M4.57544 16.1736V32.6665H82.8899L82.6771 18.621C82.6771 18.5146 82.6771 18.4082 82.6771 18.3018C82.4643 17.3441 81.7195 16.5993 80.6554 16.4929L61.2896 15.0032H60.9704L60.864 14.3647L58.8423 3.40498C58.7359 3.08576 58.7359 2.87295 58.6294 2.55373C57.991 1.06406 56.5013 0 54.7989 0H13.1943C11.279 0 9.47009 0.95765 8.40603 2.55373C8.08681 3.08576 7.7676 3.61779 7.66119 4.25622L4.89464 15.0032L4.57544 16.1736Z" fill="#474343"/>
<path d="M42.243 3.83008H56.927C57.3526 3.83008 57.6719 4.1493 57.6719 4.46851L59.8 16.1731V16.2795V29.261C59.8 29.6866 59.4807 30.1123 58.9487 30.1123H42.1366C41.711 30.1123 41.2854 29.793 41.2854 29.261V4.68132C41.4982 4.14929 41.8174 3.83008 42.243 3.83008Z" fill="#FFE66A"/>
<path d="M42.2429 15.5355V4.68213H56.9269L58.9486 15.6419H42.2429V15.5355Z" fill="#7A7A7A"/>
<path d="M82.8899 30.7515H4.57544V32.7732H82.8899V30.7515Z" fill="#FFE66A"/>
<path d="M60.4385 32.774C60.4385 32.6676 60.4385 32.5612 60.4385 32.5612C60.4385 27.6665 64.3755 23.7295 69.2701 23.7295C74.1648 23.7295 78.1018 27.6665 78.1018 32.5612C78.1018 32.6676 78.1018 32.774 78.1018 32.774H60.4385Z" fill="#3E312C"/>
<path d="M10.2151 32.774C10.2151 32.6676 10.2151 32.5612 10.2151 32.5612C10.2151 27.6665 14.1521 23.7295 19.0468 23.7295C23.9414 23.7295 27.8784 27.6665 27.8784 32.5612C27.8784 32.6676 27.8784 32.774 27.8784 32.774H10.2151Z" fill="#3E312C"/>
<path d="M43.5198 18.3018H45.8607C46.1799 18.3018 46.4991 17.9826 46.4991 17.6633C46.4991 17.3441 46.1799 17.0249 45.8607 17.0249H43.5198C43.2006 17.0249 42.8813 17.3441 42.8813 17.6633C42.8813 17.9826 43.2006 18.3018 43.5198 18.3018Z" fill="#474343"/>
<path d="M11.3854 21.3882H13.8327C14.5775 21.3882 15.216 20.7497 15.216 20.0049V18.8344C15.216 18.0896 14.5775 17.4512 13.8327 17.4512H11.3854C10.6405 17.4512 10.0021 18.0896 10.0021 18.8344V20.0049C10.0021 20.7497 10.6405 21.3882 11.3854 21.3882Z" fill="#D69943"/>
<path d="M61.2898 15.1089C61.2898 16.9178 62.7795 18.4075 64.482 18.4075H82.6773C82.4645 17.4498 81.7197 16.705 80.6556 16.5986L61.2898 15.1089Z" fill="#FFE66A"/>
<path d="M8.40588 2.76565H58.6293C57.9909 1.27597 56.5012 0.211914 54.7987 0.211914H13.1941C11.2788 0.211914 9.46994 1.16956 8.40588 2.76565Z" fill="#FFE66A"/>
<path d="M21.0684 16.1731L24.0477 4.57492C24.1541 4.14929 24.5797 3.83008 25.0054 3.83008H39.3701C39.9021 3.83008 40.3278 4.2557 40.3278 4.78773V29.0482C40.3278 29.5802 39.9021 30.0058 39.3701 30.0058H29.5808C29.1552 30.0058 28.7296 29.6866 28.6231 29.261C27.9847 26.4945 24.8989 23.5151 21.9196 22.9831C21.494 22.8767 21.0684 22.4511 21.0684 22.0254V16.3859C21.0684 16.3859 21.0684 16.2795 21.0684 16.1731Z" fill="#FFE66A"/>
<path d="M22.0259 15.5359L24.7924 4.78898C24.7924 4.68258 24.8988 4.57617 25.0052 4.57617H39.37C39.4764 4.57617 39.5828 4.68258 39.5828 4.78898V15.5359H22.0259Z" fill="#7A7A7A"/>
<path d="M22.7707 18.3018H25.1117C25.4309 18.3018 25.7501 17.9826 25.7501 17.6633C25.7501 17.3441 25.4309 17.0249 25.1117 17.0249H22.7707C22.4515 17.0249 22.1323 17.3441 22.1323 17.6633C22.1323 17.9826 22.4515 18.3018 22.7707 18.3018Z" fill="#474343"/>
<g opacity="0.75">
<path d="M47.7763 4.89404L55.6503 15.2154H51.6069L43.7329 4.89404H47.7763Z" fill="#FFE66A"/>
<path d="M49.266 4.89404L57.0336 15.2154H55.9695L48.2019 4.89404H49.266Z" fill="#FFE66A"/>
</g>
<g opacity="0.75">
<path d="M29.7936 4.89404L37.5612 15.2154H33.5178L25.6438 4.89404H29.7936Z" fill="#FFE66A"/>
<path d="M31.1769 4.89404L38.9445 15.2154H37.9868L30.2192 4.89404H31.1769Z" fill="#FFE66A"/>
</g>
<path d="M13.3007 4.89388C13.3007 5.10669 13.5135 5.31951 13.7263 5.31951H18.3017C18.5145 5.31951 18.7273 5.10669 18.7273 4.89388C18.7273 4.68107 18.5145 4.46826 18.3017 4.46826H13.7263C13.4071 4.57467 13.3007 4.68107 13.3007 4.89388Z" fill="#FFE66A"/>
<path d="M12.9814 6.27816C12.9814 6.49097 13.1942 6.70378 13.4071 6.70378H17.9825C18.1953 6.70378 18.4081 6.49097 18.4081 6.27816C18.4081 6.06535 18.1953 5.85254 17.9825 5.85254H13.4071C13.0878 5.85254 12.9814 6.06535 12.9814 6.27816Z" fill="#FFE66A"/>
<path d="M12.6621 7.55404C12.6621 7.76685 12.8749 7.97966 13.0877 7.97966H17.6632C17.876 7.97966 18.0888 7.76685 18.0888 7.55404C18.0888 7.34123 17.876 7.12842 17.6632 7.12842H12.9813C12.7685 7.12842 12.6621 7.34123 12.6621 7.55404Z" fill="#FFE66A"/>
<path d="M12.3431 8.83187C12.3431 9.04468 12.556 9.2575 12.7688 9.2575H17.3442C17.557 9.2575 17.7698 9.04468 17.7698 8.83187C17.7698 8.61906 17.557 8.40625 17.3442 8.40625H12.7688C12.4496 8.40625 12.3431 8.61906 12.3431 8.83187Z" fill="#FFE66A"/>
<path d="M12.0239 10.1082C12.0239 10.3211 12.2367 10.5339 12.4495 10.5339H17.025C17.2378 10.5339 17.4506 10.3211 17.4506 10.1082C17.4506 9.89543 17.2378 9.68262 17.025 9.68262H12.4495C12.1303 9.78902 12.0239 9.89543 12.0239 10.1082Z" fill="#FFE66A"/>
<path d="M11.7046 11.3861C11.7046 11.5989 11.9174 11.8117 12.1302 11.8117H16.7056C16.9185 11.8117 17.1313 11.5989 17.1313 11.3861C17.1313 11.1733 16.9185 10.9604 16.7056 10.9604H12.1302C11.811 11.0669 11.7046 11.1733 11.7046 11.3861Z" fill="#FFE66A"/>
<path d="M11.3854 12.7684C11.3854 12.9812 11.5982 13.194 11.811 13.194H16.3864C16.5992 13.194 16.8121 12.9812 16.8121 12.7684C16.8121 12.5556 16.5992 12.3428 16.3864 12.3428H11.811C11.4918 12.3428 11.3854 12.5556 11.3854 12.7684Z" fill="#FFE66A"/>
<path opacity="0.2" d="M82.8899 29.4743V30.7512V32.7729H4.57544V30.7512V29.5807H4.46903H1.27686C0.63843 29.5807 0 29.0487 0 28.3038V23.4092L82.8899 29.4743Z" fill="black"/>
<path d="M65.0137 32.3471C65.0137 34.688 66.929 36.4969 69.1635 36.4969C71.5044 36.4969 73.3133 34.5816 73.3133 32.3471C73.3133 30.0062 71.398 28.1973 69.1635 28.1973C66.929 28.1973 65.0137 30.0062 65.0137 32.3471Z" fill="#1D1715"/>
<path d="M61.396 32.3467C61.396 36.6029 64.9074 40.1143 69.1636 40.1143C73.4198 40.1143 76.9312 36.6029 76.9312 32.3467C76.9312 28.0905 73.4198 24.5791 69.1636 24.5791C64.9074 24.5791 61.396 28.0905 61.396 32.3467ZM64.4818 32.3467C64.4818 29.6866 66.6099 27.5585 69.27 27.5585C71.9301 27.5585 74.0583 29.6866 74.0583 32.3467C74.0583 35.0068 71.9301 37.135 69.27 37.135C66.6099 37.135 64.4818 35.0068 64.4818 32.3467Z" fill="#1D1715"/>
<path d="M63.7368 32.3461C63.7368 35.4318 66.1841 37.8792 69.2699 37.8792C72.3557 37.8792 74.803 35.4318 74.803 32.3461C74.803 29.2603 72.3557 26.813 69.2699 26.813C66.1841 26.813 63.7368 29.2603 63.7368 32.3461ZM64.2688 32.3461C64.2688 29.6859 66.5034 27.4514 69.1635 27.4514C71.8236 27.4514 74.0582 29.6859 74.0582 32.3461C74.0582 35.0062 71.8236 37.2407 69.1635 37.2407C66.5034 37.2407 64.2688 35.0062 64.2688 32.3461Z" fill="#DADADA"/>
<path d="M65.865 32.3464C65.865 34.2617 67.3547 35.7514 69.27 35.7514C71.1853 35.7514 72.675 34.2617 72.675 32.3464C72.675 30.4311 71.1853 28.9414 69.27 28.9414C67.3547 28.9414 65.865 30.4311 65.865 32.3464ZM67.1419 32.3464C67.1419 31.1759 68.0995 30.2183 69.27 30.2183C70.4404 30.2183 71.3981 31.1759 71.3981 32.3464C71.3981 33.5168 70.4404 34.4745 69.27 34.4745C68.0995 34.4745 67.1419 33.5168 67.1419 32.3464Z" fill="#EDEDED"/>
<path d="M67.1416 32.3454C67.1416 33.5159 68.0993 34.4735 69.2697 34.4735C70.4402 34.4735 71.3978 33.5159 71.3978 32.3454C71.3978 31.1749 70.4402 30.2173 69.2697 30.2173C67.9928 30.2173 67.1416 31.1749 67.1416 32.3454ZM68.4185 31.4941C68.3121 31.6006 68.0993 31.6006 67.9928 31.4941C67.8864 31.3877 67.8864 31.1749 67.9928 31.0685C68.0993 30.9621 68.3121 30.9621 68.4185 31.0685C68.5249 31.1749 68.5249 31.3877 68.4185 31.4941ZM69.3761 31.0685C69.3761 31.1749 69.2697 31.2813 69.1633 31.2813C69.0569 31.2813 68.9505 31.1749 68.9505 31.0685C68.9505 30.9621 69.0569 30.8557 69.1633 30.8557C69.2697 30.8557 69.3761 30.9621 69.3761 31.0685ZM70.4402 31.4941C70.3338 31.6006 70.121 31.6006 70.0146 31.4941C69.9082 31.3877 69.9082 31.1749 70.0146 31.0685C70.121 30.9621 70.3338 30.9621 70.4402 31.0685C70.5466 31.1749 70.5466 31.3877 70.4402 31.4941ZM70.5466 32.4518C70.4402 32.4518 70.3338 32.3454 70.3338 32.239C70.3338 32.1326 70.4402 32.0262 70.5466 32.0262C70.653 32.0262 70.7594 32.1326 70.7594 32.239C70.653 32.4518 70.653 32.4518 70.5466 32.4518ZM70.0146 33.0902C70.121 32.9838 70.3338 32.9838 70.4402 33.0902C70.5466 33.1966 70.5466 33.4095 70.4402 33.5159C70.3338 33.6223 70.121 33.6223 70.0146 33.5159C69.9082 33.4095 69.9082 33.303 70.0146 33.0902ZM69.0569 33.6223C69.0569 33.5159 69.1633 33.4095 69.2697 33.4095C69.3761 33.4095 69.4825 33.5159 69.4825 33.6223C69.4825 33.7287 69.3761 33.8351 69.2697 33.8351C69.1633 33.8351 69.0569 33.7287 69.0569 33.6223ZM68.4185 32.3454C68.4185 31.9198 68.7377 31.4941 69.2697 31.4941C69.6953 31.4941 70.121 31.8134 70.121 32.3454C70.121 32.771 69.8017 33.1966 69.2697 33.1966C68.7377 33.0902 68.4185 32.771 68.4185 32.3454ZM67.9928 33.0902C68.0993 32.9838 68.3121 32.9838 68.4185 33.0902C68.5249 33.1966 68.5249 33.4095 68.4185 33.5159C68.3121 33.6223 68.0993 33.6223 67.9928 33.5159C67.8864 33.4095 67.8864 33.303 67.9928 33.0902ZM67.78 32.3454C67.78 32.239 67.8864 32.1326 67.9928 32.1326C68.0993 32.1326 68.2057 32.239 68.2057 32.3454C68.2057 32.4518 68.0993 32.5582 67.9928 32.5582C67.78 32.4518 67.78 32.4518 67.78 32.3454Z" fill="#474343"/>
<path d="M67.1416 32.3454C67.1416 33.5159 68.0993 34.4735 69.2697 34.4735C70.4402 34.4735 71.3978 33.5159 71.3978 32.3454C71.3978 31.1749 70.4402 30.2173 69.2697 30.2173C67.9928 30.2173 67.1416 31.1749 67.1416 32.3454ZM68.4185 31.4941C68.3121 31.6006 68.0993 31.6006 67.9928 31.4941C67.8864 31.3877 67.8864 31.1749 67.9928 31.0685C68.0993 30.9621 68.3121 30.9621 68.4185 31.0685C68.5249 31.1749 68.5249 31.3877 68.4185 31.4941ZM69.3761 31.0685C69.3761 31.1749 69.2697 31.2813 69.1633 31.2813C69.0569 31.2813 68.9505 31.1749 68.9505 31.0685C68.9505 30.9621 69.0569 30.8557 69.1633 30.8557C69.2697 30.8557 69.3761 30.9621 69.3761 31.0685ZM70.4402 31.4941C70.3338 31.6006 70.121 31.6006 70.0146 31.4941C69.9082 31.3877 69.9082 31.1749 70.0146 31.0685C70.121 30.9621 70.3338 30.9621 70.4402 31.0685C70.5466 31.1749 70.5466 31.3877 70.4402 31.4941ZM70.5466 32.4518C70.4402 32.4518 70.3338 32.3454 70.3338 32.239C70.3338 32.1326 70.4402 32.0262 70.5466 32.0262C70.653 32.0262 70.7594 32.1326 70.7594 32.239C70.653 32.4518 70.653 32.4518 70.5466 32.4518ZM70.0146 33.0902C70.121 32.9838 70.3338 32.9838 70.4402 33.0902C70.5466 33.1966 70.5466 33.4095 70.4402 33.5159C70.3338 33.6223 70.121 33.6223 70.0146 33.5159C69.9082 33.4095 69.9082 33.303 70.0146 33.0902ZM69.0569 33.6223C69.0569 33.5159 69.1633 33.4095 69.2697 33.4095C69.3761 33.4095 69.4825 33.5159 69.4825 33.6223C69.4825 33.7287 69.3761 33.8351 69.2697 33.8351C69.1633 33.8351 69.0569 33.7287 69.0569 33.6223ZM68.4185 32.3454C68.4185 31.9198 68.7377 31.4941 69.2697 31.4941C69.6953 31.4941 70.121 31.8134 70.121 32.3454C70.121 32.771 69.8017 33.1966 69.2697 33.1966C68.7377 33.0902 68.4185 32.771 68.4185 32.3454ZM67.9928 33.0902C68.0993 32.9838 68.3121 32.9838 68.4185 33.0902C68.5249 33.1966 68.5249 33.4095 68.4185 33.5159C68.3121 33.6223 68.0993 33.6223 67.9928 33.5159C67.8864 33.4095 67.8864 33.303 67.9928 33.0902ZM67.78 32.3454C67.78 32.239 67.8864 32.1326 67.9928 32.1326C68.0993 32.1326 68.2057 32.239 68.2057 32.3454C68.2057 32.4518 68.0993 32.5582 67.9928 32.5582C67.78 32.4518 67.78 32.4518 67.78 32.3454Z" fill="#C6C6C6"/>
<path d="M64.2688 32.3458C64.2688 35.006 66.5033 37.2405 69.1635 37.2405C71.8236 37.2405 74.0581 35.006 74.0581 32.3458C74.0581 29.6857 71.8236 27.4512 69.1635 27.4512C66.5033 27.4512 64.2688 29.5793 64.2688 32.3458ZM66.0777 30.5369C65.9713 30.7497 65.6521 30.8561 65.3329 30.6433C65.12 30.5369 65.0136 30.2177 65.12 30.0049C65.2265 29.7921 65.5457 29.6857 65.8649 29.8985C66.0777 30.0049 66.1841 30.3241 66.0777 30.5369ZM69.1635 28.9409C71.0788 28.9409 72.5684 30.4305 72.5684 32.3458C72.5684 34.2611 71.0788 35.7508 69.1635 35.7508C67.2482 35.7508 65.7585 34.2611 65.7585 32.3458C65.8649 30.4305 67.3546 28.9409 69.1635 28.9409ZM67.461 29.1537C67.2482 29.2601 66.9289 29.1537 66.8225 28.9409C66.7161 28.728 66.7161 28.4088 66.9289 28.196C67.1417 28.0896 67.461 28.196 67.5674 28.4088C67.6738 28.728 67.6738 29.0473 67.461 29.1537ZM69.6955 28.196C69.6955 28.5152 69.4827 28.728 69.2699 28.728C69.057 28.728 68.8442 28.5152 68.8442 28.196C68.8442 27.8768 69.057 27.664 69.2699 27.664C69.4827 27.664 69.6955 27.8768 69.6955 28.196ZM71.7172 28.9409C71.6108 29.1537 71.2916 29.2601 71.0788 29.1537C70.866 29.0473 70.7595 28.728 70.9724 28.4088C71.0788 28.196 71.398 28.0896 71.6108 28.196C71.8236 28.4088 71.8236 28.728 71.7172 28.9409ZM72.9941 30.6433C72.7812 30.7497 72.462 30.7497 72.2492 30.5369C72.1428 30.3241 72.2492 30.0049 72.462 29.8985C72.6748 29.7921 72.9941 29.7921 73.2069 30.0049C73.4197 30.2177 73.3133 30.5369 72.9941 30.6433ZM73.4197 32.7714C73.1005 32.7714 72.8877 32.5586 72.8877 32.3458C72.8877 32.133 73.1005 31.9202 73.4197 31.9202C73.7389 31.9202 73.9517 32.133 73.9517 32.3458C73.9517 32.5586 73.6325 32.7714 73.4197 32.7714ZM72.3556 34.1547C72.462 33.9419 72.7812 33.8355 73.1005 34.0483C73.3133 34.1547 73.4197 34.4739 73.3133 34.6867C73.2069 34.8996 72.8877 35.006 72.5684 34.7932C72.3556 34.6868 72.2492 34.3675 72.3556 34.1547ZM70.9724 35.4316C71.1852 35.3252 71.5044 35.4316 71.6108 35.6444C71.7172 35.8572 71.7172 36.1764 71.5044 36.3892C71.2916 36.4956 70.9723 36.3892 70.8659 36.1764C70.7595 35.8572 70.7595 35.538 70.9724 35.4316ZM68.7378 36.4956C68.7378 36.1764 68.9507 35.9636 69.1635 35.9636C69.3763 35.9636 69.5891 36.1764 69.5891 36.4956C69.5891 36.8149 69.3763 37.0277 69.1635 37.0277C68.9507 37.0277 68.7378 36.8149 68.7378 36.4956ZM66.7161 35.6444C66.8225 35.4316 67.1418 35.3252 67.3546 35.4316C67.5674 35.538 67.6738 35.8572 67.461 36.1764C67.3546 36.3892 67.0354 36.4956 66.8225 36.3892C66.6097 36.2828 66.6097 35.9636 66.7161 35.6444ZM65.4393 34.0483C65.6521 33.9419 65.9713 33.9419 66.1841 34.1547C66.2905 34.3675 66.1841 34.6868 65.9713 34.7932C65.7585 34.8996 65.4393 34.8996 65.2265 34.6867C65.0136 34.4739 65.12 34.1547 65.4393 34.0483ZM64.4816 32.3458C64.4816 32.133 64.6944 31.9202 65.0136 31.9202C65.3329 31.9202 65.5457 32.133 65.5457 32.3458C65.5457 32.5586 65.3329 32.7714 65.0136 32.7714C64.8008 32.7714 64.4816 32.5586 64.4816 32.3458Z" fill="#474343"/>
<path d="M14.7903 32.3471C14.7903 34.688 16.7056 36.4969 18.9401 36.4969C21.281 36.4969 23.0899 34.5816 23.0899 32.3471C23.0899 30.0062 21.1746 28.1973 18.9401 28.1973C16.7056 28.1973 14.7903 30.0062 14.7903 32.3471Z" fill="#1D1715"/>
<path d="M11.2788 32.3467C11.2788 36.6029 14.7902 40.1143 19.0465 40.1143C23.3027 40.1143 26.8141 36.6029 26.8141 32.3467C26.8141 28.0905 23.3027 24.5791 19.0465 24.5791C14.6838 24.5791 11.1724 28.0905 11.2788 32.3467ZM14.2582 32.3467C14.2582 29.6866 16.3863 27.5585 19.0465 27.5585C21.7066 27.5585 23.8347 29.6866 23.8347 32.3467C23.8347 35.0068 21.7066 37.135 19.0465 37.135C16.3863 37.135 14.2582 35.0068 14.2582 32.3467Z" fill="#1D1715"/>
<path d="M13.5134 32.3461C13.5134 35.4318 15.9608 37.8792 19.0465 37.8792C22.1323 37.8792 24.5796 35.4318 24.5796 32.3461C24.5796 29.2603 22.1323 26.813 19.0465 26.813C15.9608 26.813 13.5134 29.2603 13.5134 32.3461ZM14.0455 32.3461C14.0455 29.6859 16.28 27.4514 18.9401 27.4514C21.6003 27.4514 23.8348 29.6859 23.8348 32.3461C23.8348 35.0062 21.6003 37.2407 18.9401 37.2407C16.28 37.2407 14.0455 35.0062 14.0455 32.3461Z" fill="#FFE66A"/>
<path d="M15.6415 32.3464C15.6415 34.2617 17.1312 35.7514 19.0465 35.7514C20.9618 35.7514 22.4514 34.2617 22.4514 32.3464C22.4514 30.4311 20.9618 28.9414 19.0465 28.9414C17.1312 28.9414 15.6415 30.4311 15.6415 32.3464ZM16.9183 32.3464C16.9183 31.1759 17.876 30.2183 19.0465 30.2183C20.2169 30.2183 21.1746 31.1759 21.1746 32.3464C21.1746 33.5168 20.2169 34.4745 19.0465 34.4745C17.876 34.4745 16.9183 33.5168 16.9183 32.3464Z" fill="#FFE66A"/>
<path d="M16.9183 32.3454C16.9183 33.5159 17.876 34.4735 19.0464 34.4735C20.2169 34.4735 21.1746 33.5159 21.1746 32.3454C21.1746 31.1749 20.2169 30.2173 19.0464 30.2173C17.876 30.2173 16.9183 31.1749 16.9183 32.3454ZM18.1952 31.4941C18.0888 31.6006 17.876 31.6006 17.7696 31.4941C17.6632 31.3877 17.6632 31.1749 17.7696 31.0685C17.876 30.9621 18.0888 30.9621 18.1952 31.0685C18.3016 31.1749 18.3016 31.3877 18.1952 31.4941ZM19.1529 31.0685C19.1529 31.1749 19.0465 31.2813 18.9401 31.2813C18.8336 31.2813 18.7272 31.1749 18.7272 31.0685C18.7272 30.9621 18.8336 30.8557 18.9401 30.8557C19.0465 30.8557 19.1529 30.9621 19.1529 31.0685ZM20.2169 31.4941C20.1105 31.6006 19.8977 31.6006 19.7913 31.4941C19.6849 31.3877 19.6849 31.1749 19.7913 31.0685C19.8977 30.9621 20.1105 30.9621 20.2169 31.0685C20.3233 31.1749 20.3233 31.3877 20.2169 31.4941ZM20.3233 32.4518C20.2169 32.4518 20.1105 32.3454 20.1105 32.239C20.1105 32.1326 20.2169 32.0262 20.3233 32.0262C20.4297 32.0262 20.5361 32.1326 20.5361 32.239C20.5361 32.4518 20.4297 32.4518 20.3233 32.4518ZM19.7913 33.0902C19.8977 32.9838 20.1105 32.9838 20.2169 33.0902C20.3233 33.1966 20.3233 33.4095 20.2169 33.5159C20.1105 33.6223 19.8977 33.6223 19.7913 33.5159C19.6849 33.4095 19.6849 33.303 19.7913 33.0902ZM18.8336 33.6223C18.8336 33.5159 18.94 33.4095 19.0464 33.4095C19.1529 33.4095 19.2593 33.5159 19.2593 33.6223C19.2593 33.7287 19.1529 33.8351 19.0464 33.8351C18.94 33.8351 18.8336 33.7287 18.8336 33.6223ZM18.1952 32.3454C18.1952 31.9198 18.5144 31.4941 19.0464 31.4941C19.4721 31.4941 19.8977 31.8134 19.8977 32.3454C19.8977 32.771 19.5785 33.1966 19.0464 33.1966C18.5144 33.0902 18.1952 32.771 18.1952 32.3454ZM17.7696 33.0902C17.876 32.9838 18.0888 32.9838 18.1952 33.0902C18.3016 33.1966 18.3016 33.4095 18.1952 33.5159C18.0888 33.6223 17.876 33.6223 17.7696 33.5159C17.6632 33.4095 17.6632 33.303 17.7696 33.0902ZM17.5568 32.3454C17.5568 32.239 17.6632 32.1326 17.7696 32.1326C17.876 32.1326 17.9824 32.239 17.9824 32.3454C17.9824 32.4518 17.876 32.5582 17.7696 32.5582C17.6632 32.5582 17.5568 32.4518 17.5568 32.3454Z" fill="#474343"/>
<path d="M14.0454 32.3458C14.0454 35.006 16.2799 37.2405 18.9401 37.2405C21.6002 37.2405 23.8347 35.006 23.8347 32.3458C23.8347 29.6857 21.6002 27.4512 18.9401 27.4512C16.2799 27.4512 14.0454 29.5793 14.0454 32.3458ZM15.8543 30.5369C15.7479 30.7497 15.4287 30.8561 15.1095 30.6433C14.8967 30.5369 14.7903 30.2177 14.8967 30.0049C15.0031 29.7921 15.3223 29.6857 15.6415 29.8985C15.8543 30.0049 15.9607 30.3241 15.8543 30.5369ZM19.0465 28.9409C20.9618 28.9409 22.4514 30.4305 22.4514 32.3458C22.4514 34.2611 20.9618 35.7508 19.0465 35.7508C17.1312 35.7508 15.6415 34.2611 15.6415 32.3458C15.6415 30.4305 17.1312 28.9409 19.0465 28.9409ZM17.2376 29.1537C17.0248 29.2601 16.7055 29.1537 16.5991 28.9409C16.4927 28.728 16.4927 28.4088 16.7055 28.196C16.9184 28.0896 17.2376 28.196 17.344 28.4088C17.4504 28.728 17.4504 29.0473 17.2376 29.1537ZM19.4721 28.196C19.4721 28.5152 19.2593 28.728 19.0465 28.728C18.8337 28.728 18.6209 28.5152 18.6209 28.196C18.6209 27.8768 18.8337 27.664 19.0465 27.664C19.2593 27.664 19.4721 27.8768 19.4721 28.196ZM21.4938 28.9409C21.3874 29.1537 21.0682 29.2601 20.8554 29.1537C20.6425 29.0473 20.5362 28.728 20.749 28.4088C20.8554 28.196 21.1746 28.0896 21.3874 28.196C21.6002 28.4088 21.6002 28.728 21.4938 28.9409ZM22.7707 30.6433C22.5579 30.7497 22.2386 30.7497 22.0258 30.5369C21.9194 30.3241 22.0258 30.0049 22.2386 29.8985C22.4514 29.7921 22.7707 29.7921 22.9835 30.0049C23.1963 30.2177 23.0899 30.5369 22.7707 30.6433ZM23.1963 32.7714C22.8771 32.7714 22.6643 32.5586 22.6643 32.3458C22.6643 32.133 22.8771 31.9202 23.1963 31.9202C23.5155 31.9202 23.7283 32.133 23.7283 32.3458C23.7283 32.5586 23.4091 32.7714 23.1963 32.7714ZM22.1322 34.1547C22.2386 33.9419 22.5579 33.8355 22.8771 34.0483C23.0899 34.1547 23.1963 34.4739 23.0899 34.6867C22.9835 34.8996 22.6643 35.006 22.345 34.7932C22.1322 34.6868 22.0258 34.3675 22.1322 34.1547ZM20.8554 35.4316C21.0682 35.3252 21.3874 35.4316 21.4938 35.6444C21.6002 35.8572 21.6002 36.1764 21.3874 36.3892C21.1746 36.4956 20.8554 36.3892 20.749 36.1764C20.5362 35.8572 20.5361 35.538 20.8554 35.4316ZM18.5144 36.4956C18.5144 36.1764 18.7273 35.9636 18.9401 35.9636C19.1529 35.9636 19.3657 36.1764 19.3657 36.4956C19.3657 36.8149 19.1529 37.0277 18.9401 37.0277C18.7273 37.0277 18.5144 36.8149 18.5144 36.4956ZM16.4927 35.6444C16.5991 35.4316 16.9184 35.3252 17.1312 35.4316C17.344 35.538 17.4504 35.8572 17.2376 36.1764C17.1312 36.3892 16.8119 36.4956 16.5991 36.3892C16.3863 36.2828 16.3863 35.9636 16.4927 35.6444ZM15.2159 34.0483C15.4287 33.9419 15.7479 33.9419 15.9607 34.1547C16.0671 34.3675 15.9607 34.6868 15.7479 34.7932C15.5351 34.8996 15.2159 34.8996 15.0031 34.6867C14.7902 34.4739 14.8967 34.1547 15.2159 34.0483ZM14.3646 32.3458C14.3646 32.133 14.5774 31.9202 14.8967 31.9202C15.2159 31.9202 15.4287 32.133 15.4287 32.3458C15.4287 32.5586 15.2159 32.7714 14.8967 32.7714C14.5774 32.7714 14.3646 32.5586 14.3646 32.3458Z" fill="#474343"/>
<path d="M79.5913 31.7091H83.3155C84.2732 31.7091 85.1244 30.9643 85.1244 29.9002C85.1244 28.9425 84.3796 28.0913 83.3155 28.0913H79.5913V31.7091Z" fill="#474343"/>
<path d="M3.61785 31.7086H7.34205V28.1973H3.61785C2.6602 28.1973 1.80896 28.9421 1.80896 30.0062C1.80896 30.9638 2.6602 31.7086 3.61785 31.7086Z" fill="#474343"/>
<path opacity="0.1" d="M0 40.1157C0 40.9669 18.5146 41.6053 41.3918 41.6053C64.269 41.6053 82.7835 40.9669 82.7835 40.1157C82.7835 39.2644 64.269 38.626 41.3918 38.626C18.621 38.626 0 39.2644 0 40.1157Z" fill="#1D1D1B"/>
<path d="M60.0127 16.7061C60.3319 17.5573 61.0767 16.9189 60.7575 16.2805L59.6935 14.1523L59.3743 15.2164L60.0127 16.7061Z" fill="#FFE66A"/>
<path d="M58.5229 17.3436C59.055 17.3436 59.4806 16.918 59.587 16.386L59.9062 13.1938C60.0126 11.917 58.9486 11.8105 58.9486 11.8105L58.5229 17.3436Z" fill="#D69943"/>
</svg>
