<svg width="91" height="38" viewBox="0 0 91 38" fill="none" xmlns="http://www.w3.org/2000/svg">
<path d="M2.15536 28.8356H3.32583V21.3872H1.83614C0.984899 21.3872 0.24006 22.0256 0.24006 22.8769L0.0272517 26.3883C-0.185559 27.6651 0.878496 28.8356 2.15536 28.8356Z" fill="#474343"/>
<path d="M69.2973 0.106412C71.9574 0.106412 74.5111 1.38327 76.1072 3.61778L87.3862 19.7914L89.3015 22.4516C89.5143 22.7708 89.7271 23.1964 89.8335 23.622C89.8335 23.8349 89.9399 24.0477 89.9399 24.2605V31.1768C89.9399 32.8793 88.5567 34.2626 86.8542 34.2626H81.1083H17.3714H11.7319H10.2422C6.6244 34.2626 3.53863 32.2409 2.04895 29.1551C1.94255 28.9423 1.83615 28.6231 1.72975 28.4103C1.30413 27.3462 1.09131 26.2822 1.09131 25.0053L2.36817 4.57546C2.47458 0.532047 3.32583 0 6.94361 0H69.2973V0.106412Z" fill="#474343"/>
<path d="M11.7318 28.4097H18.4354H69.1908C68.446 29.4737 68.1268 30.6442 68.1268 32.0275V34.262H17.2649H12.7959H10.3485C6.41154 34.262 3.00656 31.8146 1.62329 28.4097H11.7318Z" fill="#FFE66A"/>
<path fill-rule="evenodd" clip-rule="evenodd" d="M43.8663 31.2837C43.8663 31.8157 44.292 32.2414 44.824 32.2414H56.8478C57.3798 32.2414 57.8055 31.8157 57.8055 31.2837V3.51188C57.8055 2.97985 57.3798 2.5542 56.8478 2.5542H44.824C44.292 2.5542 43.8663 2.97985 43.8663 3.51188V31.2837Z" fill="#FFE66A"/>
<path d="M57.0607 4.15007V14.2586C57.0607 14.5778 56.8479 14.7906 56.5287 14.7906H45.5689C45.2497 14.7906 45.0369 14.5778 45.0369 14.2586V4.15007C45.0369 3.83085 45.2497 3.61804 45.5689 3.61804H56.5287C56.8479 3.51163 57.0607 3.83085 57.0607 4.15007Z" fill="#7A7A7A"/>
<path fill-rule="evenodd" clip-rule="evenodd" d="M59.8271 31.2832C59.8271 31.8153 60.2528 32.2409 60.7848 32.2409H63.1257C64.1898 32.2409 65.041 31.4961 65.1474 30.5384C65.8923 27.027 68.5524 24.2605 72.0638 23.6221C73.1279 23.4093 73.8727 22.4516 73.8727 21.3875V3.93704C73.8727 3.1922 73.2343 2.66016 72.5958 2.66016H61.104C60.3592 2.66016 59.8271 3.2986 59.8271 3.93704V31.2832Z" fill="#FFE66A"/>
<path d="M61.4233 3.51221H72.1703C72.5959 3.51221 72.9151 3.8314 72.9151 4.25703V15.536C72.9151 15.9616 72.4895 16.2809 72.0639 16.2809L61.3169 14.8976C60.9977 14.8976 60.6785 14.5784 60.6785 14.1528V4.25703C60.7849 3.8314 61.1041 3.51221 61.4233 3.51221Z" fill="#7A7A7A"/>
<path d="M75.3623 4.57597L84.194 17.1318C84.3004 17.3446 84.1939 17.6638 83.8747 17.6638L75.0431 16.4934C74.8303 16.4934 74.7239 16.387 74.7239 16.1742V4.68235C74.8303 4.46954 75.1495 4.36316 75.3623 4.57597Z" fill="#7A7A7A"/>
<path d="M75.3624 5.53223V15.96L80.1507 16.5984L83.3428 17.024L75.3624 5.53223Z" fill="#7A7A7A"/>
<path d="M78.448 19.3651C78.5544 19.3651 78.5544 19.3651 78.6608 19.3651C78.8736 19.2587 78.8736 19.0459 78.7672 18.8331L76.6391 15.0025C76.5327 14.7897 76.3199 14.7897 76.1071 14.8961C75.8943 15.0025 75.8943 15.2153 76.0007 15.4281L78.1288 19.2587C78.2352 19.3651 78.3416 19.3651 78.448 19.3651Z" fill="#FFE66A"/>
<path fill-rule="evenodd" clip-rule="evenodd" d="M76.2136 11.7046C76.9585 11.9174 77.3841 13.3007 77.1713 15.0032C76.9585 16.7057 76.32 17.9825 75.5752 18.0889L76.2136 11.7046Z" fill="#FFE66A"/>
<path d="M80.4697 31.9207C80.4697 32.772 80.3633 33.5168 80.0441 34.2617H86.7476C88.4501 34.2617 89.8334 32.8784 89.8334 31.1759V24.2595C89.8334 24.0467 89.8334 23.8339 89.727 23.6211H88.7693C88.2373 23.6211 87.8117 23.6211 87.2796 23.7275C85.4708 23.9403 83.7683 24.7915 82.385 25.962L79.4056 28.4093C80.1505 29.4734 80.4697 30.6438 80.4697 31.9207Z" fill="#FFE66A"/>
<path d="M87.7053 20.5374V25.5384C87.7053 26.3896 88.3437 27.0281 89.195 27.0281H89.6206C89.9399 27.0281 90.1527 26.8153 90.1527 26.496V24.2615C90.1527 24.0487 90.1527 23.8359 90.0463 23.6231C89.9399 23.1975 89.8334 22.7719 89.5142 22.4526L88.0246 20.4309C88.0246 20.2181 87.7053 20.3245 87.7053 20.5374Z" fill="#474343"/>
<path d="M89.8333 27.8774H87.386V28.3031H89.8333V27.8774Z" fill="#1D1715"/>
<path d="M89.8335 28.7295H87.3862V29.1551H89.8335V28.7295Z" fill="#1D1715"/>
<path d="M89.8333 29.5815H87.386V30.0072H89.8333V29.5815Z" fill="#1D1715"/>
<path d="M89.8333 30.4316H87.386V30.8573H89.8333V30.4316Z" fill="#1D1715"/>
<path d="M69.1909 28.4096C70.3614 26.7071 72.2767 25.6431 74.4048 25.6431H74.5112C76.7457 25.6431 78.661 26.7071 79.7251 28.4096C80.4699 29.4737 80.7891 30.6441 80.7891 32.0274V34.2619H67.9141V32.0274C68.0205 30.6441 68.4461 29.4737 69.1909 28.4096Z" fill="#1D1715"/>
<path d="M14.7111 28.4096C15.8815 26.7071 17.7968 25.6431 19.9249 25.6431H20.0313C22.2659 25.6431 24.1812 26.7071 25.2452 28.4096C25.9901 29.4737 26.3093 30.6441 26.3093 32.0274V34.2619H13.4342V32.0274C13.647 30.6441 14.0726 29.4737 14.7111 28.4096Z" fill="#1D1715"/>
<path d="M4.38974 15.6421H40.7804C41.3125 15.6421 41.8445 15.2165 41.8445 14.578V3.61825C41.8445 3.08623 41.4189 2.5542 40.7804 2.5542H5.24097C4.70894 2.5542 4.17692 2.97982 4.17692 3.61825L3.32568 14.578C3.32568 15.2165 3.75131 15.6421 4.38974 15.6421Z" fill="#FFE66A"/>
<path d="M40.6742 4.1511V14.1533C40.6742 14.4725 40.355 14.7917 40.0358 14.7917H24.6069C24.2877 14.7917 23.9685 14.4725 23.9685 14.1533V4.1511C23.9685 3.83189 24.2877 3.5127 24.6069 3.5127H40.0358C40.355 3.5127 40.6742 3.83189 40.6742 4.1511Z" fill="#7A7A7A"/>
<path d="M21.0955 4.36393V14.0468C21.0955 14.4725 20.7763 14.8981 20.2443 14.8981H5.1347C4.70907 14.8981 4.28345 14.5789 4.28345 14.0468L5.02828 4.36393C5.02828 3.9383 5.3475 3.5127 5.87953 3.5127H20.2443C20.7763 3.5127 21.0955 3.8319 21.0955 4.36393Z" fill="#7A7A7A"/>
<path d="M60.9977 16.7049C60.9977 16.9177 61.7425 17.2369 62.5938 17.2369C63.445 17.2369 64.1898 17.0241 64.1898 16.7049C64.1898 16.4921 63.445 16.1729 62.5938 16.1729C61.7425 16.2793 60.9977 16.4921 60.9977 16.7049Z" fill="#474343"/>
<path opacity="0.05" d="M1.19769 21.4948L1.30408 19.4731L89.7271 27.9856V28.4112V28.8368V29.2624V29.6881V30.1137V30.5393V30.9649V31.2841C89.7271 32.8802 88.4503 34.2635 86.8542 34.3699C86.7478 34.3699 86.7478 34.3699 86.6413 34.3699H80.8955H80.0442H68.0204H26.5222H17.2649H13.6471H12.7959H11.7318H10.3486H10.2422C6.62437 34.3699 3.5386 32.3482 2.04892 29.2624V29.156C2.04892 29.0496 1.94252 28.9432 1.94252 28.8368C0.878469 28.624 0.0272274 27.6663 0.133633 26.4959L0.346441 22.9845C0.240035 22.2397 0.665661 21.7077 1.19769 21.4948Z" fill="black"/>
<path fill-rule="evenodd" clip-rule="evenodd" d="M76.7455 32.3468C76.7455 33.6237 75.7879 34.5813 74.511 34.5813C73.2341 34.5813 72.2765 33.6237 72.2765 32.3468C72.2765 31.07 73.2341 30.1123 74.511 30.1123C75.6815 30.0059 76.7455 31.07 76.7455 32.3468Z" fill="#FFE66A"/>
<path d="M68.8716 32.3474C68.8716 35.4332 71.4253 37.987 74.5111 37.987C76.4264 37.987 78.0225 37.0293 79.0865 35.646C79.7249 34.6884 80.1506 33.6243 80.1506 32.3474C80.1506 31.2834 79.8314 30.3258 79.4057 29.5809C78.4481 27.8784 76.6392 26.8144 74.5111 26.8144C71.3189 26.708 68.8716 29.1553 68.8716 32.3474ZM70.6805 32.3474C70.6805 30.2193 72.383 28.5169 74.5111 28.5169C76.6392 28.5169 78.3417 30.2193 78.3417 32.3474C78.3417 34.4756 76.6392 36.1781 74.5111 36.1781C72.383 36.0716 70.6805 34.3692 70.6805 32.3474Z" fill="#1D1715"/>
<path d="M74.5112 28.3032C72.2767 28.3032 70.5742 30.1121 70.5742 32.2402C70.5742 34.4748 72.3831 36.1772 74.5112 36.1772C76.7458 36.1772 78.4483 34.3684 78.4483 32.2402C78.4483 30.1121 76.6393 28.3032 74.5112 28.3032ZM75.6817 34.1555C75.4689 34.2619 75.1497 34.3683 74.9369 34.4747C74.8304 34.4747 74.6176 34.4747 74.5112 34.4747C74.4048 34.4747 74.192 34.4747 74.0856 34.4747C73.7664 34.3683 73.5536 34.2619 73.3408 34.1555C73.128 33.9427 72.9151 33.7299 72.7023 33.5171C72.5959 33.3043 72.4895 32.9851 72.3831 32.7723C72.3831 32.6659 72.3831 32.453 72.3831 32.3466C72.3831 32.2402 72.3831 32.0274 72.3831 31.921C72.4895 31.6018 72.5959 31.389 72.7023 31.1762C72.9151 30.9634 73.128 30.7506 73.3408 30.5377C73.5536 30.4313 73.7664 30.3249 74.0856 30.2185C74.192 30.2185 74.4048 30.2185 74.5112 30.2185C74.6176 30.2185 74.8304 30.2185 74.9369 30.2185C75.2561 30.3249 75.4689 30.4313 75.6817 30.5377C75.8945 30.7506 76.1073 30.9634 76.3201 31.1762C76.4266 31.389 76.5329 31.6018 76.6393 31.921C76.6393 32.0274 76.6393 32.2402 76.6393 32.3466C76.6393 32.453 76.6393 32.6659 76.6393 32.7723C76.5329 33.0915 76.4266 33.3043 76.3201 33.5171C76.1073 33.7299 75.8945 33.9427 75.6817 34.1555ZM75.8945 30.2185C75.5753 30.0057 75.2561 29.8993 74.9369 29.7929V28.7288C75.5753 28.8352 76.2137 29.0481 76.7458 29.4737L75.8945 30.2185ZM74.0856 29.7929C73.7664 29.8993 73.3408 30.0057 73.128 30.2185L72.3831 29.4737C72.9152 29.0481 73.4472 28.8352 74.192 28.7288V29.7929H74.0856ZM72.3831 30.8569C72.1703 31.1762 72.0639 31.4954 71.9575 31.8146H70.8935C70.9999 31.1762 71.2127 30.5377 71.6383 30.0057L72.3831 30.8569ZM71.9575 32.7723C72.0639 33.1979 72.1703 33.5171 72.3831 33.8363L71.6383 34.5811C71.2127 34.0491 70.9999 33.5171 70.8935 32.7723H71.9575ZM73.0216 34.3684C73.3408 34.5812 73.66 34.6876 74.0856 34.794V35.858C73.4472 35.7516 72.8087 35.5388 72.2767 35.1132L73.0216 34.3684ZM74.9369 34.794C75.3625 34.6876 75.6817 34.5812 76.0009 34.3684L76.7458 35.1132C76.2137 35.5388 75.6817 35.7516 74.9369 35.858V34.794ZM76.5329 33.7299C76.7457 33.4107 76.8521 33.0915 76.9586 32.6659H78.0226C77.9162 33.3043 77.7034 33.9427 77.2778 34.4747L76.5329 33.7299ZM76.9586 31.8146C76.8521 31.4954 76.7457 31.0698 76.5329 30.8569L77.2778 30.1121C77.7034 30.6442 77.9162 31.1762 78.0226 31.921H76.9586V31.8146Z" fill="#474343"/>
<path fill-rule="evenodd" clip-rule="evenodd" d="M22.3721 32.3468C22.3721 33.6237 21.4145 34.5813 20.1376 34.5813C18.8607 34.5813 17.9031 33.6237 17.9031 32.3468C17.9031 31.07 18.8607 30.1123 20.1376 30.1123C21.308 30.0059 22.3721 31.07 22.3721 32.3468Z" fill="#FFE66A"/>
<path d="M14.4982 32.3474C14.4982 35.4332 17.0519 37.987 20.1377 37.987C22.053 37.987 23.649 37.0293 24.7131 35.646C25.3515 34.6884 25.7771 33.6243 25.7771 32.3474C25.7771 31.2834 25.4579 30.3258 25.0323 29.5809C24.0747 27.8784 22.2658 26.8144 20.1377 26.8144C16.9455 26.708 14.4982 29.1553 14.4982 32.3474ZM16.3071 32.3474C16.3071 30.2193 18.0095 28.5169 20.1377 28.5169C22.2658 28.5169 23.9683 30.2193 23.9683 32.3474C23.9683 34.4756 22.2658 36.1781 20.1377 36.1781C18.0095 36.0716 16.3071 34.3692 16.3071 32.3474Z" fill="#1D1715"/>
<path d="M20.1378 28.3032C17.9033 28.3032 16.2008 30.1121 16.2008 32.2402C16.2008 34.4748 18.0097 36.1772 20.1378 36.1772C22.3723 36.1772 24.0748 34.3684 24.0748 32.2402C24.0748 30.1121 22.2659 28.3032 20.1378 28.3032ZM21.3083 34.1555C21.0955 34.2619 20.7763 34.3683 20.5634 34.4747C20.457 34.4747 20.2442 34.4747 20.1378 34.4747C20.0314 34.4747 19.8186 34.4747 19.7122 34.4747C19.393 34.3683 19.1802 34.2619 18.9674 34.1555C18.7545 33.9427 18.5417 33.7299 18.3289 33.5171C18.2225 33.3043 18.1161 32.9851 18.0097 32.7723C18.0097 32.6659 18.0097 32.453 18.0097 32.3466C18.0097 32.2402 18.0097 32.0274 18.0097 31.921C18.1161 31.6018 18.2225 31.389 18.3289 31.1762C18.5417 30.9634 18.7545 30.7506 18.9674 30.5377C19.1802 30.4313 19.393 30.3249 19.7122 30.2185C19.8186 30.2185 20.0314 30.2185 20.1378 30.2185C20.2442 30.2185 20.457 30.2185 20.5634 30.2185C20.8827 30.3249 21.0955 30.4313 21.3083 30.5377C21.5211 30.7506 21.7339 30.9634 21.9467 31.1762C22.0531 31.389 22.1595 31.6018 22.2659 31.921C22.2659 32.0274 22.2659 32.2402 22.2659 32.3466C22.2659 32.453 22.2659 32.6659 22.2659 32.7723C22.1595 33.0915 22.0531 33.3043 21.9467 33.5171C21.7339 33.7299 21.5211 33.9427 21.3083 34.1555ZM21.5211 30.2185C21.2019 30.0057 20.8827 29.8993 20.5634 29.7929V28.7288C21.2019 28.8352 21.8403 29.0481 22.3723 29.4737L21.5211 30.2185ZM19.6058 29.7929C19.2866 29.8993 18.8609 30.0057 18.6481 30.2185L17.9033 29.4737C18.4353 29.0481 18.9674 28.8352 19.7122 28.7288V29.7929H19.6058ZM18.0097 30.8569C17.7969 31.1762 17.6905 31.4954 17.5841 31.8146H16.52C16.6264 31.1762 16.8392 30.5377 17.2649 30.0057L18.0097 30.8569ZM17.5841 32.7723C17.6905 33.1979 17.7969 33.5171 18.0097 33.8363L17.2649 34.5811C16.8392 34.0491 16.6264 33.5171 16.52 32.7723H17.5841ZM18.6481 34.3684C18.9674 34.5812 19.2866 34.6876 19.7122 34.794V35.858C19.0738 35.7516 18.4353 35.5388 17.9033 35.1132L18.6481 34.3684ZM20.5634 34.794C20.9891 34.6876 21.3083 34.5812 21.6275 34.3684L22.3723 35.1132C21.8403 35.5388 21.3083 35.7516 20.5634 35.858V34.794ZM22.1595 33.7299C22.3723 33.4107 22.4787 33.0915 22.5851 32.6659H23.6492C23.5428 33.3043 23.33 33.9427 22.9044 34.4747L22.1595 33.7299ZM22.5851 31.8146C22.4787 31.4954 22.3723 31.0698 22.1595 30.8569L22.9044 30.1121C23.33 30.6442 23.5428 31.1762 23.6492 31.921H22.5851V31.8146Z" fill="#474343"/>
<g opacity="0.5">
<path d="M6.09229 4.04443L12.583 14.153H17.6905L11.3062 4.04443H6.09229Z" fill="#FFE66A"/>
<path d="M11.9446 4.04443L18.3289 14.153H20.0314L13.6471 4.04443H11.9446Z" fill="#FFE66A"/>
</g>
<g opacity="0.5">
<path d="M25.1388 4.04443L31.5231 14.153H36.6306L30.3527 4.04443H25.1388Z" fill="#FFE66A"/>
<path d="M30.9911 4.04443L37.269 14.153H38.9715L32.6936 4.04443H30.9911Z" fill="#FFE66A"/>
</g>
<g opacity="0.5">
<path d="M45.4623 4.04443V6.49175L50.3569 14.153H55.5708L49.1865 4.04443H45.4623Z" fill="#FFE66A"/>
<path d="M49.8248 4.04443L56.2092 14.153H56.5284V12.0249L51.5273 4.04443H49.8248Z" fill="#FFE66A"/>
</g>
<g opacity="0.5">
<path d="M61.3168 4.25666V5.42712L67.4883 15.11L72.2765 15.7485C72.3829 15.7485 72.3829 15.6421 72.3829 15.6421V14.7908L65.6794 4.25666H61.4232C61.4232 4.04384 61.3168 4.15025 61.3168 4.25666Z" fill="#FFE66A"/>
<path d="M66.4243 4.04443L72.383 13.6209V10.9608L68.0204 4.04443H66.4243Z" fill="#FFE66A"/>
</g>
<g opacity="0.5">
<path d="M75.3624 5.53223V8.93719L80.1507 16.5984L83.3428 17.024L75.3624 5.53223Z" fill="#FFE66A"/>
</g>
</svg>
