<svg width="98" height="29" viewBox="0 0 98 29" fill="none" xmlns="http://www.w3.org/2000/svg">
<path d="M2.82242 15.4279H2.07758C1.43914 15.4279 0.907115 15.0023 0.907115 14.3639L0.694305 12.023C0.587899 11.2781 1.22633 10.7461 1.86476 10.7461H2.82242V15.4279Z" fill="#FFE66A"/>
<path d="M93.9058 13.3012C93.693 14.6844 94.1186 15.8549 94.7571 15.9613C95.3955 16.0677 96.1403 15.0037 96.3531 13.7268C96.566 12.3435 96.1403 11.1731 95.5019 11.0667C94.8635 10.9603 94.1186 11.9179 93.9058 13.3012Z" fill="#474343"/>
<path d="M1.33285 10.6406L2.50331 17.7697L5.80188 20.4299C7.07875 21.3875 8.56843 21.9195 10.1645 21.9195H89.6495C90.6071 21.9195 91.6712 21.4939 92.3096 20.7491L94.7569 17.8761L95.7146 11.3854C95.821 10.4277 95.1826 9.5765 94.3313 9.4701C78.9025 7.44839 76.4552 7.34198 65.7082 7.44839L58.3662 0.95765C57.7278 0.319216 56.7701 0 55.9189 0H42.9374C31.2328 0 28.2535 3.29857 25.0613 6.80996C23.5716 6.70355 10.4837 6.91636 2.82253 8.29963C1.86488 8.72526 1.22644 9.68291 1.33285 10.6406Z" fill="#474343"/>
<path opacity="0.72" d="M2.92901 15.9598L2.07777 10.8523C1.97136 10.1075 2.50339 9.36264 3.24823 9.14983C9.95178 7.97937 20.4859 7.66016 23.7845 7.66016C15.9105 8.405 8.3557 9.25624 4.31228 10.1075C3.67385 10.2139 3.24823 10.7459 3.24823 11.3844L2.92901 15.9598Z" fill="#FFE66A"/>
<path d="M42.9374 1.16992H55.7061C56.4509 1.16992 57.1958 1.48914 57.8342 2.02117L64.2186 7.76707H38.362L31.3392 7.23504C31.3392 7.12863 34.8506 1.16992 42.9374 1.16992Z" fill="#7A7A7A"/>
<path d="M64.3249 7.76656C66.3466 9.57545 69.7516 15.1085 66.1338 20.9609H41.6606C39.9581 20.9609 38.5748 19.3648 38.894 17.6623C39.426 14.7893 39.5324 11.2779 38.4684 7.66016L64.3249 7.76656Z" fill="#FFE66A"/>
<path d="M42.7245 0.852539H41.8733V7.6625H42.7245V0.852539Z" fill="#474343"/>
<path d="M40.3837 10.6414C40.3837 10.9606 40.7029 11.2798 41.0221 11.2798H43.5758C44.0015 11.2798 44.2143 10.9606 44.2143 10.6414C44.2143 10.2157 43.8951 10.0029 43.5758 10.0029H41.0221C40.7029 10.0029 40.3837 10.3221 40.3837 10.6414Z" fill="#474343"/>
<path d="M7.29154 20.1103H1.33283C1.01361 20.1103 0.694399 19.8974 0.587993 19.5782L0.0559652 18.4078C-0.156846 17.8757 0.268775 17.2373 0.800803 17.2373H6.86592C7.18514 17.2373 7.50436 17.4501 7.61076 17.7693L8.14279 18.9398C8.24919 19.4718 7.92998 20.1103 7.29154 20.1103Z" fill="#474343"/>
<path opacity="0.75" d="M93.4799 11.7049C93.4799 11.2792 93.1607 10.96 92.7351 10.96C76.3486 8.83192 67.7298 8.83192 39.4259 8.61911L65.4953 8.29989L66.4529 8.19349C70.1771 7.98068 79.86 7.98068 93.9056 10.1088C94.6504 10.2152 95.076 10.8536 94.9696 11.5985L94.1184 17.4508L92.3095 18.302L93.1607 13.4074C84.0098 11.8113 80.9241 10.96 67.6234 10.5344C79.6472 10.0024 82.0945 10.3216 93.4799 11.7049Z" fill="#FFE66A"/>
<path opacity="0.1" d="M1.43921 27.3471C1.43921 28.0919 22.6139 28.8368 48.7897 28.8368C74.9655 28.8368 96.1402 28.1983 96.1402 27.3471C96.1402 26.6023 74.9655 25.8574 48.7897 25.8574C22.6139 25.9638 1.43921 26.6023 1.43921 27.3471Z" fill="#1D1D1B"/>
<path d="M63.2607 5.85254H63.3672C63.8992 5.95894 64.2184 6.27816 64.3248 6.81019L64.5376 7.76784C64.7504 8.83189 63.8992 9.78954 62.8351 9.57673H62.6223L63.2607 5.85254Z" fill="#FFE66A"/>
<g opacity="0.15">
<path d="M49.2153 1.49023L55.3869 7.34254H50.4922L44.3207 1.49023H49.2153Z" fill="#FFE66A"/>
<path d="M51.4498 1.49023L57.515 7.34254H56.0253L49.8538 1.49023H51.4498Z" fill="#FFE66A"/>
</g>
<path d="M90.1816 20.1103H96.1403C96.4595 20.1103 96.7787 19.8974 96.8851 19.5782L97.4172 18.4078C97.63 17.8757 97.2044 17.2373 96.6723 17.2373H90.7136C90.3944 17.2373 90.0752 17.4501 89.9688 17.7693L89.4368 18.9398C89.2239 19.4718 89.5432 20.1103 90.1816 20.1103Z" fill="#474343"/>
<path opacity="0.1" d="M0.90709 17.3453H2.50317L2.18396 15.43C1.54552 15.43 1.0135 15.0044 1.0135 14.3659L0.90709 13.6211L97.2041 19.0478L96.8849 19.6862C96.7785 20.0054 96.4593 20.2182 96.1401 20.2182H92.8415L92.3095 20.8567C91.671 21.6015 90.7134 22.0271 89.6493 22.0271H10.1644C8.56829 22.0271 7.07861 21.4951 5.80175 20.5375L5.48253 20.2182H1.33271C1.0135 20.2182 0.69428 20.0054 0.587875 19.6862L0.0558468 18.5158C-0.156964 17.8773 0.268657 17.3453 0.90709 17.3453Z" fill="black"/>
<path d="M71.1349 21.9203H88.1598L87.947 19.7922C87.947 19.3666 87.8406 19.0474 87.7342 18.6217C86.9893 16.6 85.074 15.1104 82.8395 15.1104H76.668C74.4335 15.1104 72.4118 16.6 71.7733 18.6217C71.6669 18.941 71.5605 19.3666 71.5605 19.7922L71.1349 21.9203Z" fill="#1D1715"/>
<path d="M73.263 20.3255C73.263 20.4319 73.263 20.5384 73.263 20.7512H72.9438C72.9438 20.7512 72.8374 20.8576 72.731 20.964C72.731 21.1768 72.8374 21.3896 72.8374 21.6024V21.7088C72.8374 21.7088 72.8374 21.7088 72.9438 21.6024C73.0502 21.496 73.0502 21.496 73.0502 21.496L73.4758 21.3896C73.4758 21.496 73.5822 21.6024 73.5822 21.7088L73.263 21.8152C73.263 21.8152 73.263 21.8152 73.1566 21.9216L73.0502 22.028C73.1566 22.2408 73.1566 22.4537 73.263 22.7729C73.263 22.7729 73.263 22.7729 73.263 22.6665C73.3694 22.5601 73.3694 22.5601 73.3694 22.5601L73.795 22.3472C73.795 22.4537 73.9014 22.5601 73.9014 22.6665L73.5822 22.7729C73.5822 22.7729 73.4758 22.8793 73.3694 23.0921C73.4758 23.3049 73.5822 23.5177 73.6886 23.7305V23.6241C73.6886 23.5177 73.795 23.5177 73.795 23.5177L74.2206 23.3049C74.327 23.4113 74.327 23.5177 74.4334 23.6241L74.2206 23.9433C74.2206 23.9433 74.1142 24.0497 74.1142 24.2625C74.2206 24.4754 74.4334 24.6882 74.5398 24.7946V24.6882C74.5398 24.5818 74.5398 24.4754 74.5398 24.4754L74.8591 24.1561C74.9655 24.2626 75.0719 24.369 75.0719 24.4754L74.9655 24.901C74.9655 24.901 74.9655 25.0074 74.8591 25.2202C74.8591 25.2202 74.8591 25.2202 74.8591 25.3266C75.0719 25.5394 75.1783 25.6458 75.3911 25.7522V25.6458C75.3911 25.5394 75.3911 25.433 75.3911 25.433L75.7103 25.1138C75.8167 25.2202 75.9231 25.2202 76.0295 25.3266L75.8167 25.6458C75.8167 25.6458 75.8167 25.7522 75.8167 25.965C75.8167 25.965 75.8167 25.965 75.8167 26.0714C76.0295 26.1778 76.2423 26.2843 76.4552 26.3907V26.2843C76.4552 26.1779 76.4552 26.0714 76.4552 26.0714L76.668 25.6458C76.7744 25.7522 76.8808 25.7522 76.9872 25.8586L76.8808 26.1778C76.8808 26.1778 76.8808 26.1779 76.8808 26.2843C76.8808 26.3907 76.8808 26.3907 76.8808 26.4971C77.0936 26.6035 77.3064 26.7099 77.5192 26.7099V26.6035C77.5192 26.4971 77.5192 26.3907 77.5192 26.3907L77.6256 25.965C77.732 25.965 77.8384 26.0714 77.9448 26.0714L77.8384 26.3907C77.8384 26.3907 77.8384 26.4971 77.9448 26.7099C78.1576 26.8163 78.4769 26.8163 78.6897 26.8163C78.6897 26.8163 78.6897 26.8163 78.6897 26.7099C78.6897 26.6035 78.5833 26.4971 78.5833 26.4971L78.6897 26.0714C78.7961 26.0714 78.9025 26.0714 79.1153 26.0714V26.3907C79.1153 26.3907 79.2217 26.4971 79.3281 26.7099C79.4345 26.7099 79.4345 26.7099 79.5409 26.7099C79.7537 26.7099 79.9665 26.7099 80.0729 26.7099C80.0729 26.7099 80.0729 26.7099 80.0729 26.6035C79.9665 26.4971 79.9665 26.4971 79.9665 26.4971V26.0714C80.0729 26.0714 80.1793 26.0714 80.3922 26.0714V26.3907C80.3922 26.3907 80.4986 26.4971 80.605 26.6035C80.8178 26.6035 81.137 26.4971 81.3498 26.4971C81.3498 26.4971 81.3498 26.4971 81.2434 26.3907C81.137 26.2843 81.137 26.2843 81.137 26.2843L81.0306 25.8586C81.137 25.8586 81.2434 25.7522 81.3498 25.7522L81.4562 26.0714C81.4562 26.0714 81.4562 26.0714 81.5626 26.1778C81.5626 26.1778 81.669 26.2843 81.7754 26.2843C81.9882 26.1779 82.201 26.1778 82.5203 26.0714C82.5203 26.0714 82.5203 26.0714 82.4139 26.0714C82.3075 25.965 82.3075 25.965 82.3075 25.965L82.0946 25.5394C82.201 25.5394 82.3075 25.433 82.4139 25.433L82.5203 25.7522C82.5203 25.7522 82.6267 25.8586 82.8395 25.965C83.0523 25.8586 83.2651 25.7522 83.4779 25.6458H83.3715C83.2651 25.6458 83.2651 25.5394 83.2651 25.5394L83.0523 25.1138C83.1587 25.0074 83.2651 25.0074 83.3715 24.901L83.5843 25.2202C83.5843 25.2202 83.6907 25.3266 83.9035 25.3266C84.0099 25.2202 84.1163 25.1138 84.2228 25.0074C84.3292 24.901 84.3292 24.901 84.4356 24.7946C84.4356 24.7946 84.4356 24.7946 84.3292 24.7946C84.2228 24.7946 84.1163 24.7946 84.1163 24.7946L83.7971 24.4754C83.9035 24.369 84.0099 24.2625 84.1163 24.2625L84.3292 24.4754C84.3292 24.4754 84.4356 24.4754 84.6484 24.5818C84.6484 24.5818 84.6484 24.5818 84.7548 24.5818C84.9676 24.369 85.074 24.2625 85.1804 24.0497H85.074C84.9676 24.0497 84.8612 24.0497 84.8612 24.0497L84.542 23.7305C84.6484 23.6241 84.6484 23.5177 84.7548 23.4113L85.074 23.6241C85.074 23.6241 85.1804 23.6241 85.3932 23.6241C85.3932 23.6241 85.3932 23.6241 85.4996 23.6241C85.606 23.4113 85.7124 23.1985 85.8188 22.9857H85.7124C85.606 22.9857 85.4996 22.9857 85.4996 22.9857L85.074 22.7729C85.1804 22.6665 85.1804 22.5601 85.2868 22.4537L85.606 22.5601C85.606 22.5601 85.606 22.5601 85.7124 22.5601C85.8188 22.5601 85.8188 22.5601 85.9252 22.5601C86.0317 22.3472 86.1381 22.1344 86.1381 21.9216H86.0317C85.9252 21.9216 85.8188 21.9216 85.8188 21.9216L85.3932 21.8152C85.3932 21.7088 85.4996 21.6024 85.4996 21.496L85.8188 21.6024C85.8188 21.6024 85.9252 21.6024 86.1381 21.496C86.2445 21.2832 86.2445 20.964 86.2445 20.7512C86.2445 20.7512 86.2445 20.7512 86.1381 20.7512C86.0316 20.7512 85.9252 20.8576 85.9252 20.8576L85.4996 20.7512C85.4996 20.6448 85.4996 20.5384 85.4996 20.3255H85.8188C85.8188 20.3255 85.9252 20.2191 86.1381 20.1127C86.1381 20.0063 86.1381 20.0063 86.1381 19.8999C86.1381 19.6871 86.1381 19.4743 86.1381 19.3679C86.1381 19.3679 86.1381 19.3679 86.0317 19.3679C85.9252 19.4743 85.9252 19.4743 85.9252 19.4743H85.4996C85.4996 19.3679 85.4996 19.2615 85.4996 19.0487H85.8188C85.8188 19.0487 85.9252 18.9423 86.0317 18.8359C86.0317 18.6231 85.9252 18.3038 85.9252 18.091C85.9252 18.091 85.9252 18.091 85.8188 18.1974C85.7124 18.3038 85.7124 18.3038 85.7124 18.3038L85.2868 18.4102C85.2868 18.3038 85.1804 18.1974 85.1804 18.091L85.4996 17.9846C85.4996 17.9846 85.4996 17.9846 85.606 17.8782L85.7124 17.7718C85.606 17.559 85.606 17.3462 85.4996 17.027C85.4996 17.027 85.4996 17.027 85.4996 17.1334C85.3932 17.2398 85.3932 17.2398 85.3932 17.2398L84.9676 17.4526C84.9676 17.3462 84.8612 17.2398 84.8612 17.1334L85.1804 17.027C85.1804 17.027 85.2868 16.9206 85.3932 16.7078C85.2868 16.4949 85.1804 16.2821 85.074 16.0693V16.1757C85.074 16.2821 84.9676 16.2821 84.9676 16.2821L84.542 16.4949C84.4356 16.3885 84.4356 16.2821 84.3292 16.1757L84.6484 15.9629C84.6484 15.9629 84.7548 15.8565 84.7548 15.6437C84.6484 15.4309 84.4356 15.2181 84.3292 15.1117C84.3292 15.2181 84.3292 15.3245 84.3292 15.3245L84.0099 15.6437C83.9035 15.5373 83.7971 15.4309 83.7971 15.3245L84.0099 15.1117C84.0099 15.1117 84.0099 15.0053 84.1163 14.7925C84.1163 14.7925 84.1163 14.7925 84.1163 14.686C83.9035 14.4732 83.7971 14.3668 83.5843 14.2604V14.3668C83.5843 14.4732 83.5843 14.5796 83.5843 14.5796L83.2651 14.8989C83.1587 14.7925 83.0523 14.7925 82.9459 14.686L83.1587 14.3668C83.1587 14.3668 83.1587 14.2604 83.1587 14.0476C83.1587 14.0476 83.1587 14.0476 83.1587 13.9412C82.9459 13.8348 82.7331 13.7284 82.5203 13.622V13.7284C82.5203 13.8348 82.5203 13.9412 82.5203 13.9412L82.3075 14.3668C82.5203 14.4732 82.4139 14.3668 82.3075 14.3668L82.4139 14.0476C82.4139 14.0476 82.4139 14.0476 82.4139 13.9412C82.4139 13.8348 82.4139 13.8348 82.4139 13.7284C82.201 13.622 81.9882 13.5156 81.7754 13.5156V13.622C81.7754 13.7284 81.7754 13.8348 81.7754 13.8348L81.669 14.2604C81.5626 14.2604 81.4562 14.154 81.3498 14.154L81.4562 13.8348C81.4562 13.8348 81.4562 13.7284 81.3498 13.5156C81.137 13.4092 80.8178 13.4092 80.605 13.4092C80.605 13.4092 80.605 13.4092 80.605 13.5156C80.605 13.622 80.7114 13.7284 80.7114 13.7284L80.605 14.154C80.4986 14.154 80.3922 14.154 80.1793 14.154V13.8348C80.1793 13.8348 80.0729 13.7284 79.9665 13.5156C79.8601 13.5156 79.8601 13.5156 79.7537 13.5156C79.5409 13.5156 79.3281 13.5156 79.2217 13.5156C79.2217 13.5156 79.2217 13.5156 79.2217 13.622C79.3281 13.7284 79.3281 13.7284 79.3281 13.7284V14.154C79.2217 14.154 79.1153 14.154 78.9025 14.154V13.8348C78.9025 13.8348 78.7961 13.7284 78.6897 13.622C78.4769 13.622 78.1576 13.7284 77.9448 13.7284C77.9448 13.7284 77.9448 13.7284 78.0512 13.8348C78.1576 13.9412 78.1576 13.9412 78.1576 13.9412L78.264 14.3668C78.1576 14.3668 78.0512 14.4732 77.9448 14.4732L77.8384 14.154C77.8384 14.154 77.8384 14.154 77.732 14.0476L77.6256 13.9412C77.4128 14.0476 77.2 14.0476 76.8808 14.154C76.8808 14.154 76.8808 14.154 76.9872 14.154C77.0936 14.2604 77.0936 14.2604 77.0936 14.2604L77.3064 14.686C77.2 14.686 77.0936 14.7925 76.9872 14.7925L76.8808 14.4732C76.8808 14.4732 76.7744 14.3668 76.5616 14.2604C76.3487 14.3668 76.1359 14.4732 75.9231 14.5796H76.0295C76.0295 14.2604 76.0295 14.3668 76.0295 14.3668L76.2423 14.7925C76.1359 14.8989 76.0295 14.8989 75.9231 15.0053L75.7103 14.686C75.7103 14.686 75.6039 14.5796 75.3911 14.5796C75.1783 14.686 75.0719 14.8989 74.8591 15.0053C74.8591 15.0053 74.8591 15.0053 74.7527 15.0053H74.8591C74.9655 15.0053 75.0719 15.0053 75.0719 15.0053L75.3911 15.3245C75.2847 15.4309 75.1783 15.5373 75.0719 15.5373L74.8591 15.4309C74.8591 15.4309 74.7527 15.4309 74.5398 15.3245C74.5398 15.3245 74.5398 15.3245 74.4334 15.3245C74.2206 15.5373 74.1142 15.6437 74.0078 15.8565H74.1142C74.2206 15.8565 74.327 15.8565 74.327 15.8565L74.6463 16.1757C74.5398 16.2821 74.5398 16.3885 74.4334 16.4949L74.1142 16.2821C74.1142 16.2821 74.0078 16.2821 73.795 16.2821C73.795 16.2821 73.795 16.2821 73.6886 16.2821C73.5822 16.4949 73.4758 16.7078 73.3694 16.9206H73.4758C73.5822 16.9206 73.6886 16.9206 73.6886 16.9206L74.1142 17.1334C74.0078 17.2398 74.0078 17.3462 73.9014 17.4526L73.5822 17.3462C73.5822 17.3462 73.5822 17.3462 73.4758 17.3462C73.3694 17.3462 73.3694 17.3462 73.263 17.3462C73.1566 17.559 73.0502 17.7718 73.0502 17.9846H73.1566C73.263 17.9846 73.3694 17.9846 73.3694 17.9846L73.795 18.091C73.795 18.1974 73.6886 18.3038 73.6886 18.4102L73.3694 18.3038C73.3694 18.3038 73.263 18.3038 73.0502 18.4102C73.0502 18.6231 72.9438 18.9423 72.9438 19.1551C72.9438 19.1551 72.9438 19.1551 73.0502 19.1551C73.1566 19.1551 73.263 19.0487 73.263 19.0487L73.6886 19.1551C73.6886 19.2615 73.6886 19.3679 73.6886 19.4743H73.3694C73.3694 19.4743 73.263 19.5807 73.0502 19.6871C73.0502 19.7935 73.0502 19.7935 73.0502 19.8999C73.0502 20.1127 73.0502 20.3255 73.0502 20.4319C73.0502 20.4319 73.0502 20.4319 73.1566 20.4319C73.263 20.3255 73.263 20.3255 73.263 20.3255Z" fill="#1D1715"/>
<path d="M84.8611 16.3866C84.9675 16.493 84.9675 16.5994 85.0739 16.7058L85.4995 16.493C85.4995 16.493 85.4995 16.493 85.6059 16.3866C85.4995 16.2802 85.3931 16.0673 85.2867 15.9609C85.1803 16.1737 85.1803 16.2802 85.1803 16.2802L84.8611 16.3866Z" fill="#3E312C"/>
<path d="M74.1143 20.0042C74.2207 16.9185 76.7744 14.4712 79.8602 14.5776C82.946 14.684 85.3933 17.2377 85.2869 20.3235C85.1805 23.4092 82.6268 25.8566 79.541 25.7501C76.4552 25.6437 74.0079 23.09 74.1143 20.0042Z" fill="#3E312C"/>
<path d="M73.4757 20.0046C73.5821 16.5996 76.4551 13.8331 79.8601 13.9395C83.2651 14.0459 86.0316 16.9188 85.9252 20.3238C85.8188 23.7288 82.9458 26.4953 79.5409 26.3889C76.0295 26.1761 73.3693 23.4096 73.4757 20.0046ZM73.4757 20.0046C73.3693 23.4096 76.0295 26.1761 79.4345 26.2825C82.8394 26.3889 85.606 23.7288 85.7124 20.3238C85.8188 16.9188 83.1586 14.1523 79.7537 14.0459C76.4551 13.9395 73.5821 16.5996 73.4757 20.0046Z" fill="#3E312C"/>
<path d="M83.9036 24.7928L84.2228 25.1121C84.2228 25.1121 84.3292 25.1121 84.4356 25.1121C84.542 25.0057 84.6484 24.8993 84.7548 24.7928C84.542 24.7928 84.4356 24.6864 84.4356 24.6864L84.2228 24.4736C84.1164 24.6864 84.01 24.7928 83.9036 24.7928Z" fill="#3E312C"/>
<path d="M84.6483 24.0487L84.9675 24.3679C84.9675 24.3679 85.0739 24.3679 85.1803 24.3679C85.2867 24.2615 85.3932 24.1551 85.4996 23.9423C85.2868 23.9423 85.1803 23.9423 85.1803 23.9423L84.8611 23.7295C84.7547 23.8359 84.7547 23.9423 84.6483 24.0487Z" fill="#3E312C"/>
<path d="M81.9882 25.9638C82.0946 25.9638 82.201 25.8574 82.3074 25.8574L82.4138 26.1766C82.4138 26.1766 82.5202 26.283 82.733 26.3894C82.6266 26.4959 82.4138 26.4959 82.3074 26.6023C82.201 26.4959 82.201 26.4959 82.201 26.4959L81.9882 25.9638Z" fill="#3E312C"/>
<path d="M83.2651 25.8582L83.0522 25.4325C83.1587 25.3261 83.2651 25.3261 83.3715 25.2197L83.5843 25.5389C83.5843 25.5389 83.6907 25.6453 83.9035 25.6453C83.7971 25.7518 83.6907 25.8582 83.4779 25.9646C83.2651 25.9646 83.2651 25.8582 83.2651 25.8582Z" fill="#3E312C"/>
<path d="M85.2869 23.0907L85.7125 23.3035C85.7125 23.3035 85.8189 23.3035 85.9253 23.3035C86.0317 23.1971 86.0317 22.9843 86.1381 22.8779C86.0317 22.8779 86.0317 22.8779 85.9253 22.8779C85.8189 22.8779 85.8189 22.8779 85.8189 22.8779L85.4997 22.7715C85.3933 22.8779 85.2869 22.9843 85.2869 23.0907Z" fill="#3E312C"/>
<path d="M85.9252 19.4736C85.9252 19.58 85.9252 19.6864 85.9252 19.8992H86.3508C86.3508 19.8992 86.4572 19.8992 86.4572 19.7928C86.4572 19.58 86.4572 19.4736 86.4572 19.2607C86.3508 19.3671 86.2444 19.4736 86.2444 19.4736H85.9252Z" fill="#3E312C"/>
<path d="M80.9242 26.2841C81.0306 26.2841 81.137 26.1777 81.2434 26.1777L81.3498 26.497C81.3498 26.497 81.3498 26.497 81.4562 26.6034C81.4562 26.6034 81.5626 26.7098 81.669 26.7098C81.5626 26.7098 81.3498 26.8162 81.2434 26.8162C81.137 26.7098 81.137 26.7098 81.137 26.7098L80.9242 26.2841Z" fill="#3E312C"/>
<path d="M85.7124 22.1327L86.138 22.2391C86.138 22.2391 86.2444 22.2391 86.3508 22.2391C86.3508 22.1327 86.4572 21.9199 86.4572 21.8135C86.2444 21.9199 86.138 21.9199 86.138 21.9199L85.8188 21.8135C85.8188 21.8135 85.7124 21.9199 85.7124 22.1327Z" fill="#3E312C"/>
<path d="M85.819 18.4081C85.819 18.5145 85.9254 18.6209 85.9254 18.7273L86.351 18.6209L86.4574 18.5145C86.4574 18.4081 86.351 18.1953 86.351 18.0889C86.351 18.1953 86.2446 18.1953 86.2446 18.1953L86.1382 18.3017L85.819 18.4081Z" fill="#3E312C"/>
<path d="M85.3932 17.3446C85.4996 17.451 85.4996 17.5574 85.4996 17.6638L85.9252 17.451C85.9252 17.451 85.9252 17.3446 86.0316 17.3446C85.9252 17.2382 85.9252 17.0254 85.8188 16.9189C85.7124 17.0254 85.606 17.2382 85.606 17.2382L85.3932 17.3446Z" fill="#3E312C"/>
<path d="M85.9252 20.9627L86.3508 21.0691C86.3508 21.0691 86.4572 21.0691 86.5636 20.9627C86.5636 20.7499 86.5636 20.6435 86.5636 20.4307C86.4572 20.5371 86.2444 20.6435 86.2444 20.6435H85.9252C85.9252 20.7499 85.9252 20.8563 85.9252 20.9627Z" fill="#3E312C"/>
<path d="M73.9014 23.7304L74.3271 23.5176C74.4335 23.624 74.4335 23.7304 74.5399 23.8368L74.2207 23.9432C74.2207 23.9432 74.1143 24.0496 74.1143 24.2624C74.0079 24.156 73.9014 24.0496 73.795 23.8368C73.795 23.7304 73.9014 23.7304 73.9014 23.7304Z" fill="#3E312C"/>
<path d="M73.7949 22.4531C73.7949 22.5595 73.9013 22.6659 73.9013 22.7723L73.5821 22.8787C73.5821 22.8787 73.4757 22.9852 73.3693 23.198C73.2629 23.0916 73.2629 22.8788 73.1565 22.7723C73.2629 22.6659 73.2629 22.6659 73.2629 22.6659L73.7949 22.4531Z" fill="#3E312C"/>
<path d="M79.8601 26.4951C79.9665 26.4951 80.0729 26.4951 80.2857 26.4951V26.8143C80.2857 26.8143 80.3921 26.9207 80.4985 27.0271C80.2857 27.0271 80.1793 27.0271 79.9665 27.0271C79.8601 26.9207 79.8601 26.9207 79.8601 26.9207V26.4951Z" fill="#3E312C"/>
<path d="M74.9654 24.3672C75.0718 24.4736 75.1782 24.58 75.1782 24.6864L74.9654 24.8992C74.9654 24.8992 74.9654 25.0056 74.859 25.2184C74.7526 25.112 74.6462 25.0056 74.5398 24.8992C74.5398 24.7928 74.5398 24.6864 74.5398 24.6864L74.9654 24.3672Z" fill="#3E312C"/>
<path d="M72.8374 20.3252H73.263C73.263 20.4316 73.263 20.538 73.263 20.7508H72.9438C72.9438 20.7508 72.8374 20.8572 72.731 20.9636C72.731 20.7508 72.731 20.6444 72.731 20.4316L72.8374 20.3252Z" fill="#3E312C"/>
<path d="M73.4758 21.3887C73.4758 21.4951 73.5822 21.6015 73.5822 21.7079L73.2629 21.8143C73.2629 21.8143 73.2629 21.8143 73.1565 21.9207C73.1565 21.9207 73.0501 22.0271 73.0501 22.1335C73.0501 22.0271 72.9437 21.8143 72.9437 21.7079C73.0501 21.6015 73.0501 21.6015 73.0501 21.6015L73.4758 21.3887Z" fill="#3E312C"/>
<path d="M77.6257 26.1777C77.7321 26.1777 77.8385 26.2841 77.9449 26.2841L77.8385 26.6034C77.8385 26.6034 77.8385 26.7098 77.9449 26.9226C77.8385 26.9226 77.6257 26.8162 77.5193 26.8162C77.5193 26.7098 77.5193 26.6034 77.5193 26.6034L77.6257 26.1777Z" fill="#3E312C"/>
<path d="M78.7961 26.3896C78.9025 26.3896 79.0089 26.3896 79.2217 26.3896V26.7089C79.2217 26.7089 79.3281 26.8153 79.3281 27.0281C79.1153 27.0281 79.0089 27.0281 78.7961 27.0281C78.7961 26.9217 78.6897 26.8153 78.6897 26.8153L78.7961 26.3896Z" fill="#3E312C"/>
<path d="M76.668 25.751C76.7744 25.8574 76.8808 25.8574 76.9872 25.9638L76.8808 26.283C76.8808 26.283 76.8808 26.283 76.8808 26.3894C76.8808 26.4958 76.8808 26.4958 76.8808 26.6022C76.7744 26.4958 76.5616 26.4958 76.4552 26.3894C76.4552 26.283 76.4552 26.1766 76.4552 26.1766L76.668 25.751Z" fill="#3E312C"/>
<path d="M75.7103 25.1133C75.8167 25.2197 75.9231 25.2197 76.0295 25.3261L75.8167 25.6453C75.8167 25.6453 75.8167 25.7517 75.8167 25.9645C75.7103 25.8581 75.4975 25.7517 75.3911 25.6453C75.3911 25.5389 75.3911 25.4325 75.3911 25.4325L75.7103 25.1133Z" fill="#3E312C"/>
<path d="M75.4977 14.578C75.7105 14.6844 75.8169 14.6844 75.8169 14.6844L76.0297 15.0036C76.1361 14.8972 76.2425 14.8972 76.3489 14.7908L76.0297 14.3652C76.0297 14.3652 76.0297 14.3652 75.9233 14.2588C75.7105 14.3652 75.6041 14.4716 75.4977 14.578Z" fill="#3E312C"/>
<path d="M80.1794 13.4081V13.7273C80.2858 13.7273 80.3922 13.7273 80.605 13.7273L80.7114 13.3017C80.7114 13.3017 80.7114 13.1953 80.605 13.0889C80.3922 13.0889 80.2858 13.0889 80.073 13.0889C80.073 13.3017 80.1794 13.4081 80.1794 13.4081Z" fill="#3E312C"/>
<path d="M82.3075 14.365C82.4139 14.365 82.5203 14.4714 82.6267 14.5778L82.8395 14.1522C82.8395 14.1522 82.8395 14.0458 82.8395 13.9394C82.7331 13.833 82.5203 13.833 82.4139 13.7266C82.4139 13.833 82.4139 13.833 82.4139 13.9394C82.4139 14.0458 82.4139 14.0458 82.4139 14.0458L82.3075 14.365Z" fill="#3E312C"/>
<path d="M81.3498 13.62L81.2434 13.9392C81.3498 13.9392 81.4562 14.0456 81.5626 14.0456L81.669 13.62C81.669 13.62 81.669 13.5136 81.669 13.4072C81.5626 13.4072 81.3498 13.3008 81.2434 13.3008C81.3498 13.5136 81.3498 13.62 81.3498 13.62Z" fill="#3E312C"/>
<path d="M77.6257 13.4072C77.7321 13.4072 77.7321 13.5136 77.7321 13.5136L77.8385 13.62L77.945 13.9392C78.0514 13.9392 78.1578 13.8328 78.2642 13.8328L78.1578 13.4072L78.0514 13.3008C77.945 13.3008 77.8385 13.4072 77.6257 13.4072Z" fill="#3E312C"/>
<path d="M74.6463 16.1737C74.5399 16.2801 74.5399 16.3865 74.4335 16.4929L74.1143 16.2801C74.1143 16.2801 74.0079 16.2801 73.795 16.2801C73.9014 16.1737 74.0079 15.9609 74.1143 15.8545C74.2207 15.8545 74.3271 15.8545 74.3271 15.8545L74.6463 16.1737Z" fill="#3E312C"/>
<path d="M73.5824 18.0888C73.5824 18.1952 73.476 18.3016 73.476 18.408L73.1567 18.3016C73.1567 18.3016 73.0503 18.3016 72.8375 18.408C72.8375 18.3016 72.9439 18.0888 72.9439 17.9824C73.0503 17.9824 73.1567 17.9824 73.1567 17.9824L73.5824 18.0888Z" fill="#3E312C"/>
<path d="M78.796 13.1943C78.9024 13.3007 79.0088 13.4071 79.0088 13.4071V13.7264C79.1152 13.7264 79.2216 13.7264 79.4345 13.7264V13.3007C79.4345 13.3007 79.4345 13.1943 79.328 13.1943C79.1152 13.1943 79.0088 13.1943 78.796 13.1943Z" fill="#3E312C"/>
<path d="M76.5616 13.9394C76.6681 14.0458 76.8809 14.1522 76.8809 14.1522L76.9873 14.4714C77.0937 14.365 77.2001 14.365 77.3065 14.365L77.0937 13.833C77.0937 13.833 76.9873 13.833 76.9873 13.7266C76.7745 13.7266 76.6681 13.833 76.5616 13.9394Z" fill="#3E312C"/>
<path d="M74.0077 17.1318C73.9013 17.2382 73.9013 17.3446 73.7949 17.451L73.4757 17.3446C73.4757 17.3446 73.4757 17.3446 73.3693 17.3446C73.2629 17.3446 73.2629 17.3446 73.1565 17.3446C73.2629 17.2382 73.2629 17.0254 73.3693 16.9189C73.4757 16.9189 73.5821 16.9189 73.5821 16.9189L74.0077 17.1318Z" fill="#3E312C"/>
<path d="M73.3694 19.2597C73.3694 19.3661 73.3694 19.4725 73.3694 19.6853H73.0502C73.0502 19.6853 72.9438 19.7918 72.731 19.7918C72.731 19.5789 72.731 19.4725 72.731 19.2597C72.8374 19.2597 72.9438 19.1533 72.9438 19.1533L73.3694 19.2597Z" fill="#3E312C"/>
<path d="M83.265 14.8972C83.3714 15.0036 83.4778 15.0036 83.5842 15.11L83.9034 14.7908C83.9034 14.7908 83.9034 14.6844 83.9034 14.578C83.797 14.4716 83.6906 14.3652 83.4778 14.2588C83.4778 14.4716 83.4778 14.578 83.4778 14.578L83.265 14.8972Z" fill="#3E312C"/>
<path d="M75.391 15.4305C75.2846 15.5369 75.1782 15.6433 75.0718 15.6433L74.859 15.4305C74.859 15.4305 74.7526 15.4305 74.5398 15.3241C74.6462 15.2177 74.7526 15.1113 74.859 15.0049C74.9654 15.0049 75.0718 15.0049 75.0718 15.0049L75.391 15.4305Z" fill="#3E312C"/>
<path d="M84.1163 15.6434C84.2227 15.7498 84.3291 15.8562 84.3291 15.9626L84.6484 15.6434C84.6484 15.6434 84.6484 15.5369 84.6484 15.4305C84.542 15.3241 84.4356 15.2177 84.3291 15.1113C84.3291 15.3241 84.2227 15.4305 84.2227 15.4305L84.1163 15.6434Z" fill="#3E312C"/>
<path d="M84.1163 15.6434C84.2227 15.7498 84.3291 15.8562 84.3291 15.9626L84.6484 15.6434C84.6484 15.6434 84.6484 15.5369 84.6484 15.4305C84.542 15.3241 84.4356 15.2177 84.3291 15.1113C84.3291 15.3241 84.2227 15.4305 84.2227 15.4305L84.1163 15.6434Z" fill="#3E312C"/>
<g opacity="0.15">
<path d="M72.8375 21.6006C72.8375 21.707 72.8375 21.707 72.8375 21.6006C72.7311 21.707 72.7311 21.6006 72.8375 21.6006Z" fill="#FFE66A"/>
</g>
<path d="M74.4336 20.1104C74.4336 22.9833 76.7745 25.3242 79.6475 25.3242C82.5204 25.3242 84.8613 22.9833 84.8613 20.1104C84.8613 17.2374 82.5204 14.8965 79.6475 14.8965C76.7745 14.8965 74.4336 17.2374 74.4336 20.1104Z" fill="#474343"/>
<path d="M75.2848 20.1117C75.2848 22.4526 77.2001 24.4743 79.6474 24.4743C82.0947 24.4743 84.01 22.559 84.01 20.1117C84.01 17.7707 82.0947 15.749 79.6474 15.749C77.2001 15.749 75.2848 17.6643 75.2848 20.1117Z" fill="#3E312C"/>
<path d="M80.2858 21.2814L78.9026 18.9404C77.9449 20.0045 76.7745 20.7493 75.604 21.3878C75.3912 21.4942 75.2848 21.707 75.4976 21.9198L75.9232 22.771C76.0296 22.9838 76.2424 22.9838 76.4552 22.8774C77.6257 22.1326 78.9026 21.4942 80.2858 21.2814Z" fill="#474343"/>
<path d="M80.2859 18.9404L78.9026 21.2814C80.2859 21.4942 81.5627 22.1326 82.7332 22.8774C82.946 22.9838 83.1588 22.9838 83.2652 22.771L83.6908 21.9198C83.7972 21.707 83.6908 21.4942 83.5844 21.3878C82.414 20.8557 81.2435 20.0045 80.2859 18.9404Z" fill="#474343"/>
<path d="M78.264 20.1116H80.9242C80.3921 18.7283 80.3921 17.345 80.3921 15.9618C80.3921 15.7489 80.1793 15.5361 79.9665 15.5361H79.2217C79.0089 15.5361 78.7961 15.7489 78.7961 15.9618C78.9025 17.345 78.7961 18.7283 78.264 20.1116Z" fill="#474343"/>
<path d="M78.0513 20.1127C78.0513 20.9639 78.7961 21.7088 79.6474 21.7088C80.4986 21.7088 81.2434 20.9639 81.2434 20.1127C81.2434 19.2614 80.4986 18.5166 79.6474 18.5166C78.7961 18.5166 78.0513 19.2614 78.0513 20.1127Z" fill="#FDFDFD"/>
<path d="M70.9221 21.9212H71.2413V21.7084L71.4541 19.7931C71.667 17.2394 73.9015 15.2177 76.4552 15.2177H82.6267C85.2869 15.2177 87.415 17.133 87.6278 19.7931L87.8406 21.7084V21.9212H88.1598L87.947 19.7931C87.6278 17.0266 85.3933 15.0049 82.6267 15.0049H76.4552C73.6887 15.0049 71.3477 17.133 71.1349 19.7931L70.9221 21.9212Z" fill="#FFE66A"/>
<path d="M15.272 21.9203H32.2969L32.084 19.7922C32.084 19.3666 31.9776 19.0474 31.8712 18.6217C31.1264 16.6 29.2111 15.1104 26.9766 15.1104H20.8051C18.5705 15.1104 16.5488 16.6 15.9104 18.6217C15.804 18.941 15.6976 19.3666 15.6976 19.7922L15.272 21.9203Z" fill="#1D1715"/>
<path d="M17.5066 20.3255C17.5066 20.4319 17.5066 20.5384 17.5066 20.7512H17.1874C17.1874 20.7512 17.081 20.8576 16.9746 20.964C16.9746 21.1768 17.081 21.3896 17.081 21.6024V21.7088C17.081 21.7088 17.081 21.7088 17.1874 21.6024C17.2938 21.496 17.2938 21.496 17.2938 21.496L17.7194 21.3896C17.7194 21.496 17.8259 21.6024 17.8259 21.7088L17.4002 21.8152C17.4002 21.8152 17.4002 21.8152 17.2938 21.9216L17.1874 22.028C17.2938 22.2408 17.2938 22.4537 17.4002 22.7729C17.4002 22.7729 17.4002 22.7729 17.4002 22.6665C17.5066 22.5601 17.5066 22.5601 17.5066 22.5601L17.9323 22.3472C17.9323 22.4537 18.0387 22.5601 18.0387 22.6665L17.7194 22.7729C17.7194 22.7729 17.613 22.8793 17.5066 23.0921C17.613 23.3049 17.7194 23.5177 17.8259 23.7305V23.6241C17.8259 23.5177 17.9323 23.5177 17.9323 23.5177L18.3579 23.3049C18.4643 23.4113 18.4643 23.5177 18.5707 23.6241L18.3579 23.9433C18.3579 23.9433 18.2515 24.0497 18.2515 24.2625C18.3579 24.4754 18.5707 24.6882 18.6771 24.7946V24.6882C18.6771 24.5818 18.6771 24.4754 18.6771 24.4754L18.9963 24.1561C19.1027 24.2625 19.2091 24.369 19.2091 24.4754L18.9963 24.6882C18.9963 24.6882 18.9963 24.7946 18.8899 25.0074C18.8899 25.0074 18.8899 25.0074 18.8899 25.1138C19.1027 25.3266 19.2091 25.433 19.4219 25.5394V25.433C19.4219 25.3266 19.4219 25.2202 19.4219 25.2202L19.7412 24.901C19.8476 25.0074 19.954 25.0074 20.0604 25.1138L19.8476 25.433C19.8476 25.433 19.8476 25.5394 19.8476 25.7522C19.8476 25.7522 19.8476 25.7522 19.8476 25.8586C20.0604 25.965 20.2732 26.0714 20.486 26.1778V26.0714C20.486 25.965 20.486 25.8586 20.486 25.8586L20.6988 25.433C20.8052 25.5394 20.9116 25.5394 21.018 25.6458L20.9116 25.965C20.9116 25.965 20.9116 25.965 20.9116 26.0714C20.9116 26.1778 20.9116 26.1778 20.9116 26.2843C21.1244 26.3907 21.3372 26.4971 21.55 26.4971V26.3907C21.55 26.2843 21.55 26.1778 21.55 26.1778L21.6565 25.7522C21.7629 25.7522 21.8693 25.8586 21.9757 25.8586L21.8693 26.1778C21.8693 26.1778 21.8693 26.2843 21.9757 26.4971C22.1885 26.6035 22.5077 26.6035 22.7205 26.6035C22.7205 26.6035 22.7205 26.6035 22.7205 26.4971C22.7205 26.3907 22.6141 26.2843 22.6141 26.2843L22.7205 25.8586C22.8269 25.8586 22.9333 25.8586 23.0397 25.8586V26.1778C23.0397 26.1778 23.1461 26.2843 23.2525 26.4971C23.3589 26.4971 23.3589 26.4971 23.4653 26.4971C23.6782 26.4971 23.891 26.4971 23.9974 26.4971C23.9974 26.4971 23.9974 26.4971 23.9974 26.3907C23.891 26.2843 23.891 26.2843 23.891 26.2843V25.8586C23.9974 25.8586 24.1038 25.8586 24.3166 25.8586V26.1778C24.3166 26.1778 24.423 26.2843 24.5294 26.3907C24.7422 26.3907 25.0614 26.2843 25.2742 26.2843C25.2742 26.2843 25.2742 26.2843 25.1678 26.1778C25.0614 26.0714 25.0614 26.0714 25.0614 26.0714L24.955 25.6458C25.0614 25.6458 25.1678 25.5394 25.2742 25.5394L25.3807 25.8586C25.3807 25.8586 25.3806 25.8586 25.4871 25.965L25.5935 26.0714C25.8063 25.965 26.0191 25.965 26.2319 25.8586C26.2319 25.8586 26.2319 25.8586 26.1255 25.8586C26.0191 25.7522 26.0191 25.7522 26.0191 25.7522L25.8063 25.3266C25.9127 25.3266 26.0191 25.2202 26.1255 25.2202L26.2319 25.5394C26.2319 25.5394 26.3383 25.6458 26.5511 25.7522C26.7639 25.6458 26.9767 25.5394 27.1895 25.433H27.0831C26.9767 25.433 26.9767 25.3266 26.9767 25.3266L26.7639 24.901C26.8703 24.7946 26.9767 24.7946 27.0831 24.6882L27.2959 25.0074C27.2959 25.0074 27.4024 25.1138 27.6152 25.1138C27.7216 25.0074 27.828 24.901 27.9344 24.7946C28.0408 24.6882 28.0408 24.6882 28.1472 24.5818C28.1472 24.5818 28.1472 24.5818 28.0408 24.5818C27.9344 24.5818 27.828 24.5818 27.828 24.5818L27.5088 24.2625C27.6152 24.1561 27.7216 24.0497 27.828 24.0497L28.0408 24.2625C28.0408 24.2625 28.1472 24.2625 28.36 24.369C28.36 24.369 28.36 24.369 28.4664 24.369C28.6792 24.1561 28.7856 24.0497 28.892 23.8369H28.7856C28.6792 23.8369 28.5728 23.8369 28.5728 23.8369L28.2536 23.5177C28.36 23.4113 28.36 23.3049 28.4664 23.1985L28.7856 23.4113C28.7856 23.4113 28.892 23.4113 29.1048 23.4113C29.1048 23.4113 29.1048 23.4113 29.2112 23.4113C29.3177 23.1985 29.4241 22.9857 29.5305 22.7729H29.4241C29.3177 22.7729 29.2112 22.7729 29.2112 22.7729L28.7856 22.5601C28.892 22.4537 28.892 22.3472 28.9984 22.2408L29.3177 22.3472C29.3177 22.3472 29.3177 22.3472 29.4241 22.3472C29.5305 22.3472 29.5305 22.3472 29.6369 22.3472C29.7433 22.1344 29.8497 21.9216 29.8497 21.7088H29.7433C29.6369 21.7088 29.5305 21.7088 29.5305 21.7088L29.1048 21.6024C29.1048 21.496 29.2112 21.3896 29.2112 21.2832L30.2753 21.8152C30.2753 21.8152 30.3817 21.8152 30.5945 21.7088C30.5945 21.496 30.7009 21.1768 30.7009 20.964C30.7009 20.964 30.7009 20.964 30.5945 20.964C30.4881 20.964 30.3817 21.0704 30.3817 21.0704L29.9561 20.964C29.9561 20.8576 29.9561 20.7512 29.9561 20.5384H30.2753C30.2753 20.5384 30.3817 20.4319 30.5945 20.3255C30.5945 20.2191 30.5945 20.2191 30.5945 20.1127C30.5945 19.8999 30.5945 19.6871 30.5945 19.5807C30.5945 19.5807 30.5945 19.5807 30.4881 19.5807C30.3817 19.6871 30.3817 19.6871 30.3817 19.6871H29.9561C29.9561 19.5807 29.9561 19.4743 29.9561 19.2615H30.2753C30.2753 19.2615 30.3817 19.1551 30.4881 19.0487C30.4881 18.8359 30.3817 18.5166 30.3817 18.3038C30.3817 18.3038 30.3817 18.3038 30.2753 18.4102C30.1689 18.5166 30.1689 18.5166 30.1689 18.5166L29.7433 18.6231C29.7433 18.5166 29.6369 18.4102 29.6369 18.3038L29.9561 18.1974C29.9561 18.1974 29.9561 18.1974 30.0625 18.091L30.1689 17.9846C30.0625 17.7718 30.0625 17.559 29.9561 17.2398C29.9561 17.2398 29.9561 17.2398 29.9561 17.3462C29.8497 17.4526 29.8497 17.4526 29.8497 17.4526L29.4241 17.6654C29.4241 17.559 29.3177 17.4526 29.3177 17.3462L29.6369 17.2398C29.6369 17.2398 29.7433 17.1334 29.8497 16.9206C29.7433 16.7078 29.6369 16.4949 29.5305 16.2821V16.3885C29.5305 16.4949 29.4241 16.4949 29.4241 16.4949L29.2112 16.7078C29.1048 16.6013 29.1048 16.4949 28.9984 16.3885L29.3177 16.1757C29.3177 16.1757 29.4241 16.0693 29.4241 15.8565C29.3177 15.6437 29.1048 15.4309 28.9984 15.3245C28.9984 15.4309 28.9984 15.5373 28.9984 15.5373L28.6792 15.8565C28.5728 15.7501 28.4664 15.6437 28.4664 15.5373L28.6792 15.3245C28.6792 15.3245 28.6792 15.2181 28.7856 15.0053C28.7856 15.0053 28.7856 15.0053 28.7856 14.8989C28.5728 14.686 28.4664 14.5796 28.2536 14.4732V14.5796C28.2536 14.686 28.2536 14.7925 28.2536 14.7925L27.9344 15.1117C27.828 15.0053 27.7216 15.0053 27.6152 14.8989L27.828 14.5796C27.828 14.5796 27.828 14.4732 27.828 14.2604C27.828 14.2604 27.828 14.2604 27.828 14.154C27.6152 14.0476 27.4024 13.9412 27.1895 13.8348V13.9412C27.1895 14.0476 27.1895 14.154 27.1895 14.154L26.9767 14.5796C26.8703 14.4732 26.7639 14.4732 26.6575 14.3668L26.7639 14.0476C26.7639 14.0476 26.7639 14.0476 26.7639 13.9412C26.7639 13.8348 26.7639 13.8348 26.7639 13.7284C26.5511 13.622 26.3383 13.5156 26.1255 13.5156V13.622C26.1255 13.7284 26.1255 13.8348 26.1255 13.8348L26.0191 14.2604C25.9127 14.2604 25.8063 14.154 25.6999 14.154L25.8063 13.8348C25.8063 13.8348 25.8063 13.7284 25.6999 13.5156C25.4871 13.4092 25.1678 13.4092 24.955 13.4092C24.955 13.4092 24.955 13.4092 24.955 13.5156C24.955 13.622 25.0614 13.7284 25.0614 13.7284L24.955 14.154C24.8486 14.154 24.7422 14.154 24.5294 14.154V13.8348C24.5294 13.8348 24.423 13.7284 24.3166 13.5156C24.2102 13.5156 24.2102 13.5156 24.1038 13.5156C23.891 13.5156 23.6782 13.5156 23.5718 13.5156C23.5718 13.5156 23.5718 13.5156 23.5718 13.622C23.6782 13.7284 23.6782 13.7284 23.6782 13.7284V14.154C23.5718 14.154 23.4654 14.154 23.2525 14.154V13.8348C23.2525 13.8348 23.1461 13.7284 23.0397 13.622C22.8269 13.622 22.5077 13.7284 22.2949 13.7284C22.2949 13.7284 22.2949 13.7284 22.4013 13.8348C22.5077 13.9412 22.5077 13.9412 22.5077 13.9412L22.6141 14.3668C22.5077 14.3668 22.4013 14.4732 22.2949 14.4732L22.1885 14.154C22.1885 14.154 22.1885 14.154 22.0821 14.0476C22.0821 14.0476 21.9757 13.9412 21.8693 13.9412C21.6565 14.0476 21.4436 14.0476 21.1244 14.154C21.1244 14.154 21.1244 14.154 21.2308 14.154C21.3372 14.2604 21.3372 14.2604 21.3372 14.2604L21.55 14.686C21.4436 14.686 21.3372 14.7925 21.2308 14.7925L21.1244 14.4732C21.1244 14.4732 21.018 14.3668 20.8052 14.2604C20.5924 14.3668 20.3796 14.4732 20.1668 14.5796H20.2732C20.3796 14.5796 20.3796 14.686 20.3796 14.686L20.5924 15.1117C20.486 15.2181 20.3796 15.2181 20.2732 15.3245L20.0604 15.0053C20.0604 15.0053 19.954 14.8989 19.7412 14.8989C19.5283 15.0053 19.4219 15.2181 19.2091 15.3245C19.2091 15.3245 19.2091 15.3245 19.1027 15.3245H19.2091C19.3155 15.3245 19.4219 15.3245 19.4219 15.3245L19.7412 15.6437C19.6347 15.7501 19.5283 15.8565 19.4219 15.8565L19.1027 15.4309C19.1027 15.4309 18.9963 15.4309 18.7835 15.3245C18.7835 15.3245 18.7835 15.3245 18.6771 15.3245C18.4643 15.5373 18.3579 15.6437 18.2515 15.8565H18.3579C18.4643 15.8565 18.5707 15.8565 18.5707 15.8565L18.8899 16.1757C18.7835 16.2821 18.7835 16.3885 18.6771 16.4949L18.3579 16.2821C18.3579 16.2821 18.2515 16.2821 18.0387 16.2821C18.0387 16.2821 18.0387 16.2821 17.9323 16.2821C17.8259 16.4949 17.7194 16.7078 17.613 16.9206H17.7194C17.8259 16.9206 17.9323 16.9206 17.9323 16.9206L18.3579 17.1334C18.2515 17.2398 18.2515 17.3462 18.1451 17.4526L17.8259 17.3462C17.8259 17.3462 17.8259 17.3462 17.7194 17.3462C17.613 17.3462 17.613 17.3462 17.5066 17.3462C17.4002 17.559 17.2938 17.7718 17.2938 17.9846H17.4002C17.5066 17.9846 17.613 17.9846 17.613 17.9846L18.0387 18.091C18.0387 18.1974 17.9323 18.3038 17.9323 18.4102L17.613 18.3038C17.613 18.3038 17.5066 18.3038 17.2938 18.4102C17.1874 18.6231 17.1874 18.9423 17.1874 19.1551C17.1874 19.1551 17.1874 19.1551 17.2938 19.1551C17.4002 19.1551 17.5066 19.0487 17.5066 19.0487L17.9323 19.1551C17.9323 19.2615 17.9323 19.3679 17.9323 19.4743H17.613C17.613 19.4743 17.5066 19.5807 17.2938 19.6871C17.2938 19.7935 17.2938 19.7935 17.2938 19.8999C17.2938 20.1127 17.2938 20.3255 17.2938 20.4319C17.2938 20.4319 17.2938 20.4319 17.4002 20.4319C17.5066 20.3255 17.5066 20.3255 17.5066 20.3255Z" fill="#1D1715"/>
<path d="M28.9982 16.3866C29.1046 16.493 29.1046 16.5994 29.211 16.7058L29.6366 16.493C29.6366 16.493 29.6366 16.493 29.743 16.3866C29.6366 16.2802 29.5302 16.0673 29.4238 15.9609C29.3174 16.1737 29.3174 16.2802 29.3174 16.2802L28.9982 16.3866Z" fill="#3E312C"/>
<path d="M18.2514 20.0042C18.3578 16.9185 20.9115 14.4712 23.9973 14.5776C27.083 14.684 29.5304 17.2377 29.424 20.3235C29.3176 23.4092 26.7638 25.8566 23.6781 25.7501C20.5923 25.6437 18.145 23.09 18.2514 20.0042Z" fill="#3E312C"/>
<path d="M17.613 20.0046C17.7194 16.5996 20.5923 13.8331 23.9973 13.9395C27.4023 14.0459 30.1688 16.9188 30.0624 20.3238C29.956 23.7288 27.0831 26.4953 23.6781 26.3889C20.2731 26.1761 17.5065 23.4096 17.613 20.0046ZM17.7194 20.0046C17.613 23.4096 20.2731 26.1761 23.6781 26.2825C27.0831 26.3889 29.8496 23.7288 29.956 20.3238C30.0624 16.9188 27.4023 14.1523 23.9973 14.0459C20.5923 13.9395 17.8258 16.5996 17.7194 20.0046Z" fill="#3E312C"/>
<path d="M28.0405 24.7928L28.3597 25.1121C28.3597 25.1121 28.4661 25.1121 28.5726 25.1121C28.679 25.0057 28.7854 24.8993 28.8918 24.7928C28.679 24.7928 28.5726 24.6864 28.5726 24.6864L28.3597 24.4736C28.2533 24.6864 28.1469 24.7928 28.0405 24.7928Z" fill="#3E312C"/>
<path d="M28.7855 24.0487L29.1047 24.3679C29.1047 24.3679 29.2111 24.3679 29.3176 24.3679C29.424 24.2615 29.5304 24.1551 29.6368 23.9423C29.424 23.9423 29.3176 23.9423 29.3176 23.9423L28.9983 23.7295C28.9983 23.8359 28.8919 23.9423 28.7855 24.0487Z" fill="#3E312C"/>
<path d="M26.2317 25.9638C26.3381 25.9638 26.4445 25.8574 26.5509 25.8574L26.6573 26.1766C26.6573 26.1766 26.7637 26.283 26.9765 26.3894C26.8701 26.4959 26.6573 26.4959 26.5509 26.6023C26.4445 26.4959 26.4445 26.4959 26.4445 26.4959L26.2317 25.9638Z" fill="#3E312C"/>
<path d="M27.4021 25.8582L27.1893 25.4325C27.2957 25.3261 27.4021 25.3261 27.5086 25.2197L27.7214 25.5389C27.7214 25.5389 27.8278 25.6453 28.0406 25.6453C27.9342 25.7518 27.8278 25.8582 27.615 25.9646C27.5085 25.9646 27.4021 25.8582 27.4021 25.8582Z" fill="#3E312C"/>
<path d="M29.424 23.0907L29.8496 23.3035C29.8496 23.3035 29.956 23.3035 30.0624 23.3035C30.1688 23.1971 30.1688 22.9843 30.2752 22.8779C30.1688 22.8779 30.1688 22.8779 30.0624 22.8779C29.956 22.8779 29.956 22.8779 29.956 22.8779L29.6368 22.7715C29.5304 22.8779 29.5304 22.9843 29.424 23.0907Z" fill="#3E312C"/>
<path d="M30.1687 19.4736C30.1687 19.58 30.1687 19.6864 30.1687 19.8992H30.5943C30.5943 19.8992 30.7007 19.8992 30.7007 19.7928C30.7007 19.58 30.7007 19.4736 30.7007 19.2607C30.5943 19.3671 30.4879 19.4736 30.4879 19.4736H30.1687Z" fill="#3E312C"/>
<path d="M25.1677 26.2841C25.2741 26.2841 25.3805 26.1777 25.4869 26.1777L25.5933 26.497C25.5933 26.497 25.5933 26.497 25.6998 26.6034C25.6998 26.6034 25.8062 26.7098 25.9126 26.7098C25.8062 26.7098 25.5933 26.8162 25.4869 26.8162C25.3805 26.7098 25.3805 26.7098 25.3805 26.7098L25.1677 26.2841Z" fill="#3E312C"/>
<path d="M29.8495 22.1327L30.2751 22.2391C30.2751 22.2391 30.3815 22.2391 30.4879 22.2391C30.4879 22.1327 30.5943 21.9198 30.5943 21.8134C30.4879 21.8134 30.2751 21.8134 30.2751 21.8134L29.9559 21.707C29.9559 21.8134 29.8495 21.9198 29.8495 22.1327Z" fill="#3E312C"/>
<path d="M29.9559 18.4081C29.9559 18.5145 30.0623 18.6209 30.0623 18.7273L30.488 18.6209L30.5944 18.5145C30.5944 18.4081 30.488 18.1953 30.488 18.0889C30.488 18.1953 30.3816 18.1953 30.3816 18.1953L30.2751 18.3017L29.9559 18.4081Z" fill="#3E312C"/>
<path d="M29.5302 17.3446C29.6366 17.451 29.6366 17.5574 29.6366 17.6638L30.0622 17.451C30.0622 17.451 30.0622 17.3446 30.1686 17.3446C30.0622 17.2382 30.0622 17.0254 29.9558 16.9189C29.8494 17.0254 29.743 17.2382 29.743 17.2382L29.5302 17.3446Z" fill="#3E312C"/>
<path d="M30.0621 20.9627L30.4878 21.0691C30.4878 21.0691 30.5942 21.0691 30.7006 20.9627C30.7006 20.7499 30.7006 20.6435 30.7006 20.4307C30.5942 20.5371 30.3813 20.6435 30.3813 20.6435H30.0621C30.1685 20.7499 30.1685 20.8563 30.0621 20.9627Z" fill="#3E312C"/>
<path d="M18.0385 23.7304L18.4642 23.5176C18.5706 23.624 18.5706 23.7304 18.677 23.8368L18.3577 23.9432C18.3577 23.9432 18.2513 24.0496 18.2513 24.2624C18.1449 24.156 18.0385 24.0496 17.9321 23.8368C18.0385 23.7304 18.0385 23.7304 18.0385 23.7304Z" fill="#3E312C"/>
<path d="M17.932 22.4531C17.932 22.5595 18.0384 22.6659 18.0384 22.7723L17.7192 22.8787C17.7192 22.8787 17.6128 22.9852 17.5064 23.198C17.4 23.0916 17.4 22.8788 17.2936 22.7723C17.4 22.6659 17.4 22.6659 17.4 22.6659L17.932 22.4531Z" fill="#3E312C"/>
<path d="M23.9971 26.4951C24.1035 26.4951 24.2099 26.4951 24.4227 26.4951V26.8143C24.4227 26.8143 24.5291 26.9207 24.6355 27.0271C24.4227 27.0271 24.3163 27.0271 24.1035 27.0271C23.9971 26.9207 23.9971 26.9207 23.9971 26.9207V26.4951Z" fill="#3E312C"/>
<path d="M19.1025 24.3672C19.2089 24.4736 19.3153 24.58 19.3153 24.6864L19.1025 24.8992C19.1025 24.8992 19.1025 25.0056 18.9961 25.2184C18.8897 25.112 18.7833 25.0056 18.6769 24.8992C18.6769 24.7928 18.6769 24.6864 18.6769 24.6864L19.1025 24.3672Z" fill="#3E312C"/>
<path d="M16.9744 20.3252H17.4001C17.4001 20.4316 17.4001 20.538 17.4001 20.7508H17.0808C17.0808 20.7508 16.9744 20.8572 16.868 20.9636C16.868 20.7508 16.868 20.6444 16.868 20.4316C16.9744 20.4316 16.9744 20.3252 16.9744 20.3252Z" fill="#3E312C"/>
<path d="M17.6128 21.3887C17.6128 21.4951 17.7192 21.6015 17.7192 21.7079L17.4 21.8143C17.4 21.8143 17.4 21.8143 17.2936 21.9207C17.2936 21.9207 17.1872 22.0271 17.1872 22.1335C17.1872 22.0271 17.0808 21.8143 17.0808 21.7079C17.1872 21.6015 17.1872 21.6015 17.1872 21.6015L17.6128 21.3887Z" fill="#3E312C"/>
<path d="M21.8692 26.1777C21.9756 26.1777 22.082 26.2841 22.1884 26.2841L22.082 26.6034C22.082 26.6034 22.082 26.7098 22.1884 26.9226C22.082 26.9226 21.8692 26.8162 21.7628 26.8162C21.7628 26.7098 21.7628 26.6034 21.7628 26.6034L21.8692 26.1777Z" fill="#3E312C"/>
<path d="M22.9332 26.3896C23.0396 26.3896 23.146 26.3896 23.3588 26.3896V26.7089C23.3588 26.7089 23.4652 26.8153 23.4652 27.0281C23.2524 27.0281 23.146 27.0281 22.9332 27.0281C22.9332 26.9217 22.8268 26.8153 22.8268 26.8153L22.9332 26.3896Z" fill="#3E312C"/>
<path d="M20.805 25.751C20.9114 25.8574 21.0178 25.8574 21.1242 25.9638L21.0178 26.283C21.0178 26.283 21.0178 26.283 21.0178 26.3894C21.0178 26.4958 21.0178 26.4958 21.0178 26.6022C20.9114 26.4958 20.6986 26.4958 20.5922 26.3894C20.5922 26.283 20.5922 26.1766 20.5922 26.1766L20.805 25.751Z" fill="#3E312C"/>
<path d="M19.8474 25.1133C19.9538 25.2197 20.0602 25.2197 20.1666 25.3261L19.9538 25.6453C19.9538 25.6453 19.9538 25.7517 19.9538 25.9645C19.8474 25.8581 19.6346 25.7517 19.5282 25.6453C19.5282 25.5389 19.5282 25.4325 19.5282 25.4325L19.8474 25.1133Z" fill="#3E312C"/>
<path d="M19.6346 14.578C19.8475 14.6844 19.9539 14.6844 19.9539 14.6844L20.1667 15.0036C20.2731 14.8972 20.3795 14.8972 20.4859 14.7908L20.1667 14.3652C20.1667 14.3652 20.1667 14.3652 20.0603 14.2588C19.9539 14.3652 19.741 14.4716 19.6346 14.578Z" fill="#3E312C"/>
<path d="M24.3164 13.4081V13.7273C24.4228 13.7273 24.5292 13.7273 24.742 13.7273L24.8484 13.3017C24.8484 13.3017 24.8484 13.1953 24.742 13.0889C24.5292 13.0889 24.4228 13.0889 24.21 13.0889C24.3164 13.3017 24.3164 13.4081 24.3164 13.4081Z" fill="#3E312C"/>
<path d="M26.4445 14.365C26.5509 14.365 26.6573 14.4714 26.7637 14.5778L26.9765 14.1522C26.9765 14.1522 26.9765 14.0458 26.9765 13.9394C26.8701 13.833 26.6573 13.833 26.5509 13.7266C26.5509 13.833 26.5509 13.833 26.5509 13.9394C26.5509 14.0458 26.5509 14.0458 26.5509 14.0458L26.4445 14.365Z" fill="#3E312C"/>
<path d="M25.4869 13.62L25.3805 13.9392C25.4869 13.9392 25.5933 14.0456 25.6997 14.0456L25.8061 13.62C25.8061 13.62 25.8061 13.5136 25.8061 13.4072C25.6997 13.4072 25.4869 13.3008 25.3805 13.3008C25.4869 13.5136 25.4869 13.62 25.4869 13.62Z" fill="#3E312C"/>
<path d="M21.7628 13.4072C21.8692 13.4072 21.8692 13.5136 21.9756 13.5136L22.082 13.62L22.1884 13.9392C22.2948 13.9392 22.4013 13.8328 22.5077 13.8328L22.4012 13.4072L22.2948 13.3008C22.082 13.3008 21.9756 13.4072 21.7628 13.4072Z" fill="#3E312C"/>
<path d="M18.7834 16.1737C18.677 16.2801 18.677 16.3865 18.5706 16.4929L18.2513 16.2801C18.2513 16.2801 18.1449 16.2801 17.9321 16.2801C18.0385 16.1737 18.1449 15.9609 18.2513 15.8545C18.3578 15.8545 18.4642 15.8545 18.4642 15.8545L18.7834 16.1737Z" fill="#3E312C"/>
<path d="M17.7194 18.0888C17.7194 18.1952 17.613 18.3016 17.613 18.408L17.2938 18.3016C17.2938 18.3016 17.1874 18.3016 16.9746 18.408C16.9746 18.3016 17.081 18.0888 17.081 17.9824C17.1874 17.9824 17.2938 17.9824 17.2938 17.9824L17.7194 18.0888Z" fill="#3E312C"/>
<path d="M23.0396 13.1943C23.146 13.3007 23.2524 13.4071 23.2524 13.4071V13.7264C23.3588 13.7264 23.4652 13.7264 23.678 13.7264V13.3007C23.678 13.3007 23.678 13.1943 23.5716 13.1943C23.3588 13.1943 23.146 13.1943 23.0396 13.1943Z" fill="#3E312C"/>
<path d="M20.6987 13.9395C20.8051 14.0459 21.0179 14.1524 21.0179 14.1524L21.1244 14.4716C21.2308 14.3652 21.3372 14.3652 21.4436 14.3652L21.2308 13.9395C21.2308 13.9395 21.1244 13.9395 21.1244 13.8331C21.0179 13.7267 20.8051 13.8331 20.6987 13.9395Z" fill="#3E312C"/>
<path d="M18.2514 17.1318C18.145 17.2382 18.145 17.3446 18.0386 17.451L17.7194 17.3446C17.7194 17.3446 17.7194 17.3446 17.613 17.3446C17.5065 17.3446 17.5066 17.3446 17.4001 17.3446C17.5066 17.2382 17.5065 17.0254 17.613 16.9189C17.7194 16.9189 17.8258 16.9189 17.8258 16.9189L18.2514 17.1318Z" fill="#3E312C"/>
<path d="M17.5065 19.2597C17.5065 19.3661 17.5065 19.4725 17.5065 19.6853H17.1873C17.1873 19.6853 17.0809 19.7918 16.868 19.7918C16.868 19.5789 16.868 19.4725 16.868 19.2597C16.9744 19.2597 17.0808 19.1533 17.0808 19.1533L17.5065 19.2597Z" fill="#3E312C"/>
<path d="M27.4021 14.8972C27.5085 15.0036 27.6149 15.0036 27.7213 15.11L28.0405 14.7908C28.0405 14.7908 28.0405 14.6844 28.0405 14.578C27.9341 14.4716 27.8277 14.3652 27.6149 14.2588C27.6149 14.4716 27.6149 14.578 27.6149 14.578L27.4021 14.8972Z" fill="#3E312C"/>
<path d="M19.5283 15.4305C19.4219 15.5369 19.3155 15.6433 19.2091 15.6433L19.1027 15.4305C19.1027 15.4305 18.9963 15.4305 18.7834 15.3241C18.8899 15.2177 18.9963 15.1113 19.1027 15.0049C19.2091 15.0049 19.3155 15.0049 19.3155 15.0049L19.5283 15.4305Z" fill="#3E312C"/>
<path d="M28.2533 15.6434C28.3597 15.7498 28.4661 15.8562 28.4661 15.9626L28.7853 15.6434C28.7853 15.6434 28.7853 15.5369 28.7853 15.4305C28.6789 15.3241 28.5725 15.2177 28.4661 15.1113C28.4661 15.3241 28.3597 15.4305 28.3597 15.4305L28.2533 15.6434Z" fill="#3E312C"/>
<path d="M28.2533 15.6434C28.3597 15.7498 28.4661 15.8562 28.4661 15.9626L28.7853 15.6434C28.7853 15.6434 28.7853 15.5369 28.7853 15.4305C28.6789 15.3241 28.5725 15.2177 28.4661 15.1113C28.4661 15.3241 28.3597 15.4305 28.3597 15.4305L28.2533 15.6434Z" fill="#3E312C"/>
<path d="M18.5707 20.1104C18.5707 22.9833 20.9116 25.3242 23.7846 25.3242C26.6575 25.3242 28.9984 22.9833 28.9984 20.1104C28.9984 17.2374 26.6575 14.8965 23.7846 14.8965C20.9116 14.8965 18.5707 17.2374 18.5707 20.1104Z" fill="#474343"/>
<path d="M19.5282 20.1117C19.5282 22.4526 21.4435 24.4743 23.8908 24.4743C26.2317 24.4743 28.2535 22.559 28.2535 20.1117C28.2535 17.7707 26.3382 15.749 23.8908 15.749C21.4435 15.749 19.5282 17.6643 19.5282 20.1117Z" fill="#3E312C"/>
<path d="M24.5292 21.2814L23.1459 18.9404C22.1882 20.0045 21.0178 20.7493 19.8473 21.3878C19.6345 21.4942 19.5281 21.8134 19.6345 22.0262L20.0601 22.8774C20.1665 23.0902 20.3794 23.0902 20.5922 22.9838C21.869 22.1326 23.0395 21.4942 24.5292 21.2814Z" fill="#474343"/>
<path d="M24.529 18.9404L23.1458 21.2814C24.529 21.4942 25.8059 22.1326 26.9764 22.8774C27.1892 22.9838 27.402 22.9838 27.5084 22.771L27.934 21.9198C28.0404 21.707 27.934 21.4942 27.8276 21.3878C26.5507 20.8557 25.3803 20.0045 24.529 18.9404Z" fill="#474343"/>
<path d="M22.5074 20.1116H25.1676C24.6356 18.7283 24.6356 17.345 24.6356 15.9618C24.6356 15.7489 24.4227 15.5361 24.2099 15.5361H23.2523C23.0395 15.5361 22.8267 15.7489 22.8267 15.9618C23.0395 17.345 22.9331 18.7283 22.5074 20.1116Z" fill="#474343"/>
<path d="M22.1882 20.1127C22.1882 20.9639 22.9331 21.7088 23.7843 21.7088C24.6356 21.7088 25.3804 20.9639 25.3804 20.1127C25.3804 19.2614 24.6356 18.5166 23.7843 18.5166C22.9331 18.5166 22.1882 19.2614 22.1882 20.1127Z" fill="#FDFDFD"/>
<path d="M15.0591 21.9212H15.3783V21.7084L15.5911 19.7931C15.8039 17.2394 18.0384 15.2177 20.5922 15.2177H26.7637C29.4238 15.2177 31.5519 17.133 31.7648 19.7931L31.9776 21.7084V21.9212H32.4032L32.1904 19.7931C31.8712 17.0266 29.6366 15.0049 26.8701 15.0049H20.6986C17.932 15.0049 15.5911 17.133 15.3783 19.7931L15.0591 21.9212Z" fill="#FFE66A"/>
</svg>
