<svg width="151" height="34" viewBox="0 0 151 34" fill="none" xmlns="http://www.w3.org/2000/svg">
<path opacity="0.1" d="M75.5596 33.6236C116.931 33.6236 150.469 33.0519 150.469 32.3467C150.469 31.6415 116.931 31.0698 75.5596 31.0698C34.1882 31.0698 0.650024 31.6415 0.650024 32.3467C0.650024 33.0519 34.1882 33.6236 75.5596 33.6236Z" fill="#1D1D1B"/>
<path d="M1.82066 19.259H2.03348C2.24629 19.259 2.4591 18.9397 2.56551 18.4077L2.88471 15.5348C2.99112 15.0027 2.77832 14.5771 2.56551 14.4707H2.35268C2.13987 14.4707 1.92706 14.7899 1.82066 15.2155L1.50145 18.0885C1.39505 18.7269 1.50144 19.1525 1.82066 19.259Z" fill="#E94E1B"/>
<path d="M148.128 19.8975L148.979 19.7911C149.512 19.7911 149.831 19.259 149.724 18.727L149.192 14.6836C149.086 14.1516 148.66 13.6195 148.128 13.5131L147.596 13.4067L148.128 19.8975Z" fill="#474343"/>
<path d="M147.809 20.1107L148.979 20.0043L148.341 13.3008H146.851L147.809 20.1107Z" fill="#403430"/>
<path d="M148.128 24.8981H149.512C149.831 24.8981 150.15 24.6853 150.15 24.3661L150.469 22.238C150.576 21.8124 150.256 21.4932 149.831 21.4932H148.022L147.596 24.3661C147.596 24.5789 147.809 24.8981 148.128 24.8981Z" fill="#F2E8E8"/>
<path d="M5.97034 25.3245L17.2493 26.0694L18.6326 26.1758H19.271L20.8671 26.2822H137.807L138.445 26.1758L142.595 25.6437L145.255 25.3245C146.851 25.1117 148.128 23.8348 148.341 22.2388L147.596 13.8327C147.49 13.4071 147.383 13.0879 147.277 12.8751C146.426 11.3854 144.723 11.3854 143.021 11.279L122.272 9.5765C121.846 9.5765 121.314 9.4701 120.888 9.36369C120.782 9.36369 120.676 9.36369 120.676 9.25728C120.037 9.04447 119.399 8.72526 118.867 8.29964L109.077 0.744836C108.439 0.212808 107.588 0 106.843 0H35.8703C31.2949 0 30.3372 1.9153 24.5913 7.44839C23.208 8.72526 21.3992 9.5765 19.5903 9.68291C5.11911 10.747 2.77818 10.0021 2.45897 14.684L1.92694 20.2171C1.60772 22.8772 3.52301 25.1117 5.97034 25.3245Z" fill="#474343"/>
<path fill-rule="evenodd" clip-rule="evenodd" d="M106.843 1.17041C107.481 1.17041 108.013 1.38322 108.545 1.70244L118.335 9.25723C118.76 9.57645 119.186 9.89567 119.718 10.1085L120.995 15.4288L119.718 25.4309H93.8613L94.819 15.1095L93.8613 1.27681H106.843V1.17041Z" fill="#FFE66A"/>
<path d="M94.7126 2.12744H106.843C107.268 2.12744 107.588 2.23385 107.907 2.55307L117.696 10.1079C117.803 10.2143 117.803 10.2143 117.909 10.2143H95.3511L94.7126 2.12744Z" fill="#7A7A7A"/>
<path d="M94.3934 1.80762H106.843C107.269 1.80762 107.801 1.91402 108.12 2.23324L117.909 9.78803L118.015 9.89445L118.867 10.5329H95.0319L94.3934 1.80762ZM107.694 2.76527C107.481 2.55246 107.162 2.44606 106.736 2.44606H95.0319L95.5639 9.89445H116.951L107.694 2.76527Z" fill="#474343"/>
<path fill-rule="evenodd" clip-rule="evenodd" d="M34.8062 2.66009C35.4447 1.70244 36.5087 1.17041 37.5728 1.17041H52.1504L53.108 15.0031L52.1504 25.3245H36.8279C36.4023 21.1747 33.5294 17.0248 29.5924 15.8544L29.486 11.1725C29.486 10.4277 29.6988 9.68286 30.1244 9.04442L34.8062 2.66009Z" fill="#FFE66A"/>
<path d="M35.5512 3.19247C36.0832 2.55404 36.828 2.12842 37.5729 2.12842H51.1928L51.7248 10.2152H30.6565L35.5512 3.19247Z" fill="#7A7A7A"/>
<path d="M30.1245 10.5354L35.3384 3.08696C35.8704 2.34212 36.7217 1.9165 37.5729 1.9165H51.512L52.1505 10.6418L30.1245 10.5354ZM37.5729 2.44853C36.9345 2.44853 36.1896 2.76774 35.764 3.40618L31.1886 9.89692H51.4056L50.8736 2.44853H37.5729Z" fill="#474343"/>
<path d="M100.352 11.5986H95.9895V12.9819H100.352V11.5986Z" fill="#474343"/>
<path d="M35.1255 11.5986H30.7628V12.9819H35.1255V11.5986Z" fill="#474343"/>
<path d="M1.92698 20.3232L1.82056 20.9617H4.4807C5.86397 20.9617 6.92805 22.0257 6.92805 23.409L1.18212 23.1962C0.54369 23.1962 -0.0947174 22.6642 0.0116881 22.0257C0.0116881 21.9193 0.0116881 21.7065 0.0116881 21.6001C0.118094 20.8553 0.650109 20.3232 1.39495 20.3232H1.92698Z" fill="#F2E8E8"/>
<path d="M145.681 24.2599H149.192C149.511 24.2599 149.724 24.0471 149.831 23.7279L150.043 22.7702C150.15 22.3446 149.831 22.0254 149.405 22.0254H145.894C145.574 22.0254 145.362 22.2382 145.255 22.5574L145.042 23.5151C144.936 23.8343 145.255 24.2599 145.681 24.2599Z" fill="#F2E8E8"/>
<path d="M113.972 10.535L116.1 11.4927L116.206 10.4286L114.398 8.83252L113.972 10.535Z" fill="#474343"/>
<path d="M113.44 7.44873H113.653C114.185 7.55514 114.61 7.87435 114.717 8.40638L115.036 9.47044C115.355 10.6409 114.398 11.705 113.227 11.4921H113.014L113.44 7.44873Z" fill="#474343"/>
<path d="M125.464 26.3898H138.02L138.658 26.2834L142.808 25.7514L142.382 23.5168C142.063 21.8144 140.999 20.3247 139.509 19.5798C138.764 19.1542 137.913 18.9414 136.956 18.9414H131.742C130.571 18.9414 129.507 19.2606 128.549 19.899C127.166 20.7503 126.209 22.1336 125.889 23.8361L125.464 26.3898Z" fill="#7A7A7A"/>
<g opacity="0.75">
<path opacity="0.2" d="M102.906 2.76611L108.652 9.68247H104.183L98.4369 2.76611H102.906Z" fill="#FFE66A"/>
<path opacity="0.2" d="M105.034 2.76611L110.567 9.68247H109.184L103.544 2.76611H105.034Z" fill="#FFE66A"/>
</g>
<g opacity="0.75">
<path opacity="0.2" d="M42.7866 2.76611L48.4261 9.68247H43.9571L38.2112 2.76611H42.7866Z" fill="#FFE66A"/>
<path opacity="0.2" d="M44.8084 2.76611L50.4479 9.68247H48.9582L43.3187 2.76611H44.8084Z" fill="#FFE66A"/>
</g>
<path d="M17.3558 26.0706L18.7391 26.177H19.3775L20.9736 26.2834H34.4871L34.0615 23.5168C33.7423 21.8144 32.6782 20.3247 31.1886 19.5798C30.4437 19.1542 29.5925 18.9414 28.6348 18.9414H23.421C22.2505 18.9414 21.1864 19.2606 20.2288 19.899C18.8455 20.7503 17.8879 22.1336 17.5687 23.8361L17.3558 26.0706Z" fill="#7A7A7A"/>
<path d="M120.888 9.57666L120.995 10.1087C121.208 11.1727 122.272 12.024 123.336 12.024L147.171 13.088C146.319 11.5984 144.617 11.5984 142.914 11.492L122.165 9.78947C121.74 9.78947 121.314 9.68307 120.888 9.57666Z" fill="#F2E8E8"/>
<path d="M53.4272 2.12842L54.0657 10.2152H93.2229L92.5845 2.12842H53.4272Z" fill="#7A7A7A"/>
<path d="M53.108 1.17041L53.7465 11.0661H93.6486L93.5421 9.89567L93.0101 2.02166V1.91525V1.27681H92.3717H53.108V1.17041ZM53.8529 2.44728H92.4781L93.0101 9.89567H54.2785L53.8529 2.44728Z" fill="#FFE66A"/>
<path d="M79.4966 1.80762L79.603 2.44606L80.0286 9.89445L80.135 10.5329H82.476V9.89445L81.9439 2.44606V1.80762H79.4966Z" fill="#FFE66A"/>
<path d="M81.4119 9.46873L80.9863 2.87158H80.5607L81.0927 9.46873H81.4119Z" fill="#474343"/>
<path d="M64.2805 1.80762L64.3869 2.44606L64.919 9.89445V10.5329H67.3663L67.2599 9.89445L66.7278 2.44606V1.80762H64.2805Z" fill="#FFE66A"/>
<path d="M66.1958 9.46873L65.7702 2.87158H65.3446L65.8766 9.46873H66.1958Z" fill="#474343"/>
<g opacity="0.75">
<path opacity="0.2" d="M86.5194 2.76611L92.1589 9.68247H87.6899L81.944 2.76611H86.5194Z" fill="#FFE66A"/>
<path opacity="0.2" d="M88.5412 2.76611L94.1807 9.68247H92.691L87.0515 2.76611H88.5412Z" fill="#FFE66A"/>
</g>
<g opacity="0.75">
<path opacity="0.2" d="M71.7289 2.76611L77.4748 9.68247H72.8994L67.2599 2.76611H71.7289Z" fill="#FFE66A"/>
<path opacity="0.2" d="M73.7507 2.76611L79.3902 9.68247H78.0069L72.3674 2.76611H73.7507Z" fill="#FFE66A"/>
</g>
<g opacity="0.75">
<path opacity="0.2" d="M58.3217 2.76611L63.9612 9.68247H59.4922L53.8527 2.76611H58.3217Z" fill="#FFE66A"/>
<path opacity="0.2" d="M60.3433 2.76611L65.9828 9.68247H64.4931L58.8536 2.76611H60.3433Z" fill="#FFE66A"/>
</g>
<path opacity="0.05" d="M0.0117188 21.6006C0.0117188 21.707 0.0117188 21.8134 0.0117188 22.0263C0.0117188 22.6647 0.543721 23.1967 1.18215 23.1967L2.56545 23.3031C3.31028 24.4736 4.58714 25.3248 6.07682 25.3248L17.3558 26.0697L18.7391 26.1761H19.3775L20.9736 26.2825H34.4871H125.464H138.02L138.658 26.1761L142.808 25.644L145.468 25.3248C146.319 25.2184 147.064 24.7928 147.596 24.1544H147.703C147.703 24.4736 147.915 24.7928 148.235 24.7928H149.618C149.937 24.7928 150.256 24.58 150.256 24.2608L150.469 22.6647L1.71418 16.4932L1.50139 18.0892C1.39498 18.6213 1.60778 19.1533 1.82059 19.1533H2.03342L1.92701 20.2174H1.39498C0.650139 20.3238 0.118124 20.8558 0.0117188 21.6006Z" fill="#1D1D1B"/>
<path d="M129.401 24.8996C129.401 27.5597 131.529 29.6878 134.189 29.6878C136.849 29.6878 138.977 27.5597 138.977 24.8996C138.977 22.2394 136.849 20.1113 134.189 20.1113C131.529 20.1113 129.401 22.2394 129.401 24.8996Z" fill="#474343"/>
<path d="M126.634 24.8997C126.634 25.3253 126.634 25.8573 126.741 26.2829C127.379 29.7943 130.465 32.3481 134.083 32.3481C137.7 32.3481 140.786 29.6879 141.425 26.2829C141.531 25.8573 141.531 25.3253 141.531 24.8997C141.531 22.878 140.68 20.9627 139.403 19.6858C138.658 19.2602 137.807 19.0474 136.849 19.0474H131.742C130.571 19.0474 129.507 19.3666 128.55 20.005C127.379 21.2819 126.634 22.9844 126.634 24.8997ZM134.189 29.4751C132.167 29.4751 130.358 28.0918 129.826 26.2829C129.72 25.8573 129.614 25.3253 129.614 24.8997C129.614 22.3459 131.635 20.3242 134.189 20.3242C136.743 20.3242 138.765 22.3459 138.765 24.8997C138.765 25.4317 138.658 25.8573 138.552 26.2829C137.913 28.0918 136.211 29.4751 134.189 29.4751Z" fill="#7A7A7A"/>
<path d="M130.678 24.8991C130.678 26.8144 132.274 28.4105 134.189 28.4105C136.104 28.4105 137.701 26.8144 137.701 24.8991C137.701 22.9838 136.104 21.3877 134.189 21.3877C132.167 21.3877 130.678 22.9838 130.678 24.8991Z" fill="#FFE66A"/>
<path d="M132.061 24.8996C132.061 26.0701 133.019 27.0277 134.189 27.0277C135.359 27.0277 136.317 26.0701 136.317 24.8996C136.317 23.7291 135.359 22.7715 134.189 22.7715C133.019 22.7715 132.061 23.7291 132.061 24.8996Z" fill="#474343"/>
<path opacity="0.5" d="M135.998 21.0693C136.743 21.3886 137.381 22.027 137.807 22.6654L134.189 24.7935L135.998 21.0693Z" fill="#FFE66A"/>
<path opacity="0.5" d="M134.083 24.7935L132.274 28.6241C131.529 28.3048 130.89 27.6664 130.465 27.028L134.083 24.7935Z" fill="#FFE66A"/>
<path d="M21.0801 24.8996C21.0801 27.5597 23.2082 29.6878 25.8683 29.6878C28.5285 29.6878 30.6566 27.5597 30.6566 24.8996C30.6566 22.2394 28.5285 20.1113 25.8683 20.1113C23.3146 20.1113 21.0801 22.2394 21.0801 24.8996Z" fill="#474343"/>
<path d="M18.4199 24.8997C18.4199 25.3253 18.4199 25.8573 18.5263 26.2829C19.1648 29.7943 22.2505 32.3481 25.8683 32.3481C29.4861 32.3481 32.5719 29.6879 33.2103 26.2829C33.3167 25.8573 33.3167 25.3253 33.3167 24.8997C33.3167 22.878 32.4655 20.9627 31.1886 19.6858C30.4438 19.2602 29.5925 19.0474 28.6349 19.0474H23.421C22.2505 19.0474 21.1865 19.3666 20.2288 20.005C19.0584 21.2819 18.4199 22.9844 18.4199 24.8997ZM25.8683 29.4751C23.8466 29.4751 22.0377 28.0918 21.5057 26.2829C21.3993 25.8573 21.2929 25.3253 21.2929 24.8997C21.2929 22.3459 23.3146 20.3242 25.8683 20.3242C28.422 20.3242 30.4437 22.3459 30.4437 24.8997C30.4437 25.4317 30.3374 25.8573 30.2309 26.2829C29.6989 28.0918 27.9964 29.4751 25.8683 29.4751Z" fill="#7A7A7A"/>
<path d="M22.4634 24.8991C22.4634 26.8144 24.0595 28.4105 25.9748 28.4105C27.8901 28.4105 29.4862 26.8144 29.4862 24.8991C29.4862 22.9838 27.8901 21.3877 25.9748 21.3877C24.0595 21.3877 22.4634 22.9838 22.4634 24.8991Z" fill="#FFE66A"/>
<path d="M25.8683 27.0277C27.0437 27.0277 27.9965 26.0749 27.9965 24.8996C27.9965 23.7243 27.0437 22.7715 25.8683 22.7715C24.693 22.7715 23.7402 23.7243 23.7402 24.8996C23.7402 26.0749 24.693 27.0277 25.8683 27.0277Z" fill="#474343"/>
<path opacity="0.5" d="M27.6772 21.0693C28.422 21.3886 29.0604 22.027 29.4861 22.6654L25.8683 24.7935L27.6772 21.0693Z" fill="#FFE66A"/>
<path opacity="0.5" d="M25.8684 24.7935L24.0595 28.6241C23.3146 28.3048 22.6762 27.6664 22.2506 27.028L25.8684 24.7935Z" fill="#FFE66A"/>
</svg>
