<svg width="93" height="94" viewBox="0 0 93 94" fill="none" xmlns="http://www.w3.org/2000/svg">
<path d="M93 45.7443V47.656C93 70.9061 75.2037 90.1077 52.212 92.8628C50.3463 93.0878 48.4231 93.2002 46.5 93.2002C44.0315 93.2002 41.6204 93.0034 39.2379 92.6379C16.9926 89.2362 0 70.3719 0 47.656V45.7443C0 20.5826 20.8102 0.200195 46.5 0.200195C59.3306 0.200195 70.9556 5.28874 79.3657 13.526C87.8046 21.7915 93 33.1775 93 45.7443Z" fill="url(#paint0_linear_109_168)"/>
<path d="M52.2409 45.3508V52.5479H63.4066L61.5983 64.5243H52.2121V92.8066C50.3464 93.0315 48.4233 93.144 46.5001 93.144C44.0316 93.144 41.6205 92.9472 39.2381 92.5817V64.4962H28.5603L28.7612 52.5198H39.2381V42.1458C39.2381 34.4708 46.2992 25.3901 63.4066 29.1573V39.222L58.2112 39.3063C54.6233 39.4469 52.2409 41.8366 52.2409 45.3508Z" fill="white"/>
<defs>
<linearGradient id="paint0_linear_109_168" x1="46.503" y1="0.319229" x2="46.503" y2="97.8092" gradientUnits="userSpaceOnUse">
<stop stop-color="#0FACFF"/>
<stop offset="0.3681" stop-color="#088AF0"/>
<stop offset="0.7739" stop-color="#026BE2"/>
<stop offset="1" stop-color="#005FDD"/>
</linearGradient>
</defs>
</svg>
