<svg width="52" height="37" viewBox="0 0 52 37" fill="none" xmlns="http://www.w3.org/2000/svg">
<path d="M11.9966 0H4.3705V2.5471H12.0412V0H11.9966ZM34.741 7.06039C27.6501 7.06039 21.8971 12.8249 21.8971 19.9299C21.8971 27.035 27.6501 32.7995 34.741 32.7995C41.8319 32.7995 47.5849 27.035 47.5849 19.9299C47.5849 12.8249 41.8319 7.06039 34.741 7.06039ZM34.741 29.0906C29.7015 29.0906 25.5986 24.9795 25.5986 19.9299C25.5986 14.8804 29.7015 10.7693 34.741 10.7693C39.7804 10.7693 43.8834 14.8804 43.8834 19.9299C43.8834 24.9795 39.7804 29.0906 34.741 29.0906ZM49.1904 3.61956C46.247 3.61956 5.53002 3.57488 2.49743 3.57488C0.713551 3.57488 0 4.24517 0 6.03261C0 15.5954 0 25.1582 0 34.721C0 36.3297 0.668954 37 2.31904 37C10.2573 37 18.1509 37 26.0892 37C33.8491 37 41.6089 37 49.4134 37C51.4648 37 52 36.4638 52 34.3635C52 25.0242 52 15.6848 52 6.3901C52 4.1558 51.4202 3.61956 49.1904 3.61956ZM10.8816 10.6799H5.39623C4.41509 10.6799 3.61235 9.92029 3.61235 8.9372C3.61235 7.9541 4.41509 7.19444 5.39623 7.19444H10.9262C11.9074 7.19444 12.7101 7.9541 12.7101 8.9372C12.6655 9.92029 11.8628 10.6799 10.8816 10.6799ZM34.8748 34.6316C26.8473 34.6763 20.3808 28.1969 20.3362 20.1087C20.2916 11.8865 27.2487 5.31763 34.7856 5.63043C42.3225 5.27295 49.3242 11.7971 49.3242 20.064C49.3242 28.0181 43.036 34.587 34.8748 34.6316Z" fill="url(#paint0_linear_425_313)"/>
<path d="M28.0024 17.8834C27.5388 19.7531 28.0024 22.8167 28.0024 22.8167C28.0024 22.8167 28.9372 21.6867 29.541 20.9667C30.9666 19.2669 31.4988 18.0312 33.2337 16.65C34.5408 15.6094 35.4842 15.3346 36.9263 14.4917C36.3254 13.8896 35.3877 12.95 35.3877 12.95C35.3877 12.95 31.163 12.7726 29.541 14.4917C28.5435 15.549 28.3525 16.4713 28.0024 17.8834Z" fill="url(#paint1_linear_425_313)"/>
<path d="M35.3877 12.95C35.3877 12.95 36.3254 13.8896 36.9263 14.4917C37.2868 13.8896 37.8494 12.95 37.8494 12.95H35.3877Z" fill="url(#paint2_linear_425_313)"/>
<defs>
<linearGradient id="paint0_linear_425_313" x1="26.0517" y1="2.96914" x2="25.0434" y2="36.9716" gradientUnits="userSpaceOnUse">
<stop stop-color="#FFE66A"/>
<stop offset="1" stop-color="#F2AF4B"/>
</linearGradient>
<linearGradient id="paint1_linear_425_313" x1="32.8329" y1="13.737" x2="32.4619" y2="22.8019" gradientUnits="userSpaceOnUse">
<stop stop-color="#FFE66A"/>
<stop offset="1" stop-color="#F2AF4B"/>
</linearGradient>
<linearGradient id="paint2_linear_425_313" x1="32.8329" y1="13.737" x2="32.4619" y2="22.8019" gradientUnits="userSpaceOnUse">
<stop stop-color="#FFE66A"/>
<stop offset="1" stop-color="#F2AF4B"/>
</linearGradient>
</defs>
</svg>
