<svg width="41" height="52" viewBox="0 0 41 52" fill="none" xmlns="http://www.w3.org/2000/svg">
<path d="M20.5 3.0083C20.5 3.0083 4.7729 2.17425 0 17.2235V29.4442C0 29.4442 0.508588 31.0761 2.38645 32.0915C2.34733 32.4541 2.34733 32.853 2.34733 33.2519C2.58206 37.5309 5.86832 40.9397 9.50668 41.1935C9.70229 41.9188 10.4065 42.4628 11.2281 42.4265C12.167 42.3902 12.9103 41.6287 12.8712 40.7584L12.0496 24.2223C12.0105 23.352 11.1889 22.663 10.25 22.6993C9.31107 22.7355 8.56775 23.4971 8.60687 24.3674V24.6212C6.72901 24.9113 5.04676 26.0718 3.87309 27.7036C3.67748 26.9783 -2.22996 5.94563 20.4218 6.16321C43.0735 5.94563 37.166 26.9783 36.9704 27.7036C35.7968 26.0718 34.1145 24.9476 32.2366 24.6212V24.3674C32.2758 23.4971 31.5716 22.7355 30.5935 22.6993C29.6546 22.663 28.833 23.352 28.7939 24.2223L27.9723 40.7584C27.9332 41.6287 28.6765 42.3902 29.6155 42.4265C30.437 42.4628 31.1803 41.9188 31.376 41.1935C33.0191 41.0848 34.584 40.3232 35.8359 39.1265C35.7968 43.2968 34.4275 46.7781 28.7156 46.6693C28.9895 47.5034 29.0677 48.3737 28.8721 49.244C41.9781 50.2231 40.2176 38.1474 40.9609 29.4805C40.9609 29.4442 41 29.408 41 29.408V17.2235C36.1097 2.21051 20.5 3.0083 20.5 3.0083ZM23.4733 44.5298C21.2433 44.5298 19.4437 46.1979 19.4437 48.2649C19.4437 50.3319 21.2433 52 23.4733 52C25.7032 52 27.5029 50.3319 27.5029 48.2649C27.5029 46.1979 25.7032 44.5298 23.4733 44.5298Z" fill="url(#paint0_linear_425_317)"/>
<defs>
<linearGradient id="paint0_linear_425_317" x1="20.5408" y1="6.9321" x2="18.3014" y2="51.8905" gradientUnits="userSpaceOnUse">
<stop stop-color="#FFE66A"/>
<stop offset="1" stop-color="#F2AF4B"/>
</linearGradient>
</defs>
</svg>
