<svg width="69" height="50" viewBox="0 0 69 50" fill="none" xmlns="http://www.w3.org/2000/svg">
<path d="M47.4235 24.7973C47.0129 25.0054 46.6536 25.2135 46.3457 25.4737L44.3954 23.2883C42.8043 20.6345 40.5974 17.9287 38.7497 17.9807H22.2747C20.3243 17.9807 18.2714 20.8947 16.629 23.2883L14.6787 25.3696C14.3707 25.1615 14.0628 24.9534 13.7035 24.7452C12.1125 23.9647 10.4701 24.0688 10.0082 25.0054C9.54628 25.942 10.5214 27.2949 12.1125 28.1275C12.4204 28.2836 12.7284 28.3876 13.0363 28.4917V33.0707C13.0363 35.7765 15.1919 37.962 17.8608 37.962H43.2149C45.8837 37.962 48.0394 35.7765 48.0394 33.0707V28.4917C48.3473 28.3876 48.7066 28.2836 49.0658 28.1275C50.6569 27.3469 51.5807 25.942 51.1701 25.0054C50.6569 24.1208 49.0145 23.9647 47.4235 24.7973ZM19.3492 20.8426C20.8376 18.7613 22.172 18.9174 22.172 18.9174C22.172 18.9174 36.1322 18.9174 37.1587 18.9174C38.6984 18.9174 40.2381 18.9174 41.5725 20.7386C43.3175 23.1322 44.9086 24.6932 42.3937 24.6932C38.4931 24.6932 19.9651 24.7973 18.374 24.6932C16.2184 24.5891 17.8608 22.872 19.3492 20.8426ZM19.7598 32.6544C19.2979 33.5911 17.6555 33.6951 16.0644 32.9146C14.4734 32.1341 13.5496 30.7292 13.9602 29.7926C14.4221 28.8559 16.0644 28.7519 17.6555 29.5324C19.2465 30.3129 20.2217 31.7178 19.7598 32.6544ZM36.3375 35.8806H24.5329C22.7366 35.8806 21.2995 34.8399 21.2995 33.5911C21.2995 32.2902 22.7366 31.3015 24.5329 31.3015H36.3375C38.1338 31.3015 39.5709 32.3422 39.5709 33.5911C39.5709 34.8399 38.1338 35.8806 36.3375 35.8806ZM44.7546 32.8626C43.1636 33.6431 41.5212 33.539 41.0593 32.6024C40.5974 31.6658 41.5725 30.3129 43.1636 29.4803C44.7546 28.6998 46.397 28.8039 46.8589 29.7405C47.2695 30.7292 46.3457 32.0821 44.7546 32.8626ZM43.1636 38.7945H17.8608C15.1919 38.7945 13.0363 36.6091 13.0363 33.9033V35.6204C13.0363 36.7131 13.3956 37.7018 13.9602 38.5343V39.575C13.9602 40.3035 14.576 40.9279 15.2946 40.9279H20.8889C21.2482 40.9279 21.6074 40.7718 21.8127 40.5116H39.3656C39.6222 40.7718 39.9302 40.9279 40.2894 40.9279H45.8838C46.6023 40.9279 47.2182 40.3035 47.2182 39.575V38.1701C47.6801 37.4416 47.9367 36.557 47.9367 35.6204V33.9033C47.988 36.6091 45.8324 38.7945 43.1636 38.7945ZM30.7431 0.289062L0 11.1642V17.9807L2.87415 16.9401V43.7378H5.44036V16.0555L30.8458 7.10557L55.6353 15.8473V47.5491H58.2015V16.784L61.7429 18.0328V11.1642L30.7431 0.289062Z" fill="url(#paint0_linear_425_319)"/>
<path d="M56.9731 26.4434C50.8965 26.4434 45.9731 31.3667 45.9731 37.4434C45.9731 43.52 50.8965 48.4434 56.9731 48.4434C63.0498 48.4434 67.9731 43.52 67.9731 37.4434C67.9731 31.3667 63.0498 26.4434 56.9731 26.4434ZM64.9127 33.5401H61.9409C61.6304 31.9434 61.1425 30.524 60.5215 29.3708C62.4288 30.2135 63.9812 31.6772 64.9127 33.5401ZM56.9731 28.5724C57.7715 28.5724 59.1022 30.4353 59.7675 33.5401H54.1344C54.7998 30.4353 56.1304 28.5724 56.9731 28.5724ZM48.1022 37.4434C48.1022 36.8667 48.1465 36.2458 48.2796 35.6692H51.6949C51.6506 36.2901 51.6506 36.8667 51.6506 37.4434C51.6506 38.0643 51.6506 38.6409 51.6949 39.2176H48.2796C48.1465 38.6853 48.1022 38.0643 48.1022 37.4434ZM48.9893 41.3466H51.961C52.2715 42.9877 52.7594 44.4071 53.3804 45.5603C51.4731 44.7176 49.9207 43.2095 48.9893 41.3466ZM51.961 33.5401H48.9893C49.9207 31.6772 51.4731 30.2135 53.3804 29.3708C52.7594 30.524 52.2715 31.9434 51.961 33.5401ZM56.9731 46.3143C56.1304 46.3143 54.7998 44.4958 54.1344 41.3466H59.7675C59.1022 44.4958 57.7715 46.3143 56.9731 46.3143ZM60.078 39.2176H53.824C53.7796 38.6853 53.7796 38.0643 53.7796 37.4434C53.7796 36.8224 53.7796 36.2458 53.824 35.6692H60.078C60.1223 36.2458 60.1667 36.8224 60.1667 37.4434C60.1667 38.0643 60.1223 38.6853 60.078 39.2176ZM60.5215 45.5603C61.1425 44.4071 61.6304 42.9877 61.9409 41.3466H64.9127C63.9812 43.2095 62.4288 44.7176 60.5215 45.5603ZM62.207 39.2176C62.2514 38.6409 62.2957 38.0643 62.2957 37.4434C62.2957 36.8667 62.2514 36.2901 62.207 35.6692H65.6667C65.7554 36.2458 65.8441 36.8667 65.8441 37.4434C65.8441 38.0643 65.7554 38.6853 65.6667 39.2176H62.207Z" fill="url(#paint1_linear_425_319)"/>
<defs>
<linearGradient id="paint0_linear_425_319" x1="30.9328" y1="4.08153" x2="29.5475" y2="47.5068" gradientUnits="userSpaceOnUse">
<stop stop-color="#FFE66A"/>
<stop offset="1" stop-color="#F2AF4B"/>
</linearGradient>
<linearGradient id="paint1_linear_425_319" x1="56.995" y1="28.2088" x2="56.1531" y2="48.4092" gradientUnits="userSpaceOnUse">
<stop stop-color="#FFE66A"/>
<stop offset="1" stop-color="#F2AF4B"/>
</linearGradient>
</defs>
</svg>
