<svg width="67" height="48" viewBox="0 0 67 48" fill="none" xmlns="http://www.w3.org/2000/svg">
<path d="M60.3522 17.2465C63.25 14.6233 64.6136 10.6047 63.7045 6.58605C63.0795 3.79535 61.4318 1.50698 59.2158 0L57.4544 0.390698L60.0113 11.3302L54.2726 16.3535L46.8861 14.2884L44.3861 3.34884L42.6247 3.73953C41.3179 6.02791 40.8633 8.81861 41.5451 11.5535C42.5111 15.5721 45.5225 18.586 49.2725 19.7581L55.9203 48L67 45.4884L60.3522 17.2465ZM13.3061 41.1349C8.81746 41.1349 5.18105 37.5628 5.18105 33.1535V35.9442C5.18105 37.7302 5.74924 39.3488 6.77198 40.6884V42.4186C6.77198 43.6465 7.79471 44.5954 8.98791 44.5954H18.4767C19.1017 44.5954 19.6699 44.3163 20.0676 43.9256H49.6702C50.068 44.3163 50.6362 44.5954 51.2612 44.5954H53.0226L52.2271 41.1349H13.3061ZM5.18105 31.814C5.18105 36.2233 8.81746 39.7954 13.3061 39.7954H51.8862L47.6248 21.6C45.5793 20.986 43.9315 19.7581 42.6247 18.1953C31.1473 18.2512 16.0335 18.2512 14.2153 18.1953C10.6357 18.0279 13.4766 15.1814 15.9198 11.8884C18.4767 8.48372 20.6926 8.70698 20.6926 8.70698C20.6926 8.70698 31.7155 8.70698 39.2156 8.70698C39.2156 8.20465 39.2724 7.70233 39.3292 7.2H20.8062C17.5108 7.2 14.0448 11.9442 11.3175 15.8512L8.022 19.2558C7.56745 18.8651 6.99925 18.5302 6.43106 18.2512C3.76057 16.9674 0.976446 17.1349 0.180982 18.6419C-0.557664 20.1488 1.03327 22.4372 3.70376 23.7209C4.21513 23.9442 4.72651 24.1674 5.23788 24.2791V31.814H5.18105ZM24.6131 28.8H44.4997C47.5111 28.8 49.8975 30.4744 49.8975 32.5954C49.8975 34.6605 47.4543 36.3907 44.4997 36.3907H24.6131C21.6017 36.3907 19.2153 34.7163 19.2153 32.5954C19.2153 30.4744 21.6017 28.8 24.6131 28.8ZM6.8288 26.4C7.56744 24.893 10.3516 24.7256 13.0789 26.0093C15.7494 27.293 17.3403 29.5814 16.6017 31.0884C15.863 32.5954 13.0789 32.7628 10.3516 31.4791C7.62427 30.1954 6.09015 27.907 6.8288 26.4Z" fill="url(#paint0_linear_425_312)"/>
<defs>
<linearGradient id="paint0_linear_425_312" x1="33.5666" y1="3.85185" x2="32.2495" y2="47.9627" gradientUnits="userSpaceOnUse">
<stop stop-color="#FFE66A"/>
<stop offset="1" stop-color="#F2AF4B"/>
</linearGradient>
</defs>
</svg>
