<svg width="69" height="45" viewBox="0 0 69 45" fill="none" xmlns="http://www.w3.org/2000/svg">
<path d="M51.0448 18.0225C50.6651 18.1868 50.3396 18.4059 50.0684 18.6798L48.2783 16.653C46.7594 14.1879 44.6981 11.6681 43.0165 11.7228H27.6651C25.8208 11.7228 23.9222 14.407 22.4033 16.653L20.6132 18.5703C20.342 18.3512 20.0708 18.1868 19.7453 18.0225C18.2807 17.3104 16.7075 17.4199 16.3278 18.2416C15.8939 19.1181 16.7618 20.378 18.2807 21.0901C18.5519 21.1997 18.8231 21.3093 19.0943 21.4188V25.6916C19.0943 28.2115 21.1014 30.2383 23.5967 30.2383H47.1392C49.6344 30.2383 51.6415 28.2115 51.6415 25.6916V21.4736C51.967 21.4188 52.2382 21.2545 52.5637 21.1449C54.0283 20.4328 54.9505 19.1181 54.5165 18.2964C54.0826 17.4199 52.5637 17.3104 51.0448 18.0225ZM24.9528 14.3523C26.3632 12.435 27.5566 12.5445 27.5566 12.5445C27.5566 12.5445 40.5755 12.5445 41.4976 12.5445C42.9623 12.5445 44.3726 12.5445 45.6203 14.2427C47.2476 16.4339 48.7123 17.9129 46.3797 17.9129C42.7453 17.9129 25.5495 17.9677 24.0307 17.9129C22.0778 17.8581 23.5967 16.2695 24.9528 14.3523ZM25.3326 25.3082C24.8986 26.1846 23.3797 26.2942 21.9151 25.5273C20.4505 24.8152 19.5283 23.5004 19.9623 22.6788C20.3962 21.8023 21.9151 21.6927 23.3797 22.4596C24.8986 23.1718 25.7665 24.4317 25.3326 25.3082ZM40.7382 28.3211H29.7807C28.1533 28.3211 26.7972 27.335 26.7972 26.1846C26.7972 24.9795 28.1533 24.0482 29.7807 24.0482H40.7382C42.3656 24.0482 43.7217 25.0343 43.7217 26.1846C43.7759 27.335 42.4198 28.3211 40.7382 28.3211ZM48.6038 25.5273C47.1392 26.2394 45.566 26.1299 45.1863 25.3082C44.7524 24.4317 45.6745 23.1718 47.1392 22.4596C48.6038 21.7475 50.1769 21.8571 50.5566 22.6788C50.9363 23.5004 50.0684 24.8152 48.6038 25.5273ZM47.1392 31.0053H23.5425C21.0472 31.0053 19.0401 28.9784 19.0401 26.4585V28.0472C19.0401 29.0332 19.3656 29.9644 19.908 30.7314V31.7174C19.908 32.4295 20.4505 32.9773 21.1557 32.9773H26.3632C26.6887 32.9773 27.0142 32.813 27.2311 32.5939H43.559C43.7759 32.813 44.1014 32.9773 44.4269 32.9773H49.6344C50.3396 32.9773 50.8821 32.4295 50.8821 31.7174V30.4027C51.316 29.6905 51.533 28.9236 51.533 28.0472V26.4585C51.5873 28.9784 49.5802 31.0053 47.1392 31.0053ZM32.3844 41.0299C29.1297 40.9204 24.6274 40.8108 22.2948 40.7012C17.1958 40.4821 15.6769 37.2501 14.158 36.1545C12.6392 35.0589 12.8561 33.0321 14.809 34.4564C16.7618 35.8806 20.2335 38.2362 22.0778 38.4553C23.9222 38.6744 25.441 37.524 22.6203 35.7163C18.8774 33.3608 16.0566 30.7314 13.941 27.7733C12.3137 25.5273 9.00472 23.3909 3.52594 24.9247C2.2783 25.3082 1.13915 25.5273 0 25.6916V34.6207C0.488208 34.5659 0.976415 34.5111 1.57311 34.4564C4.01415 34.2372 7.75708 38.784 10.7406 41.4134C14.6462 44.8097 14.8632 45.3027 21.5354 44.8645C22.8373 44.7549 23.7594 45.0288 26.5802 44.9193C30.3774 44.7549 30.9198 44.0976 32.2217 44.0976C34.3915 44.0976 35.6392 41.1395 32.3844 41.0299ZM68.2406 11.7776C65.7995 11.8324 62.3278 7.12135 59.3986 4.32759C55.7099 0.712135 55.4929 0.219118 48.8208 0.328678C47.5189 0.328678 45.6203 0 42.7453 0C38.9481 0 39.0566 0.328678 37.7547 0.273898C35.5849 0.109559 34.1745 3.01288 37.4292 3.28678C40.684 3.56067 45.5118 4.21803 47.7901 4.43715C52.8892 4.93016 54.2453 8.21694 55.7099 9.36731C57.1745 10.5177 56.8491 12.5993 54.9505 11.0107C53.0519 9.47687 49.7429 6.95701 47.8986 6.62833C46.0542 6.29965 44.4811 7.39525 47.1934 9.31253C50.8278 11.8872 53.4859 14.6262 55.4387 17.6938C56.9033 20.0493 60.158 22.3501 65.691 21.0901C66.8844 20.8162 67.9693 20.6519 69 20.5423V11.7228C68.783 11.7228 68.5118 11.7776 68.2406 11.7776Z" fill="url(#paint0_linear_425_316)"/>
<defs>
<linearGradient id="paint0_linear_425_316" x1="34.5686" y1="3.61111" x2="33.4444" y2="44.9713" gradientUnits="userSpaceOnUse">
<stop stop-color="#FFE66A"/>
<stop offset="1" stop-color="#F2AF4B"/>
</linearGradient>
</defs>
</svg>
