<svg width="93" height="93" viewBox="0 0 93 93" fill="none" xmlns="http://www.w3.org/2000/svg">
<path d="M92.4999 46.5C92.4999 71.905 71.9052 92.5 46.5001 92.5C21.0951 92.5 0.5 71.905 0.5 46.5C0.5 21.0949 21.0951 0.5 46.5001 0.5C71.9052 0.5 92.4999 21.0949 92.4999 46.5Z" fill="white" stroke="#E0E0E0"/>
<path d="M66.6499 46.9741C66.6499 45.292 66.5003 44.1218 66.2012 42.8784H46.9109V50.3385H58.2757C58.0514 52.1669 56.7803 55.0193 54.0887 56.8478L54.0138 57.0671L60.1449 61.6749L60.5936 61.748C64.4068 58.3105 66.6499 53.1177 66.6499 46.9741Z" fill="#3283FC"/>
<path d="M46.8363 66.6499C52.3691 66.6499 57.0793 64.8946 60.4438 61.7496L53.9393 56.8494C52.2196 58.0196 49.9018 58.8972 46.8363 58.8972C41.3783 58.8972 36.7425 55.3867 35.0976 50.5596H34.8733L28.518 55.3867L28.4434 55.606C31.8827 62.1153 38.8362 66.6499 46.8363 66.6499Z" fill="#00AC47"/>
<path d="M35.1727 50.4857C34.7241 49.2423 34.4997 47.9259 34.4997 46.5363C34.4997 45.1467 34.7241 43.8302 35.1727 42.5868V42.2943L28.7426 37.394L28.5183 37.4672C27.0977 40.1733 26.3501 43.2451 26.3501 46.5363C26.3501 49.8275 27.1725 52.8261 28.5183 55.6053L35.1727 50.4857Z" fill="#FFBB00"/>
<path d="M46.8363 34.1759C50.7243 34.1759 53.3408 35.7849 54.7614 37.1746L60.5935 31.6161C57.0047 28.398 52.3691 26.3501 46.8363 26.3501C38.7614 26.3501 31.8079 30.8847 28.4434 37.4671L35.0976 42.5137C36.8173 37.6866 41.453 34.1759 46.8363 34.1759Z" fill="#FE2C25"/>
</svg>
