<svg width="93" height="93" viewBox="0 0 93 93" fill="none" xmlns="http://www.w3.org/2000/svg">
<path d="M46.5 93C20.8102 93 0 72.6176 0 47.4559V45.5441C0 20.3824 20.8102 0 46.5 0C72.1898 0 93 20.3824 93 45.5441V47.4559C93 72.6176 72.1898 93 46.5 93Z" fill="url(#paint0_linear_221_17219)"/>
<path d="M46.5 93C20.8102 93 0 72.6176 0 47.4559V45.5441C0 20.3824 20.8102 0 46.5 0C72.1898 0 93 20.3824 93 45.5441V47.4559C93 72.6176 72.1898 93 46.5 93Z" fill="url(#paint1_radial_221_17219)" fill-opacity="0.66"/>
<path d="M46.5 93C20.8102 93 0 72.6176 0 47.4559V45.5441C0 20.3824 20.8102 0 46.5 0C72.1898 0 93 20.3824 93 45.5441V47.4559C93 72.6176 72.1898 93 46.5 93Z" fill="url(#paint2_radial_221_17219)" fill-opacity="0.5"/>
<path d="M58.9691 19.7095H34.0307C26.3453 19.7095 20.1499 25.9833 20.1499 33.5903V58.5287C20.1499 66.2141 26.4237 72.4095 34.0307 72.4095H58.9691C66.6545 72.4095 72.8499 66.1357 72.8499 58.5287V33.5903C72.9283 25.9833 66.6545 19.7095 58.9691 19.7095ZM68.0662 58.5287C68.0662 63.5477 63.9882 67.6257 58.9691 67.6257H34.0307C29.0117 67.6257 24.9337 63.5477 24.9337 58.5287V33.5903C24.9337 28.5712 29.0117 24.4932 34.0307 24.4932H58.9691C63.9882 24.4932 68.0662 28.5712 68.0662 33.5903V58.5287Z" fill="white"/>
<path d="M46.5003 31.7085C38.5796 31.7085 32.1489 38.1392 32.1489 46.0598C32.1489 53.9805 38.5796 60.4112 46.5003 60.4112C54.4209 60.4112 60.8516 53.9805 60.8516 46.0598C60.93 38.1392 54.4209 31.7085 46.5003 31.7085ZM46.5003 55.7058C41.2459 55.7058 36.9327 51.3926 36.9327 46.1383C36.9327 40.884 41.2459 36.5707 46.5003 36.5707C51.7546 36.5707 56.0678 40.884 56.0678 46.1383C56.0678 51.3926 51.833 55.7058 46.5003 55.7058Z" fill="white"/>
<path d="M60.5379 29.0435C58.891 29.0435 57.5579 30.3766 57.5579 32.0235C57.5579 33.6704 58.891 35.0036 60.5379 35.0036C62.1848 35.0036 63.518 33.6704 63.518 32.0235C63.5964 30.3766 62.1848 29.0435 60.5379 29.0435Z" fill="white"/>
<defs>
<linearGradient id="paint0_linear_221_17219" x1="58" y1="114.5" x2="18.5727" y2="-24.5206" gradientUnits="userSpaceOnUse">
<stop stop-color="#F58529"/>
<stop offset="0.497127" stop-color="#FF0073"/>
<stop offset="0.606491" stop-color="#D32378"/>
<stop offset="0.721828" stop-color="#822DC5"/>
<stop offset="0.833333" stop-color="#343EBE"/>
<stop offset="0.8704" stop-color="#515BD4"/>
</linearGradient>
<radialGradient id="paint1_radial_221_17219" cx="0" cy="0" r="1" gradientUnits="userSpaceOnUse" gradientTransform="translate(31.2439 92.6341) rotate(-63.4349) scale(90.6221 121.279)">
<stop offset="0.105827" stop-color="#FFE600"/>
<stop offset="0.408312" stop-color="#FF7300"/>
<stop offset="0.609375" stop-color="#FF2E2E" stop-opacity="0"/>
</radialGradient>
<radialGradient id="paint2_radial_221_17219" cx="0" cy="0" r="1" gradientUnits="userSpaceOnUse" gradientTransform="translate(27.9 91.0095) rotate(-138.366) scale(18.6645 45.0665)">
<stop stop-color="#FFE046"/>
<stop offset="1" stop-color="#FFE66A" stop-opacity="0"/>
</radialGradient>
</defs>
</svg>
