<svg width="200" height="234" viewBox="0 0 200 234" fill="none" xmlns="http://www.w3.org/2000/svg">
<path d="M200 0H0V200H200V0Z" fill="white"/>
<path d="M81.8182 16.9694C82.8223 16.9694 83.6364 16.1553 83.6364 15.1512C83.6364 14.147 82.8223 13.333 81.8182 13.333C80.814 13.333 80 14.147 80 15.1512C80 16.1553 80.814 16.9694 81.8182 16.9694Z" fill="#1B1B1B"/>
<path d="M87.8787 16.9694C88.8829 16.9694 89.6969 16.1553 89.6969 15.1512C89.6969 14.147 88.8829 13.333 87.8787 13.333C86.8746 13.333 86.0605 14.147 86.0605 15.1512C86.0605 16.1553 86.8746 16.9694 87.8787 16.9694Z" fill="#1B1B1B"/>
<path d="M99.9998 16.9694C101.004 16.9694 101.818 16.1553 101.818 15.1512C101.818 14.147 101.004 13.333 99.9998 13.333C98.9957 13.333 98.1816 14.147 98.1816 15.1512C98.1816 16.1553 98.9957 16.9694 99.9998 16.9694Z" fill="#1B1B1B"/>
<path d="M124.242 16.9694C125.246 16.9694 126.06 16.1553 126.06 15.1512C126.06 14.147 125.246 13.333 124.242 13.333C123.238 13.333 122.424 14.147 122.424 15.1512C122.424 16.1553 123.238 16.9694 124.242 16.9694Z" fill="#1B1B1B"/>
<path d="M130.303 16.9694C131.307 16.9694 132.121 16.1553 132.121 15.1512C132.121 14.147 131.307 13.333 130.303 13.333C129.299 13.333 128.485 14.147 128.485 15.1512C128.485 16.1553 129.299 16.9694 130.303 16.9694Z" fill="#1B1B1B"/>
<path d="M63.6363 23.0304C64.6405 23.0304 65.4545 22.2164 65.4545 21.2122C65.4545 20.2081 64.6405 19.394 63.6363 19.394C62.6321 19.394 61.8181 20.2081 61.8181 21.2122C61.8181 22.2164 62.6321 23.0304 63.6363 23.0304Z" fill="#1B1B1B"/>
<path d="M69.6968 23.0304C70.701 23.0304 71.515 22.2164 71.515 21.2122C71.515 20.2081 70.701 19.394 69.6968 19.394C68.6927 19.394 67.8787 20.2081 67.8787 21.2122C67.8787 22.2164 68.6927 23.0304 69.6968 23.0304Z" fill="#1B1B1B"/>
<path d="M81.8182 23.0304C82.8223 23.0304 83.6364 22.2164 83.6364 21.2122C83.6364 20.2081 82.8223 19.394 81.8182 19.394C80.814 19.394 80 20.2081 80 21.2122C80 22.2164 80.814 23.0304 81.8182 23.0304Z" fill="#1B1B1B"/>
<path d="M87.8787 23.0304C88.8829 23.0304 89.6969 22.2164 89.6969 21.2122C89.6969 20.2081 88.8829 19.394 87.8787 19.394C86.8746 19.394 86.0605 20.2081 86.0605 21.2122C86.0605 22.2164 86.8746 23.0304 87.8787 23.0304Z" fill="#1B1B1B"/>
<path d="M93.9393 23.0304C94.9434 23.0304 95.7575 22.2164 95.7575 21.2122C95.7575 20.2081 94.9434 19.394 93.9393 19.394C92.9351 19.394 92.1211 20.2081 92.1211 21.2122C92.1211 22.2164 92.9351 23.0304 93.9393 23.0304Z" fill="#1B1B1B"/>
<path d="M99.9998 23.0304C101.004 23.0304 101.818 22.2164 101.818 21.2122C101.818 20.2081 101.004 19.394 99.9998 19.394C98.9957 19.394 98.1816 20.2081 98.1816 21.2122C98.1816 22.2164 98.9957 23.0304 99.9998 23.0304Z" fill="#1B1B1B"/>
<path d="M106.061 23.0304C107.065 23.0304 107.879 22.2164 107.879 21.2122C107.879 20.2081 107.065 19.394 106.061 19.394C105.056 19.394 104.242 20.2081 104.242 21.2122C104.242 22.2164 105.056 23.0304 106.061 23.0304Z" fill="#1B1B1B"/>
<path d="M118.182 23.0304C119.186 23.0304 120 22.2164 120 21.2122C120 20.2081 119.186 19.394 118.182 19.394C117.178 19.394 116.364 20.2081 116.364 21.2122C116.364 22.2164 117.178 23.0304 118.182 23.0304Z" fill="#1B1B1B"/>
<path d="M124.242 23.0304C125.246 23.0304 126.06 22.2164 126.06 21.2122C126.06 20.2081 125.246 19.394 124.242 19.394C123.238 19.394 122.424 20.2081 122.424 21.2122C122.424 22.2164 123.238 23.0304 124.242 23.0304Z" fill="#1B1B1B"/>
<path d="M136.364 23.0304C137.368 23.0304 138.182 22.2164 138.182 21.2122C138.182 20.2081 137.368 19.394 136.364 19.394C135.359 19.394 134.545 20.2081 134.545 21.2122C134.545 22.2164 135.359 23.0304 136.364 23.0304Z" fill="#1B1B1B"/>
<path d="M75.7574 29.091C76.7615 29.091 77.5756 28.2769 77.5756 27.2728C77.5756 26.2686 76.7615 25.4546 75.7574 25.4546C74.7532 25.4546 73.9392 26.2686 73.9392 27.2728C73.9392 28.2769 74.7532 29.091 75.7574 29.091Z" fill="#1B1B1B"/>
<path d="M87.8787 29.091C88.8829 29.091 89.6969 28.2769 89.6969 27.2728C89.6969 26.2686 88.8829 25.4546 87.8787 25.4546C86.8746 25.4546 86.0605 26.2686 86.0605 27.2728C86.0605 28.2769 86.8746 29.091 87.8787 29.091Z" fill="#1B1B1B"/>
<path d="M93.9393 29.091C94.9434 29.091 95.7575 28.2769 95.7575 27.2728C95.7575 26.2686 94.9434 25.4546 93.9393 25.4546C92.9351 25.4546 92.1211 26.2686 92.1211 27.2728C92.1211 28.2769 92.9351 29.091 93.9393 29.091Z" fill="#1B1B1B"/>
<path d="M106.061 29.091C107.065 29.091 107.879 28.2769 107.879 27.2728C107.879 26.2686 107.065 25.4546 106.061 25.4546C105.056 25.4546 104.242 26.2686 104.242 27.2728C104.242 28.2769 105.056 29.091 106.061 29.091Z" fill="#1B1B1B"/>
<path d="M118.182 29.091C119.186 29.091 120 28.2769 120 27.2728C120 26.2686 119.186 25.4546 118.182 25.4546C117.178 25.4546 116.364 26.2686 116.364 27.2728C116.364 28.2769 117.178 29.091 118.182 29.091Z" fill="#1B1B1B"/>
<path d="M124.242 29.091C125.246 29.091 126.06 28.2769 126.06 27.2728C126.06 26.2686 125.246 25.4546 124.242 25.4546C123.238 25.4546 122.424 26.2686 122.424 27.2728C122.424 28.2769 123.238 29.091 124.242 29.091Z" fill="#1B1B1B"/>
<path d="M130.303 29.091C131.307 29.091 132.121 28.2769 132.121 27.2728C132.121 26.2686 131.307 25.4546 130.303 25.4546C129.299 25.4546 128.485 26.2686 128.485 27.2728C128.485 28.2769 129.299 29.091 130.303 29.091Z" fill="#1B1B1B"/>
<path d="M136.364 29.091C137.368 29.091 138.182 28.2769 138.182 27.2728C138.182 26.2686 137.368 25.4546 136.364 25.4546C135.359 25.4546 134.545 26.2686 134.545 27.2728C134.545 28.2769 135.359 29.091 136.364 29.091Z" fill="#1B1B1B"/>
<path d="M75.7574 35.1515C76.7615 35.1515 77.5756 34.3375 77.5756 33.3333C77.5756 32.3292 76.7615 31.5151 75.7574 31.5151C74.7532 31.5151 73.9392 32.3292 73.9392 33.3333C73.9392 34.3375 74.7532 35.1515 75.7574 35.1515Z" fill="#1B1B1B"/>
<path d="M87.8787 35.1515C88.8829 35.1515 89.6969 34.3375 89.6969 33.3333C89.6969 32.3292 88.8829 31.5151 87.8787 31.5151C86.8746 31.5151 86.0605 32.3292 86.0605 33.3333C86.0605 34.3375 86.8746 35.1515 87.8787 35.1515Z" fill="#1B1B1B"/>
<path d="M93.9393 35.1515C94.9434 35.1515 95.7575 34.3375 95.7575 33.3333C95.7575 32.3292 94.9434 31.5151 93.9393 31.5151C92.9351 31.5151 92.1211 32.3292 92.1211 33.3333C92.1211 34.3375 92.9351 35.1515 93.9393 35.1515Z" fill="#1B1B1B"/>
<path d="M99.9998 35.1515C101.004 35.1515 101.818 34.3375 101.818 33.3333C101.818 32.3292 101.004 31.5151 99.9998 31.5151C98.9957 31.5151 98.1816 32.3292 98.1816 33.3333C98.1816 34.3375 98.9957 35.1515 99.9998 35.1515Z" fill="#1B1B1B"/>
<path d="M112.121 35.1515C113.125 35.1515 113.939 34.3375 113.939 33.3333C113.939 32.3292 113.125 31.5151 112.121 31.5151C111.117 31.5151 110.303 32.3292 110.303 33.3333C110.303 34.3375 111.117 35.1515 112.121 35.1515Z" fill="#1B1B1B"/>
<path d="M124.242 35.1515C125.246 35.1515 126.06 34.3375 126.06 33.3333C126.06 32.3292 125.246 31.5151 124.242 31.5151C123.238 31.5151 122.424 32.3292 122.424 33.3333C122.424 34.3375 123.238 35.1515 124.242 35.1515Z" fill="#1B1B1B"/>
<path d="M130.303 35.1515C131.307 35.1515 132.121 34.3375 132.121 33.3333C132.121 32.3292 131.307 31.5151 130.303 31.5151C129.299 31.5151 128.485 32.3292 128.485 33.3333C128.485 34.3375 129.299 35.1515 130.303 35.1515Z" fill="#1B1B1B"/>
<path d="M69.6968 41.212C70.701 41.212 71.515 40.398 71.515 39.3939C71.515 38.3897 70.701 37.5757 69.6968 37.5757C68.6927 37.5757 67.8787 38.3897 67.8787 39.3939C67.8787 40.398 68.6927 41.212 69.6968 41.212Z" fill="#1B1B1B"/>
<path d="M81.8182 41.212C82.8223 41.212 83.6364 40.398 83.6364 39.3939C83.6364 38.3897 82.8223 37.5757 81.8182 37.5757C80.814 37.5757 80 38.3897 80 39.3939C80 40.398 80.814 41.212 81.8182 41.212Z" fill="#1B1B1B"/>
<path d="M87.8787 41.212C88.8829 41.212 89.6969 40.398 89.6969 39.3939C89.6969 38.3897 88.8829 37.5757 87.8787 37.5757C86.8746 37.5757 86.0605 38.3897 86.0605 39.3939C86.0605 40.398 86.8746 41.212 87.8787 41.212Z" fill="#1B1B1B"/>
<path d="M93.9393 41.212C94.9434 41.212 95.7575 40.398 95.7575 39.3939C95.7575 38.3897 94.9434 37.5757 93.9393 37.5757C92.9351 37.5757 92.1211 38.3897 92.1211 39.3939C92.1211 40.398 92.9351 41.212 93.9393 41.212Z" fill="#1B1B1B"/>
<path d="M99.9998 41.212C101.004 41.212 101.818 40.398 101.818 39.3939C101.818 38.3897 101.004 37.5757 99.9998 37.5757C98.9957 37.5757 98.1816 38.3897 98.1816 39.3939C98.1816 40.398 98.9957 41.212 99.9998 41.212Z" fill="#1B1B1B"/>
<path d="M106.061 41.212C107.065 41.212 107.879 40.398 107.879 39.3939C107.879 38.3897 107.065 37.5757 106.061 37.5757C105.056 37.5757 104.242 38.3897 104.242 39.3939C104.242 40.398 105.056 41.212 106.061 41.212Z" fill="#1B1B1B"/>
<path d="M124.242 41.212C125.246 41.212 126.06 40.398 126.06 39.3939C126.06 38.3897 125.246 37.5757 124.242 37.5757C123.238 37.5757 122.424 38.3897 122.424 39.3939C122.424 40.398 123.238 41.212 124.242 41.212Z" fill="#1B1B1B"/>
<path d="M63.6363 47.2726C64.6405 47.2726 65.4545 46.4586 65.4545 45.4544C65.4545 44.4503 64.6405 43.6362 63.6363 43.6362C62.6321 43.6362 61.8181 44.4503 61.8181 45.4544C61.8181 46.4586 62.6321 47.2726 63.6363 47.2726Z" fill="#1B1B1B"/>
<path d="M87.8787 47.2726C88.8829 47.2726 89.6969 46.4586 89.6969 45.4544C89.6969 44.4503 88.8829 43.6362 87.8787 43.6362C86.8746 43.6362 86.0605 44.4503 86.0605 45.4544C86.0605 46.4586 86.8746 47.2726 87.8787 47.2726Z" fill="#1B1B1B"/>
<path d="M93.9393 47.2726C94.9434 47.2726 95.7575 46.4586 95.7575 45.4544C95.7575 44.4503 94.9434 43.6362 93.9393 43.6362C92.9351 43.6362 92.1211 44.4503 92.1211 45.4544C92.1211 46.4586 92.9351 47.2726 93.9393 47.2726Z" fill="#1B1B1B"/>
<path d="M99.9998 47.2726C101.004 47.2726 101.818 46.4586 101.818 45.4544C101.818 44.4503 101.004 43.6362 99.9998 43.6362C98.9957 43.6362 98.1816 44.4503 98.1816 45.4544C98.1816 46.4586 98.9957 47.2726 99.9998 47.2726Z" fill="#1B1B1B"/>
<path d="M124.242 47.2726C125.246 47.2726 126.06 46.4586 126.06 45.4544C126.06 44.4503 125.246 43.6362 124.242 43.6362C123.238 43.6362 122.424 44.4503 122.424 45.4544C122.424 46.4586 123.238 47.2726 124.242 47.2726Z" fill="#1B1B1B"/>
<path d="M130.303 47.2726C131.307 47.2726 132.121 46.4586 132.121 45.4544C132.121 44.4503 131.307 43.6362 130.303 43.6362C129.299 43.6362 128.485 44.4503 128.485 45.4544C128.485 46.4586 129.299 47.2726 130.303 47.2726Z" fill="#1B1B1B"/>
<path d="M136.364 47.2726C137.368 47.2726 138.182 46.4586 138.182 45.4544C138.182 44.4503 137.368 43.6362 136.364 43.6362C135.359 43.6362 134.545 44.4503 134.545 45.4544C134.545 46.4586 135.359 47.2726 136.364 47.2726Z" fill="#1B1B1B"/>
<path d="M63.6363 53.3331C64.6405 53.3331 65.4545 52.5191 65.4545 51.515C65.4545 50.5108 64.6405 49.6968 63.6363 49.6968C62.6321 49.6968 61.8181 50.5108 61.8181 51.515C61.8181 52.5191 62.6321 53.3331 63.6363 53.3331Z" fill="#1B1B1B"/>
<path d="M75.7574 53.3331C76.7615 53.3331 77.5756 52.5191 77.5756 51.515C77.5756 50.5108 76.7615 49.6968 75.7574 49.6968C74.7532 49.6968 73.9392 50.5108 73.9392 51.515C73.9392 52.5191 74.7532 53.3331 75.7574 53.3331Z" fill="#1B1B1B"/>
<path d="M87.8787 53.3331C88.8829 53.3331 89.6969 52.5191 89.6969 51.515C89.6969 50.5108 88.8829 49.6968 87.8787 49.6968C86.8746 49.6968 86.0605 50.5108 86.0605 51.515C86.0605 52.5191 86.8746 53.3331 87.8787 53.3331Z" fill="#1B1B1B"/>
<path d="M99.9998 53.3331C101.004 53.3331 101.818 52.5191 101.818 51.515C101.818 50.5108 101.004 49.6968 99.9998 49.6968C98.9957 49.6968 98.1816 50.5108 98.1816 51.515C98.1816 52.5191 98.9957 53.3331 99.9998 53.3331Z" fill="#1B1B1B"/>
<path d="M112.121 53.3331C113.125 53.3331 113.939 52.5191 113.939 51.515C113.939 50.5108 113.125 49.6968 112.121 49.6968C111.117 49.6968 110.303 50.5108 110.303 51.515C110.303 52.5191 111.117 53.3331 112.121 53.3331Z" fill="#1B1B1B"/>
<path d="M124.242 53.3331C125.246 53.3331 126.06 52.5191 126.06 51.515C126.06 50.5108 125.246 49.6968 124.242 49.6968C123.238 49.6968 122.424 50.5108 122.424 51.515C122.424 52.5191 123.238 53.3331 124.242 53.3331Z" fill="#1B1B1B"/>
<path d="M136.364 53.3331C137.368 53.3331 138.182 52.5191 138.182 51.515C138.182 50.5108 137.368 49.6968 136.364 49.6968C135.359 49.6968 134.545 50.5108 134.545 51.515C134.545 52.5191 135.359 53.3331 136.364 53.3331Z" fill="#1B1B1B"/>
<path d="M63.6363 59.3937C64.6405 59.3937 65.4545 58.5797 65.4545 57.5755C65.4545 56.5714 64.6405 55.7573 63.6363 55.7573C62.6321 55.7573 61.8181 56.5714 61.8181 57.5755C61.8181 58.5797 62.6321 59.3937 63.6363 59.3937Z" fill="#1B1B1B"/>
<path d="M69.6968 59.3937C70.701 59.3937 71.515 58.5797 71.515 57.5755C71.515 56.5714 70.701 55.7573 69.6968 55.7573C68.6927 55.7573 67.8787 56.5714 67.8787 57.5755C67.8787 58.5797 68.6927 59.3937 69.6968 59.3937Z" fill="#1B1B1B"/>
<path d="M75.7574 59.3937C76.7615 59.3937 77.5756 58.5797 77.5756 57.5755C77.5756 56.5714 76.7615 55.7573 75.7574 55.7573C74.7532 55.7573 73.9392 56.5714 73.9392 57.5755C73.9392 58.5797 74.7532 59.3937 75.7574 59.3937Z" fill="#1B1B1B"/>
<path d="M93.9393 59.3937C94.9434 59.3937 95.7575 58.5797 95.7575 57.5755C95.7575 56.5714 94.9434 55.7573 93.9393 55.7573C92.9351 55.7573 92.1211 56.5714 92.1211 57.5755C92.1211 58.5797 92.9351 59.3937 93.9393 59.3937Z" fill="#1B1B1B"/>
<path d="M99.9998 59.3937C101.004 59.3937 101.818 58.5797 101.818 57.5755C101.818 56.5714 101.004 55.7573 99.9998 55.7573C98.9957 55.7573 98.1816 56.5714 98.1816 57.5755C98.1816 58.5797 98.9957 59.3937 99.9998 59.3937Z" fill="#1B1B1B"/>
<path d="M106.061 59.3937C107.065 59.3937 107.879 58.5797 107.879 57.5755C107.879 56.5714 107.065 55.7573 106.061 55.7573C105.056 55.7573 104.242 56.5714 104.242 57.5755C104.242 58.5797 105.056 59.3937 106.061 59.3937Z" fill="#1B1B1B"/>
<path d="M118.182 59.3937C119.186 59.3937 120 58.5797 120 57.5755C120 56.5714 119.186 55.7573 118.182 55.7573C117.178 55.7573 116.364 56.5714 116.364 57.5755C116.364 58.5797 117.178 59.3937 118.182 59.3937Z" fill="#1B1B1B"/>
<path d="M124.242 59.3937C125.246 59.3937 126.06 58.5797 126.06 57.5755C126.06 56.5714 125.246 55.7573 124.242 55.7573C123.238 55.7573 122.424 56.5714 122.424 57.5755C122.424 58.5797 123.238 59.3937 124.242 59.3937Z" fill="#1B1B1B"/>
<path d="M136.364 59.3937C137.368 59.3937 138.182 58.5797 138.182 57.5755C138.182 56.5714 137.368 55.7573 136.364 55.7573C135.359 55.7573 134.545 56.5714 134.545 57.5755C134.545 58.5797 135.359 59.3937 136.364 59.3937Z" fill="#1B1B1B"/>
<path d="M39.3939 65.4542C40.398 65.4542 41.212 64.6402 41.212 63.6361C41.212 62.6319 40.398 61.8179 39.3939 61.8179C38.3897 61.8179 37.5757 62.6319 37.5757 63.6361C37.5757 64.6402 38.3897 65.4542 39.3939 65.4542Z" fill="#1B1B1B"/>
<path d="M45.4544 65.4542C46.4586 65.4542 47.2726 64.6402 47.2726 63.6361C47.2726 62.6319 46.4586 61.8179 45.4544 61.8179C44.4503 61.8179 43.6362 62.6319 43.6362 63.6361C43.6362 64.6402 44.4503 65.4542 45.4544 65.4542Z" fill="#1B1B1B"/>
<path d="M51.515 65.4542C52.5191 65.4542 53.3331 64.6402 53.3331 63.6361C53.3331 62.6319 52.5191 61.8179 51.515 61.8179C50.5108 61.8179 49.6968 62.6319 49.6968 63.6361C49.6968 64.6402 50.5108 65.4542 51.515 65.4542Z" fill="#1B1B1B"/>
<path d="M57.5758 65.4542C58.5799 65.4542 59.3939 64.6402 59.3939 63.6361C59.3939 62.6319 58.5799 61.8179 57.5758 61.8179C56.5716 61.8179 55.7576 62.6319 55.7576 63.6361C55.7576 64.6402 56.5716 65.4542 57.5758 65.4542Z" fill="#1B1B1B"/>
<path d="M81.8182 65.4542C82.8223 65.4542 83.6364 64.6402 83.6364 63.6361C83.6364 62.6319 82.8223 61.8179 81.8182 61.8179C80.814 61.8179 80 62.6319 80 63.6361C80 64.6402 80.814 65.4542 81.8182 65.4542Z" fill="#1B1B1B"/>
<path d="M87.8787 65.4542C88.8829 65.4542 89.6969 64.6402 89.6969 63.6361C89.6969 62.6319 88.8829 61.8179 87.8787 61.8179C86.8746 61.8179 86.0605 62.6319 86.0605 63.6361C86.0605 64.6402 86.8746 65.4542 87.8787 65.4542Z" fill="#1B1B1B"/>
<path d="M99.9998 65.4542C101.004 65.4542 101.818 64.6402 101.818 63.6361C101.818 62.6319 101.004 61.8179 99.9998 61.8179C98.9957 61.8179 98.1816 62.6319 98.1816 63.6361C98.1816 64.6402 98.9957 65.4542 99.9998 65.4542Z" fill="#1B1B1B"/>
<path d="M106.061 65.4542C107.065 65.4542 107.879 64.6402 107.879 63.6361C107.879 62.6319 107.065 61.8179 106.061 61.8179C105.056 61.8179 104.242 62.6319 104.242 63.6361C104.242 64.6402 105.056 65.4542 106.061 65.4542Z" fill="#1B1B1B"/>
<path d="M124.242 65.4542C125.246 65.4542 126.06 64.6402 126.06 63.6361C126.06 62.6319 125.246 61.8179 124.242 61.8179C123.238 61.8179 122.424 62.6319 122.424 63.6361C122.424 64.6402 123.238 65.4542 124.242 65.4542Z" fill="#1B1B1B"/>
<path d="M130.303 65.4542C131.307 65.4542 132.121 64.6402 132.121 63.6361C132.121 62.6319 131.307 61.8179 130.303 61.8179C129.299 61.8179 128.485 62.6319 128.485 63.6361C128.485 64.6402 129.299 65.4542 130.303 65.4542Z" fill="#1B1B1B"/>
<path d="M136.364 65.4542C137.368 65.4542 138.182 64.6402 138.182 63.6361C138.182 62.6319 137.368 61.8179 136.364 61.8179C135.359 61.8179 134.545 62.6319 134.545 63.6361C134.545 64.6402 135.359 65.4542 136.364 65.4542Z" fill="#1B1B1B"/>
<path d="M148.485 65.4542C149.489 65.4542 150.303 64.6402 150.303 63.6361C150.303 62.6319 149.489 61.8179 148.485 61.8179C147.481 61.8179 146.667 62.6319 146.667 63.6361C146.667 64.6402 147.481 65.4542 148.485 65.4542Z" fill="#1B1B1B"/>
<path d="M154.545 65.4542C155.549 65.4542 156.363 64.6402 156.363 63.6361C156.363 62.6319 155.549 61.8179 154.545 61.8179C153.541 61.8179 152.727 62.6319 152.727 63.6361C152.727 64.6402 153.541 65.4542 154.545 65.4542Z" fill="#1B1B1B"/>
<path d="M178.788 65.4542C179.792 65.4542 180.606 64.6402 180.606 63.6361C180.606 62.6319 179.792 61.8179 178.788 61.8179C177.784 61.8179 176.97 62.6319 176.97 63.6361C176.97 64.6402 177.784 65.4542 178.788 65.4542Z" fill="#1B1B1B"/>
<path d="M15.1514 71.5153C16.1556 71.5153 16.9696 70.7012 16.9696 69.6971C16.9696 68.6929 16.1556 67.8789 15.1514 67.8789C14.1473 67.8789 13.3333 68.6929 13.3333 69.6971C13.3333 70.7012 14.1473 71.5153 15.1514 71.5153Z" fill="#1B1B1B"/>
<path d="M21.212 71.5153C22.2161 71.5153 23.0302 70.7012 23.0302 69.6971C23.0302 68.6929 22.2161 67.8789 21.212 67.8789C20.2078 67.8789 19.3938 68.6929 19.3938 69.6971C19.3938 70.7012 20.2078 71.5153 21.212 71.5153Z" fill="#1B1B1B"/>
<path d="M33.3333 71.5153C34.3375 71.5153 35.1515 70.7012 35.1515 69.6971C35.1515 68.6929 34.3375 67.8789 33.3333 67.8789C32.3292 67.8789 31.5151 68.6929 31.5151 69.6971C31.5151 70.7012 32.3292 71.5153 33.3333 71.5153Z" fill="#1B1B1B"/>
<path d="M45.4544 71.5153C46.4586 71.5153 47.2726 70.7012 47.2726 69.6971C47.2726 68.6929 46.4586 67.8789 45.4544 67.8789C44.4503 67.8789 43.6362 68.6929 43.6362 69.6971C43.6362 70.7012 44.4503 71.5153 45.4544 71.5153Z" fill="#1B1B1B"/>
<path d="M69.6968 71.5153C70.701 71.5153 71.515 70.7012 71.515 69.6971C71.515 68.6929 70.701 67.8789 69.6968 67.8789C68.6927 67.8789 67.8787 68.6929 67.8787 69.6971C67.8787 70.7012 68.6927 71.5153 69.6968 71.5153Z" fill="#1B1B1B"/>
<path d="M75.7574 71.5153C76.7615 71.5153 77.5756 70.7012 77.5756 69.6971C77.5756 68.6929 76.7615 67.8789 75.7574 67.8789C74.7532 67.8789 73.9392 68.6929 73.9392 69.6971C73.9392 70.7012 74.7532 71.5153 75.7574 71.5153Z" fill="#1B1B1B"/>
<path d="M81.8182 71.5153C82.8223 71.5153 83.6364 70.7012 83.6364 69.6971C83.6364 68.6929 82.8223 67.8789 81.8182 67.8789C80.814 67.8789 80 68.6929 80 69.6971C80 70.7012 80.814 71.5153 81.8182 71.5153Z" fill="#1B1B1B"/>
<path d="M87.8787 71.5153C88.8829 71.5153 89.6969 70.7012 89.6969 69.6971C89.6969 68.6929 88.8829 67.8789 87.8787 67.8789C86.8746 67.8789 86.0605 68.6929 86.0605 69.6971C86.0605 70.7012 86.8746 71.5153 87.8787 71.5153Z" fill="#1B1B1B"/>
<path d="M93.9393 71.5153C94.9434 71.5153 95.7575 70.7012 95.7575 69.6971C95.7575 68.6929 94.9434 67.8789 93.9393 67.8789C92.9351 67.8789 92.1211 68.6929 92.1211 69.6971C92.1211 70.7012 92.9351 71.5153 93.9393 71.5153Z" fill="#1B1B1B"/>
<path d="M106.061 71.5153C107.065 71.5153 107.879 70.7012 107.879 69.6971C107.879 68.6929 107.065 67.8789 106.061 67.8789C105.056 67.8789 104.242 68.6929 104.242 69.6971C104.242 70.7012 105.056 71.5153 106.061 71.5153Z" fill="#1B1B1B"/>
<path d="M112.121 71.5153C113.125 71.5153 113.939 70.7012 113.939 69.6971C113.939 68.6929 113.125 67.8789 112.121 67.8789C111.117 67.8789 110.303 68.6929 110.303 69.6971C110.303 70.7012 111.117 71.5153 112.121 71.5153Z" fill="#1B1B1B"/>
<path d="M130.303 71.5153C131.307 71.5153 132.121 70.7012 132.121 69.6971C132.121 68.6929 131.307 67.8789 130.303 67.8789C129.299 67.8789 128.485 68.6929 128.485 69.6971C128.485 70.7012 129.299 71.5153 130.303 71.5153Z" fill="#1B1B1B"/>
<path d="M136.364 71.5153C137.368 71.5153 138.182 70.7012 138.182 69.6971C138.182 68.6929 137.368 67.8789 136.364 67.8789C135.359 67.8789 134.545 68.6929 134.545 69.6971C134.545 70.7012 135.359 71.5153 136.364 71.5153Z" fill="#1B1B1B"/>
<path d="M148.485 71.5153C149.489 71.5153 150.303 70.7012 150.303 69.6971C150.303 68.6929 149.489 67.8789 148.485 67.8789C147.481 67.8789 146.667 68.6929 146.667 69.6971C146.667 70.7012 147.481 71.5153 148.485 71.5153Z" fill="#1B1B1B"/>
<path d="M160.606 71.5153C161.61 71.5153 162.424 70.7012 162.424 69.6971C162.424 68.6929 161.61 67.8789 160.606 67.8789C159.602 67.8789 158.788 68.6929 158.788 69.6971C158.788 70.7012 159.602 71.5153 160.606 71.5153Z" fill="#1B1B1B"/>
<path d="M166.667 71.5153C167.671 71.5153 168.485 70.7012 168.485 69.6971C168.485 68.6929 167.671 67.8789 166.667 67.8789C165.662 67.8789 164.848 68.6929 164.848 69.6971C164.848 70.7012 165.662 71.5153 166.667 71.5153Z" fill="#1B1B1B"/>
<path d="M172.727 71.5153C173.731 71.5153 174.545 70.7012 174.545 69.6971C174.545 68.6929 173.731 67.8789 172.727 67.8789C171.723 67.8789 170.909 68.6929 170.909 69.6971C170.909 70.7012 171.723 71.5153 172.727 71.5153Z" fill="#1B1B1B"/>
<path d="M178.788 71.5153C179.792 71.5153 180.606 70.7012 180.606 69.6971C180.606 68.6929 179.792 67.8789 178.788 67.8789C177.784 67.8789 176.97 68.6929 176.97 69.6971C176.97 70.7012 177.784 71.5153 178.788 71.5153Z" fill="#1B1B1B"/>
<path d="M184.848 71.5153C185.853 71.5153 186.667 70.7012 186.667 69.6971C186.667 68.6929 185.853 67.8789 184.848 67.8789C183.844 67.8789 183.03 68.6929 183.03 69.6971C183.03 70.7012 183.844 71.5153 184.848 71.5153Z" fill="#1B1B1B"/>
<path d="M45.4544 77.5758C46.4586 77.5758 47.2726 76.7618 47.2726 75.7576C47.2726 74.7535 46.4586 73.9395 45.4544 73.9395C44.4503 73.9395 43.6362 74.7535 43.6362 75.7576C43.6362 76.7618 44.4503 77.5758 45.4544 77.5758Z" fill="#1B1B1B"/>
<path d="M51.515 77.5758C52.5191 77.5758 53.3331 76.7618 53.3331 75.7576C53.3331 74.7535 52.5191 73.9395 51.515 73.9395C50.5108 73.9395 49.6968 74.7535 49.6968 75.7576C49.6968 76.7618 50.5108 77.5758 51.515 77.5758Z" fill="#1B1B1B"/>
<path d="M57.5758 77.5758C58.5799 77.5758 59.3939 76.7618 59.3939 75.7576C59.3939 74.7535 58.5799 73.9395 57.5758 73.9395C56.5716 73.9395 55.7576 74.7535 55.7576 75.7576C55.7576 76.7618 56.5716 77.5758 57.5758 77.5758Z" fill="#1B1B1B"/>
<path d="M63.6363 77.5758C64.6405 77.5758 65.4545 76.7618 65.4545 75.7576C65.4545 74.7535 64.6405 73.9395 63.6363 73.9395C62.6321 73.9395 61.8181 74.7535 61.8181 75.7576C61.8181 76.7618 62.6321 77.5758 63.6363 77.5758Z" fill="#1B1B1B"/>
<path d="M75.7574 77.5758C76.7615 77.5758 77.5756 76.7618 77.5756 75.7576C77.5756 74.7535 76.7615 73.9395 75.7574 73.9395C74.7532 73.9395 73.9392 74.7535 73.9392 75.7576C73.9392 76.7618 74.7532 77.5758 75.7574 77.5758Z" fill="#1B1B1B"/>
<path d="M81.8182 77.5758C82.8223 77.5758 83.6364 76.7618 83.6364 75.7576C83.6364 74.7535 82.8223 73.9395 81.8182 73.9395C80.814 73.9395 80 74.7535 80 75.7576C80 76.7618 80.814 77.5758 81.8182 77.5758Z" fill="#1B1B1B"/>
<path d="M93.9393 77.5758C94.9434 77.5758 95.7575 76.7618 95.7575 75.7576C95.7575 74.7535 94.9434 73.9395 93.9393 73.9395C92.9351 73.9395 92.1211 74.7535 92.1211 75.7576C92.1211 76.7618 92.9351 77.5758 93.9393 77.5758Z" fill="#1B1B1B"/>
<path d="M106.061 77.5758C107.065 77.5758 107.879 76.7618 107.879 75.7576C107.879 74.7535 107.065 73.9395 106.061 73.9395C105.056 73.9395 104.242 74.7535 104.242 75.7576C104.242 76.7618 105.056 77.5758 106.061 77.5758Z" fill="#1B1B1B"/>
<path d="M112.121 77.5758C113.125 77.5758 113.939 76.7618 113.939 75.7576C113.939 74.7535 113.125 73.9395 112.121 73.9395C111.117 73.9395 110.303 74.7535 110.303 75.7576C110.303 76.7618 111.117 77.5758 112.121 77.5758Z" fill="#1B1B1B"/>
<path d="M136.364 77.5758C137.368 77.5758 138.182 76.7618 138.182 75.7576C138.182 74.7535 137.368 73.9395 136.364 73.9395C135.359 73.9395 134.545 74.7535 134.545 75.7576C134.545 76.7618 135.359 77.5758 136.364 77.5758Z" fill="#1B1B1B"/>
<path d="M142.424 77.5758C143.428 77.5758 144.242 76.7618 144.242 75.7576C144.242 74.7535 143.428 73.9395 142.424 73.9395C141.42 73.9395 140.606 74.7535 140.606 75.7576C140.606 76.7618 141.42 77.5758 142.424 77.5758Z" fill="#1B1B1B"/>
<path d="M166.667 77.5758C167.671 77.5758 168.485 76.7618 168.485 75.7576C168.485 74.7535 167.671 73.9395 166.667 73.9395C165.662 73.9395 164.848 74.7535 164.848 75.7576C164.848 76.7618 165.662 77.5758 166.667 77.5758Z" fill="#1B1B1B"/>
<path d="M172.727 77.5758C173.731 77.5758 174.545 76.7618 174.545 75.7576C174.545 74.7535 173.731 73.9395 172.727 73.9395C171.723 73.9395 170.909 74.7535 170.909 75.7576C170.909 76.7618 171.723 77.5758 172.727 77.5758Z" fill="#1B1B1B"/>
<path d="M184.848 77.5758C185.853 77.5758 186.667 76.7618 186.667 75.7576C186.667 74.7535 185.853 73.9395 184.848 73.9395C183.844 73.9395 183.03 74.7535 183.03 75.7576C183.03 76.7618 183.844 77.5758 184.848 77.5758Z" fill="#1B1B1B"/>
<path d="M15.1514 83.6364C16.1556 83.6364 16.9696 82.8223 16.9696 81.8182C16.9696 80.814 16.1556 80 15.1514 80C14.1473 80 13.3333 80.814 13.3333 81.8182C13.3333 82.8223 14.1473 83.6364 15.1514 83.6364Z" fill="#1B1B1B"/>
<path d="M27.2725 83.6364C28.2767 83.6364 29.0907 82.8223 29.0907 81.8182C29.0907 80.814 28.2767 80 27.2725 80C26.2684 80 25.4543 80.814 25.4543 81.8182C25.4543 82.8223 26.2684 83.6364 27.2725 83.6364Z" fill="#1B1B1B"/>
<path d="M33.3333 83.6364C34.3375 83.6364 35.1515 82.8223 35.1515 81.8182C35.1515 80.814 34.3375 80 33.3333 80C32.3292 80 31.5151 80.814 31.5151 81.8182C31.5151 82.8223 32.3292 83.6364 33.3333 83.6364Z" fill="#1B1B1B"/>
<path d="M69.6968 83.6364C70.701 83.6364 71.515 82.8223 71.515 81.8182C71.515 80.814 70.701 80 69.6968 80C68.6927 80 67.8787 80.814 67.8787 81.8182C67.8787 82.8223 68.6927 83.6364 69.6968 83.6364Z" fill="#1B1B1B"/>
<path d="M75.7574 83.6364C76.7615 83.6364 77.5756 82.8223 77.5756 81.8182C77.5756 80.814 76.7615 80 75.7574 80C74.7532 80 73.9392 80.814 73.9392 81.8182C73.9392 82.8223 74.7532 83.6364 75.7574 83.6364Z" fill="#1B1B1B"/>
<path d="M99.9998 83.6364C101.004 83.6364 101.818 82.8223 101.818 81.8182C101.818 80.814 101.004 80 99.9998 80C98.9957 80 98.1816 80.814 98.1816 81.8182C98.1816 82.8223 98.9957 83.6364 99.9998 83.6364Z" fill="#1B1B1B"/>
<path d="M106.061 83.6364C107.065 83.6364 107.879 82.8223 107.879 81.8182C107.879 80.814 107.065 80 106.061 80C105.056 80 104.242 80.814 104.242 81.8182C104.242 82.8223 105.056 83.6364 106.061 83.6364Z" fill="#1B1B1B"/>
<path d="M118.182 83.6364C119.186 83.6364 120 82.8223 120 81.8182C120 80.814 119.186 80 118.182 80C117.178 80 116.364 80.814 116.364 81.8182C116.364 82.8223 117.178 83.6364 118.182 83.6364Z" fill="#1B1B1B"/>
<path d="M124.242 83.6364C125.246 83.6364 126.06 82.8223 126.06 81.8182C126.06 80.814 125.246 80 124.242 80C123.238 80 122.424 80.814 122.424 81.8182C122.424 82.8223 123.238 83.6364 124.242 83.6364Z" fill="#1B1B1B"/>
<path d="M130.303 83.6364C131.307 83.6364 132.121 82.8223 132.121 81.8182C132.121 80.814 131.307 80 130.303 80C129.299 80 128.485 80.814 128.485 81.8182C128.485 82.8223 129.299 83.6364 130.303 83.6364Z" fill="#1B1B1B"/>
<path d="M136.364 83.6364C137.368 83.6364 138.182 82.8223 138.182 81.8182C138.182 80.814 137.368 80 136.364 80C135.359 80 134.545 80.814 134.545 81.8182C134.545 82.8223 135.359 83.6364 136.364 83.6364Z" fill="#1B1B1B"/>
<path d="M142.424 83.6364C143.428 83.6364 144.242 82.8223 144.242 81.8182C144.242 80.814 143.428 80 142.424 80C141.42 80 140.606 80.814 140.606 81.8182C140.606 82.8223 141.42 83.6364 142.424 83.6364Z" fill="#1B1B1B"/>
<path d="M160.606 83.6364C161.61 83.6364 162.424 82.8223 162.424 81.8182C162.424 80.814 161.61 80 160.606 80C159.602 80 158.788 80.814 158.788 81.8182C158.788 82.8223 159.602 83.6364 160.606 83.6364Z" fill="#1B1B1B"/>
<path d="M178.788 83.6364C179.792 83.6364 180.606 82.8223 180.606 81.8182C180.606 80.814 179.792 80 178.788 80C177.784 80 176.97 80.814 176.97 81.8182C176.97 82.8223 177.784 83.6364 178.788 83.6364Z" fill="#1B1B1B"/>
<path d="M184.848 83.6364C185.853 83.6364 186.667 82.8223 186.667 81.8182C186.667 80.814 185.853 80 184.848 80C183.844 80 183.03 80.814 183.03 81.8182C183.03 82.8223 183.844 83.6364 184.848 83.6364Z" fill="#1B1B1B"/>
<path d="M27.2725 89.6969C28.2767 89.6969 29.0907 88.8829 29.0907 87.8787C29.0907 86.8746 28.2767 86.0605 27.2725 86.0605C26.2684 86.0605 25.4543 86.8746 25.4543 87.8787C25.4543 88.8829 26.2684 89.6969 27.2725 89.6969Z" fill="#1B1B1B"/>
<path d="M39.3939 89.6969C40.398 89.6969 41.212 88.8829 41.212 87.8787C41.212 86.8746 40.398 86.0605 39.3939 86.0605C38.3897 86.0605 37.5757 86.8746 37.5757 87.8787C37.5757 88.8829 38.3897 89.6969 39.3939 89.6969Z" fill="#1B1B1B"/>
<path d="M45.4544 89.6969C46.4586 89.6969 47.2726 88.8829 47.2726 87.8787C47.2726 86.8746 46.4586 86.0605 45.4544 86.0605C44.4503 86.0605 43.6362 86.8746 43.6362 87.8787C43.6362 88.8829 44.4503 89.6969 45.4544 89.6969Z" fill="#1B1B1B"/>
<path d="M51.515 89.6969C52.5191 89.6969 53.3331 88.8829 53.3331 87.8787C53.3331 86.8746 52.5191 86.0605 51.515 86.0605C50.5108 86.0605 49.6968 86.8746 49.6968 87.8787C49.6968 88.8829 50.5108 89.6969 51.515 89.6969Z" fill="#1B1B1B"/>
<path d="M75.7574 89.6969C76.7615 89.6969 77.5756 88.8829 77.5756 87.8787C77.5756 86.8746 76.7615 86.0605 75.7574 86.0605C74.7532 86.0605 73.9392 86.8746 73.9392 87.8787C73.9392 88.8829 74.7532 89.6969 75.7574 89.6969Z" fill="#1B1B1B"/>
<path d="M81.8182 89.6969C82.8223 89.6969 83.6364 88.8829 83.6364 87.8787C83.6364 86.8746 82.8223 86.0605 81.8182 86.0605C80.814 86.0605 80 86.8746 80 87.8787C80 88.8829 80.814 89.6969 81.8182 89.6969Z" fill="#1B1B1B"/>
<path d="M93.9393 89.6969C94.9434 89.6969 95.7575 88.8829 95.7575 87.8787C95.7575 86.8746 94.9434 86.0605 93.9393 86.0605C92.9351 86.0605 92.1211 86.8746 92.1211 87.8787C92.1211 88.8829 92.9351 89.6969 93.9393 89.6969Z" fill="#1B1B1B"/>
<path d="M118.182 89.6969C119.186 89.6969 120 88.8829 120 87.8787C120 86.8746 119.186 86.0605 118.182 86.0605C117.178 86.0605 116.364 86.8746 116.364 87.8787C116.364 88.8829 117.178 89.6969 118.182 89.6969Z" fill="#1B1B1B"/>
<path d="M136.364 89.6969C137.368 89.6969 138.182 88.8829 138.182 87.8787C138.182 86.8746 137.368 86.0605 136.364 86.0605C135.359 86.0605 134.545 86.8746 134.545 87.8787C134.545 88.8829 135.359 89.6969 136.364 89.6969Z" fill="#1B1B1B"/>
<path d="M154.545 89.6969C155.549 89.6969 156.363 88.8829 156.363 87.8787C156.363 86.8746 155.549 86.0605 154.545 86.0605C153.541 86.0605 152.727 86.8746 152.727 87.8787C152.727 88.8829 153.541 89.6969 154.545 89.6969Z" fill="#1B1B1B"/>
<path d="M166.667 89.6969C167.671 89.6969 168.485 88.8829 168.485 87.8787C168.485 86.8746 167.671 86.0605 166.667 86.0605C165.662 86.0605 164.848 86.8746 164.848 87.8787C164.848 88.8829 165.662 89.6969 166.667 89.6969Z" fill="#1B1B1B"/>
<path d="M184.848 89.6969C185.853 89.6969 186.667 88.8829 186.667 87.8787C186.667 86.8746 185.853 86.0605 184.848 86.0605C183.844 86.0605 183.03 86.8746 183.03 87.8787C183.03 88.8829 183.844 89.6969 184.848 89.6969Z" fill="#1B1B1B"/>
<path d="M15.1514 95.7575C16.1556 95.7575 16.9696 94.9434 16.9696 93.9393C16.9696 92.9351 16.1556 92.1211 15.1514 92.1211C14.1473 92.1211 13.3333 92.9351 13.3333 93.9393C13.3333 94.9434 14.1473 95.7575 15.1514 95.7575Z" fill="#1B1B1B"/>
<path d="M69.6968 95.7575C70.701 95.7575 71.515 94.9434 71.515 93.9393C71.515 92.9351 70.701 92.1211 69.6968 92.1211C68.6927 92.1211 67.8787 92.9351 67.8787 93.9393C67.8787 94.9434 68.6927 95.7575 69.6968 95.7575Z" fill="#1B1B1B"/>
<path d="M75.7574 95.7575C76.7615 95.7575 77.5756 94.9434 77.5756 93.9393C77.5756 92.9351 76.7615 92.1211 75.7574 92.1211C74.7532 92.1211 73.9392 92.9351 73.9392 93.9393C73.9392 94.9434 74.7532 95.7575 75.7574 95.7575Z" fill="#1B1B1B"/>
<path d="M81.8182 95.7575C82.8223 95.7575 83.6364 94.9434 83.6364 93.9393C83.6364 92.9351 82.8223 92.1211 81.8182 92.1211C80.814 92.1211 80 92.9351 80 93.9393C80 94.9434 80.814 95.7575 81.8182 95.7575Z" fill="#1B1B1B"/>
<path d="M124.242 95.7575C125.246 95.7575 126.06 94.9434 126.06 93.9393C126.06 92.9351 125.246 92.1211 124.242 92.1211C123.238 92.1211 122.424 92.9351 122.424 93.9393C122.424 94.9434 123.238 95.7575 124.242 95.7575Z" fill="#1B1B1B"/>
<path d="M148.485 95.7575C149.489 95.7575 150.303 94.9434 150.303 93.9393C150.303 92.9351 149.489 92.1211 148.485 92.1211C147.481 92.1211 146.667 92.9351 146.667 93.9393C146.667 94.9434 147.481 95.7575 148.485 95.7575Z" fill="#1B1B1B"/>
<path d="M160.606 95.7575C161.61 95.7575 162.424 94.9434 162.424 93.9393C162.424 92.9351 161.61 92.1211 160.606 92.1211C159.602 92.1211 158.788 92.9351 158.788 93.9393C158.788 94.9434 159.602 95.7575 160.606 95.7575Z" fill="#1B1B1B"/>
<path d="M172.727 95.7575C173.731 95.7575 174.545 94.9434 174.545 93.9393C174.545 92.9351 173.731 92.1211 172.727 92.1211C171.723 92.1211 170.909 92.9351 170.909 93.9393C170.909 94.9434 171.723 95.7575 172.727 95.7575Z" fill="#1B1B1B"/>
<path d="M178.788 95.7575C179.792 95.7575 180.606 94.9434 180.606 93.9393C180.606 92.9351 179.792 92.1211 178.788 92.1211C177.784 92.1211 176.97 92.9351 176.97 93.9393C176.97 94.9434 177.784 95.7575 178.788 95.7575Z" fill="#1B1B1B"/>
<path d="M184.848 95.7575C185.853 95.7575 186.667 94.9434 186.667 93.9393C186.667 92.9351 185.853 92.1211 184.848 92.1211C183.844 92.1211 183.03 92.9351 183.03 93.9393C183.03 94.9434 183.844 95.7575 184.848 95.7575Z" fill="#1B1B1B"/>
<path d="M21.212 101.818C22.2161 101.818 23.0302 101.004 23.0302 99.9998C23.0302 98.9957 22.2161 98.1816 21.212 98.1816C20.2078 98.1816 19.3938 98.9957 19.3938 99.9998C19.3938 101.004 20.2078 101.818 21.212 101.818Z" fill="#1B1B1B"/>
<path d="M27.2725 101.818C28.2767 101.818 29.0907 101.004 29.0907 99.9998C29.0907 98.9957 28.2767 98.1816 27.2725 98.1816C26.2684 98.1816 25.4543 98.9957 25.4543 99.9998C25.4543 101.004 26.2684 101.818 27.2725 101.818Z" fill="#1B1B1B"/>
<path d="M39.3939 101.818C40.398 101.818 41.212 101.004 41.212 99.9998C41.212 98.9957 40.398 98.1816 39.3939 98.1816C38.3897 98.1816 37.5757 98.9957 37.5757 99.9998C37.5757 101.004 38.3897 101.818 39.3939 101.818Z" fill="#1B1B1B"/>
<path d="M51.515 101.818C52.5191 101.818 53.3331 101.004 53.3331 99.9998C53.3331 98.9957 52.5191 98.1816 51.515 98.1816C50.5108 98.1816 49.6968 98.9957 49.6968 99.9998C49.6968 101.004 50.5108 101.818 51.515 101.818Z" fill="#1B1B1B"/>
<path d="M57.5758 101.818C58.5799 101.818 59.3939 101.004 59.3939 99.9998C59.3939 98.9957 58.5799 98.1816 57.5758 98.1816C56.5716 98.1816 55.7576 98.9957 55.7576 99.9998C55.7576 101.004 56.5716 101.818 57.5758 101.818Z" fill="#1B1B1B"/>
<path d="M69.6968 101.818C70.701 101.818 71.515 101.004 71.515 99.9998C71.515 98.9957 70.701 98.1816 69.6968 98.1816C68.6927 98.1816 67.8787 98.9957 67.8787 99.9998C67.8787 101.004 68.6927 101.818 69.6968 101.818Z" fill="#1B1B1B"/>
<path d="M87.8787 101.818C88.8829 101.818 89.6969 101.004 89.6969 99.9998C89.6969 98.9957 88.8829 98.1816 87.8787 98.1816C86.8746 98.1816 86.0605 98.9957 86.0605 99.9998C86.0605 101.004 86.8746 101.818 87.8787 101.818Z" fill="#1B1B1B"/>
<path d="M93.9393 101.818C94.9434 101.818 95.7575 101.004 95.7575 99.9998C95.7575 98.9957 94.9434 98.1816 93.9393 98.1816C92.9351 98.1816 92.1211 98.9957 92.1211 99.9998C92.1211 101.004 92.9351 101.818 93.9393 101.818Z" fill="#1B1B1B"/>
<path d="M124.242 101.818C125.246 101.818 126.06 101.004 126.06 99.9998C126.06 98.9957 125.246 98.1816 124.242 98.1816C123.238 98.1816 122.424 98.9957 122.424 99.9998C122.424 101.004 123.238 101.818 124.242 101.818Z" fill="#1B1B1B"/>
<path d="M136.364 101.818C137.368 101.818 138.182 101.004 138.182 99.9998C138.182 98.9957 137.368 98.1816 136.364 98.1816C135.359 98.1816 134.545 98.9957 134.545 99.9998C134.545 101.004 135.359 101.818 136.364 101.818Z" fill="#1B1B1B"/>
<path d="M160.606 101.818C161.61 101.818 162.424 101.004 162.424 99.9998C162.424 98.9957 161.61 98.1816 160.606 98.1816C159.602 98.1816 158.788 98.9957 158.788 99.9998C158.788 101.004 159.602 101.818 160.606 101.818Z" fill="#1B1B1B"/>
<path d="M184.848 101.818C185.853 101.818 186.667 101.004 186.667 99.9998C186.667 98.9957 185.853 98.1816 184.848 98.1816C183.844 98.1816 183.03 98.9957 183.03 99.9998C183.03 101.004 183.844 101.818 184.848 101.818Z" fill="#1B1B1B"/>
<path d="M15.1514 107.879C16.1556 107.879 16.9696 107.065 16.9696 106.06C16.9696 105.056 16.1556 104.242 15.1514 104.242C14.1473 104.242 13.3333 105.056 13.3333 106.06C13.3333 107.065 14.1473 107.879 15.1514 107.879Z" fill="#1B1B1B"/>
<path d="M57.5758 107.879C58.5799 107.879 59.3939 107.065 59.3939 106.06C59.3939 105.056 58.5799 104.242 57.5758 104.242C56.5716 104.242 55.7576 105.056 55.7576 106.06C55.7576 107.065 56.5716 107.879 57.5758 107.879Z" fill="#1B1B1B"/>
<path d="M63.6363 107.879C64.6405 107.879 65.4545 107.065 65.4545 106.06C65.4545 105.056 64.6405 104.242 63.6363 104.242C62.6321 104.242 61.8181 105.056 61.8181 106.06C61.8181 107.065 62.6321 107.879 63.6363 107.879Z" fill="#1B1B1B"/>
<path d="M81.8182 107.879C82.8223 107.879 83.6364 107.065 83.6364 106.06C83.6364 105.056 82.8223 104.242 81.8182 104.242C80.814 104.242 80 105.056 80 106.06C80 107.065 80.814 107.879 81.8182 107.879Z" fill="#1B1B1B"/>
<path d="M87.8787 107.879C88.8829 107.879 89.6969 107.065 89.6969 106.06C89.6969 105.056 88.8829 104.242 87.8787 104.242C86.8746 104.242 86.0605 105.056 86.0605 106.06C86.0605 107.065 86.8746 107.879 87.8787 107.879Z" fill="#1B1B1B"/>
<path d="M106.061 107.879C107.065 107.879 107.879 107.065 107.879 106.06C107.879 105.056 107.065 104.242 106.061 104.242C105.056 104.242 104.242 105.056 104.242 106.06C104.242 107.065 105.056 107.879 106.061 107.879Z" fill="#1B1B1B"/>
<path d="M112.121 107.879C113.125 107.879 113.939 107.065 113.939 106.06C113.939 105.056 113.125 104.242 112.121 104.242C111.117 104.242 110.303 105.056 110.303 106.06C110.303 107.065 111.117 107.879 112.121 107.879Z" fill="#1B1B1B"/>
<path d="M118.182 107.879C119.186 107.879 120 107.065 120 106.06C120 105.056 119.186 104.242 118.182 104.242C117.178 104.242 116.364 105.056 116.364 106.06C116.364 107.065 117.178 107.879 118.182 107.879Z" fill="#1B1B1B"/>
<path d="M142.424 107.879C143.428 107.879 144.242 107.065 144.242 106.06C144.242 105.056 143.428 104.242 142.424 104.242C141.42 104.242 140.606 105.056 140.606 106.06C140.606 107.065 141.42 107.879 142.424 107.879Z" fill="#1B1B1B"/>
<path d="M154.545 107.879C155.549 107.879 156.363 107.065 156.363 106.06C156.363 105.056 155.549 104.242 154.545 104.242C153.541 104.242 152.727 105.056 152.727 106.06C152.727 107.065 153.541 107.879 154.545 107.879Z" fill="#1B1B1B"/>
<path d="M166.667 107.879C167.671 107.879 168.485 107.065 168.485 106.06C168.485 105.056 167.671 104.242 166.667 104.242C165.662 104.242 164.848 105.056 164.848 106.06C164.848 107.065 165.662 107.879 166.667 107.879Z" fill="#1B1B1B"/>
<path d="M178.788 107.879C179.792 107.879 180.606 107.065 180.606 106.06C180.606 105.056 179.792 104.242 178.788 104.242C177.784 104.242 176.97 105.056 176.97 106.06C176.97 107.065 177.784 107.879 178.788 107.879Z" fill="#1B1B1B"/>
<path d="M15.1514 113.939C16.1556 113.939 16.9696 113.125 16.9696 112.121C16.9696 111.117 16.1556 110.303 15.1514 110.303C14.1473 110.303 13.3333 111.117 13.3333 112.121C13.3333 113.125 14.1473 113.939 15.1514 113.939Z" fill="#1B1B1B"/>
<path d="M33.3333 113.939C34.3375 113.939 35.1515 113.125 35.1515 112.121C35.1515 111.117 34.3375 110.303 33.3333 110.303C32.3292 110.303 31.5151 111.117 31.5151 112.121C31.5151 113.125 32.3292 113.939 33.3333 113.939Z" fill="#1B1B1B"/>
<path d="M45.4544 113.939C46.4586 113.939 47.2726 113.125 47.2726 112.121C47.2726 111.117 46.4586 110.303 45.4544 110.303C44.4503 110.303 43.6362 111.117 43.6362 112.121C43.6362 113.125 44.4503 113.939 45.4544 113.939Z" fill="#1B1B1B"/>
<path d="M51.515 113.939C52.5191 113.939 53.3331 113.125 53.3331 112.121C53.3331 111.117 52.5191 110.303 51.515 110.303C50.5108 110.303 49.6968 111.117 49.6968 112.121C49.6968 113.125 50.5108 113.939 51.515 113.939Z" fill="#1B1B1B"/>
<path d="M57.5758 113.939C58.5799 113.939 59.3939 113.125 59.3939 112.121C59.3939 111.117 58.5799 110.303 57.5758 110.303C56.5716 110.303 55.7576 111.117 55.7576 112.121C55.7576 113.125 56.5716 113.939 57.5758 113.939Z" fill="#1B1B1B"/>
<path d="M63.6363 113.939C64.6405 113.939 65.4545 113.125 65.4545 112.121C65.4545 111.117 64.6405 110.303 63.6363 110.303C62.6321 110.303 61.8181 111.117 61.8181 112.121C61.8181 113.125 62.6321 113.939 63.6363 113.939Z" fill="#1B1B1B"/>
<path d="M69.6968 113.939C70.701 113.939 71.515 113.125 71.515 112.121C71.515 111.117 70.701 110.303 69.6968 110.303C68.6927 110.303 67.8787 111.117 67.8787 112.121C67.8787 113.125 68.6927 113.939 69.6968 113.939Z" fill="#1B1B1B"/>
<path d="M81.8182 113.939C82.8223 113.939 83.6364 113.125 83.6364 112.121C83.6364 111.117 82.8223 110.303 81.8182 110.303C80.814 110.303 80 111.117 80 112.121C80 113.125 80.814 113.939 81.8182 113.939Z" fill="#1B1B1B"/>
<path d="M99.9998 113.939C101.004 113.939 101.818 113.125 101.818 112.121C101.818 111.117 101.004 110.303 99.9998 110.303C98.9957 110.303 98.1816 111.117 98.1816 112.121C98.1816 113.125 98.9957 113.939 99.9998 113.939Z" fill="#1B1B1B"/>
<path d="M106.061 113.939C107.065 113.939 107.879 113.125 107.879 112.121C107.879 111.117 107.065 110.303 106.061 110.303C105.056 110.303 104.242 111.117 104.242 112.121C104.242 113.125 105.056 113.939 106.061 113.939Z" fill="#1B1B1B"/>
<path d="M118.182 113.939C119.186 113.939 120 113.125 120 112.121C120 111.117 119.186 110.303 118.182 110.303C117.178 110.303 116.364 111.117 116.364 112.121C116.364 113.125 117.178 113.939 118.182 113.939Z" fill="#1B1B1B"/>
<path d="M130.303 113.939C131.307 113.939 132.121 113.125 132.121 112.121C132.121 111.117 131.307 110.303 130.303 110.303C129.299 110.303 128.485 111.117 128.485 112.121C128.485 113.125 129.299 113.939 130.303 113.939Z" fill="#1B1B1B"/>
<path d="M136.364 113.939C137.368 113.939 138.182 113.125 138.182 112.121C138.182 111.117 137.368 110.303 136.364 110.303C135.359 110.303 134.545 111.117 134.545 112.121C134.545 113.125 135.359 113.939 136.364 113.939Z" fill="#1B1B1B"/>
<path d="M142.424 113.939C143.428 113.939 144.242 113.125 144.242 112.121C144.242 111.117 143.428 110.303 142.424 110.303C141.42 110.303 140.606 111.117 140.606 112.121C140.606 113.125 141.42 113.939 142.424 113.939Z" fill="#1B1B1B"/>
<path d="M15.1514 120C16.1556 120 16.9696 119.186 16.9696 118.181C16.9696 117.177 16.1556 116.363 15.1514 116.363C14.1473 116.363 13.3333 117.177 13.3333 118.181C13.3333 119.186 14.1473 120 15.1514 120Z" fill="#1B1B1B"/>
<path d="M21.212 120C22.2161 120 23.0302 119.186 23.0302 118.181C23.0302 117.177 22.2161 116.363 21.212 116.363C20.2078 116.363 19.3938 117.177 19.3938 118.181C19.3938 119.186 20.2078 120 21.212 120Z" fill="#1B1B1B"/>
<path d="M27.2725 120C28.2767 120 29.0907 119.186 29.0907 118.181C29.0907 117.177 28.2767 116.363 27.2725 116.363C26.2684 116.363 25.4543 117.177 25.4543 118.181C25.4543 119.186 26.2684 120 27.2725 120Z" fill="#1B1B1B"/>
<path d="M39.3939 120C40.398 120 41.212 119.186 41.212 118.181C41.212 117.177 40.398 116.363 39.3939 116.363C38.3897 116.363 37.5757 117.177 37.5757 118.181C37.5757 119.186 38.3897 120 39.3939 120Z" fill="#1B1B1B"/>
<path d="M57.5758 120C58.5799 120 59.3939 119.186 59.3939 118.181C59.3939 117.177 58.5799 116.363 57.5758 116.363C56.5716 116.363 55.7576 117.177 55.7576 118.181C55.7576 119.186 56.5716 120 57.5758 120Z" fill="#1B1B1B"/>
<path d="M93.9393 120C94.9434 120 95.7575 119.186 95.7575 118.181C95.7575 117.177 94.9434 116.363 93.9393 116.363C92.9351 116.363 92.1211 117.177 92.1211 118.181C92.1211 119.186 92.9351 120 93.9393 120Z" fill="#1B1B1B"/>
<path d="M99.9998 120C101.004 120 101.818 119.186 101.818 118.181C101.818 117.177 101.004 116.363 99.9998 116.363C98.9957 116.363 98.1816 117.177 98.1816 118.181C98.1816 119.186 98.9957 120 99.9998 120Z" fill="#1B1B1B"/>
<path d="M118.182 120C119.186 120 120 119.186 120 118.181C120 117.177 119.186 116.363 118.182 116.363C117.178 116.363 116.364 117.177 116.364 118.181C116.364 119.186 117.178 120 118.182 120Z" fill="#1B1B1B"/>
<path d="M124.242 120C125.246 120 126.06 119.186 126.06 118.181C126.06 117.177 125.246 116.363 124.242 116.363C123.238 116.363 122.424 117.177 122.424 118.181C122.424 119.186 123.238 120 124.242 120Z" fill="#1B1B1B"/>
<path d="M136.364 120C137.368 120 138.182 119.186 138.182 118.181C138.182 117.177 137.368 116.363 136.364 116.363C135.359 116.363 134.545 117.177 134.545 118.181C134.545 119.186 135.359 120 136.364 120Z" fill="#1B1B1B"/>
<path d="M142.424 120C143.428 120 144.242 119.186 144.242 118.181C144.242 117.177 143.428 116.363 142.424 116.363C141.42 116.363 140.606 117.177 140.606 118.181C140.606 119.186 141.42 120 142.424 120Z" fill="#1B1B1B"/>
<path d="M148.485 120C149.489 120 150.303 119.186 150.303 118.181C150.303 117.177 149.489 116.363 148.485 116.363C147.481 116.363 146.667 117.177 146.667 118.181C146.667 119.186 147.481 120 148.485 120Z" fill="#1B1B1B"/>
<path d="M154.545 120C155.549 120 156.363 119.186 156.363 118.181C156.363 117.177 155.549 116.363 154.545 116.363C153.541 116.363 152.727 117.177 152.727 118.181C152.727 119.186 153.541 120 154.545 120Z" fill="#1B1B1B"/>
<path d="M160.606 120C161.61 120 162.424 119.186 162.424 118.181C162.424 117.177 161.61 116.363 160.606 116.363C159.602 116.363 158.788 117.177 158.788 118.181C158.788 119.186 159.602 120 160.606 120Z" fill="#1B1B1B"/>
<path d="M184.848 120C185.853 120 186.667 119.186 186.667 118.181C186.667 117.177 185.853 116.363 184.848 116.363C183.844 116.363 183.03 117.177 183.03 118.181C183.03 119.186 183.844 120 184.848 120Z" fill="#1B1B1B"/>
<path d="M27.2725 126.061C28.2767 126.061 29.0907 125.247 29.0907 124.242C29.0907 123.238 28.2767 122.424 27.2725 122.424C26.2684 122.424 25.4543 123.238 25.4543 124.242C25.4543 125.247 26.2684 126.061 27.2725 126.061Z" fill="#1B1B1B"/>
<path d="M39.3939 126.061C40.398 126.061 41.212 125.247 41.212 124.242C41.212 123.238 40.398 122.424 39.3939 122.424C38.3897 122.424 37.5757 123.238 37.5757 124.242C37.5757 125.247 38.3897 126.061 39.3939 126.061Z" fill="#1B1B1B"/>
<path d="M45.4544 126.061C46.4586 126.061 47.2726 125.247 47.2726 124.242C47.2726 123.238 46.4586 122.424 45.4544 122.424C44.4503 122.424 43.6362 123.238 43.6362 124.242C43.6362 125.247 44.4503 126.061 45.4544 126.061Z" fill="#1B1B1B"/>
<path d="M51.515 126.061C52.5191 126.061 53.3331 125.247 53.3331 124.242C53.3331 123.238 52.5191 122.424 51.515 122.424C50.5108 122.424 49.6968 123.238 49.6968 124.242C49.6968 125.247 50.5108 126.061 51.515 126.061Z" fill="#1B1B1B"/>
<path d="M106.061 126.061C107.065 126.061 107.879 125.247 107.879 124.242C107.879 123.238 107.065 122.424 106.061 122.424C105.056 122.424 104.242 123.238 104.242 124.242C104.242 125.247 105.056 126.061 106.061 126.061Z" fill="#1B1B1B"/>
<path d="M112.121 126.061C113.125 126.061 113.939 125.247 113.939 124.242C113.939 123.238 113.125 122.424 112.121 122.424C111.117 122.424 110.303 123.238 110.303 124.242C110.303 125.247 111.117 126.061 112.121 126.061Z" fill="#1B1B1B"/>
<path d="M136.364 126.061C137.368 126.061 138.182 125.247 138.182 124.242C138.182 123.238 137.368 122.424 136.364 122.424C135.359 122.424 134.545 123.238 134.545 124.242C134.545 125.247 135.359 126.061 136.364 126.061Z" fill="#1B1B1B"/>
<path d="M160.606 126.061C161.61 126.061 162.424 125.247 162.424 124.242C162.424 123.238 161.61 122.424 160.606 122.424C159.602 122.424 158.788 123.238 158.788 124.242C158.788 125.247 159.602 126.061 160.606 126.061Z" fill="#1B1B1B"/>
<path d="M172.727 126.061C173.731 126.061 174.545 125.247 174.545 124.242C174.545 123.238 173.731 122.424 172.727 122.424C171.723 122.424 170.909 123.238 170.909 124.242C170.909 125.247 171.723 126.061 172.727 126.061Z" fill="#1B1B1B"/>
<path d="M184.848 126.061C185.853 126.061 186.667 125.247 186.667 124.242C186.667 123.238 185.853 122.424 184.848 122.424C183.844 122.424 183.03 123.238 183.03 124.242C183.03 125.247 183.844 126.061 184.848 126.061Z" fill="#1B1B1B"/>
<path d="M39.3939 132.121C40.398 132.121 41.212 131.307 41.212 130.303C41.212 129.299 40.398 128.485 39.3939 128.485C38.3897 128.485 37.5757 129.299 37.5757 130.303C37.5757 131.307 38.3897 132.121 39.3939 132.121Z" fill="#1B1B1B"/>
<path d="M57.5758 132.121C58.5799 132.121 59.3939 131.307 59.3939 130.303C59.3939 129.299 58.5799 128.485 57.5758 128.485C56.5716 128.485 55.7576 129.299 55.7576 130.303C55.7576 131.307 56.5716 132.121 57.5758 132.121Z" fill="#1B1B1B"/>
<path d="M63.6363 132.121C64.6405 132.121 65.4545 131.307 65.4545 130.303C65.4545 129.299 64.6405 128.485 63.6363 128.485C62.6321 128.485 61.8181 129.299 61.8181 130.303C61.8181 131.307 62.6321 132.121 63.6363 132.121Z" fill="#1B1B1B"/>
<path d="M69.6968 132.121C70.701 132.121 71.515 131.307 71.515 130.303C71.515 129.299 70.701 128.485 69.6968 128.485C68.6927 128.485 67.8787 129.299 67.8787 130.303C67.8787 131.307 68.6927 132.121 69.6968 132.121Z" fill="#1B1B1B"/>
<path d="M75.7574 132.121C76.7615 132.121 77.5756 131.307 77.5756 130.303C77.5756 129.299 76.7615 128.485 75.7574 128.485C74.7532 128.485 73.9392 129.299 73.9392 130.303C73.9392 131.307 74.7532 132.121 75.7574 132.121Z" fill="#1B1B1B"/>
<path d="M87.8787 132.121C88.8829 132.121 89.6969 131.307 89.6969 130.303C89.6969 129.299 88.8829 128.485 87.8787 128.485C86.8746 128.485 86.0605 129.299 86.0605 130.303C86.0605 131.307 86.8746 132.121 87.8787 132.121Z" fill="#1B1B1B"/>
<path d="M99.9998 132.121C101.004 132.121 101.818 131.307 101.818 130.303C101.818 129.299 101.004 128.485 99.9998 128.485C98.9957 128.485 98.1816 129.299 98.1816 130.303C98.1816 131.307 98.9957 132.121 99.9998 132.121Z" fill="#1B1B1B"/>
<path d="M112.121 132.121C113.125 132.121 113.939 131.307 113.939 130.303C113.939 129.299 113.125 128.485 112.121 128.485C111.117 128.485 110.303 129.299 110.303 130.303C110.303 131.307 111.117 132.121 112.121 132.121Z" fill="#1B1B1B"/>
<path d="M118.182 132.121C119.186 132.121 120 131.307 120 130.303C120 129.299 119.186 128.485 118.182 128.485C117.178 128.485 116.364 129.299 116.364 130.303C116.364 131.307 117.178 132.121 118.182 132.121Z" fill="#1B1B1B"/>
<path d="M124.242 132.121C125.246 132.121 126.06 131.307 126.06 130.303C126.06 129.299 125.246 128.485 124.242 128.485C123.238 128.485 122.424 129.299 122.424 130.303C122.424 131.307 123.238 132.121 124.242 132.121Z" fill="#1B1B1B"/>
<path d="M160.606 132.121C161.61 132.121 162.424 131.307 162.424 130.303C162.424 129.299 161.61 128.485 160.606 128.485C159.602 128.485 158.788 129.299 158.788 130.303C158.788 131.307 159.602 132.121 160.606 132.121Z" fill="#1B1B1B"/>
<path d="M166.667 132.121C167.671 132.121 168.485 131.307 168.485 130.303C168.485 129.299 167.671 128.485 166.667 128.485C165.662 128.485 164.848 129.299 164.848 130.303C164.848 131.307 165.662 132.121 166.667 132.121Z" fill="#1B1B1B"/>
<path d="M178.788 132.121C179.792 132.121 180.606 131.307 180.606 130.303C180.606 129.299 179.792 128.485 178.788 128.485C177.784 128.485 176.97 129.299 176.97 130.303C176.97 131.307 177.784 132.121 178.788 132.121Z" fill="#1B1B1B"/>
<path d="M15.1514 138.182C16.1556 138.182 16.9696 137.368 16.9696 136.364C16.9696 135.359 16.1556 134.545 15.1514 134.545C14.1473 134.545 13.3333 135.359 13.3333 136.364C13.3333 137.368 14.1473 138.182 15.1514 138.182Z" fill="#1B1B1B"/>
<path d="M21.212 138.182C22.2161 138.182 23.0302 137.368 23.0302 136.364C23.0302 135.359 22.2161 134.545 21.212 134.545C20.2078 134.545 19.3938 135.359 19.3938 136.364C19.3938 137.368 20.2078 138.182 21.212 138.182Z" fill="#1B1B1B"/>
<path d="M33.3333 138.182C34.3375 138.182 35.1515 137.368 35.1515 136.364C35.1515 135.359 34.3375 134.545 33.3333 134.545C32.3292 134.545 31.5151 135.359 31.5151 136.364C31.5151 137.368 32.3292 138.182 33.3333 138.182Z" fill="#1B1B1B"/>
<path d="M45.4544 138.182C46.4586 138.182 47.2726 137.368 47.2726 136.364C47.2726 135.359 46.4586 134.545 45.4544 134.545C44.4503 134.545 43.6362 135.359 43.6362 136.364C43.6362 137.368 44.4503 138.182 45.4544 138.182Z" fill="#1B1B1B"/>
<path d="M51.515 138.182C52.5191 138.182 53.3331 137.368 53.3331 136.364C53.3331 135.359 52.5191 134.545 51.515 134.545C50.5108 134.545 49.6968 135.359 49.6968 136.364C49.6968 137.368 50.5108 138.182 51.515 138.182Z" fill="#1B1B1B"/>
<path d="M63.6363 138.182C64.6405 138.182 65.4545 137.368 65.4545 136.364C65.4545 135.359 64.6405 134.545 63.6363 134.545C62.6321 134.545 61.8181 135.359 61.8181 136.364C61.8181 137.368 62.6321 138.182 63.6363 138.182Z" fill="#1B1B1B"/>
<path d="M69.6968 138.182C70.701 138.182 71.515 137.368 71.515 136.364C71.515 135.359 70.701 134.545 69.6968 134.545C68.6927 134.545 67.8787 135.359 67.8787 136.364C67.8787 137.368 68.6927 138.182 69.6968 138.182Z" fill="#1B1B1B"/>
<path d="M87.8787 138.182C88.8829 138.182 89.6969 137.368 89.6969 136.364C89.6969 135.359 88.8829 134.545 87.8787 134.545C86.8746 134.545 86.0605 135.359 86.0605 136.364C86.0605 137.368 86.8746 138.182 87.8787 138.182Z" fill="#1B1B1B"/>
<path d="M93.9393 138.182C94.9434 138.182 95.7575 137.368 95.7575 136.364C95.7575 135.359 94.9434 134.545 93.9393 134.545C92.9351 134.545 92.1211 135.359 92.1211 136.364C92.1211 137.368 92.9351 138.182 93.9393 138.182Z" fill="#1B1B1B"/>
<path d="M106.061 138.182C107.065 138.182 107.879 137.368 107.879 136.364C107.879 135.359 107.065 134.545 106.061 134.545C105.056 134.545 104.242 135.359 104.242 136.364C104.242 137.368 105.056 138.182 106.061 138.182Z" fill="#1B1B1B"/>
<path d="M112.121 138.182C113.125 138.182 113.939 137.368 113.939 136.364C113.939 135.359 113.125 134.545 112.121 134.545C111.117 134.545 110.303 135.359 110.303 136.364C110.303 137.368 111.117 138.182 112.121 138.182Z" fill="#1B1B1B"/>
<path d="M130.303 138.182C131.307 138.182 132.121 137.368 132.121 136.364C132.121 135.359 131.307 134.545 130.303 134.545C129.299 134.545 128.485 135.359 128.485 136.364C128.485 137.368 129.299 138.182 130.303 138.182Z" fill="#1B1B1B"/>
<path d="M136.364 138.182C137.368 138.182 138.182 137.368 138.182 136.364C138.182 135.359 137.368 134.545 136.364 134.545C135.359 134.545 134.545 135.359 134.545 136.364C134.545 137.368 135.359 138.182 136.364 138.182Z" fill="#1B1B1B"/>
<path d="M142.424 138.182C143.428 138.182 144.242 137.368 144.242 136.364C144.242 135.359 143.428 134.545 142.424 134.545C141.42 134.545 140.606 135.359 140.606 136.364C140.606 137.368 141.42 138.182 142.424 138.182Z" fill="#1B1B1B"/>
<path d="M148.485 138.182C149.489 138.182 150.303 137.368 150.303 136.364C150.303 135.359 149.489 134.545 148.485 134.545C147.481 134.545 146.667 135.359 146.667 136.364C146.667 137.368 147.481 138.182 148.485 138.182Z" fill="#1B1B1B"/>
<path d="M154.545 138.182C155.549 138.182 156.363 137.368 156.363 136.364C156.363 135.359 155.549 134.545 154.545 134.545C153.541 134.545 152.727 135.359 152.727 136.364C152.727 137.368 153.541 138.182 154.545 138.182Z" fill="#1B1B1B"/>
<path d="M160.606 138.182C161.61 138.182 162.424 137.368 162.424 136.364C162.424 135.359 161.61 134.545 160.606 134.545C159.602 134.545 158.788 135.359 158.788 136.364C158.788 137.368 159.602 138.182 160.606 138.182Z" fill="#1B1B1B"/>
<path d="M166.667 138.182C167.671 138.182 168.485 137.368 168.485 136.364C168.485 135.359 167.671 134.545 166.667 134.545C165.662 134.545 164.848 135.359 164.848 136.364C164.848 137.368 165.662 138.182 166.667 138.182Z" fill="#1B1B1B"/>
<path d="M178.788 138.182C179.792 138.182 180.606 137.368 180.606 136.364C180.606 135.359 179.792 134.545 178.788 134.545C177.784 134.545 176.97 135.359 176.97 136.364C176.97 137.368 177.784 138.182 178.788 138.182Z" fill="#1B1B1B"/>
<path d="M63.6363 144.242C64.6405 144.242 65.4545 143.428 65.4545 142.424C65.4545 141.42 64.6405 140.606 63.6363 140.606C62.6321 140.606 61.8181 141.42 61.8181 142.424C61.8181 143.428 62.6321 144.242 63.6363 144.242Z" fill="#1B1B1B"/>
<path d="M69.6968 144.242C70.701 144.242 71.515 143.428 71.515 142.424C71.515 141.42 70.701 140.606 69.6968 140.606C68.6927 140.606 67.8787 141.42 67.8787 142.424C67.8787 143.428 68.6927 144.242 69.6968 144.242Z" fill="#1B1B1B"/>
<path d="M75.7574 144.242C76.7615 144.242 77.5756 143.428 77.5756 142.424C77.5756 141.42 76.7615 140.606 75.7574 140.606C74.7532 140.606 73.9392 141.42 73.9392 142.424C73.9392 143.428 74.7532 144.242 75.7574 144.242Z" fill="#1B1B1B"/>
<path d="M81.8182 144.242C82.8223 144.242 83.6364 143.428 83.6364 142.424C83.6364 141.42 82.8223 140.606 81.8182 140.606C80.814 140.606 80 141.42 80 142.424C80 143.428 80.814 144.242 81.8182 144.242Z" fill="#1B1B1B"/>
<path d="M87.8787 144.242C88.8829 144.242 89.6969 143.428 89.6969 142.424C89.6969 141.42 88.8829 140.606 87.8787 140.606C86.8746 140.606 86.0605 141.42 86.0605 142.424C86.0605 143.428 86.8746 144.242 87.8787 144.242Z" fill="#1B1B1B"/>
<path d="M93.9393 144.242C94.9434 144.242 95.7575 143.428 95.7575 142.424C95.7575 141.42 94.9434 140.606 93.9393 140.606C92.9351 140.606 92.1211 141.42 92.1211 142.424C92.1211 143.428 92.9351 144.242 93.9393 144.242Z" fill="#1B1B1B"/>
<path d="M106.061 144.242C107.065 144.242 107.879 143.428 107.879 142.424C107.879 141.42 107.065 140.606 106.061 140.606C105.056 140.606 104.242 141.42 104.242 142.424C104.242 143.428 105.056 144.242 106.061 144.242Z" fill="#1B1B1B"/>
<path d="M130.303 144.242C131.307 144.242 132.121 143.428 132.121 142.424C132.121 141.42 131.307 140.606 130.303 140.606C129.299 140.606 128.485 141.42 128.485 142.424C128.485 143.428 129.299 144.242 130.303 144.242Z" fill="#1B1B1B"/>
<path d="M136.364 144.242C137.368 144.242 138.182 143.428 138.182 142.424C138.182 141.42 137.368 140.606 136.364 140.606C135.359 140.606 134.545 141.42 134.545 142.424C134.545 143.428 135.359 144.242 136.364 144.242Z" fill="#1B1B1B"/>
<path d="M160.606 144.242C161.61 144.242 162.424 143.428 162.424 142.424C162.424 141.42 161.61 140.606 160.606 140.606C159.602 140.606 158.788 141.42 158.788 142.424C158.788 143.428 159.602 144.242 160.606 144.242Z" fill="#1B1B1B"/>
<path d="M172.727 144.242C173.731 144.242 174.545 143.428 174.545 142.424C174.545 141.42 173.731 140.606 172.727 140.606C171.723 140.606 170.909 141.42 170.909 142.424C170.909 143.428 171.723 144.242 172.727 144.242Z" fill="#1B1B1B"/>
<path d="M178.788 144.242C179.792 144.242 180.606 143.428 180.606 142.424C180.606 141.42 179.792 140.606 178.788 140.606C177.784 140.606 176.97 141.42 176.97 142.424C176.97 143.428 177.784 144.242 178.788 144.242Z" fill="#1B1B1B"/>
<path d="M184.848 144.242C185.853 144.242 186.667 143.428 186.667 142.424C186.667 141.42 185.853 140.606 184.848 140.606C183.844 140.606 183.03 141.42 183.03 142.424C183.03 143.428 183.844 144.242 184.848 144.242Z" fill="#1B1B1B"/>
<path d="M63.6363 150.303C64.6405 150.303 65.4545 149.489 65.4545 148.485C65.4545 147.481 64.6405 146.667 63.6363 146.667C62.6321 146.667 61.8181 147.481 61.8181 148.485C61.8181 149.489 62.6321 150.303 63.6363 150.303Z" fill="#1B1B1B"/>
<path d="M81.8182 150.303C82.8223 150.303 83.6364 149.489 83.6364 148.485C83.6364 147.481 82.8223 146.667 81.8182 146.667C80.814 146.667 80 147.481 80 148.485C80 149.489 80.814 150.303 81.8182 150.303Z" fill="#1B1B1B"/>
<path d="M93.9393 150.303C94.9434 150.303 95.7575 149.489 95.7575 148.485C95.7575 147.481 94.9434 146.667 93.9393 146.667C92.9351 146.667 92.1211 147.481 92.1211 148.485C92.1211 149.489 92.9351 150.303 93.9393 150.303Z" fill="#1B1B1B"/>
<path d="M99.9998 150.303C101.004 150.303 101.818 149.489 101.818 148.485C101.818 147.481 101.004 146.667 99.9998 146.667C98.9957 146.667 98.1816 147.481 98.1816 148.485C98.1816 149.489 98.9957 150.303 99.9998 150.303Z" fill="#1B1B1B"/>
<path d="M106.061 150.303C107.065 150.303 107.879 149.489 107.879 148.485C107.879 147.481 107.065 146.667 106.061 146.667C105.056 146.667 104.242 147.481 104.242 148.485C104.242 149.489 105.056 150.303 106.061 150.303Z" fill="#1B1B1B"/>
<path d="M124.242 150.303C125.246 150.303 126.06 149.489 126.06 148.485C126.06 147.481 125.246 146.667 124.242 146.667C123.238 146.667 122.424 147.481 122.424 148.485C122.424 149.489 123.238 150.303 124.242 150.303Z" fill="#1B1B1B"/>
<path d="M130.303 150.303C131.307 150.303 132.121 149.489 132.121 148.485C132.121 147.481 131.307 146.667 130.303 146.667C129.299 146.667 128.485 147.481 128.485 148.485C128.485 149.489 129.299 150.303 130.303 150.303Z" fill="#1B1B1B"/>
<path d="M136.364 150.303C137.368 150.303 138.182 149.489 138.182 148.485C138.182 147.481 137.368 146.667 136.364 146.667C135.359 146.667 134.545 147.481 134.545 148.485C134.545 149.489 135.359 150.303 136.364 150.303Z" fill="#1B1B1B"/>
<path d="M148.485 150.303C149.489 150.303 150.303 149.489 150.303 148.485C150.303 147.481 149.489 146.667 148.485 146.667C147.481 146.667 146.667 147.481 146.667 148.485C146.667 149.489 147.481 150.303 148.485 150.303Z" fill="#1B1B1B"/>
<path d="M160.606 150.303C161.61 150.303 162.424 149.489 162.424 148.485C162.424 147.481 161.61 146.667 160.606 146.667C159.602 146.667 158.788 147.481 158.788 148.485C158.788 149.489 159.602 150.303 160.606 150.303Z" fill="#1B1B1B"/>
<path d="M184.848 150.303C185.853 150.303 186.667 149.489 186.667 148.485C186.667 147.481 185.853 146.667 184.848 146.667C183.844 146.667 183.03 147.481 183.03 148.485C183.03 149.489 183.844 150.303 184.848 150.303Z" fill="#1B1B1B"/>
<path d="M63.6363 156.363C64.6405 156.363 65.4545 155.549 65.4545 154.545C65.4545 153.541 64.6405 152.727 63.6363 152.727C62.6321 152.727 61.8181 153.541 61.8181 154.545C61.8181 155.549 62.6321 156.363 63.6363 156.363Z" fill="#1B1B1B"/>
<path d="M99.9998 156.363C101.004 156.363 101.818 155.549 101.818 154.545C101.818 153.541 101.004 152.727 99.9998 152.727C98.9957 152.727 98.1816 153.541 98.1816 154.545C98.1816 155.549 98.9957 156.363 99.9998 156.363Z" fill="#1B1B1B"/>
<path d="M106.061 156.363C107.065 156.363 107.879 155.549 107.879 154.545C107.879 153.541 107.065 152.727 106.061 152.727C105.056 152.727 104.242 153.541 104.242 154.545C104.242 155.549 105.056 156.363 106.061 156.363Z" fill="#1B1B1B"/>
<path d="M112.121 156.363C113.125 156.363 113.939 155.549 113.939 154.545C113.939 153.541 113.125 152.727 112.121 152.727C111.117 152.727 110.303 153.541 110.303 154.545C110.303 155.549 111.117 156.363 112.121 156.363Z" fill="#1B1B1B"/>
<path d="M124.242 156.363C125.246 156.363 126.06 155.549 126.06 154.545C126.06 153.541 125.246 152.727 124.242 152.727C123.238 152.727 122.424 153.541 122.424 154.545C122.424 155.549 123.238 156.363 124.242 156.363Z" fill="#1B1B1B"/>
<path d="M130.303 156.363C131.307 156.363 132.121 155.549 132.121 154.545C132.121 153.541 131.307 152.727 130.303 152.727C129.299 152.727 128.485 153.541 128.485 154.545C128.485 155.549 129.299 156.363 130.303 156.363Z" fill="#1B1B1B"/>
<path d="M136.364 156.363C137.368 156.363 138.182 155.549 138.182 154.545C138.182 153.541 137.368 152.727 136.364 152.727C135.359 152.727 134.545 153.541 134.545 154.545C134.545 155.549 135.359 156.363 136.364 156.363Z" fill="#1B1B1B"/>
<path d="M160.606 156.363C161.61 156.363 162.424 155.549 162.424 154.545C162.424 153.541 161.61 152.727 160.606 152.727C159.602 152.727 158.788 153.541 158.788 154.545C158.788 155.549 159.602 156.363 160.606 156.363Z" fill="#1B1B1B"/>
<path d="M166.667 156.363C167.671 156.363 168.485 155.549 168.485 154.545C168.485 153.541 167.671 152.727 166.667 152.727C165.662 152.727 164.848 153.541 164.848 154.545C164.848 155.549 165.662 156.363 166.667 156.363Z" fill="#1B1B1B"/>
<path d="M184.848 156.363C185.853 156.363 186.667 155.549 186.667 154.545C186.667 153.541 185.853 152.727 184.848 152.727C183.844 152.727 183.03 153.541 183.03 154.545C183.03 155.549 183.844 156.363 184.848 156.363Z" fill="#1B1B1B"/>
<path d="M63.6363 162.424C64.6405 162.424 65.4545 161.61 65.4545 160.606C65.4545 159.602 64.6405 158.788 63.6363 158.788C62.6321 158.788 61.8181 159.602 61.8181 160.606C61.8181 161.61 62.6321 162.424 63.6363 162.424Z" fill="#1B1B1B"/>
<path d="M81.8182 162.424C82.8223 162.424 83.6364 161.61 83.6364 160.606C83.6364 159.602 82.8223 158.788 81.8182 158.788C80.814 158.788 80 159.602 80 160.606C80 161.61 80.814 162.424 81.8182 162.424Z" fill="#1B1B1B"/>
<path d="M99.9998 162.424C101.004 162.424 101.818 161.61 101.818 160.606C101.818 159.602 101.004 158.788 99.9998 158.788C98.9957 158.788 98.1816 159.602 98.1816 160.606C98.1816 161.61 98.9957 162.424 99.9998 162.424Z" fill="#1B1B1B"/>
<path d="M106.061 162.424C107.065 162.424 107.879 161.61 107.879 160.606C107.879 159.602 107.065 158.788 106.061 158.788C105.056 158.788 104.242 159.602 104.242 160.606C104.242 161.61 105.056 162.424 106.061 162.424Z" fill="#1B1B1B"/>
<path d="M118.182 162.424C119.186 162.424 120 161.61 120 160.606C120 159.602 119.186 158.788 118.182 158.788C117.178 158.788 116.364 159.602 116.364 160.606C116.364 161.61 117.178 162.424 118.182 162.424Z" fill="#1B1B1B"/>
<path d="M130.303 162.424C131.307 162.424 132.121 161.61 132.121 160.606C132.121 159.602 131.307 158.788 130.303 158.788C129.299 158.788 128.485 159.602 128.485 160.606C128.485 161.61 129.299 162.424 130.303 162.424Z" fill="#1B1B1B"/>
<path d="M136.364 162.424C137.368 162.424 138.182 161.61 138.182 160.606C138.182 159.602 137.368 158.788 136.364 158.788C135.359 158.788 134.545 159.602 134.545 160.606C134.545 161.61 135.359 162.424 136.364 162.424Z" fill="#1B1B1B"/>
<path d="M142.424 162.424C143.428 162.424 144.242 161.61 144.242 160.606C144.242 159.602 143.428 158.788 142.424 158.788C141.42 158.788 140.606 159.602 140.606 160.606C140.606 161.61 141.42 162.424 142.424 162.424Z" fill="#1B1B1B"/>
<path d="M148.485 162.424C149.489 162.424 150.303 161.61 150.303 160.606C150.303 159.602 149.489 158.788 148.485 158.788C147.481 158.788 146.667 159.602 146.667 160.606C146.667 161.61 147.481 162.424 148.485 162.424Z" fill="#1B1B1B"/>
<path d="M154.545 162.424C155.549 162.424 156.363 161.61 156.363 160.606C156.363 159.602 155.549 158.788 154.545 158.788C153.541 158.788 152.727 159.602 152.727 160.606C152.727 161.61 153.541 162.424 154.545 162.424Z" fill="#1B1B1B"/>
<path d="M160.606 162.424C161.61 162.424 162.424 161.61 162.424 160.606C162.424 159.602 161.61 158.788 160.606 158.788C159.602 158.788 158.788 159.602 158.788 160.606C158.788 161.61 159.602 162.424 160.606 162.424Z" fill="#1B1B1B"/>
<path d="M75.7574 168.485C76.7615 168.485 77.5756 167.67 77.5756 166.666C77.5756 165.662 76.7615 164.848 75.7574 164.848C74.7532 164.848 73.9392 165.662 73.9392 166.666C73.9392 167.67 74.7532 168.485 75.7574 168.485Z" fill="#1B1B1B"/>
<path d="M99.9998 168.485C101.004 168.485 101.818 167.67 101.818 166.666C101.818 165.662 101.004 164.848 99.9998 164.848C98.9957 164.848 98.1816 165.662 98.1816 166.666C98.1816 167.67 98.9957 168.485 99.9998 168.485Z" fill="#1B1B1B"/>
<path d="M106.061 168.485C107.065 168.485 107.879 167.67 107.879 166.666C107.879 165.662 107.065 164.848 106.061 164.848C105.056 164.848 104.242 165.662 104.242 166.666C104.242 167.67 105.056 168.485 106.061 168.485Z" fill="#1B1B1B"/>
<path d="M154.545 168.485C155.549 168.485 156.363 167.67 156.363 166.666C156.363 165.662 155.549 164.848 154.545 164.848C153.541 164.848 152.727 165.662 152.727 166.666C152.727 167.67 153.541 168.485 154.545 168.485Z" fill="#1B1B1B"/>
<path d="M166.667 168.485C167.671 168.485 168.485 167.67 168.485 166.666C168.485 165.662 167.671 164.848 166.667 164.848C165.662 164.848 164.848 165.662 164.848 166.666C164.848 167.67 165.662 168.485 166.667 168.485Z" fill="#1B1B1B"/>
<path d="M172.727 168.485C173.731 168.485 174.545 167.67 174.545 166.666C174.545 165.662 173.731 164.848 172.727 164.848C171.723 164.848 170.909 165.662 170.909 166.666C170.909 167.67 171.723 168.485 172.727 168.485Z" fill="#1B1B1B"/>
<path d="M178.788 168.485C179.792 168.485 180.606 167.67 180.606 166.666C180.606 165.662 179.792 164.848 178.788 164.848C177.784 164.848 176.97 165.662 176.97 166.666C176.97 167.67 177.784 168.485 178.788 168.485Z" fill="#1B1B1B"/>
<path d="M75.7574 174.546C76.7615 174.546 77.5756 173.732 77.5756 172.727C77.5756 171.723 76.7615 170.909 75.7574 170.909C74.7532 170.909 73.9392 171.723 73.9392 172.727C73.9392 173.732 74.7532 174.546 75.7574 174.546Z" fill="#1B1B1B"/>
<path d="M87.8787 174.546C88.8829 174.546 89.6969 173.732 89.6969 172.727C89.6969 171.723 88.8829 170.909 87.8787 170.909C86.8746 170.909 86.0605 171.723 86.0605 172.727C86.0605 173.732 86.8746 174.546 87.8787 174.546Z" fill="#1B1B1B"/>
<path d="M93.9393 174.546C94.9434 174.546 95.7575 173.732 95.7575 172.727C95.7575 171.723 94.9434 170.909 93.9393 170.909C92.9351 170.909 92.1211 171.723 92.1211 172.727C92.1211 173.732 92.9351 174.546 93.9393 174.546Z" fill="#1B1B1B"/>
<path d="M118.182 174.546C119.186 174.546 120 173.732 120 172.727C120 171.723 119.186 170.909 118.182 170.909C117.178 170.909 116.364 171.723 116.364 172.727C116.364 173.732 117.178 174.546 118.182 174.546Z" fill="#1B1B1B"/>
<path d="M130.303 174.546C131.307 174.546 132.121 173.732 132.121 172.727C132.121 171.723 131.307 170.909 130.303 170.909C129.299 170.909 128.485 171.723 128.485 172.727C128.485 173.732 129.299 174.546 130.303 174.546Z" fill="#1B1B1B"/>
<path d="M136.364 174.546C137.368 174.546 138.182 173.732 138.182 172.727C138.182 171.723 137.368 170.909 136.364 170.909C135.359 170.909 134.545 171.723 134.545 172.727C134.545 173.732 135.359 174.546 136.364 174.546Z" fill="#1B1B1B"/>
<path d="M142.424 174.546C143.428 174.546 144.242 173.732 144.242 172.727C144.242 171.723 143.428 170.909 142.424 170.909C141.42 170.909 140.606 171.723 140.606 172.727C140.606 173.732 141.42 174.546 142.424 174.546Z" fill="#1B1B1B"/>
<path d="M166.667 174.546C167.671 174.546 168.485 173.732 168.485 172.727C168.485 171.723 167.671 170.909 166.667 170.909C165.662 170.909 164.848 171.723 164.848 172.727C164.848 173.732 165.662 174.546 166.667 174.546Z" fill="#1B1B1B"/>
<path d="M172.727 174.546C173.731 174.546 174.545 173.732 174.545 172.727C174.545 171.723 173.731 170.909 172.727 170.909C171.723 170.909 170.909 171.723 170.909 172.727C170.909 173.732 171.723 174.546 172.727 174.546Z" fill="#1B1B1B"/>
<path d="M178.788 174.546C179.792 174.546 180.606 173.732 180.606 172.727C180.606 171.723 179.792 170.909 178.788 170.909C177.784 170.909 176.97 171.723 176.97 172.727C176.97 173.732 177.784 174.546 178.788 174.546Z" fill="#1B1B1B"/>
<path d="M184.848 174.546C185.853 174.546 186.667 173.732 186.667 172.727C186.667 171.723 185.853 170.909 184.848 170.909C183.844 170.909 183.03 171.723 183.03 172.727C183.03 173.732 183.844 174.546 184.848 174.546Z" fill="#1B1B1B"/>
<path d="M69.6968 180.606C70.701 180.606 71.515 179.792 71.515 178.788C71.515 177.784 70.701 176.97 69.6968 176.97C68.6927 176.97 67.8787 177.784 67.8787 178.788C67.8787 179.792 68.6927 180.606 69.6968 180.606Z" fill="#1B1B1B"/>
<path d="M75.7574 180.606C76.7615 180.606 77.5756 179.792 77.5756 178.788C77.5756 177.784 76.7615 176.97 75.7574 176.97C74.7532 176.97 73.9392 177.784 73.9392 178.788C73.9392 179.792 74.7532 180.606 75.7574 180.606Z" fill="#1B1B1B"/>
<path d="M81.8182 180.606C82.8223 180.606 83.6364 179.792 83.6364 178.788C83.6364 177.784 82.8223 176.97 81.8182 176.97C80.814 176.97 80 177.784 80 178.788C80 179.792 80.814 180.606 81.8182 180.606Z" fill="#1B1B1B"/>
<path d="M87.8787 180.606C88.8829 180.606 89.6969 179.792 89.6969 178.788C89.6969 177.784 88.8829 176.97 87.8787 176.97C86.8746 176.97 86.0605 177.784 86.0605 178.788C86.0605 179.792 86.8746 180.606 87.8787 180.606Z" fill="#1B1B1B"/>
<path d="M93.9393 180.606C94.9434 180.606 95.7575 179.792 95.7575 178.788C95.7575 177.784 94.9434 176.97 93.9393 176.97C92.9351 176.97 92.1211 177.784 92.1211 178.788C92.1211 179.792 92.9351 180.606 93.9393 180.606Z" fill="#1B1B1B"/>
<path d="M124.242 180.606C125.246 180.606 126.06 179.792 126.06 178.788C126.06 177.784 125.246 176.97 124.242 176.97C123.238 176.97 122.424 177.784 122.424 178.788C122.424 179.792 123.238 180.606 124.242 180.606Z" fill="#1B1B1B"/>
<path d="M136.364 180.606C137.368 180.606 138.182 179.792 138.182 178.788C138.182 177.784 137.368 176.97 136.364 176.97C135.359 176.97 134.545 177.784 134.545 178.788C134.545 179.792 135.359 180.606 136.364 180.606Z" fill="#1B1B1B"/>
<path d="M148.485 180.606C149.489 180.606 150.303 179.792 150.303 178.788C150.303 177.784 149.489 176.97 148.485 176.97C147.481 176.97 146.667 177.784 146.667 178.788C146.667 179.792 147.481 180.606 148.485 180.606Z" fill="#1B1B1B"/>
<path d="M154.545 180.606C155.549 180.606 156.363 179.792 156.363 178.788C156.363 177.784 155.549 176.97 154.545 176.97C153.541 176.97 152.727 177.784 152.727 178.788C152.727 179.792 153.541 180.606 154.545 180.606Z" fill="#1B1B1B"/>
<path d="M166.667 180.606C167.671 180.606 168.485 179.792 168.485 178.788C168.485 177.784 167.671 176.97 166.667 176.97C165.662 176.97 164.848 177.784 164.848 178.788C164.848 179.792 165.662 180.606 166.667 180.606Z" fill="#1B1B1B"/>
<path d="M178.788 180.606C179.792 180.606 180.606 179.792 180.606 178.788C180.606 177.784 179.792 176.97 178.788 176.97C177.784 176.97 176.97 177.784 176.97 178.788C176.97 179.792 177.784 180.606 178.788 180.606Z" fill="#1B1B1B"/>
<path d="M184.848 180.606C185.853 180.606 186.667 179.792 186.667 178.788C186.667 177.784 185.853 176.97 184.848 176.97C183.844 176.97 183.03 177.784 183.03 178.788C183.03 179.792 183.844 180.606 184.848 180.606Z" fill="#1B1B1B"/>
<path d="M81.8182 186.667C82.8223 186.667 83.6364 185.853 83.6364 184.848C83.6364 183.844 82.8223 183.03 81.8182 183.03C80.814 183.03 80 183.844 80 184.848C80 185.853 80.814 186.667 81.8182 186.667Z" fill="#1B1B1B"/>
<path d="M99.9998 186.667C101.004 186.667 101.818 185.853 101.818 184.848C101.818 183.844 101.004 183.03 99.9998 183.03C98.9957 183.03 98.1816 183.844 98.1816 184.848C98.1816 185.853 98.9957 186.667 99.9998 186.667Z" fill="#1B1B1B"/>
<path d="M124.242 186.667C125.246 186.667 126.06 185.853 126.06 184.848C126.06 183.844 125.246 183.03 124.242 183.03C123.238 183.03 122.424 183.844 122.424 184.848C122.424 185.853 123.238 186.667 124.242 186.667Z" fill="#1B1B1B"/>
<path d="M136.364 186.667C137.368 186.667 138.182 185.853 138.182 184.848C138.182 183.844 137.368 183.03 136.364 183.03C135.359 183.03 134.545 183.844 134.545 184.848C134.545 185.853 135.359 186.667 136.364 186.667Z" fill="#1B1B1B"/>
<path d="M142.424 186.667C143.428 186.667 144.242 185.853 144.242 184.848C144.242 183.844 143.428 183.03 142.424 183.03C141.42 183.03 140.606 183.844 140.606 184.848C140.606 185.853 141.42 186.667 142.424 186.667Z" fill="#1B1B1B"/>
<path d="M160.606 186.667C161.61 186.667 162.424 185.853 162.424 184.848C162.424 183.844 161.61 183.03 160.606 183.03C159.602 183.03 158.788 183.844 158.788 184.848C158.788 185.853 159.602 186.667 160.606 186.667Z" fill="#1B1B1B"/>
<path d="M166.667 186.667C167.671 186.667 168.485 185.853 168.485 184.848C168.485 183.844 167.671 183.03 166.667 183.03C165.662 183.03 164.848 183.844 164.848 184.848C164.848 185.853 165.662 186.667 166.667 186.667Z" fill="#1B1B1B"/>
<path d="M178.788 186.667C179.792 186.667 180.606 185.853 180.606 184.848C180.606 183.844 179.792 183.03 178.788 183.03C177.784 183.03 176.97 183.844 176.97 184.848C176.97 185.853 177.784 186.667 178.788 186.667Z" fill="#1B1B1B"/>
<path d="M12.1212 40.2149V26.4393C12.1212 18.5445 18.6206 12.1211 26.6052 12.1211H40.0618C48.046 12.1211 54.5454 18.5445 54.5454 26.4393V54.5453L26.6052 54.5369C18.6206 54.5369 12.1212 48.1138 12.1212 40.2149ZM18.4848 40.2149C18.4848 44.6032 22.1273 48.1736 26.6069 48.1736L48.1818 48.18V26.4393C48.1818 22.053 44.5392 18.4847 40.0618 18.4847H26.6052C22.1273 18.4847 18.4848 22.053 18.4848 26.4393V40.2149Z" fill="#1B1B1B"/>
<path d="M187.879 40.2149V26.4393C187.879 18.5445 181.379 12.1211 173.395 12.1211H159.938C151.954 12.1211 145.454 18.5445 145.454 26.4393V54.5453L173.395 54.5369C181.379 54.5369 187.879 48.1138 187.879 40.2149ZM181.515 40.2149C181.515 44.6032 177.872 48.1736 173.393 48.1736L151.818 48.18V26.4393C151.818 22.053 155.461 18.4847 159.938 18.4847H173.395C177.872 18.4847 181.515 22.053 181.515 26.4393V40.2149Z" fill="#1B1B1B"/>
<path d="M12.1212 159.785V173.561C12.1212 181.455 18.6206 187.879 26.6052 187.879H40.0618C48.046 187.879 54.5454 181.455 54.5454 173.561V145.455L26.6052 145.463C18.6206 145.463 12.1212 151.886 12.1212 159.785ZM18.4848 159.785C18.4848 155.397 22.1273 151.826 26.6069 151.826L48.1818 151.82V173.561C48.1818 177.947 44.5392 181.515 40.0618 181.515H26.6052C22.1273 181.515 18.4848 177.947 18.4848 173.561V159.785Z" fill="#1B1B1B"/>
<path d="M29.2152 42.424C26.4716 42.424 24.2397 40.2364 24.2397 37.5498V29.1138C24.2397 28.2746 24.4579 27.4847 24.8399 26.7936C25.2088 26.1286 25.731 25.5569 26.3599 25.1256C27.1677 24.5696 28.1525 24.2422 29.2125 24.2422H37.4537C40.1948 24.2422 42.4267 26.4273 42.4267 29.1136V37.5496C42.4267 40.236 40.195 42.4238 37.4537 42.4238H33.3332H29.2152V42.424Z" fill="#1B1B1B"/>
<path d="M162.548 42.424C159.805 42.424 157.573 40.2364 157.573 37.5498V29.1138C157.573 28.2746 157.791 27.4847 158.173 26.7936C158.542 26.1286 159.064 25.5569 159.693 25.1256C160.501 24.5696 161.486 24.2422 162.546 24.2422H170.787C173.528 24.2422 175.76 26.4273 175.76 29.1136V37.5496C175.76 40.236 173.528 42.4238 170.787 42.4238H166.666H162.548V42.424Z" fill="#1B1B1B"/>
<path d="M29.2152 175.758C26.4716 175.758 24.2397 173.57 24.2397 170.883V162.447C24.2397 161.608 24.4579 160.818 24.8399 160.127C25.2088 159.462 25.731 158.89 26.3599 158.459C27.1677 157.903 28.1525 157.576 29.2125 157.576H37.4537C40.1948 157.576 42.4267 159.761 42.4267 162.447V170.883C42.4267 173.57 40.195 175.757 37.4537 175.757H33.3332H29.2152V175.758Z" fill="#1B1B1B"/>
<g clip-path="url(#clip0_196_10483)">
<path d="M99.9562 127.185C114.994 127.185 127.185 114.994 127.185 99.9562C127.185 84.9179 114.994 72.7271 99.9562 72.7271C84.9179 72.7271 72.7271 84.9179 72.7271 99.9562C72.7271 114.994 84.9179 127.185 99.9562 127.185Z" fill="white"/>
<path d="M107.828 89.6974C107.294 89.302 106.627 88.9065 106.36 88.7747C104.424 87.7201 102.221 87.127 100.018 87.127C95.6797 87.127 91.6746 89.236 89.2716 92.7951C85.5336 98.3974 86.8019 105.845 92.1419 109.866C92.4757 110.129 93.0764 110.525 93.6772 110.854C93.8774 110.986 94.1444 111.118 94.3447 111.184C96.0802 112.041 98.016 112.436 99.9517 112.436C104.291 112.436 108.296 110.327 110.699 106.768C114.503 101.231 113.168 93.7179 107.828 89.6974ZM108.896 92.9929C109.898 94.2451 110.565 95.6292 110.966 97.1451C110.231 97.0792 109.497 96.9474 108.83 96.8156C108.963 95.2997 108.963 94.0474 108.896 92.9929ZM106.961 91.0815C107.161 91.8065 107.495 93.8497 107.228 96.3542C106.16 96.0247 105.158 95.5633 104.291 95.036L106.961 91.0815ZM98.8837 100.243L96.8145 103.341C95.613 102.616 94.4114 102.088 93.3434 101.693C93.6772 100.177 94.1444 98.7929 94.8787 97.5406L98.8837 100.243ZM95.6797 96.2224C96.681 94.9042 97.8157 93.8497 99.0173 93.0588C99.8182 93.9156 100.819 94.7724 101.954 95.5633L99.7515 98.8588L95.6797 96.2224ZM100.219 101.1L104.291 103.736C103.356 104.856 102.288 105.845 100.953 106.702C100.085 105.713 99.084 104.856 98.1495 104.132L100.219 101.1ZM101.153 99.7815L103.423 96.4201C104.491 97.0133 105.692 97.5406 107.027 97.936C106.694 99.3861 106.16 100.968 105.292 102.418L101.153 99.7815ZM102.889 94.1792C101.954 93.5201 101.153 92.7951 100.486 92.1361C102.689 90.8838 104.758 90.4224 105.559 90.2247L102.889 94.1792ZM100.018 88.7088C101.087 88.7088 102.221 88.8406 103.223 89.1701C102.155 89.4997 100.753 90.0929 99.351 90.8838C98.6835 90.0269 98.2162 89.302 97.9492 88.9065C98.6167 88.7747 99.351 88.7088 100.018 88.7088ZM96.3472 89.302C96.5475 89.6315 97.0815 90.6201 98.016 91.7406C96.7477 92.6633 95.4794 93.7838 94.4114 95.2338C94.4114 95.2338 94.4114 95.2338 94.4114 95.2997L91.0739 93.1247C92.4089 91.3451 94.2112 90.0269 96.3472 89.302ZM91.4076 106.9C90.2729 105.582 89.5387 104 89.1382 102.352C89.6721 102.418 90.4732 102.55 91.4744 102.813C91.3409 104.132 91.2742 105.516 91.4076 106.9ZM88.8711 100.704C88.6709 98.5951 89.1381 96.4201 90.2062 94.5088L93.4769 96.6838C92.6759 98.0679 92.0751 99.5838 91.7414 101.231C90.4064 100.902 89.3384 100.77 88.8711 100.704ZM93.0764 103.341C93.9442 103.67 94.8787 104.131 95.8799 104.659L93.2767 108.547C92.9429 106.702 92.8762 104.988 93.0764 103.341ZM97.215 105.582C98.016 106.175 98.817 106.834 99.5512 107.625C98.0827 108.416 96.4807 109.009 94.6117 109.47L97.215 105.582ZM100.018 110.92C98.9505 110.92 97.8825 110.788 96.8812 110.459C98.2162 109.997 99.4177 109.47 100.553 108.877C100.953 109.47 101.42 110.063 101.754 110.722C101.22 110.854 100.619 110.92 100.018 110.92ZM103.423 110.393C102.956 109.536 102.488 108.745 101.954 108.02C103.356 107.032 104.624 105.911 105.626 104.659L108.763 106.768C107.428 108.481 105.559 109.734 103.423 110.393ZM109.697 105.45L106.56 103.341C106.56 103.341 106.56 103.341 106.56 103.275C107.561 101.627 108.162 99.9133 108.496 98.3315C109.364 98.5292 110.231 98.661 111.166 98.7269C111.433 101.034 110.966 103.341 109.697 105.45Z" fill="#555050"/>
</g>
<path d="M43.4252 229.12C42.3852 229.12 41.3852 228.953 40.4252 228.62C39.4785 228.287 38.7452 227.847 38.2252 227.3L38.8052 226.16C39.3118 226.667 39.9852 227.08 40.8252 227.4C41.6652 227.707 42.5318 227.86 43.4252 227.86C44.6785 227.86 45.6185 227.633 46.2452 227.18C46.8718 226.713 47.1852 226.113 47.1852 225.38C47.1852 224.82 47.0118 224.373 46.6652 224.04C46.3318 223.707 45.9185 223.453 45.4252 223.28C44.9318 223.093 44.2452 222.893 43.3652 222.68C42.3118 222.413 41.4718 222.16 40.8452 221.92C40.2185 221.667 39.6785 221.287 39.2252 220.78C38.7852 220.273 38.5652 219.587 38.5652 218.72C38.5652 218.013 38.7518 217.373 39.1252 216.8C39.4985 216.213 40.0718 215.747 40.8452 215.4C41.6185 215.053 42.5785 214.88 43.7252 214.88C44.5252 214.88 45.3052 214.993 46.0652 215.22C46.8385 215.433 47.5052 215.733 48.0652 216.12L47.5652 217.3C46.9785 216.913 46.3518 216.627 45.6852 216.44C45.0185 216.24 44.3652 216.14 43.7252 216.14C42.4985 216.14 41.5718 216.38 40.9452 216.86C40.3318 217.327 40.0252 217.933 40.0252 218.68C40.0252 219.24 40.1918 219.693 40.5252 220.04C40.8718 220.373 41.2985 220.633 41.8052 220.82C42.3252 220.993 43.0185 221.187 43.8852 221.4C44.9118 221.653 45.7385 221.907 46.3652 222.16C47.0052 222.4 47.5452 222.773 47.9852 223.28C48.4252 223.773 48.6452 224.447 48.6452 225.3C48.6452 226.007 48.4518 226.653 48.0652 227.24C47.6918 227.813 47.1118 228.273 46.3252 228.62C45.5385 228.953 44.5718 229.12 43.4252 229.12ZM51.5698 218.48H52.9898V229H51.5698V218.48ZM52.2898 216.18C51.9965 216.18 51.7498 216.08 51.5498 215.88C51.3498 215.68 51.2498 215.44 51.2498 215.16C51.2498 214.893 51.3498 214.66 51.5498 214.46C51.7498 214.26 51.9965 214.16 52.2898 214.16C52.5832 214.16 52.8298 214.26 53.0298 214.46C53.2298 214.647 53.3298 214.873 53.3298 215.14C53.3298 215.433 53.2298 215.68 53.0298 215.88C52.8298 216.08 52.5832 216.18 52.2898 216.18ZM62.4809 228.36C62.2143 228.6 61.8809 228.787 61.4809 228.92C61.0943 229.04 60.6876 229.1 60.2609 229.1C59.2743 229.1 58.5143 228.833 57.9809 228.3C57.4476 227.767 57.1809 227.013 57.1809 226.04V219.68H55.3009V218.48H57.1809V216.18H58.6009V218.48H61.8009V219.68H58.6009V225.96C58.6009 226.587 58.7543 227.067 59.0609 227.4C59.3809 227.72 59.8343 227.88 60.4209 227.88C60.7143 227.88 60.9943 227.833 61.2609 227.74C61.5409 227.647 61.7809 227.513 61.9809 227.34L62.4809 228.36ZM73.8548 224.18H65.0548C65.1348 225.273 65.5548 226.16 66.3148 226.84C67.0748 227.507 68.0348 227.84 69.1948 227.84C69.8482 227.84 70.4482 227.727 70.9948 227.5C71.5415 227.26 72.0148 226.913 72.4148 226.46L73.2148 227.38C72.7482 227.94 72.1615 228.367 71.4548 228.66C70.7615 228.953 69.9948 229.1 69.1548 229.1C68.0748 229.1 67.1148 228.873 66.2748 228.42C65.4482 227.953 64.8015 227.313 64.3348 226.5C63.8682 225.687 63.6348 224.767 63.6348 223.74C63.6348 222.713 63.8548 221.793 64.2948 220.98C64.7482 220.167 65.3615 219.533 66.1348 219.08C66.9215 218.627 67.8015 218.4 68.7748 218.4C69.7482 218.4 70.6215 218.627 71.3948 219.08C72.1682 219.533 72.7748 220.167 73.2148 220.98C73.6548 221.78 73.8748 222.7 73.8748 223.74L73.8548 224.18ZM68.7748 219.62C67.7615 219.62 66.9082 219.947 66.2148 220.6C65.5348 221.24 65.1482 222.08 65.0548 223.12H72.5148C72.4215 222.08 72.0282 221.24 71.3348 220.6C70.6548 219.947 69.8015 219.62 68.7748 219.62ZM104.165 225.26H96.3655L94.6855 229H93.1455L99.5455 215H101.005L107.405 229H105.845L104.165 225.26ZM103.625 224.06L100.265 216.54L96.9055 224.06H103.625ZM109.721 215H115.421C116.901 215 118.208 215.3 119.341 215.9C120.475 216.487 121.355 217.313 121.981 218.38C122.608 219.433 122.921 220.64 122.921 222C122.921 223.36 122.608 224.573 121.981 225.64C121.355 226.693 120.475 227.52 119.341 228.12C118.208 228.707 116.901 229 115.421 229H109.721V215ZM115.341 227.72C116.568 227.72 117.641 227.48 118.561 227C119.481 226.507 120.195 225.833 120.701 224.98C121.208 224.113 121.461 223.12 121.461 222C121.461 220.88 121.208 219.893 120.701 219.04C120.195 218.173 119.481 217.5 118.561 217.02C117.641 216.527 116.568 216.28 115.341 216.28H111.201V227.72H115.341ZM132.325 229.12C130.938 229.12 129.685 228.813 128.565 228.2C127.458 227.587 126.585 226.74 125.945 225.66C125.318 224.567 125.005 223.347 125.005 222C125.005 220.653 125.318 219.44 125.945 218.36C126.585 217.267 127.465 216.413 128.585 215.8C129.705 215.187 130.958 214.88 132.345 214.88C133.385 214.88 134.345 215.053 135.225 215.4C136.105 215.747 136.852 216.253 137.465 216.92L136.525 217.86C135.432 216.753 134.052 216.2 132.385 216.2C131.278 216.2 130.272 216.453 129.365 216.96C128.458 217.467 127.745 218.16 127.225 219.04C126.718 219.92 126.465 220.907 126.465 222C126.465 223.093 126.718 224.08 127.225 224.96C127.745 225.84 128.458 226.533 129.365 227.04C130.272 227.547 131.278 227.8 132.385 227.8C134.065 227.8 135.445 227.24 136.525 226.12L137.465 227.06C136.852 227.727 136.098 228.24 135.205 228.6C134.325 228.947 133.365 229.12 132.325 229.12ZM143.844 218.4C145.217 218.4 146.27 218.747 147.004 219.44C147.737 220.12 148.104 221.133 148.104 222.48V229H146.744V227.36C146.424 227.907 145.95 228.333 145.324 228.64C144.71 228.947 143.977 229.1 143.124 229.1C141.95 229.1 141.017 228.82 140.324 228.26C139.63 227.7 139.284 226.96 139.284 226.04C139.284 225.147 139.604 224.427 140.244 223.88C140.897 223.333 141.93 223.06 143.344 223.06H146.684V222.42C146.684 221.513 146.43 220.827 145.924 220.36C145.417 219.88 144.677 219.64 143.704 219.64C143.037 219.64 142.397 219.753 141.784 219.98C141.17 220.193 140.644 220.493 140.204 220.88L139.564 219.82C140.097 219.367 140.737 219.02 141.484 218.78C142.23 218.527 143.017 218.4 143.844 218.4ZM143.344 227.98C144.144 227.98 144.83 227.8 145.404 227.44C145.977 227.067 146.404 226.533 146.684 225.84V224.12H143.384C141.584 224.12 140.684 224.747 140.684 226C140.684 226.613 140.917 227.1 141.384 227.46C141.85 227.807 142.504 227.98 143.344 227.98ZM153.32 220.54C153.654 219.833 154.147 219.3 154.8 218.94C155.467 218.58 156.287 218.4 157.26 218.4V219.78L156.92 219.76C155.814 219.76 154.947 220.1 154.32 220.78C153.694 221.46 153.38 222.413 153.38 223.64V229H151.96V218.48H153.32V220.54ZM162.73 229.1C161.876 229.1 161.056 228.98 160.27 228.74C159.496 228.487 158.89 228.173 158.45 227.8L159.09 226.68C159.53 227.027 160.083 227.313 160.75 227.54C161.416 227.753 162.11 227.86 162.83 227.86C163.79 227.86 164.496 227.713 164.95 227.42C165.416 227.113 165.65 226.687 165.65 226.14C165.65 225.753 165.523 225.453 165.27 225.24C165.016 225.013 164.696 224.847 164.31 224.74C163.923 224.62 163.41 224.507 162.77 224.4C161.916 224.24 161.23 224.08 160.71 223.92C160.19 223.747 159.743 223.46 159.37 223.06C159.01 222.66 158.83 222.107 158.83 221.4C158.83 220.52 159.196 219.8 159.93 219.24C160.663 218.68 161.683 218.4 162.99 218.4C163.67 218.4 164.35 218.493 165.03 218.68C165.71 218.853 166.27 219.087 166.71 219.38L166.09 220.52C165.223 219.92 164.19 219.62 162.99 219.62C162.083 219.62 161.396 219.78 160.93 220.1C160.476 220.42 160.25 220.84 160.25 221.36C160.25 221.76 160.376 222.08 160.63 222.32C160.896 222.56 161.223 222.74 161.61 222.86C161.996 222.967 162.53 223.08 163.21 223.2C164.05 223.36 164.723 223.52 165.23 223.68C165.736 223.84 166.17 224.113 166.53 224.5C166.89 224.887 167.07 225.42 167.07 226.1C167.07 227.02 166.683 227.753 165.91 228.3C165.15 228.833 164.09 229.1 162.73 229.1Z" fill="#4F4F4F"/>
<path d="M85.0013 224.204C86.3213 224.204 87.3773 223.148 87.3773 221.828C87.3773 220.508 86.3213 219.452 85.0013 219.452C83.6813 219.452 82.6253 220.508 82.6253 221.828C82.6253 223.148 83.6813 224.204 85.0013 224.204Z" fill="#4F4F4F"/>
<defs>
<clipPath id="clip0_196_10483">
<rect width="54.5455" height="54.5455" fill="white" transform="translate(72.7271 72.7271)"/>
</clipPath>
</defs>
</svg>
