<svg width="40" height="30" viewBox="0 0 40 30" fill="none" xmlns="http://www.w3.org/2000/svg">
<path d="M16.8303 11.9033C16.8303 9.68223 15.9514 7.59072 14.3619 6.01746C12.7723 4.4442 10.6592 3.57428 8.41515 3.57428C6.17111 3.57428 4.05797 4.4442 2.46844 6.01746C0.878915 7.59072 0 9.68223 0 11.9033C0 14.1244 0.841515 16.2159 2.43104 17.7891C3.53436 18.8812 5.741 19.6215 7.19963 19.9917V28.3763C7.19963 29.2277 7.19963 29.894 8.20944 29.894H8.65825C9.64937 29.894 9.72417 29.2092 9.72417 28.3763V19.9917C11.1828 19.64 13.3146 18.8812 14.418 17.7891C15.9888 16.2159 16.8303 14.1244 16.8303 11.9033ZM11.669 15.1424C10.8088 15.9938 9.64937 16.475 8.41515 16.475C7.18093 16.475 6.02151 15.9938 5.14259 15.1424C4.26367 14.2724 3.79617 13.1249 3.79617 11.9033C3.79617 10.6817 4.28238 9.53416 5.14259 8.66424C6.02151 7.79432 7.18093 7.33159 8.41515 7.33159C9.64937 7.33159 10.8088 7.81283 11.6877 8.66424C12.5666 9.53416 13.0341 10.6817 13.0341 11.9033C13.0341 13.1249 12.5479 14.2724 11.669 15.1424ZM40 20.0287L39.8317 12.9213C39.8317 11.2 39.0089 9.38609 37.8495 8.73827C37.4568 8.3866 36.7835 7.7573 35.9794 7.59072C34.9883 7.38712 34.072 6.0915 34.072 6.0915C32.9313 3.07454 30.3319 0.723905 30.3319 0.723905C21.8981 -0.904881 13.6138 0.723905 13.6138 0.723905C12.9406 1.03856 12.0804 2.14909 11.3698 3.24112C11.6503 3.33366 11.9308 3.44472 12.1926 3.55577L13.5577 1.18663C23.0014 -0.331104 30.5002 1.18663 30.5002 1.18663L33.137 5.6843C26.7789 6.7208 19.972 6.49869 15.5961 6.16553C16.9238 7.77581 17.6344 9.77477 17.6344 11.8848C17.6344 12.7732 17.5035 13.6431 17.2604 14.476C18.6442 14.291 20.1964 14.1984 21.8233 14.1984C27.9383 14.1984 32.9126 15.6051 32.9126 17.3449C32.9126 19.0848 27.957 20.4914 21.8233 20.4914C18.5507 20.4914 15.5961 20.0842 13.5764 19.4549C12.8658 19.9362 12.1365 20.3249 11.2576 20.584V23.3973C14.1748 23.9156 18.1019 24.4524 21.655 24.4524C28.4806 24.4524 36.9331 22.4719 36.9331 22.4719C38.5227 22.4719 40 22.1758 40 20.0287ZM33.7541 14.1614C33.7541 14.1614 33.4549 14.4575 31.5475 13.6616C31.5475 13.6616 32.763 11.6627 38.4479 10.1079C38.4479 10.1079 39.2894 11.385 38.7845 12.7177C38.7845 12.7177 38.0178 13.5506 37.5316 13.6616C37.5316 13.6616 37.756 13.9208 36.3534 13.6616L33.7541 14.1614ZM34.4086 23.5824C34.9322 24.2488 35.755 24.693 36.6713 24.693H36.8396C38.2609 24.693 39.439 23.6565 39.6634 22.3053C38.8406 23.0087 37.6251 23.0272 36.9893 23.0272C36.7461 23.1012 35.7924 23.3233 34.4086 23.5824Z" fill="#3C393A"/>
</svg>
