<svg>
	<symbol id="facebook" viewBox="0 0 93 94" fill="none" xmlns="http://www.w3.org/2000/svg">
		<path d="M93 45.7443V47.656C93 70.9061 75.2037 90.1077 52.212 92.8628C50.3463 93.0878 48.4231 93.2002 46.5 93.2002C44.0315 93.2002 41.6204 93.0034 39.2379 92.6379C16.9926 89.2362 0 70.3719 0 47.656V45.7443C0 20.5826 20.8102 0.200195 46.5 0.200195C59.3306 0.200195 70.9556 5.28874 79.3657 13.526C87.8046 21.7915 93 33.1775 93 45.7443Z" fill="url(#paint0_linear_109_168)" />
		<path d="M52.2409 45.3508V52.5479H63.4066L61.5983 64.5243H52.2121V92.8066C50.3464 93.0315 48.4233 93.144 46.5001 93.144C44.0316 93.144 41.6205 92.9472 39.2381 92.5817V64.4962H28.5603L28.7612 52.5198H39.2381V42.1458C39.2381 34.4708 46.2992 25.3901 63.4066 29.1573V39.222L58.2112 39.3063C54.6233 39.4469 52.2409 41.8366 52.2409 45.3508Z" fill="white" />
		<defs>
			<linearGradient id="paint0_linear_109_168" x1="46.503" y1="0.319229" x2="46.503" y2="97.8092" gradientUnits="userSpaceOnUse">
				<stop stop-color="#0FACFF" />
				<stop offset="0.3681" stop-color="#088AF0" />
				<stop offset="0.7739" stop-color="#026BE2" />
				<stop offset="1" stop-color="#005FDD" />
			</linearGradient>
		</defs>
	</symbol>
	<symbol id="google" viewBox="0 0 93 93" fill="none" xmlns="http://www.w3.org/2000/svg">
		<path d="M92.4999 46.5C92.4999 71.905 71.9052 92.5 46.5001 92.5C21.0951 92.5 0.5 71.905 0.5 46.5C0.5 21.0949 21.0951 0.5 46.5001 0.5C71.9052 0.5 92.4999 21.0949 92.4999 46.5Z" fill="white" stroke="#E0E0E0" />
		<path d="M66.6499 46.9741C66.6499 45.292 66.5003 44.1218 66.2012 42.8784H46.9109V50.3385H58.2757C58.0514 52.1669 56.7803 55.0193 54.0887 56.8478L54.0138 57.0671L60.1449 61.6749L60.5936 61.748C64.4068 58.3105 66.6499 53.1177 66.6499 46.9741Z" fill="#3283FC" />
		<path d="M46.8363 66.6499C52.3691 66.6499 57.0793 64.8946 60.4438 61.7496L53.9393 56.8494C52.2196 58.0196 49.9018 58.8972 46.8363 58.8972C41.3783 58.8972 36.7425 55.3867 35.0976 50.5596H34.8733L28.518 55.3867L28.4434 55.606C31.8827 62.1153 38.8362 66.6499 46.8363 66.6499Z" fill="#00AC47" />
		<path d="M35.1727 50.4857C34.7241 49.2423 34.4997 47.9259 34.4997 46.5363C34.4997 45.1467 34.7241 43.8302 35.1727 42.5868V42.2943L28.7426 37.394L28.5183 37.4672C27.0977 40.1733 26.3501 43.2451 26.3501 46.5363C26.3501 49.8275 27.1725 52.8261 28.5183 55.6053L35.1727 50.4857Z" fill="#FFBB00" />
		<path d="M46.8363 34.1759C50.7243 34.1759 53.3408 35.7849 54.7614 37.1746L60.5935 31.6161C57.0047 28.398 52.3691 26.3501 46.8363 26.3501C38.7614 26.3501 31.8079 30.8847 28.4434 37.4671L35.0976 42.5137C36.8173 37.6866 41.453 34.1759 46.8363 34.1759Z" fill="#FE2C25" />
	</symbol>
	<symbol id="instagram" viewBox="0 0 93 93" fill="none" xmlns="http://www.w3.org/2000/svg">
		<path d="M46.5 93C20.8102 93 0 72.6176 0 47.4559V45.5441C0 20.3824 20.8102 0 46.5 0C72.1898 0 93 20.3824 93 45.5441V47.4559C93 72.6176 72.1898 93 46.5 93Z" fill="url(#paint0_linear_221_17219)" />
		<path d="M46.5 93C20.8102 93 0 72.6176 0 47.4559V45.5441C0 20.3824 20.8102 0 46.5 0C72.1898 0 93 20.3824 93 45.5441V47.4559C93 72.6176 72.1898 93 46.5 93Z" fill="url(#paint1_radial_221_17219)" fill-opacity="0.66" />
		<path d="M46.5 93C20.8102 93 0 72.6176 0 47.4559V45.5441C0 20.3824 20.8102 0 46.5 0C72.1898 0 93 20.3824 93 45.5441V47.4559C93 72.6176 72.1898 93 46.5 93Z" fill="url(#paint2_radial_221_17219)" fill-opacity="0.5" />
		<path d="M58.9691 19.7095H34.0307C26.3453 19.7095 20.1499 25.9833 20.1499 33.5903V58.5287C20.1499 66.2141 26.4237 72.4095 34.0307 72.4095H58.9691C66.6545 72.4095 72.8499 66.1357 72.8499 58.5287V33.5903C72.9283 25.9833 66.6545 19.7095 58.9691 19.7095ZM68.0662 58.5287C68.0662 63.5477 63.9882 67.6257 58.9691 67.6257H34.0307C29.0117 67.6257 24.9337 63.5477 24.9337 58.5287V33.5903C24.9337 28.5712 29.0117 24.4932 34.0307 24.4932H58.9691C63.9882 24.4932 68.0662 28.5712 68.0662 33.5903V58.5287Z" fill="white" />
		<path d="M46.5003 31.7085C38.5796 31.7085 32.1489 38.1392 32.1489 46.0598C32.1489 53.9805 38.5796 60.4112 46.5003 60.4112C54.4209 60.4112 60.8516 53.9805 60.8516 46.0598C60.93 38.1392 54.4209 31.7085 46.5003 31.7085ZM46.5003 55.7058C41.2459 55.7058 36.9327 51.3926 36.9327 46.1383C36.9327 40.884 41.2459 36.5707 46.5003 36.5707C51.7546 36.5707 56.0678 40.884 56.0678 46.1383C56.0678 51.3926 51.833 55.7058 46.5003 55.7058Z" fill="white" />
		<path d="M60.5379 29.0435C58.891 29.0435 57.5579 30.3766 57.5579 32.0235C57.5579 33.6704 58.891 35.0036 60.5379 35.0036C62.1848 35.0036 63.518 33.6704 63.518 32.0235C63.5964 30.3766 62.1848 29.0435 60.5379 29.0435Z" fill="white" />
		<defs>
			<linearGradient id="paint0_linear_221_17219" x1="58" y1="114.5" x2="18.5727" y2="-24.5206" gradientUnits="userSpaceOnUse">
				<stop stop-color="#F58529" />
				<stop offset="0.497127" stop-color="#FF0073" />
				<stop offset="0.606491" stop-color="#D32378" />
				<stop offset="0.721828" stop-color="#822DC5" />
				<stop offset="0.833333" stop-color="#343EBE" />
				<stop offset="0.8704" stop-color="#515BD4" />
			</linearGradient>
			<radialGradient id="paint1_radial_221_17219" cx="0" cy="0" r="1" gradientUnits="userSpaceOnUse" gradientTransform="translate(31.2439 92.6341) rotate(-63.4349) scale(90.6221 121.279)">
				<stop offset="0.105827" stop-color="#FFE600" />
				<stop offset="0.408312" stop-color="#FF7300" />
				<stop offset="0.609375" stop-color="#FF2E2E" stop-opacity="0" />
			</radialGradient>
			<radialGradient id="paint2_radial_221_17219" cx="0" cy="0" r="1" gradientUnits="userSpaceOnUse" gradientTransform="translate(27.9 91.0095) rotate(-138.366) scale(18.6645 45.0665)">
				<stop stop-color="#FFE046" />
				<stop offset="1" stop-color="#FFE66A" stop-opacity="0" />
			</radialGradient>
		</defs>
	</symbol>
	<symbol id="telegram" viewBox="0 0 93 94" fill="none" xmlns="http://www.w3.org/2000/svg">
		<path d="M46.5 93.1001C20.8102 93.1001 0 72.7177 0 47.556V45.6442C0 20.4825 20.8102 0.100098 46.5 0.100098C72.1898 0.100098 93 20.4825 93 45.6442V47.556C93 72.7177 72.1898 93.1001 46.5 93.1001Z" fill="#1A9ADA" />
		<path d="M20.4124 49.1509C18.8068 48.6362 18.5599 46.7621 20.1416 46.1751L61.3355 30.6716C64.5311 29.4682 66.7199 31.1654 66.3 33.3526C64.3104 43.8337 62.352 54.3158 60.3624 64.7969C59.8255 67.6528 56.4074 68.9707 54.0326 67.2364C49.0388 63.6063 43.2543 59.3676 40.0578 57.0236C38.7789 56.0921 38.687 54.254 39.847 53.2241C43.0378 50.3692 49.0324 45.0127 54.1895 40.3915C54.7689 39.8919 54.0815 39.0116 53.4429 39.4175C47.0597 43.3842 39.4961 48.0742 35.188 50.7373C32.9861 52.0977 30.2903 52.4011 27.8512 51.6125L20.4124 49.1509Z" fill="white" />
	</symbol>
	<symbol id="viber" viewBox="0 0 93 94" fill="none" xmlns="http://www.w3.org/2000/svg">
		<path d="M46.5 93.5498C20.8289 93.5498 0 72.7209 0 47.0498C0 21.3787 20.8289 0.549805 46.5 0.549805C72.1711 0.549805 93 21.3787 93 47.0498C93 72.7593 72.1711 93.5498 46.5 93.5498Z" fill="url(#paint0_linear_109_171)" />
		<path d="M46.5 92.4737C21.4438 92.4737 1.1145 72.1444 1.1145 47.0882C1.1145 22.032 21.4438 1.70264 46.5 1.70264C71.5562 1.70264 91.8856 22.032 91.8856 47.0882C91.8856 72.1444 71.5562 92.4737 46.5 92.4737Z" fill="url(#paint1_linear_109_171)" />
		<path d="M46.5002 23.1861C29.7448 22.6481 22.52 29.1043 22.52 45.5523C22.52 56.5432 26.094 63.4221 34.0874 66.3428V72.1841C34.0874 74.1056 36.47 74.9895 37.7382 73.5291L42.6188 67.9184C43.8486 67.9568 45.1167 67.9952 46.4618 67.9184C63.2171 68.4564 70.442 61.1163 70.442 45.5523C70.4804 29.1043 63.2556 22.6481 46.5002 23.1861ZM62.4485 59.7328C59.5663 62.6919 54.9163 64.1523 48.2295 64.1523C47.7299 64.1523 47.1919 64.1523 46.6539 64.1138H46.5386H46.4234C46.2696 64.1138 46.1543 64.1138 46.0006 64.1138C45.6163 64.1138 45.232 64.1138 44.8477 64.1138C44.3481 64.1138 43.8486 64.1138 43.3874 64.0754L43.4642 64.1138L40.313 67.7262L36.3163 72.2994C36.1242 72.5299 35.7399 72.3762 35.7399 72.1072V66.8808V62.8841C35.1634 62.6919 34.6638 62.4614 34.1258 62.2308C28.7072 59.656 26.363 54.3142 26.363 45.5907C26.363 38.6733 27.7081 33.9465 30.5134 31.1411C33.2804 28.3742 37.8919 26.9907 44.6171 26.9907C45.1936 26.9907 45.8084 26.9907 46.3849 27.0291H46.5002H46.6155C47.2304 27.0291 47.8068 26.9907 48.3833 26.9907C55.1085 26.9907 59.72 28.3357 62.487 31.1411C65.2923 33.9465 66.6374 38.6733 66.6374 45.5907C66.6758 52.2006 65.2923 56.8122 62.4485 59.7328Z" fill="white" />
		<path d="M51.9571 44.2439C51.8419 44.3592 51.6497 44.4361 51.4576 44.4361C51.1117 44.3977 50.8427 44.0902 50.8811 43.7444C50.958 42.9373 50.6506 42.1303 50.0741 41.5539C49.4977 40.9774 48.6906 40.67 47.8836 40.7468C47.5377 40.7853 47.2303 40.5163 47.1919 40.1704C47.1535 39.8245 47.4225 39.5171 47.7683 39.4786C48.9597 39.4018 50.1125 39.8245 50.958 40.6315C51.8034 41.477 52.2262 42.6299 52.1109 43.8212C52.1493 43.9749 52.0724 44.1287 51.9571 44.2439Z" fill="white" />
		<path d="M54.9932 45.2454C54.8779 45.3607 54.6857 45.4376 54.4936 45.4376C54.1477 45.3991 53.8787 45.0917 53.9172 44.7458C54.0709 42.8244 53.3791 40.9797 52.0341 39.6347C50.689 38.2896 48.806 37.5979 46.9229 37.7516C46.577 37.7901 46.2696 37.521 46.2312 37.1752C46.1928 36.8293 46.4618 36.5219 46.8076 36.4834C49.075 36.2913 51.3039 37.1368 52.9179 38.7508C54.532 40.3649 55.339 42.5938 55.1853 44.8611C55.1853 44.9764 55.1084 45.1301 54.9932 45.2454Z" fill="white" />
		<path d="M58.1444 46.3195C58.0291 46.4348 57.8369 46.5116 57.6448 46.5116C57.2989 46.4732 57.0299 46.1658 57.0683 45.8199C57.2989 42.784 56.2229 39.7864 54.0324 37.5959C51.8803 35.4439 48.8828 34.3294 45.8084 34.56C45.4625 34.5984 45.1551 34.3294 45.1167 33.9835C45.0783 33.6377 45.3473 33.3302 45.6931 33.2918C49.1134 33.0228 52.4952 34.2526 54.9163 36.6736C57.3374 39.0947 58.5671 42.4765 58.2981 45.8968C58.3365 46.0889 58.2597 46.2042 58.1444 46.3195Z" fill="white" />
		<path d="M53.5327 50.2792L53.2252 50.0486C52.6103 49.6259 51.8033 49.549 51.15 49.8564C50.3045 50.2407 49.9971 51.2783 49.1517 51.7011C48.6905 51.9316 48.1141 51.9316 47.6145 51.8164C46.7306 51.5858 45.8851 51.0862 45.155 50.5482C44.4632 50.087 43.8483 49.5874 43.2335 49.011C42.657 48.4345 42.1574 47.7812 41.6963 47.0895C41.1967 46.3593 40.6587 45.5139 40.4281 44.63C40.3128 44.1304 40.3128 43.5924 40.5434 43.0928C40.9661 42.2473 41.9653 41.9399 42.388 41.0945C42.7339 40.4027 42.657 39.5957 42.1959 39.0192L41.9653 38.7118C41.043 37.5205 40.0822 36.2907 39.1599 35.0994C38.5066 34.254 37.2384 34.0234 36.393 34.8688L34.7789 36.4829C33.9335 37.3283 33.5876 38.5197 33.895 39.5957C33.9719 39.8647 34.0488 40.1721 34.1641 40.4411C34.4331 41.2097 34.7405 41.9399 35.0864 42.6701C36.5467 45.7829 38.3145 48.8188 40.7355 51.2783C43.1566 53.7763 46.4231 55.6593 49.5744 57.1197C50.3045 57.4655 51.0347 57.8114 51.8033 58.042C52.0723 58.1188 52.3413 58.2341 52.6488 58.311C53.7632 58.58 54.9545 58.2341 55.7616 57.4271L57.3756 55.813C58.2211 54.9676 58.0289 53.6994 57.145 53.0461C55.9537 52.1622 54.724 51.2399 53.5327 50.2792Z" fill="white" />
		<defs>
			<linearGradient id="paint0_linear_109_171" x1="46.5056" y1="93.5622" x2="46.5056" y2="0.596306" gradientUnits="userSpaceOnUse">
				<stop stop-color="#5648B6" />
				<stop offset="1" stop-color="#7360F2" />
			</linearGradient>
			<linearGradient id="paint1_linear_109_171" x1="1.1283" y1="47.0792" x2="91.8829" y2="47.0792" gradientUnits="userSpaceOnUse">
				<stop stop-color="#7360F2" />
				<stop offset="1" stop-color="#5648B6" />
			</linearGradient>
		</defs>
	</symbol>
	<symbol id="youtube" viewBox="0 0 93 94" fill="none" xmlns="http://www.w3.org/2000/svg">
		<path d="M46.5 93.6499C20.8102 93.6499 0 73.2675 0 48.1058V46.194C0 21.0323 20.8102 0.649902 46.5 0.649902C72.1898 0.649902 93 21.0323 93 46.194V48.1058C93 73.2675 72.1611 93.6499 46.5 93.6499Z" fill="#FF0401" />
		<path d="M73.6825 39.1363C73.5676 38.4054 73.4529 37.6745 73.3094 36.9435C73.2233 36.4656 73.1084 35.9876 72.9936 35.4816C72.9362 35.1723 72.8214 34.835 72.7066 34.5257C72.6492 34.357 72.5918 34.1884 72.5057 34.0478C72.0178 32.9513 71.2715 31.9955 70.3529 31.2364C69.0613 30.1681 67.3964 29.4653 65.5881 29.2122C53.0159 27.6098 40.5871 27.9752 27.3547 29.2122C26.9529 29.2404 26.5797 29.3247 26.2066 29.409C25.8047 29.4934 25.4028 29.6339 25.0297 29.8026C25.001 29.8026 24.9723 29.8307 24.9436 29.8307C24.0538 30.1962 23.2501 30.646 22.5325 31.2083C21.6427 31.9393 20.9538 32.8108 20.4658 33.851C20.4084 33.9353 20.3797 34.0478 20.351 34.1321C20.3223 34.2165 20.2937 34.3008 20.265 34.357L20.2075 34.5257L19.9779 35.341C19.8631 35.8189 19.777 36.2969 19.6622 36.8029C19.5187 37.5339 19.4038 38.2648 19.2889 38.9958C18.9445 41.1886 18.7437 43.4096 18.6863 45.6587C18.6863 45.8555 18.6863 46.0804 18.6863 46.2772C18.6863 46.5302 18.6863 46.7833 18.6863 47.0644V47.1206C18.6863 47.3737 18.7149 48.1046 19.2889 55.133C19.4038 55.864 19.5187 56.595 19.6622 57.3259C19.7483 57.8038 19.8631 58.2818 19.9779 58.7878C20.0354 59.0971 20.1502 59.4344 20.265 59.7437C20.3224 59.9124 20.3797 60.081 20.4658 60.2216C20.9538 61.318 21.7001 62.2739 22.6186 63.033C23.9103 64.1013 25.5751 64.8041 27.3834 65.0572C39.9844 66.6596 52.3844 66.2942 65.6168 65.0572C66.0474 65.0291 66.4492 64.9447 66.851 64.8322C66.9084 64.8322 66.9371 64.8041 66.9946 64.8041C67.3964 64.6917 67.7983 64.5511 68.1714 64.3824C68.2001 64.3824 68.2288 64.3543 68.2575 64.3543C69.0612 64.017 69.8075 63.5671 70.439 63.0611C71.3288 62.3301 72.0178 61.4586 72.5057 60.4184C72.5631 60.3341 72.5918 60.2216 72.6205 60.1373C72.6492 60.0529 72.6779 59.9686 72.7066 59.9124C72.7353 59.8561 72.7353 59.7999 72.764 59.7437L72.9936 58.9284C73.1084 58.4504 73.1946 57.9725 73.3094 57.4665C73.4529 56.7355 73.5676 56.0046 73.6825 55.2736C74.0269 53.0807 74.2279 50.8598 74.2853 48.6107C74.2853 48.4139 74.2853 48.1889 74.2853 47.9922C74.2853 47.711 74.2853 47.4299 74.2853 47.1487C74.2853 46.8676 74.2565 46.1648 73.6825 39.1363Z" fill="white" />
		<path d="M54.8818 47.1227C54.9105 47.1508 54.9105 47.207 54.8818 47.2351L47.9068 51.171L40.9319 55.1069C40.9032 55.1351 40.8457 55.1069 40.8457 55.0507V47.1508V39.2508C40.8457 39.1946 40.9032 39.1665 40.9319 39.1946L47.9068 43.1305L54.8818 47.1227Z" fill="#FF0401" />
	</symbol>
	<symbol id="whatsapp" viewBox="0 0 135 135" fill="none" xmlns="http://www.w3.org/2000/svg">
		<g filter="url(#filter0_d_215_17187)">
			<circle cx="67.5" cy="67.5" r="46.5" fill="white" />
		</g>
		<path d="M67.5 114C41.8102 114 21 93.6176 21 68.4559V66.5441C21 41.3824 41.8102 21 67.5 21C93.1898 21 114 41.3824 114 66.5441V68.4559C114 93.6176 93.1898 114 67.5 114Z" fill="url(#paint0_linear_215_17187)" />
		<path d="M67.5287 44.5872C80.3305 44.5872 90.7212 54.7643 90.7212 67.3311C90.6925 79.673 80.3879 89.8783 67.787 89.9907C63.0509 90.0469 58.6592 88.6975 54.9851 86.3641C54.8703 86.3078 54.7268 86.2797 54.612 86.3078L50.9379 87.2637L46.3453 88.4726L47.5796 83.9744L48.5268 80.5164C48.5555 80.3759 48.5268 80.2634 48.4694 80.1509C45.9148 76.4962 44.3935 72.0823 44.3935 67.303C44.336 54.7643 54.7268 44.5872 67.5287 44.5872ZM67.5287 39.8359C52.0574 39.8359 39.4851 52.1497 39.4851 67.303C39.4851 72.1386 40.7481 76.8054 43.1879 80.9381C43.2453 81.0506 43.274 81.163 43.2453 81.2755L42.8435 82.7374L41.6092 87.2356L39.4277 95.1917L47.5509 93.0551L52.1435 91.8462L53.8657 91.3964C53.9805 91.3683 54.0953 91.3683 54.2101 91.4245C58.2861 93.5893 62.85 94.7138 67.5287 94.7138C83 94.7138 95.5722 82.4 95.5722 67.2468C95.5722 52.1497 83 39.8359 67.5287 39.8359Z" fill="white" />
		<path d="M56.8511 54.7647C57.2243 54.6242 58.315 54.5117 59.4632 54.6804C59.8937 54.7366 60.2382 55.0177 60.4104 55.4113C61.4724 57.6042 61.8169 58.4757 62.5632 60.1625C63.1086 61.3995 62.7928 62.8333 61.7882 63.733C61.3289 64.1547 60.8984 64.5483 60.6974 64.7451C60.1521 65.3074 63.6252 72.139 70.8586 74.0507C71.203 74.135 71.5761 74.0226 71.7771 73.7415C72.4947 72.8699 73.2122 71.9703 73.9298 71.0988C74.2743 70.6771 74.9058 70.5084 75.4225 70.7333C77.8049 71.661 78.4937 72.1671 80.9049 73.0948C81.5363 73.3197 81.8234 73.6852 81.8234 74.3318C81.8234 76.4122 81.1345 79.1674 77.891 80.2357C77.5465 80.3482 76.6854 80.4606 76.3697 80.4887C67.0123 81.051 54.6697 71.408 53.4067 62.243C53.4067 62.1867 53.4067 62.2992 53.4067 62.243C53.0622 57.295 55.9613 55.1302 56.8511 54.7647Z" fill="white" />
		<defs>
			<filter id="filter0_d_215_17187" x="0" y="0" width="135" height="135" filterUnits="userSpaceOnUse" color-interpolation-filters="sRGB">
				<feFlood flood-opacity="0" result="BackgroundImageFix" />
				<feColorMatrix in="SourceAlpha" type="matrix" values="0 0 0 0 0 0 0 0 0 0 0 0 0 0 0 0 0 0 127 0" result="hardAlpha" />
				<feMorphology radius="9" operator="dilate" in="SourceAlpha" result="effect1_dropShadow_215_17187" />
				<feOffset />
				<feGaussianBlur stdDeviation="6" />
				<feComposite in2="hardAlpha" operator="out" />
				<feColorMatrix type="matrix" values="0 0 0 0 0.770833 0 0 0 0 0.770833 0 0 0 0 0.770833 0 0 0 0.46 0" />
				<feBlend mode="normal" in2="BackgroundImageFix" result="effect1_dropShadow_215_17187" />
				<feBlend mode="normal" in="SourceGraphic" in2="effect1_dropShadow_215_17187" result="shape" />
			</filter>
			<linearGradient id="paint0_linear_215_17187" x1="67.5042" y1="21.026" x2="67.5042" y2="114.009" gradientUnits="userSpaceOnUse">
				<stop stop-color="#66FF74" />
				<stop offset="0.0715969" stop-color="#54F265" />
				<stop offset="0.2135" stop-color="#35DD4D" />
				<stop offset="0.3631" stop-color="#1ECD3A" />
				<stop offset="0.5219" stop-color="#0DC12D" />
				<stop offset="0.6963" stop-color="#03BA25" />
				<stop offset="0.9158" stop-color="#00B822" />
			</linearGradient>
		</defs>
	</symbol>
	<symbol id="phone" viewBox="0 0 135 135" fill="none" xmlns="http://www.w3.org/2000/svg">
		<g filter="url(#filter0_d_224_76)">
			<circle cx="67.5" cy="67.5" r="46.5" fill="white" />
		</g>
		<path d="M67.5 114C41.8102 114 21 93.6176 21 68.4559V66.5441C21 41.3824 41.8102 21 67.5 21C93.1898 21 114 41.3824 114 66.5441V68.4559C114 93.6176 93.1898 114 67.5 114Z" fill="url(#paint0_linear_224_76)" />
		<path d="M55.442 45.2905C56.0626 45.1886 57.7899 45.343 59.5248 45.9406C60.1774 46.1541 60.6309 46.6828 60.7842 47.3307C61.7971 50.971 62.079 52.3947 62.7484 55.1739C63.2363 57.2114 62.3291 59.2907 60.5068 60.3552C59.6707 60.8576 58.8874 61.326 58.518 61.5645C57.5073 62.2544 60.9185 73.6443 71.6015 78.6965C72.1122 78.9269 72.7246 78.8676 73.1185 78.5013C74.4867 77.3939 75.863 76.244 77.2312 75.1366C77.8889 74.6 78.9191 74.5324 79.6565 75.0272C83.0885 77.143 84.0118 78.1153 87.4884 80.2397C88.4041 80.7687 88.7439 81.4082 88.556 82.3883C87.9515 85.5419 86.0806 89.513 80.7307 90.1663C80.1629 90.2342 78.7922 90.1482 78.2935 90.0968C63.5914 88.1621 47.2165 69.869 47.9173 55.6003C47.9337 55.5151 47.901 55.6855 47.9173 55.6003C48.8199 47.9974 53.9532 45.5795 55.442 45.2905Z" fill="white" />
		<defs>
			<filter id="filter0_d_224_76" x="0" y="0" width="135" height="135" filterUnits="userSpaceOnUse" color-interpolation-filters="sRGB">
				<feFlood flood-opacity="0" result="BackgroundImageFix" />
				<feColorMatrix in="SourceAlpha" type="matrix" values="0 0 0 0 0 0 0 0 0 0 0 0 0 0 0 0 0 0 127 0" result="hardAlpha" />
				<feMorphology radius="9" operator="dilate" in="SourceAlpha" result="effect1_dropShadow_224_76" />
				<feOffset />
				<feGaussianBlur stdDeviation="6" />
				<feComposite in2="hardAlpha" operator="out" />
				<feColorMatrix type="matrix" values="0 0 0 0 0.770833 0 0 0 0 0.770833 0 0 0 0 0.770833 0 0 0 0.46 0" />
				<feBlend mode="normal" in2="BackgroundImageFix" result="effect1_dropShadow_224_76" />
				<feBlend mode="normal" in="SourceGraphic" in2="effect1_dropShadow_224_76" result="shape" />
			</filter>
			<linearGradient id="paint0_linear_224_76" x1="67.5924" y1="28.463" x2="64.0335" y2="113.856" gradientUnits="userSpaceOnUse">
				<stop stop-color="#FFE66A" />
				<stop offset="1" stop-color="#F2AF4B" />
			</linearGradient>
		</defs>
	</symbol>
</svg>
