<svg width="33" height="38" viewBox="0 0 33 38" fill="none" xmlns="http://www.w3.org/2000/svg">
<path d="M23.2483 19.7661C21.5056 19.7661 20.0966 21.2218 20.0966 23.0222C20.0966 24.8226 21.5056 26.2782 23.2483 26.2782C24.991 26.2782 26.4 24.8226 26.4 23.0222C26.4 21.2218 24.991 19.7661 23.2483 19.7661ZM23.2483 25.5887C21.8764 25.5887 20.764 24.4395 20.764 23.0222C20.764 21.6048 21.8764 20.4556 23.2483 20.4556C24.6202 20.4556 25.7326 21.6048 25.7326 23.0222C25.7326 24.4395 24.6202 25.5887 23.2483 25.5887ZM29.4775 3.90725H3.26292V33.5948H29.4775V3.90725ZM12.8292 7.04839H20.1337V9.38508H12.8292V7.04839ZM10.3079 24.4778H5.78426V23.1754H10.3079V24.4778ZM13.6079 21.873H5.78426V20.5706H13.6079V21.873ZM27.1045 24.6694L26.0292 24.9375L26.2146 26.0867L25.4359 25.9718L26.9562 28.2319C26.9562 28.2319 25.6213 27.8105 25.2135 28.7681C25.0652 28.2319 24.6573 27.3508 24.4348 26.7762L23.9157 26.4315L23.2483 27.3508L22.5809 26.4315L22.0618 26.7379C21.8022 27.2742 21.4315 28.1936 21.2832 28.7298C20.8753 27.7722 19.5405 28.1935 19.5405 28.1935L21.0607 25.9335L20.282 26.0484L20.4674 24.8992L19.3921 24.631L19.9854 23.6351L19.0955 22.9456L19.9854 22.256L19.3921 21.2601L20.4674 20.9919L20.282 19.8427L21.3944 20.0343L21.6539 18.9234L22.618 19.5363L23.2854 18.6169L23.9528 19.5363L24.9169 18.9234L25.1764 20.0343L26.2888 19.8427L26.1034 20.9919L27.1786 21.2601L26.5854 22.256L27.4753 22.9456L26.5854 23.6351L27.1045 24.6694ZM27.2157 17.6976H5.82135V16.127H27.2157V17.6976ZM27.2157 15.0927H5.82135V13.7903H27.2157V15.0927ZM27.2157 12.4879H5.82135V11.1855H27.2157V12.4879ZM33 3.52419C33 1.57056 31.4798 0 29.5888 0H3.41124C1.52023 0 0 1.57056 0 3.52419V34.4758C0 36.4294 1.52023 38 3.41124 38H29.5888C31.4798 38 33 36.4294 33 34.4758V3.52419ZM30.7382 34.8589H2.26179V2.60483H30.7382V34.8589Z" fill="#3C393A"/>
</svg>
