<svg width="36" height="103" viewBox="0 0 36 103" fill="none" xmlns="http://www.w3.org/2000/svg">
<path d="M23.2195 102.896V0.953125L34.9438 5.02033V98.8283L23.2195 102.896Z" fill="url(#paint0_linear_308_3102)"/>
<path d="M34.9438 98.8285H8.4653C4.11809 98.8285 0.561279 95.2861 0.561279 90.9565V12.8925C0.561279 8.5629 4.11809 5.02051 8.4653 5.02051H34.9438V98.8285Z" fill="url(#paint1_linear_308_3102)"/>
<path d="M1.61511 91.6127V13.2863C1.61511 9.35031 4.90845 6.07031 8.86046 6.07031H34.9437V98.9599H8.86046C4.90845 98.8287 1.61511 95.5487 1.61511 91.6127Z" fill="url(#paint2_linear_308_3102)"/>
<path d="M7.27966 6.07031C4.24978 6.07031 1.74683 8.56311 1.74683 11.5807L35.0755 98.8287V6.07031H7.27966Z" fill="url(#paint3_linear_308_3102)"/>
<defs>
<linearGradient id="paint0_linear_308_3102" x1="-0.473191" y1="24.511" x2="54.3386" y2="79.5457" gradientUnits="userSpaceOnUse">
<stop stop-color="#C39707"/>
<stop offset="1" stop-color="#AC7807"/>
</linearGradient>
<linearGradient id="paint1_linear_308_3102" x1="-10.861" y1="21.0647" x2="50.8479" y2="83.0245" gradientUnits="userSpaceOnUse">
<stop offset="0.187" stop-color="#FFFF99"/>
<stop offset="1" stop-color="#FFC607"/>
</linearGradient>
<linearGradient id="paint2_linear_308_3102" x1="-10.1353" y1="21.9796" x2="50.7548" y2="83.1173" gradientUnits="userSpaceOnUse">
<stop offset="0.187" stop-color="#FFD700"/>
<stop offset="1" stop-color="#EEA607"/>
</linearGradient>
<linearGradient id="paint3_linear_308_3102" x1="1.65843" y1="52.425" x2="34.9651" y2="52.425" gradientUnits="userSpaceOnUse">
<stop stop-color="#FFED41"/>
<stop offset="1" stop-color="#FFED41" stop-opacity="0"/>
</linearGradient>
</defs>
</svg>
