<svg width="40" height="35" viewBox="0 0 40 35" fill="none" xmlns="http://www.w3.org/2000/svg">
<path d="M11.0385 15.8414L13.2744 16.5988C14.1038 16.8873 14.6808 16.9955 15.2218 16.5988L22.9393 10.9008L22.9754 10.8647C24.7064 11.7302 26.8341 11.622 28.457 10.3959C31.7027 7.97966 33.0731 7.22233 29.8274 2.85869C26.6899 -1.3607 25.2113 -0.242745 22.218 1.95711C20.4509 3.25538 19.7297 5.41918 20.2346 7.43871L11.327 14.1465C10.786 14.5432 10.2451 15.589 11.0385 15.8414ZM26.9784 2.13742C27.4472 1.77679 28.493 2.31774 29.2504 3.36357C30.0077 4.40941 30.2241 5.52736 29.7553 5.888C29.2864 6.24863 28.2406 5.70768 27.4833 4.66185C26.7259 3.61602 26.5096 2.49806 26.9784 2.13742ZM25.2834 1.88498C25.4277 1.77679 25.5719 1.74073 25.7522 1.70467C25.031 2.28168 25.3555 3.94059 26.4374 5.41918C27.5554 6.89777 29.034 7.69115 29.7913 7.18627C29.7192 7.36659 29.611 7.51084 29.4667 7.58297C28.6733 8.15998 27.1226 7.36659 25.9326 5.77981C24.8146 4.19303 24.49 2.46199 25.2834 1.88498ZM21.8574 10.2877C22.0017 10.5041 21.9656 10.7926 21.7853 10.9368L15.5103 15.589C15.2939 15.7332 15.0054 15.6972 14.8612 15.4808C14.7169 15.2644 14.753 14.9759 14.9333 14.8317L21.2083 10.1795C21.4247 10.0353 21.7132 10.1074 21.8574 10.2877ZM12.5892 14.1465L19.9461 8.70092C20.2346 8.48454 20.6313 8.55667 20.8476 8.84518C21.064 9.13368 20.9919 9.56644 20.7395 9.74676L13.3826 15.2284C13.0941 15.4447 12.6974 15.3726 12.481 15.0841C12.2646 14.7956 12.3007 14.3628 12.5892 14.1465ZM39.7808 6.71745C39.8529 4.77004 37.3285 3.54389 37.1121 6.39288C36.8958 9.24187 36.3187 13.4973 36.1384 15.4808C35.7057 19.9166 32.8567 21.1067 31.8469 22.4049C30.8371 23.7032 29.07 23.4147 30.4044 21.7558C31.7387 20.0969 33.9025 17.1758 34.191 15.5529C34.4795 13.9301 33.5419 12.5597 31.8469 14.9399C29.611 18.1134 27.2308 20.4575 24.5621 22.1886C22.5426 23.4868 20.5591 26.2998 21.605 31.1683C21.8213 32.2141 21.9656 33.1878 22.0738 34.0894H29.7913C29.7913 33.837 29.7553 33.6206 29.7553 33.3681C29.6831 31.2404 33.7943 28.175 36.2106 25.6506C39.3481 22.4049 39.7808 22.2246 39.6726 16.3824C39.6726 15.2284 39.9611 13.5695 39.9972 11.0811C40.0333 7.72722 39.7087 7.79935 39.7808 6.71745ZM15.4382 22.1886C12.7695 20.4575 10.3893 18.1495 8.1534 14.9399C6.49449 12.5597 5.55685 13.9301 5.80929 15.5529C6.0978 17.1758 8.26159 20.0969 9.59592 21.7558C10.9303 23.4147 9.16317 23.6671 8.1534 22.4049C7.14363 21.1067 4.29464 19.9166 3.86188 15.4808C3.68156 13.4613 3.10456 9.24187 2.88818 6.39288C2.6718 3.54389 0.111308 4.77004 0.219497 6.71745C0.255561 7.83541 -0.0329361 7.76328 0.00312712 11.0811C0.00312712 13.5695 0.327694 15.2644 0.327694 16.3824C0.255567 22.2246 0.688327 22.4049 3.78976 25.6506C6.24206 28.175 10.3172 31.2404 10.2451 33.3681C10.2451 33.6206 10.2451 33.837 10.209 34.0894H17.9265C17.9986 33.1878 18.1429 32.2141 18.3953 31.1683C19.4412 26.3358 17.4577 23.4868 15.4382 22.1886Z" fill="#3C393A"/>
</svg>
