<svg width="38" height="38" viewBox="0 0 38 38" fill="none" xmlns="http://www.w3.org/2000/svg">
<path d="M16.6545 11.9373L25.4144 3.24951L34.4266 12.2617L25.7028 20.9495L16.6545 11.9373Z" fill="#3C393A"/>
<path d="M15.9335 10.5309C15.3928 11.0716 14.5276 11.0716 14.0229 10.5309L13.9508 10.4588C13.4461 9.95411 13.4822 9.23314 13.8787 8.65636C16.0056 5.30382 19.6105 1.77104 22.3141 0.256995C22.9269 -0.0674439 23.6119 -0.139542 24.1166 0.365141L24.2247 0.473287C24.7294 0.97797 24.7294 1.84314 24.2247 2.34782L15.9335 10.5309Z" fill="#3C393A"/>
<path d="M27.0725 21.706C26.5318 22.2467 26.5318 23.0758 27.0725 23.6166L27.1446 23.6887C27.6493 24.1934 28.3703 24.1573 28.9471 23.7968C32.3357 21.6699 35.9045 18.1011 37.4185 15.3975C37.743 14.7846 37.8151 14.0997 37.3104 13.595L37.2022 13.4869C36.6976 12.9822 35.8324 12.9461 35.2917 13.4869L27.0725 21.706Z" fill="#3C393A"/>
<path d="M1.04541 36.4493C0.865169 36.3772 0.793072 36.161 0.648877 36.0528C0.216292 35.476 0 34.7551 0 34.0341C0.0360488 33.1329 0.396536 32.3037 1.08146 31.6909L18.7093 16.1899L20.0792 17.5237L21.413 18.8936L5.80385 36.4133C5.19102 37.0622 4.3619 37.4587 3.46068 37.4948C2.7397 37.4948 2.01873 37.2785 1.44195 36.8459C1.29776 36.7017 1.11751 36.6296 1.04541 36.4493Z" fill="#3C393A"/>
<path d="M16.2223 31.0425L15.2129 32.196V33.3856H14.2756L13.0139 34.6474V37.9999H37.0584V34.6474L35.7607 33.3856H34.8234V32.196L33.814 31.0425H16.2223Z" fill="#3C393A"/>
</svg>
