<svg width="47" height="30" viewBox="0 0 47 30" fill="none" xmlns="http://www.w3.org/2000/svg">
<path d="M34.3651 12.015C34.1094 12.1246 33.8903 12.2706 33.7077 12.4532L32.5026 11.102C31.48 9.45861 30.0923 7.7787 28.9601 7.81522H18.6251C17.3834 7.81522 16.1052 9.60469 15.0826 11.102L13.8775 12.3802C13.6949 12.2341 13.5123 12.1246 13.2932 12.015C12.3071 11.5402 11.2481 11.6133 10.9924 12.1611C10.7003 12.7454 11.2846 13.5853 12.3071 14.0601C12.4897 14.1331 12.6723 14.2062 12.8549 14.2792V17.1278C12.8549 18.8077 14.2062 20.1589 15.8861 20.1589H31.7356C33.4156 20.1589 34.7668 18.8077 34.7668 17.1278V14.3157C34.9859 14.2792 35.1685 14.1697 35.3876 14.0966C36.3736 13.6219 36.9945 12.7454 36.7023 12.1976C36.4102 11.6133 35.3876 11.5402 34.3651 12.015ZM16.7991 9.56817C17.7486 8.28998 18.552 8.36302 18.552 8.36302C18.552 8.36302 27.3168 8.36302 27.9376 8.36302C28.9236 8.36302 29.8731 8.36302 30.7131 9.49513C31.8087 10.9559 32.7947 11.942 31.2244 11.942C28.7775 11.942 17.2008 11.9785 16.1782 11.942C14.8635 11.9054 15.8861 10.8464 16.7991 9.56817ZM17.0547 16.8721C16.7626 17.4564 15.74 17.5295 14.754 17.0182C13.7679 16.5434 13.1471 15.667 13.4393 15.1192C13.7314 14.5349 14.754 14.4618 15.74 14.9731C16.7626 15.4478 17.3469 16.2878 17.0547 16.8721ZM27.4263 18.8807H20.0493C18.9537 18.8807 18.0407 18.2233 18.0407 17.4564C18.0407 16.653 18.9537 16.0322 20.0493 16.0322H27.4263C28.5219 16.0322 29.4349 16.6895 29.4349 17.4564C29.4714 18.2233 28.5584 18.8807 27.4263 18.8807ZM32.7217 17.0182C31.7356 17.493 30.6766 17.4199 30.4209 16.8721C30.1288 16.2878 30.7496 15.4478 31.7356 14.9731C32.7217 14.4983 33.7807 14.5714 34.0364 15.1192C34.292 15.667 33.7077 16.5434 32.7217 17.0182ZM31.7356 20.6702H15.8496C14.1697 20.6702 12.8184 19.3189 12.8184 17.639V18.6981C12.8184 19.3555 13.0375 19.9763 13.4027 20.4876V21.1449C13.4027 21.6197 13.7679 21.9849 14.2427 21.9849H17.7486C17.9677 21.9849 18.1868 21.8753 18.3329 21.7292H29.3253C29.4714 21.8753 29.6905 21.9849 29.9097 21.9849H33.4156C33.8903 21.9849 34.2555 21.6197 34.2555 21.1449V20.2684C34.5477 19.7937 34.6937 19.2824 34.6937 18.6981V17.639C34.7303 19.3189 33.379 20.6702 31.7356 20.6702ZM21.8023 27.3533C19.6111 27.2802 16.58 27.2072 15.0096 27.1342C11.5768 26.9881 10.5542 24.8334 9.53165 24.103C8.5091 23.3726 8.65518 22.0214 9.96988 22.9709C11.2846 23.9204 13.6219 25.4908 14.8635 25.6369C16.1052 25.7829 17.1278 25.016 15.2287 23.8109C12.7089 22.2405 10.8098 20.4876 9.38557 18.5155C8.28998 17.0182 6.06227 15.5939 2.37378 16.6165C1.53383 16.8721 0.766914 17.0182 0 17.1278V23.0805C0.328678 23.0439 0.657355 23.0074 1.05907 22.9709C2.70246 22.8248 5.22232 25.856 7.23091 27.6089C9.86033 29.8731 10.0064 30.2018 14.4983 29.9097C15.3748 29.8366 15.9956 30.0192 17.8947 29.9462C20.451 29.8366 20.8162 29.3984 21.6927 29.3984C23.1535 29.3984 23.9935 27.4263 21.8023 27.3533ZM45.9418 7.85174C44.2984 7.88826 41.9612 4.74756 39.9891 2.88506C37.5058 0.474756 37.3597 0.146079 32.8678 0.219118C31.9913 0.219118 30.7131 0 28.7775 0C26.2212 0 26.2942 0.219118 25.4177 0.182599C23.9569 0.0730395 23.0074 2.00859 25.1986 2.19118C27.3898 2.37378 30.6401 2.81202 32.1739 2.9581C35.6067 3.28678 36.5197 5.47796 37.5058 6.24487C38.4918 7.01179 38.2727 8.39954 36.9945 7.34047C35.7163 6.31791 33.4886 4.63801 32.2469 4.41889C31.0052 4.19977 29.9462 4.93016 31.7722 6.20835C34.219 7.92478 36.0084 9.75077 37.3232 11.7959C38.3092 13.3662 40.5004 14.9001 44.2254 14.0601C45.0288 13.8775 45.7592 13.7679 46.4531 13.6949V7.81522C46.307 7.81522 46.1244 7.85174 45.9418 7.85174Z" fill="#3C393A"/>
</svg>
