<svg width="43" height="30" viewBox="0 0 43 30" fill="none" xmlns="http://www.w3.org/2000/svg">
<path d="M32.8934 16.7851C32.6226 16.9205 32.3519 17.0897 32.1489 17.2589L30.7952 15.7699C29.6785 13.9425 28.1556 12.115 26.8697 12.1489H15.4314C14.0778 12.1489 12.6227 14.1455 11.5059 15.7699L10.1523 17.1912C9.94922 17.022 9.74618 16.8866 9.47545 16.7851C8.3587 16.2436 7.20812 16.3113 6.90355 16.9543C6.59898 17.5973 7.24196 18.5448 8.35871 19.0863C8.56175 19.1878 8.76479 19.2555 8.96784 19.3232V22.4704C8.96784 24.3316 10.4568 25.8206 12.3181 25.8206H29.9154C31.7766 25.8206 33.2656 24.3316 33.2656 22.4704V19.3232C33.5025 19.2555 33.7394 19.1878 33.9763 19.0524C35.093 18.511 35.736 17.5634 35.4314 16.9205C35.1607 16.3113 34.0101 16.2436 32.8934 16.7851ZM13.401 14.0778C14.4501 12.6565 15.3638 12.758 15.3638 12.758C15.3638 12.758 25.0761 12.758 25.7529 12.758C26.8358 12.758 27.8849 12.758 28.8325 14.0101C30.0507 15.6345 31.1336 16.7174 29.3739 16.7174C26.6666 16.7174 13.8071 16.7851 12.6903 16.7174C11.2352 16.6497 12.3858 15.4653 13.401 14.0778ZM13.7056 22.1658C13.401 22.8088 12.2504 22.8765 11.1337 22.335C10.0169 21.7935 9.37392 20.846 9.67849 20.203C9.98306 19.56 11.1337 19.4924 12.2504 20.0338C13.3672 20.5753 14.0101 21.5228 13.7056 22.1658ZM25.2115 24.3655H17.022C15.8037 24.3655 14.7885 23.6548 14.7885 22.7749C14.7885 21.8951 15.8037 21.1844 17.022 21.1844H25.2115C26.4297 21.1844 27.445 21.8951 27.445 22.7749C27.445 23.6548 26.4297 24.3655 25.2115 24.3655ZM31.0321 22.335C29.9154 22.8765 28.7648 22.8088 28.4602 22.1658C28.1556 21.5228 28.7986 20.5753 29.9154 20.0338C31.0321 19.4924 32.1827 19.56 32.4873 20.203C32.7918 20.846 32.1489 21.7935 31.0321 22.335ZM29.9492 26.3621H12.3519C10.4907 26.3621 9.00167 24.8731 9.00167 23.0118V24.1624C9.00167 24.9069 9.23857 25.5837 9.64466 26.1252V26.8358C9.64466 27.3435 10.0508 27.7495 10.5584 27.7495H14.4501C14.7208 27.7495 14.9577 27.648 15.093 27.4788H27.3096C27.4788 27.648 27.7157 27.7495 27.9526 27.7495H31.8443C32.3519 27.7495 32.758 27.3435 32.758 26.8358V25.8883C33.0626 25.3807 33.2656 24.7715 33.2656 24.1286V22.978C33.2994 24.8731 31.8104 26.3621 29.9492 26.3621ZM21.3198 0L0 7.445V12.1489L1.99662 11.4382V29.78H3.79018V10.8291L21.4213 4.70389L38.6125 10.6599V29.78H40.406V11.3029L42.8764 12.1489V7.445L21.3198 0Z" fill="#3C393A"/>
</svg>
