<svg width="40" height="30" viewBox="0 0 40 30" fill="none" xmlns="http://www.w3.org/2000/svg">
<path d="M36.0992 10.4996C37.8221 8.90681 38.6672 6.46882 38.0821 3.99832C37.692 2.30797 36.7168 0.942691 35.4166 0L34.3764 0.22755L35.9042 6.8914L32.491 9.94702L28.0701 8.67926L26.5423 2.01541L25.5021 2.24295C24.7544 3.64074 24.4619 5.33108 24.8519 6.98892C25.4046 9.42691 27.2249 11.2798 29.4679 11.9624L33.4012 29.1259L40 27.5981L36.0992 10.4996ZM8.04603 24.9651C5.38049 24.9651 3.20255 22.7871 3.20255 20.1216V21.8119C3.20255 22.8846 3.56012 23.8598 4.14524 24.6725V25.7127C4.14524 26.4604 4.73036 27.0455 5.47801 27.0455H11.1016C11.4917 27.0455 11.8168 26.8829 12.0443 26.6554H29.7279C29.9555 26.9155 30.313 27.0455 30.6706 27.0455H31.7108L31.2232 24.9651H8.04603ZM3.17004 19.3089C3.17004 21.9745 5.34798 24.1524 8.01352 24.1524H31.0282L28.4927 13.0677C27.2574 12.6776 26.2822 11.9624 25.5021 11.0197C18.6432 11.0522 9.63885 11.0522 8.53363 11.0197C6.4207 10.9222 8.07854 9.19937 9.54133 7.18396C11.0691 5.10354 12.3694 5.26607 12.3694 5.26607C12.3694 5.26607 18.9682 5.26607 23.4216 5.26607C23.4216 4.97351 23.4542 4.64844 23.4867 4.35588H12.4344C10.4515 4.35588 8.4036 7.24897 6.77827 9.62195L4.79537 11.7024C4.50281 11.4748 4.17774 11.2798 3.82017 11.1173C2.22735 10.3371 0.537009 10.4346 0.114423 11.3773C-0.340669 12.2875 0.602022 13.6528 2.22735 14.4329C2.51991 14.5955 2.84497 14.693 3.13753 14.7905V19.3089H3.17004ZM14.7749 17.4886H26.6398C28.4277 17.4886 29.8905 18.5288 29.8905 19.7965C29.8905 21.0643 28.4277 22.1045 26.6398 22.1045H14.7749C12.987 22.1045 11.5242 21.0643 11.5242 19.7965C11.5567 18.5288 12.987 17.4886 14.7749 17.4886ZM4.14524 16.0583C4.60033 15.1481 6.25816 15.018 7.85099 15.7982C9.44381 16.5784 10.3865 17.9436 9.96391 18.8538C9.50882 19.764 7.85099 19.894 6.25817 19.1139C4.63284 18.3337 3.69015 16.9684 4.14524 16.0583Z" fill="#3C393A"/>
</svg>
