<svg width="36" height="37" viewBox="0 0 36 37" fill="none" xmlns="http://www.w3.org/2000/svg">
<path d="M27.0561 27.3509C31.9948 22.4322 31.9948 14.4574 27.0561 9.53875C22.1174 4.62007 14.1102 4.62007 9.17154 9.53876C4.23285 14.4574 4.23285 22.4322 9.17154 27.3509C14.1102 32.2696 22.1174 32.2696 27.0561 27.3509Z" stroke="#FFC607" stroke-miterlimit="10"/>
<path d="M18.0807 23.0572C15.446 23.0572 13.3383 20.958 13.3383 18.334C13.3383 15.71 15.446 13.6108 18.0807 13.6108C20.7153 13.6108 22.8231 15.71 22.8231 18.334C22.8231 20.958 20.7153 23.0572 18.0807 23.0572Z" fill="url(#paint0_linear_308_3143)"/>
<path d="M18.0808 20.4333C16.8952 20.4333 15.973 19.5149 15.973 18.3341C15.973 17.1533 16.8952 16.2349 18.0808 16.2349C19.2664 16.2349 20.1885 17.1533 20.1885 18.3341C20.1885 19.5149 19.2664 20.4333 18.0808 20.4333Z" fill="#282727"/>
<defs>
<linearGradient id="paint0_linear_308_3143" x1="14.762" y1="15.1158" x2="21.3577" y2="21.7383" gradientUnits="userSpaceOnUse">
<stop offset="0.187" stop-color="#FFD700"/>
<stop offset="1" stop-color="#EEA607"/>
</linearGradient>
</defs>
</svg>
