<svg viewBox="0 0 36 450" fill="none" xmlns="http://www.w3.org/2000/svg">
	<path d="M27.0561 27.3509C31.9948 22.4322 31.9948 14.4574 27.0561 9.53875C22.1174 4.62007 14.1102 4.62007 9.17154 9.53876C4.23285 14.4574 4.23285 22.4322 9.17154 27.3509C14.1102 32.2696 22.1174 32.2696 27.0561 27.3509Z" stroke="#FFC607" stroke-miterlimit="10" />
	<path d="M18.0807 23.0572C15.446 23.0572 13.3383 20.958 13.3383 18.334C13.3383 15.71 15.446 13.6108 18.0807 13.6108C20.7153 13.6108 22.8231 15.71 22.8231 18.334C22.8231 20.958 20.7153 23.0572 18.0807 23.0572Z" fill="url(#paint0_linear_308_3142)" />
	<path d="M18.0808 20.4333C16.8952 20.4333 15.973 19.5149 15.973 18.3341C15.973 17.1533 16.8952 16.2349 18.0808 16.2349C19.2664 16.2349 20.1885 17.1533 20.1885 18.3341C20.1885 19.5149 19.2664 20.4333 18.0808 20.4333Z" fill="#282727" />
	<path d="M30.3517 159.8C31.963 153.032 27.7601 146.244 20.9643 144.64C14.1684 143.035 7.35306 147.221 5.74175 153.989C4.13044 160.757 8.33335 167.545 15.1292 169.15C21.9251 170.755 28.7404 166.569 30.3517 159.8Z" stroke="#FFC607" stroke-miterlimit="10" />
	<path d="M18.0807 161.605C15.446 161.605 13.3383 159.506 13.3383 156.882C13.3383 154.258 15.446 152.159 18.0807 152.159C20.7153 152.159 22.8231 154.258 22.8231 156.882C22.8231 159.506 20.7153 161.605 18.0807 161.605Z" fill="url(#paint1_linear_308_3142)" />
	<path d="M18.0808 158.981C16.8952 158.981 15.973 158.062 15.973 156.881C15.973 155.701 16.8952 154.782 18.0808 154.782C19.2664 154.782 20.1885 155.701 20.1885 156.881C20.1885 158.062 19.2664 158.981 18.0808 158.981Z" fill="#282727" />
	<path d="M27.0424 304.317C31.9811 299.398 31.9811 291.424 27.0425 286.505C22.1038 281.586 14.0966 281.586 9.15787 286.505C4.21918 291.424 4.21918 299.399 9.15787 304.317C14.0966 309.236 22.1037 309.236 27.0424 304.317Z" stroke="#FFC607" stroke-miterlimit="10" />
	<path d="M18.0808 300.021C15.4461 300.021 13.3384 297.921 13.3384 295.297C13.3384 292.673 15.4461 290.574 18.0808 290.574C20.7155 290.574 22.8232 292.673 22.8232 295.297C22.8232 297.921 20.7155 300.021 18.0808 300.021Z" fill="url(#paint2_linear_308_3142)" />
	<path d="M18.0808 297.397C16.8952 297.397 15.973 296.478 15.973 295.297C15.973 294.117 16.8952 293.198 18.0808 293.198C19.2664 293.198 20.1885 294.117 20.1885 295.297C20.1885 296.478 19.2664 297.397 18.0808 297.397Z" fill="#282727" />
	<path d="M30.3284 436.777C31.9397 430.009 27.7368 423.221 20.941 421.616C14.1451 420.011 7.32974 424.197 5.71844 430.966C4.10713 437.734 8.31004 444.522 15.1059 446.126C21.9017 447.731 28.7171 443.545 30.3284 436.777Z" stroke="#FFC607" stroke-miterlimit="10" />
	<path d="M18.0807 438.568C15.446 438.568 13.3383 436.469 13.3383 433.845C13.3383 431.221 15.446 429.122 18.0807 429.122C20.7153 429.122 22.8231 431.221 22.8231 433.845C22.8231 436.469 20.7153 438.568 18.0807 438.568Z" fill="url(#paint3_linear_308_3142)" />
	<path d="M18.0808 435.944C16.8952 435.944 15.973 435.026 15.973 433.845C15.973 432.664 16.8952 431.746 18.0808 431.746C19.2664 431.746 20.1885 432.664 20.1885 433.845C20.1885 435.026 19.2664 435.944 18.0808 435.944Z" fill="#282727" />
	<path d="M18.0807 44.0493V131.297" stroke="#AAACB4" stroke-miterlimit="10" />
	<path d="M18.0807 182.597V269.713" stroke="#AAACB4" stroke-miterlimit="10" />
	<path d="M18.0807 321.013V408.261" stroke="#AAACB4" stroke-miterlimit="10" />
	<defs>
		<linearGradient id="paint0_linear_308_3142" x1="14.762" y1="15.1158" x2="21.3577" y2="21.7383" gradientUnits="userSpaceOnUse">
			<stop offset="0.187" stop-color="#FFD700" />
			<stop offset="1" stop-color="#EEA607" />
		</linearGradient>
		<linearGradient id="paint1_linear_308_3142" x1="14.762" y1="153.606" x2="21.3577" y2="160.229" gradientUnits="userSpaceOnUse">
			<stop offset="0.187" stop-color="#FFD700" />
			<stop offset="1" stop-color="#EEA607" />
		</linearGradient>
		<linearGradient id="paint2_linear_308_3142" x1="14.7622" y1="292.096" x2="21.3578" y2="298.718" gradientUnits="userSpaceOnUse">
			<stop offset="0.187" stop-color="#FFD700" />
			<stop offset="1" stop-color="#EEA607" />
		</linearGradient>
		<linearGradient id="paint3_linear_308_3142" x1="14.762" y1="430.586" x2="21.3577" y2="437.208" gradientUnits="userSpaceOnUse">
			<stop offset="0.187" stop-color="#FFD700" />
			<stop offset="1" stop-color="#EEA607" />
		</linearGradient>
	</defs>
</svg>
