<svg width="93" height="94" viewBox="0 0 93 94" fill="none" xmlns="http://www.w3.org/2000/svg">
<path d="M46.5 93.1001C20.8102 93.1001 0 72.7177 0 47.556V45.6442C0 20.4825 20.8102 0.100098 46.5 0.100098C72.1898 0.100098 93 20.4825 93 45.6442V47.556C93 72.7177 72.1898 93.1001 46.5 93.1001Z" fill="#1A9ADA"/>
<path d="M20.4124 49.1509C18.8068 48.6362 18.5599 46.7621 20.1416 46.1751L61.3355 30.6716C64.5311 29.4682 66.7199 31.1654 66.3 33.3526C64.3104 43.8337 62.352 54.3158 60.3624 64.7969C59.8255 67.6528 56.4074 68.9707 54.0326 67.2364C49.0388 63.6063 43.2543 59.3676 40.0578 57.0236C38.7789 56.0921 38.687 54.254 39.847 53.2241C43.0378 50.3692 49.0324 45.0127 54.1895 40.3915C54.7689 39.8919 54.0815 39.0116 53.4429 39.4175C47.0597 43.3842 39.4961 48.0742 35.188 50.7373C32.9861 52.0977 30.2903 52.4011 27.8512 51.6125L20.4124 49.1509Z" fill="white"/>
</svg>
