<svg width="72" height="80" viewBox="0 0 72 80" fill="none" xmlns="http://www.w3.org/2000/svg">
<path d="M35.3666 0.00041172C21.2146 0.0684977 0.180896 8.6691 0.180896 8.6691C0.180896 8.6691 -1.57903 35.9507 5.87998 50.7741C13.1667 65.2552 35.3666 80 35.3666 80C35.3666 80 58.1565 65.41 65.5965 50.7741C73.1162 35.9814 71.2956 8.6691 71.2956 8.6691C71.2956 8.6691 49.8005 -0.0690311 35.3666 0.00041172Z" fill="url(#paint0_linear_174_145)" fill-opacity="0.7"/>
<path d="M5.15602 12.4771L4.77755 11.5515L4.19838 11.7883L4.1581 12.4127L5.15602 12.4771ZM35.5037 5.00036L35.5085 6.00034L35.5037 5.00036ZM66.4924 12.4771L67.4902 12.4106C67.4648 12.0287 67.2236 11.6948 66.869 11.5507L66.4924 12.4771ZM61.577 48.7927L62.4684 49.2459L61.577 48.7927ZM35.5037 74L34.9504 74.833L35.4936 75.1938L36.0428 74.8422L35.5037 74ZM10.0715 48.7927L9.1782 49.2422L10.0715 48.7927ZM5.15602 12.4771C5.5345 13.4027 5.53446 13.4027 5.5345 13.4027C5.5346 13.4027 5.5347 13.4026 5.53491 13.4025C5.53532 13.4024 5.536 13.4021 5.53696 13.4017C5.53888 13.4009 5.5419 13.3997 5.54599 13.398C5.55418 13.3947 5.56671 13.3896 5.58347 13.3828C5.61699 13.3693 5.66746 13.3489 5.73416 13.3222C5.86755 13.2689 6.06579 13.1902 6.32303 13.0898C6.83753 12.8889 7.58778 12.6013 8.52685 12.2555C10.4056 11.5639 13.037 10.641 16.0462 9.71667C22.0919 7.85956 29.5608 6.02896 35.5085 6.00034L35.4988 4.00037C29.2405 4.03048 21.5355 5.93825 15.4589 7.80483C12.407 8.74231 9.74016 9.67763 7.83588 10.3787C6.88346 10.7293 6.12104 11.0216 5.59574 11.2267C5.33308 11.3292 5.12964 11.41 4.99133 11.4653C4.92217 11.493 4.86928 11.5143 4.83341 11.5288C4.81547 11.5361 4.80179 11.5416 4.79244 11.5454C4.78777 11.5473 4.78419 11.5488 4.7817 11.5498C4.78046 11.5503 4.77949 11.5507 4.7788 11.551C4.77845 11.5511 4.77814 11.5512 4.77796 11.5513C4.77772 11.5514 4.77755 11.5515 5.15602 12.4771ZM35.5085 6.00034C41.5746 5.97116 49.2011 7.80134 55.3764 9.67326C58.4502 10.605 61.1386 11.5389 63.0581 12.2398C64.0176 12.5901 64.7843 12.8819 65.31 13.0858C65.5729 13.1877 65.7755 13.2676 65.9118 13.3217C65.9799 13.3488 66.0315 13.3695 66.0658 13.3833C66.0829 13.3902 66.0957 13.3953 66.1041 13.3987C66.1083 13.4004 66.1114 13.4017 66.1133 13.4025C66.1143 13.4029 66.115 13.4031 66.1154 13.4033C66.1156 13.4034 66.1157 13.4034 66.1158 13.4035C66.1159 13.4035 66.1158 13.4035 66.4924 12.4771C66.869 11.5507 66.8688 11.5506 66.8686 11.5505C66.8684 11.5505 66.8681 11.5503 66.8677 11.5502C66.867 11.5499 66.8661 11.5495 66.8648 11.549C66.8622 11.548 66.8586 11.5465 66.8538 11.5446C66.8443 11.5407 66.8303 11.535 66.812 11.5277C66.7753 11.5129 66.7213 11.4913 66.6506 11.4632C66.5093 11.407 66.3014 11.325 66.033 11.221C65.4962 11.0129 64.7172 10.7164 63.7441 10.3611C61.7985 9.65071 59.0739 8.70421 55.9566 7.75927C49.7499 5.87785 41.882 3.96966 35.4988 4.00037L35.5085 6.00034ZM66.4924 12.4771C65.4946 12.5436 65.4946 12.5436 65.4946 12.5436C65.4947 12.5437 65.4947 12.5438 65.4947 12.5441C65.4947 12.5446 65.4948 12.5455 65.4949 12.5467C65.495 12.5491 65.4953 12.553 65.4956 12.5583C65.4963 12.5688 65.4973 12.585 65.4986 12.6066C65.5013 12.6499 65.5052 12.7151 65.5101 12.8011C65.5198 12.9733 65.5333 13.2288 65.5483 13.5594C65.5782 14.2207 65.6139 15.182 65.6366 16.3763C65.6822 18.7657 65.6758 22.0833 65.4684 25.7946C65.0514 33.2589 63.8279 42.158 60.6855 48.3396L62.4684 49.2459C65.8118 42.6687 67.0461 33.4099 67.4653 25.9061C67.6761 22.1334 67.6825 18.7643 67.6363 16.3382C67.6132 15.1246 67.5768 14.1458 67.5462 13.469C67.5309 13.1306 67.517 12.8676 67.5069 12.6884C67.5018 12.5988 67.4977 12.5301 67.4948 12.4835C67.4934 12.4602 67.4923 12.4423 67.4915 12.4302C67.4911 12.4241 67.4908 12.4194 67.4906 12.4161C67.4905 12.4145 67.4904 12.4132 67.4903 12.4123C67.4903 12.4118 67.4903 12.4114 67.4903 12.4112C67.4902 12.4108 67.4902 12.4106 66.4924 12.4771ZM60.6855 48.3396C57.5764 54.4558 51.198 60.6479 45.4969 65.3593C42.6623 67.7018 40.0252 69.6542 38.097 71.0206C37.1333 71.7036 36.3476 72.2396 35.8039 72.604C35.5321 72.7862 35.3209 72.9255 35.1784 73.0189C35.1071 73.0655 35.0529 73.1007 35.0169 73.124C34.9989 73.1356 34.9855 73.1443 34.9767 73.1499C34.9723 73.1528 34.9691 73.1548 34.9671 73.1562C34.966 73.1568 34.9653 73.1573 34.9649 73.1576C34.9647 73.1577 34.9646 73.1578 34.9645 73.1578C34.9644 73.1578 34.9645 73.1578 35.5037 74C36.0428 74.8422 36.043 74.8421 36.0433 74.8419C36.0435 74.8418 36.0438 74.8415 36.0442 74.8413C36.045 74.8408 36.0461 74.8401 36.0474 74.8392C36.0502 74.8375 36.0541 74.835 36.0591 74.8317C36.0693 74.8252 36.0841 74.8156 36.1035 74.8031C36.1423 74.7779 36.1994 74.7409 36.2736 74.6923C36.4221 74.5952 36.6394 74.4518 36.9177 74.2652C37.4741 73.8922 38.2741 73.3464 39.2534 72.6524C41.2113 71.2649 43.8894 69.2823 46.771 66.901C52.5023 62.1646 59.1605 55.7531 62.4684 49.2459L60.6855 48.3396ZM35.5037 74C36.0569 73.167 36.057 73.167 36.057 73.167C36.0568 73.1669 36.0568 73.1669 36.0565 73.1667C36.0561 73.1665 36.0554 73.166 36.0544 73.1653C36.0524 73.164 36.0493 73.1619 36.045 73.159C36.0364 73.1533 36.0233 73.1446 36.0058 73.1328C35.9708 73.1093 35.918 73.0738 35.8486 73.0266C35.7096 72.9324 35.5039 72.7917 35.2391 72.6078C34.7094 72.24 33.9439 71.6993 33.0048 71.0111C31.1259 69.6342 28.5559 67.6694 25.7923 65.3184C20.2347 60.5904 14.0111 54.3973 10.9648 48.3432L9.1782 49.2422C12.4166 55.678 18.9092 62.0886 24.4964 66.8417C27.3053 69.2313 29.915 71.2264 31.8226 72.6244C32.7768 73.3236 33.5562 73.8741 34.0982 74.2505C34.3693 74.4387 34.581 74.5835 34.7256 74.6816C34.7979 74.7307 34.8535 74.7681 34.8913 74.7935C34.9102 74.8061 34.9246 74.8158 34.9345 74.8224C34.9395 74.8257 34.9433 74.8283 34.9459 74.83C34.9472 74.8309 34.9483 74.8316 34.949 74.8321C34.9494 74.8323 34.9497 74.8326 34.9499 74.8327C34.9502 74.8329 34.9504 74.833 35.5037 74ZM10.9648 48.3432C7.84655 42.1463 6.6232 33.2449 6.19962 25.7838C5.989 22.0738 5.97775 18.7584 6.01922 16.3709C6.03994 15.1775 6.07382 14.2171 6.10243 13.5564C6.11673 13.2261 6.12971 12.9708 6.13907 12.7988C6.14375 12.7128 6.14752 12.6477 6.15009 12.6045C6.15138 12.5828 6.15237 12.5667 6.15303 12.5562C6.15335 12.5509 6.1536 12.547 6.15375 12.5446C6.15383 12.5433 6.15389 12.5425 6.15392 12.5419C6.15393 12.5417 6.15394 12.5416 6.15395 12.5414C6.15395 12.5414 6.15395 12.5415 5.15602 12.4771C4.1581 12.4127 4.15808 12.413 4.15806 12.4133C4.15805 12.4135 4.15802 12.4139 4.15799 12.4144C4.15793 12.4153 4.15785 12.4166 4.15775 12.4182C4.15754 12.4215 4.15725 12.4262 4.15687 12.4322C4.15611 12.4444 4.15502 12.4622 4.15364 12.4855C4.15086 12.5321 4.14689 12.6007 4.14202 12.6901C4.13229 12.8691 4.11894 13.1318 4.1043 13.4699C4.07503 14.1459 4.04058 15.1237 4.01952 16.3361C3.97742 18.76 3.98876 22.1263 4.20284 25.8971C4.62864 33.3975 5.86302 42.6539 9.1782 49.2422L10.9648 48.3432Z" fill="white"/>
<defs>
<linearGradient id="paint0_linear_174_145" x1="35.8157" y1="6.41975" x2="32.3914" y2="79.8436" gradientUnits="userSpaceOnUse">
<stop stop-color="#FFE66A"/>
<stop offset="1" stop-color="#F2AF4B"/>
</linearGradient>
</defs>
</svg>
