<svg width="75" height="84" viewBox="0 0 75 84" fill="none" xmlns="http://www.w3.org/2000/svg">
<path d="M2.1806 10.6691L1.6121 9.28101L0.743997 9.63654L0.683704 10.5727L2.1806 10.6691ZM37.3092 2.00041L37.302 0.500429L37.3092 2.00041ZM73.18 10.6691L74.6767 10.5695C74.6386 9.99691 74.2772 9.49625 73.7457 9.27985L73.18 10.6691ZM37.3092 82L36.4784 83.2489L37.2942 83.7916L38.1189 83.2627L37.3092 82ZM7.87045 52.7741L9.21082 52.1008L7.87045 52.7741ZM2.1806 10.6691C2.74911 12.0572 2.74903 12.0572 2.74903 12.0572C2.74914 12.0572 2.74922 12.0571 2.74944 12.0571C2.74986 12.0569 2.75061 12.0566 2.75167 12.0561C2.75379 12.0553 2.75718 12.0539 2.76183 12.052C2.77111 12.0482 2.78541 12.0424 2.8046 12.0346C2.843 12.0191 2.90102 11.9956 2.97779 11.9649C3.13135 11.9034 3.35994 11.8125 3.65676 11.6964C4.25046 11.4643 5.11682 11.1315 6.20153 10.7316C8.37182 9.93126 11.4117 8.86342 14.8877 7.79396C21.8806 5.64242 30.4854 3.53331 37.3165 3.50039L37.302 0.500429C30.0041 0.535597 21.0446 2.76083 14.0054 4.92661C10.4653 6.01581 7.37227 7.10238 5.1636 7.91683C4.05883 8.32421 3.17421 8.66392 2.5643 8.9024C2.25931 9.02165 2.02294 9.11561 1.86198 9.18011C1.78151 9.21235 1.71988 9.23723 1.67795 9.25422C1.65698 9.26272 1.64094 9.26924 1.62993 9.27373C1.62442 9.27597 1.62018 9.2777 1.6172 9.27892C1.61571 9.27953 1.61454 9.28001 1.61369 9.28035C1.61327 9.28053 1.61287 9.28069 1.61265 9.28078C1.61234 9.28091 1.6121 9.28101 2.1806 10.6691ZM37.3165 3.50039C44.2836 3.46682 53.0699 5.5753 60.2128 7.74402C63.7633 8.822 66.869 9.90264 69.0865 10.7136C70.1948 11.1189 71.0801 11.4565 71.6868 11.692C71.9901 11.8098 72.2237 11.9021 72.3806 11.9646C72.4591 11.9958 72.5184 12.0196 72.5576 12.0354C72.5772 12.0433 72.5919 12.0492 72.6014 12.0531C72.6061 12.055 72.6096 12.0564 72.6117 12.0573C72.6128 12.0577 72.6136 12.058 72.614 12.0582C72.6142 12.0583 72.6143 12.0583 72.6144 12.0584C72.6144 12.0584 72.6144 12.0583 73.18 10.6691C73.7457 9.27985 73.7455 9.27975 73.7451 9.27962C73.7449 9.27953 73.7445 9.27936 73.7441 9.27919C73.7432 9.27883 73.742 9.27835 73.7405 9.27773C73.7374 9.2765 73.7331 9.27473 73.7275 9.27246C73.7162 9.2679 73.6998 9.26128 73.6784 9.25265C73.6356 9.23539 73.5726 9.21013 73.4904 9.17738C73.3259 9.1119 73.0844 9.01651 72.7727 8.89549C72.1495 8.65349 71.2457 8.3089 70.1169 7.8961C67.8603 7.07083 64.7003 5.97128 61.0844 4.87341C53.8945 2.69043 44.7455 0.46456 37.302 0.500429L37.3165 3.50039ZM37.3092 82C38.1401 80.7511 38.1402 80.7512 38.1402 80.7512C38.1401 80.7511 38.14 80.7511 38.1398 80.7509C38.1394 80.7507 38.1386 80.7501 38.1375 80.7494C38.1353 80.7479 38.1318 80.7456 38.127 80.7424C38.1173 80.7359 38.1023 80.7259 38.0823 80.7124C38.0422 80.6854 37.9816 80.6446 37.9017 80.5903C37.7418 80.4816 37.5047 80.3193 37.1992 80.1068C36.5883 79.6818 35.7045 79.0566 34.62 78.2606C32.45 76.6678 29.4819 74.3949 26.2908 71.6757C19.8627 66.1984 12.7045 59.0551 9.21082 52.1008L6.53009 53.4475C10.3113 60.9742 17.8725 68.4439 24.3451 73.9592C27.6043 76.7364 30.6318 79.0547 32.8449 80.6791C33.952 81.4917 34.8566 82.1316 35.4861 82.5695C35.8009 82.7885 36.047 82.9571 36.2154 83.0715C36.2996 83.1287 36.3644 83.1724 36.4086 83.2021C36.4307 83.217 36.4477 83.2283 36.4593 83.2362C36.4652 83.2401 36.4697 83.2431 36.4729 83.2452C36.4745 83.2463 36.4757 83.2471 36.4767 83.2477C36.4771 83.248 36.4776 83.2483 36.4778 83.2485C36.4781 83.2487 36.4784 83.2489 37.3092 82ZM9.21082 52.1008C5.63469 44.9823 4.22046 34.722 3.73053 26.0779C3.48731 21.7868 3.4743 17.9516 3.52219 15.1895C3.54613 13.8091 3.58525 12.6985 3.61825 11.9351C3.63475 11.5534 3.64971 11.2587 3.66048 11.0605C3.66586 10.9614 3.6702 10.8864 3.67314 10.8369C3.67462 10.8121 3.67575 10.7937 3.67649 10.7817C3.67686 10.7757 3.67713 10.7714 3.6773 10.7687C3.67739 10.7673 3.67745 10.7664 3.67748 10.7659C3.6775 10.7656 3.6775 10.7655 3.67751 10.7654C3.67751 10.7654 3.6775 10.7655 2.1806 10.6691C0.683704 10.5727 0.683683 10.573 0.683656 10.5735C0.683637 10.5737 0.683603 10.5743 0.683567 10.5748C0.683495 10.576 0.683397 10.5775 0.683273 10.5795C0.683025 10.5834 0.682676 10.589 0.68223 10.5961C0.681338 10.6105 0.68006 10.6315 0.678437 10.6587C0.67519 10.7133 0.670565 10.7934 0.664897 10.8977C0.653561 11.1064 0.638049 11.4123 0.621048 11.8055C0.58705 12.592 0.547075 13.7286 0.522644 15.1375C0.473805 17.9539 0.486954 21.8655 0.735334 26.2477C1.22859 34.9504 2.65929 45.7425 6.53009 53.4475L9.21082 52.1008ZM73.18 10.6691C71.6833 10.7687 71.6833 10.7686 71.6833 10.7686C71.6833 10.7686 71.6833 10.7686 71.6833 10.7685C71.6833 10.7685 71.6833 10.7686 71.6833 10.7686C71.6833 10.7688 71.6834 10.7691 71.6834 10.7695C71.6835 10.7704 71.6836 10.772 71.6837 10.7742C71.684 10.7786 71.6844 10.7856 71.685 10.7951C71.6862 10.8142 71.6881 10.8433 71.6904 10.8823C71.6951 10.9602 71.7019 11.0774 71.7102 11.2315C71.7267 11.5397 71.7491 11.9953 71.7719 12.5795C71.8176 13.748 71.8653 15.4294 71.8726 17.472L74.8725 17.4613C74.8651 15.3785 74.8165 13.6612 74.7696 12.4622C74.7462 11.8627 74.7232 11.3925 74.7059 11.0707C74.6973 10.9098 74.6901 10.786 74.685 10.7017C74.6824 10.6595 74.6804 10.6272 74.679 10.6051C74.6783 10.594 74.6778 10.5855 74.6774 10.5796C74.6772 10.5766 74.677 10.5743 74.6769 10.5726C74.6769 10.5717 74.6768 10.5711 74.6768 10.5705C74.6768 10.5703 74.6768 10.5701 74.6767 10.5699C74.6767 10.5698 74.6767 10.5697 74.6767 10.5697C74.6767 10.5696 74.6767 10.5695 73.18 10.6691ZM55.9146 65.1983C51.4388 69.6094 46.583 73.4972 42.8358 76.2877C40.9647 77.6811 39.3756 78.7968 38.2562 79.5628C37.6966 79.9458 37.2547 80.2411 36.9541 80.4399C36.8037 80.5393 36.6887 80.6145 36.612 80.6645C36.5736 80.6894 36.5448 80.7081 36.526 80.7203C36.5165 80.7264 36.5096 80.7309 36.5052 80.7337C36.503 80.7351 36.5014 80.7361 36.5004 80.7367C36.5 80.737 36.4997 80.7372 36.4995 80.7373C36.4994 80.7374 36.4995 80.7374 36.4994 80.7374C36.4995 80.7374 36.4996 80.7373 37.3092 82C38.1189 83.2627 38.1191 83.2626 38.1193 83.2625C38.1194 83.2624 38.1197 83.2622 38.1199 83.2621C38.1204 83.2617 38.1211 83.2613 38.1219 83.2608C38.1235 83.2598 38.1258 83.2583 38.1287 83.2564C38.1345 83.2527 38.1429 83.2473 38.1537 83.2403C38.1754 83.2263 38.2071 83.2057 38.2484 83.1789C38.331 83.1251 38.452 83.0459 38.6086 82.9424C38.9217 82.7355 39.3768 82.4312 39.9505 82.0386C41.0976 81.2535 42.7198 80.1146 44.6276 78.6938C48.4385 75.8558 53.4119 71.8769 58.0204 67.335L55.9146 65.1983Z" fill="url(#paint0_linear_174_157)"/>
<defs>
<linearGradient id="paint0_linear_174_157" x1="37.7572" y1="8.41975" x2="34.3273" y2="81.8431" gradientUnits="userSpaceOnUse">
<stop stop-color="#FFE66A"/>
<stop offset="1" stop-color="#F2AF4B"/>
</linearGradient>
</defs>
</svg>
