<svg width="190" height="211" viewBox="0 0 190 211" fill="none" xmlns="http://www.w3.org/2000/svg">
<g filter="url(#filter0_d_12_49)">
<path d="M11.4251 30.3724L10.1004 27.1327L8.07335 27.9616L7.93237 30.1471L11.4251 30.3724ZM94.1114 10.001L94.1282 13.5009L94.1114 10.001ZM178.545 30.3724L182.037 30.1396C181.948 28.803 181.104 27.6345 179.863 27.1301L178.545 30.3724ZM165.152 129.319L168.272 130.905L165.152 129.319ZM94.1114 198L92.175 200.916L94.0762 202.178L95.9985 200.948L94.1114 198ZM24.818 129.319L27.9445 127.746L24.818 129.319ZM11.4251 30.3724C12.7498 33.612 12.7496 33.6121 12.7496 33.6121C12.7499 33.612 12.7501 33.6119 12.7506 33.6117C12.7516 33.6113 12.7533 33.6106 12.7558 33.6095C12.7608 33.6075 12.7688 33.6042 12.7798 33.5998C12.8016 33.5909 12.8353 33.5772 12.8805 33.5589C12.9709 33.5224 13.1075 33.4673 13.2883 33.395C13.6498 33.2504 14.188 33.0368 14.8867 32.764C16.2844 32.2184 18.3238 31.4364 20.8773 30.4963C25.9862 28.6155 33.1421 26.1058 41.3246 23.5924C57.7851 18.5361 78.0434 13.5783 94.1282 13.5009L94.0946 6.50101C76.9224 6.58362 55.8376 11.8115 39.2691 16.901C30.9372 19.4604 23.6572 22.0136 18.4589 23.9274C15.8587 24.8846 13.7767 25.6829 12.3412 26.2432C11.6234 26.5234 11.0672 26.7442 10.6884 26.8957C10.499 26.9715 10.354 27.0299 10.2553 27.0699C10.206 27.0898 10.1682 27.1051 10.1424 27.1157C10.1294 27.1209 10.1194 27.125 10.1124 27.1279C10.1089 27.1293 10.1062 27.1304 10.1042 27.1312C10.1032 27.1316 10.1022 27.132 10.1017 27.1322C10.101 27.1325 10.1004 27.1327 11.4251 30.3724ZM94.1282 13.5009C110.533 13.422 131.219 18.3783 148.033 23.475C156.39 26.0085 163.701 28.5482 168.921 30.4541C171.53 31.4067 173.614 32.2 175.043 32.7537C175.757 33.0305 176.307 33.2474 176.676 33.3943C176.861 33.4677 177 33.5236 177.093 33.5608C177.139 33.5794 177.173 33.5933 177.196 33.6023C177.207 33.6068 177.215 33.6101 177.22 33.6122C177.223 33.6132 177.225 33.614 177.226 33.6144C177.226 33.6146 177.226 33.6147 177.227 33.6148C177.227 33.6148 177.227 33.6147 178.545 30.3724C179.863 27.1301 179.862 27.1298 179.861 27.1295C179.861 27.1293 179.86 27.1289 179.859 27.1285C179.857 27.1277 179.854 27.1265 179.85 27.1251C179.843 27.1222 179.833 27.1181 179.82 27.1127C179.793 27.102 179.755 27.0864 179.704 27.0662C179.604 27.0256 179.455 26.9663 179.262 26.8894C178.875 26.7355 178.306 26.5114 177.573 26.227C176.106 25.6584 173.979 24.8487 171.322 23.8787C166.011 21.9395 158.574 19.3557 150.063 16.776C133.14 11.6461 111.609 6.41674 94.0946 6.50101L94.1282 13.5009ZM178.545 30.3724C175.052 30.6052 175.052 30.6049 175.052 30.6049C175.052 30.6052 175.052 30.6054 175.052 30.606C175.052 30.6072 175.053 30.6095 175.053 30.6126C175.053 30.619 175.054 30.6292 175.055 30.6433C175.057 30.6714 175.059 30.7147 175.063 30.773C175.07 30.8896 175.081 31.0659 175.094 31.299C175.12 31.7652 175.157 32.4586 175.197 33.3564C175.279 35.1521 175.376 37.7644 175.438 41.011C175.561 47.5072 175.544 56.5264 174.98 66.6144C173.845 86.9368 170.516 111.044 162.032 127.733L168.272 130.905C177.459 112.832 180.826 87.4652 181.97 67.0049C182.545 56.7016 182.563 47.5022 182.436 40.8776C182.373 37.5637 182.274 34.8901 182.19 33.04C182.148 32.1148 182.11 31.3953 182.083 30.9044C182.069 30.6589 182.058 30.4705 182.05 30.3421C182.046 30.2779 182.043 30.2287 182.04 30.1948C182.039 30.1779 182.038 30.1648 182.038 30.1555C182.038 30.1509 182.037 30.1473 182.037 30.1446C182.037 30.1433 182.037 30.142 182.037 30.1414C182.037 30.1404 182.037 30.1396 178.545 30.3724ZM162.032 127.733C153.638 144.246 136.367 161.032 120.845 173.86C113.14 180.227 105.971 185.535 100.729 189.25C98.1092 191.106 95.974 192.563 94.4978 193.552C93.7598 194.047 93.1867 194.425 92.8005 194.678C92.6074 194.804 92.461 194.899 92.364 194.962C92.3155 194.994 92.2794 195.017 92.256 195.032C92.2443 195.039 92.2358 195.045 92.2305 195.048C92.2279 195.05 92.226 195.051 92.225 195.052C92.2245 195.052 92.2243 195.052 92.224 195.052C92.2241 195.052 92.2243 195.052 94.1114 198C95.9985 200.948 95.9992 200.947 96 200.947C96.0006 200.946 96.0016 200.946 96.0027 200.945C96.0049 200.944 96.008 200.942 96.0118 200.939C96.0195 200.934 96.0304 200.927 96.0445 200.918C96.0728 200.9 96.1137 200.874 96.1671 200.839C96.2739 200.77 96.4304 200.668 96.6338 200.535C97.0406 200.269 97.6353 199.877 98.3958 199.367C99.9168 198.347 102.102 196.856 104.776 194.961C110.122 191.172 117.435 185.759 125.305 179.255C140.932 166.341 159.182 148.787 168.272 130.905L162.032 127.733ZM94.1114 198C96.0478 195.084 96.0481 195.085 96.0481 195.085C96.0479 195.084 96.0477 195.084 96.0472 195.084C96.0462 195.083 96.0444 195.082 96.0418 195.08C96.0366 195.077 96.0283 195.071 96.0169 195.064C95.9941 195.049 95.9589 195.025 95.9117 194.993C95.8172 194.93 95.6746 194.834 95.4865 194.706C95.1101 194.451 94.5518 194.069 93.8328 193.57C92.3945 192.571 90.314 191.102 87.7611 189.231C82.6529 185.488 75.666 180.146 68.154 173.755C53.0228 160.883 36.1702 144.093 27.9445 127.746L21.6915 130.892C30.5895 148.576 48.3836 166.126 63.6182 179.087C71.2891 185.613 78.4148 191.06 83.6235 194.877C86.2291 196.787 88.3582 198.29 89.8398 199.319C90.5807 199.834 91.16 200.23 91.5562 200.499C91.7543 200.633 91.9068 200.736 92.0108 200.806C92.0628 200.841 92.1027 200.867 92.1301 200.886C92.1439 200.895 92.1545 200.902 92.162 200.907C92.1657 200.909 92.1687 200.911 92.1709 200.913C92.1719 200.913 92.173 200.914 92.1735 200.915C92.1743 200.915 92.175 200.916 94.1114 198ZM27.9445 127.746C19.5248 111.013 16.1959 86.8979 15.0426 66.5843C14.4701 56.4996 14.4395 47.4862 14.5522 40.9949C14.6086 37.7509 14.7007 35.1408 14.7784 33.3466C14.8172 32.4496 14.8524 31.7569 14.8778 31.291C14.8904 31.0582 14.9006 30.882 14.9076 30.7655C14.9111 30.7073 14.9137 30.6639 14.9155 30.6358C14.9163 30.6218 14.917 30.6115 14.9174 30.6052C14.9176 30.602 14.9177 30.5998 14.9178 30.5985C14.9178 30.5979 14.9178 30.5977 14.9179 30.5974C14.9179 30.5974 14.9178 30.5977 11.4251 30.3724C7.93237 30.1471 7.93232 30.1478 7.93225 30.1488C7.93221 30.1495 7.93213 30.1508 7.93204 30.1521C7.93187 30.1547 7.93164 30.1584 7.93135 30.163C7.93077 30.1722 7.92995 30.1852 7.9289 30.2021C7.9268 30.236 7.92379 30.2851 7.91997 30.3492C7.91233 30.4774 7.90145 30.6656 7.88811 30.9107C7.86143 31.4011 7.82492 32.1197 7.78491 33.0438C7.70489 34.8918 7.6108 37.5626 7.5533 40.8734C7.43834 47.4917 7.46929 56.6834 8.0539 66.981C9.21493 87.432 12.5824 112.79 21.6915 130.892L27.9445 127.746Z" fill="url(#paint0_linear_12_49)"/>
</g>
<defs>
<filter id="filter0_d_12_49" x="0.5" y="0.5" width="189" height="209.678" filterUnits="userSpaceOnUse" color-interpolation-filters="sRGB">
<feFlood flood-opacity="0" result="BackgroundImageFix"/>
<feColorMatrix in="SourceAlpha" type="matrix" values="0 0 0 0 0 0 0 0 0 0 0 0 0 0 0 0 0 0 127 0" result="hardAlpha"/>
<feOffset dy="1"/>
<feGaussianBlur stdDeviation="3.5"/>
<feComposite in2="hardAlpha" operator="out"/>
<feColorMatrix type="matrix" values="0 0 0 0 0.791667 0 0 0 0 0.737204 0 0 0 0 0.468403 0 0 0 0.6 0"/>
<feBlend mode="normal" in2="BackgroundImageFix" result="effect1_dropShadow_12_49"/>
<feBlend mode="normal" in="SourceGraphic" in2="effect1_dropShadow_12_49" result="shape"/>
</filter>
<linearGradient id="paint0_linear_12_49" x1="95" y1="10" x2="95" y2="198" gradientUnits="userSpaceOnUse">
<stop stop-color="#E9DA58"/>
<stop offset="1" stop-color="#B69323"/>
</linearGradient>
</defs>
</svg>
