<svg width="156" height="173" viewBox="0 0 156 173" fill="none" xmlns="http://www.w3.org/2000/svg">
<g filter="url(#filter0_d_12_54)">
<path d="M11.3391 26.2546L10.014 23.0151L7.98725 23.8441L7.84633 26.0293L11.3391 26.2546ZM77.2912 10.0008L77.2744 6.50081L77.2912 10.0008ZM144.637 26.2546L148.129 26.0218C148.04 24.6854 147.196 23.5169 145.955 23.0124L144.637 26.2546ZM77.2912 160L75.3544 162.915L77.2561 164.179L79.1788 162.947L77.2912 160ZM22.0215 105.202L25.1482 103.629L22.0215 105.202ZM11.3391 26.2546C12.6641 29.494 12.6639 29.4941 12.6638 29.4942C12.664 29.4941 12.6641 29.4941 12.6644 29.4939C12.6651 29.4936 12.6664 29.4931 12.6683 29.4923C12.6721 29.4908 12.6783 29.4883 12.6868 29.4848C12.7039 29.4779 12.7303 29.4671 12.7659 29.4527C12.8372 29.4238 12.9453 29.3803 13.0886 29.3229C13.3752 29.2082 13.8026 29.0385 14.3581 28.8216C15.469 28.3878 17.0914 27.7655 19.1233 27.0172C23.1892 25.5199 28.8844 23.5219 35.3958 21.5212C48.514 17.4903 64.5887 13.5619 77.3081 13.5007L77.2744 6.50081C63.4673 6.56726 46.5659 10.7658 33.3397 14.8299C26.6788 16.8766 20.8597 18.9182 16.7043 20.4485C14.6256 21.214 12.9606 21.8526 11.8119 22.3011C11.2374 22.5255 10.7919 22.7023 10.488 22.8239C10.3361 22.8847 10.2195 22.9317 10.14 22.9639C10.1003 22.98 10.0697 22.9924 10.0487 23.0009C10.0381 23.0052 10.03 23.0086 10.0242 23.0109C10.0213 23.0121 10.019 23.013 10.0173 23.0137C10.0165 23.0141 10.0157 23.0144 10.0152 23.0146C10.0146 23.0149 10.014 23.0151 11.3391 26.2546ZM77.3081 13.5007C90.2806 13.4383 106.694 17.3651 120.094 21.4282C126.745 23.445 132.564 25.4669 136.718 26.9842C138.794 27.7425 140.452 28.3737 141.587 28.814C142.155 29.0341 142.592 29.2064 142.884 29.3229C143.031 29.3811 143.141 29.4254 143.214 29.4547C143.251 29.4694 143.278 29.4803 143.295 29.4873C143.304 29.4909 143.31 29.4934 143.314 29.495C143.316 29.4958 143.317 29.4963 143.318 29.4966C143.318 29.4968 143.318 29.4968 143.319 29.4969C143.319 29.4968 143.318 29.4967 144.637 26.2546C145.955 23.0124 145.955 23.0122 145.954 23.0119C145.954 23.0117 145.953 23.0114 145.952 23.011C145.95 23.0103 145.948 23.0094 145.945 23.0082C145.939 23.0058 145.931 23.0024 145.92 22.998C145.898 22.9893 145.867 22.9767 145.826 22.9604C145.745 22.9277 145.626 22.88 145.471 22.8183C145.16 22.6948 144.705 22.5152 144.118 22.2876C142.944 21.8324 141.243 21.1847 139.119 20.409C134.874 18.8584 128.929 16.7924 122.125 14.7294C108.616 10.6331 91.357 6.43304 77.2744 6.50081L77.3081 13.5007ZM77.2912 160C79.2281 157.085 79.2284 157.085 79.2285 157.085C79.2283 157.085 79.2283 157.085 79.2279 157.085C79.2272 157.084 79.2259 157.083 79.224 157.082C79.2201 157.079 79.2137 157.075 79.2048 157.069C79.1871 157.057 79.1595 157.039 79.1223 157.014C79.048 156.964 78.9352 156.888 78.7861 156.787C78.488 156.585 78.0448 156.282 77.4735 155.885C76.3307 155.091 74.6762 153.922 72.6453 152.433C68.581 149.454 63.0221 145.202 57.0465 140.117C44.9881 129.856 31.6413 116.537 25.1482 103.629L18.8948 106.774C26.0599 121.018 40.3479 135.099 52.5099 145.448C58.6444 150.669 64.3421 155.026 68.5068 158.079C70.5904 159.606 72.2935 160.809 73.4797 161.633C74.0728 162.046 74.537 162.363 74.855 162.579C75.0141 162.687 75.1366 162.769 75.2206 162.826C75.2625 162.854 75.2948 162.876 75.3172 162.89C75.3284 162.898 75.3371 162.904 75.3433 162.908C75.3464 162.91 75.3489 162.912 75.3507 162.913C75.3517 162.913 75.3526 162.914 75.353 162.914C75.3538 162.915 75.3544 162.915 77.2912 160ZM25.1482 103.629C18.5021 90.4165 15.8507 71.3009 14.9317 55.107C14.4763 47.0822 14.4519 39.9086 14.5416 34.7423C14.5864 32.1607 14.6596 30.0843 14.7214 28.6582C14.7522 27.9452 14.7802 27.3951 14.8003 27.0259C14.8103 26.8413 14.8184 26.702 14.8238 26.6102C14.8266 26.5643 14.8287 26.5303 14.83 26.5085C14.8307 26.4976 14.8312 26.4897 14.8315 26.4849C14.8316 26.4825 14.8317 26.4809 14.8318 26.48C14.8318 26.4796 14.8318 26.4796 14.8318 26.4793C14.8318 26.4795 14.8318 26.4798 11.3391 26.2546C7.84633 26.0293 7.84628 26.03 7.84622 26.0309C7.84619 26.0315 7.84612 26.0326 7.84604 26.0338C7.8459 26.036 7.84571 26.039 7.84546 26.0429C7.84498 26.0505 7.84431 26.0612 7.84345 26.075C7.84174 26.1025 7.83931 26.1423 7.83623 26.1941C7.83006 26.2975 7.82131 26.4489 7.81061 26.6457C7.78919 27.0394 7.75994 27.6154 7.72791 28.3555C7.66385 29.8354 7.5886 31.9725 7.54262 34.6207C7.45071 39.9141 7.47542 47.2659 7.94294 55.5036C8.86978 71.8347 11.5597 92.1925 18.8948 106.774L25.1482 103.629ZM144.637 26.2546C141.145 26.4873 141.144 26.4871 141.144 26.487C141.144 26.487 141.144 26.4869 141.144 26.4869C141.144 26.4868 141.144 26.4868 141.144 26.4869C141.144 26.487 141.145 26.4875 141.145 26.4883C141.145 26.4898 141.145 26.4926 141.145 26.4966C141.146 26.5045 141.146 26.5172 141.148 26.5347C141.15 26.5697 141.153 26.6236 141.158 26.6959C141.166 26.8405 141.179 27.0587 141.194 27.3461C141.225 27.9208 141.267 28.7718 141.31 29.8636C141.395 32.0475 141.485 35.192 141.498 39.0125L148.498 38.9875C148.484 35.0729 148.393 31.8447 148.304 29.5897C148.26 28.4619 148.217 27.5769 148.184 26.9705C148.168 26.6673 148.154 26.4336 148.145 26.274C148.14 26.1942 148.136 26.1329 148.133 26.0907C148.132 26.0696 148.131 26.0533 148.13 26.0418C148.13 26.036 148.13 26.0315 148.129 26.0281C148.129 26.0265 148.129 26.0251 148.129 26.0241C148.129 26.0235 148.129 26.0231 148.129 26.0227C148.129 26.0225 148.129 26.0223 148.129 26.0222C148.129 26.022 148.129 26.0218 144.637 26.2546ZM111.743 128.006C103.371 136.247 94.281 143.515 87.2604 148.737C83.7559 151.343 80.7799 153.43 78.6847 154.862C77.6373 155.578 76.8107 156.129 76.249 156.5C75.9682 156.686 75.7537 156.826 75.6109 156.919C75.5396 156.965 75.4862 156.999 75.4514 157.022C75.434 157.033 75.4213 157.041 75.4133 157.046C75.4093 157.049 75.4065 157.051 75.4049 157.052C75.4041 157.052 75.4036 157.053 75.4034 157.053C75.4033 157.053 75.4034 157.053 75.4033 157.053C75.4035 157.053 75.4037 157.053 77.2912 160C79.1788 162.947 79.1791 162.947 79.1796 162.947C79.1798 162.947 79.1804 162.946 79.1809 162.946C79.1819 162.945 79.1832 162.945 79.1848 162.944C79.188 162.941 79.1925 162.939 79.1981 162.935C79.2093 162.928 79.2253 162.917 79.246 162.904C79.2874 162.877 79.3475 162.839 79.4258 162.788C79.5821 162.686 79.8108 162.537 80.1061 162.342C80.6967 161.952 81.5543 161.379 82.6345 160.641C84.7945 159.165 87.8475 157.024 91.4378 154.354C98.6071 149.022 107.971 141.54 116.654 132.994L111.743 128.006Z" fill="url(#paint0_linear_12_54)"/>
</g>
<defs>
<filter id="filter0_d_12_54" x="0.5" y="0.5" width="154.998" height="171.679" filterUnits="userSpaceOnUse" color-interpolation-filters="sRGB">
<feFlood flood-opacity="0" result="BackgroundImageFix"/>
<feColorMatrix in="SourceAlpha" type="matrix" values="0 0 0 0 0 0 0 0 0 0 0 0 0 0 0 0 0 0 127 0" result="hardAlpha"/>
<feOffset dy="1"/>
<feGaussianBlur stdDeviation="3.5"/>
<feComposite in2="hardAlpha" operator="out"/>
<feColorMatrix type="matrix" values="0 0 0 0 0.791667 0 0 0 0 0.737204 0 0 0 0 0.468403 0 0 0 0.6 0"/>
<feBlend mode="normal" in2="BackgroundImageFix" result="effect1_dropShadow_12_54"/>
<feBlend mode="normal" in="SourceGraphic" in2="effect1_dropShadow_12_54" result="shape"/>
</filter>
<linearGradient id="paint0_linear_12_54" x1="77.9991" y1="10" x2="77.9991" y2="160" gradientUnits="userSpaceOnUse">
<stop stop-color="#E9DA58"/>
<stop offset="1" stop-color="#B69323"/>
</linearGradient>
</defs>
</svg>
