<svg width="93" height="94" viewBox="0 0 93 94" fill="none" xmlns="http://www.w3.org/2000/svg">
<path d="M46.5 93.5498C20.8289 93.5498 0 72.7209 0 47.0498C0 21.3787 20.8289 0.549805 46.5 0.549805C72.1711 0.549805 93 21.3787 93 47.0498C93 72.7593 72.1711 93.5498 46.5 93.5498Z" fill="url(#paint0_linear_109_171)"/>
<path d="M46.5 92.4737C21.4438 92.4737 1.1145 72.1444 1.1145 47.0882C1.1145 22.032 21.4438 1.70264 46.5 1.70264C71.5562 1.70264 91.8856 22.032 91.8856 47.0882C91.8856 72.1444 71.5562 92.4737 46.5 92.4737Z" fill="url(#paint1_linear_109_171)"/>
<path d="M46.5002 23.1861C29.7448 22.6481 22.52 29.1043 22.52 45.5523C22.52 56.5432 26.094 63.4221 34.0874 66.3428V72.1841C34.0874 74.1056 36.47 74.9895 37.7382 73.5291L42.6188 67.9184C43.8486 67.9568 45.1167 67.9952 46.4618 67.9184C63.2171 68.4564 70.442 61.1163 70.442 45.5523C70.4804 29.1043 63.2556 22.6481 46.5002 23.1861ZM62.4485 59.7328C59.5663 62.6919 54.9163 64.1523 48.2295 64.1523C47.7299 64.1523 47.1919 64.1523 46.6539 64.1138H46.5386H46.4234C46.2696 64.1138 46.1543 64.1138 46.0006 64.1138C45.6163 64.1138 45.232 64.1138 44.8477 64.1138C44.3481 64.1138 43.8486 64.1138 43.3874 64.0754L43.4642 64.1138L40.313 67.7262L36.3163 72.2994C36.1242 72.5299 35.7399 72.3762 35.7399 72.1072V66.8808V62.8841C35.1634 62.6919 34.6638 62.4614 34.1258 62.2308C28.7072 59.656 26.363 54.3142 26.363 45.5907C26.363 38.6733 27.7081 33.9465 30.5134 31.1411C33.2804 28.3742 37.8919 26.9907 44.6171 26.9907C45.1936 26.9907 45.8084 26.9907 46.3849 27.0291H46.5002H46.6155C47.2304 27.0291 47.8068 26.9907 48.3833 26.9907C55.1085 26.9907 59.72 28.3357 62.487 31.1411C65.2923 33.9465 66.6374 38.6733 66.6374 45.5907C66.6758 52.2006 65.2923 56.8122 62.4485 59.7328Z" fill="white"/>
<path d="M51.9571 44.2439C51.8419 44.3592 51.6497 44.4361 51.4576 44.4361C51.1117 44.3977 50.8427 44.0902 50.8811 43.7444C50.958 42.9373 50.6506 42.1303 50.0741 41.5539C49.4977 40.9774 48.6906 40.67 47.8836 40.7468C47.5377 40.7853 47.2303 40.5163 47.1919 40.1704C47.1535 39.8245 47.4225 39.5171 47.7683 39.4786C48.9597 39.4018 50.1125 39.8245 50.958 40.6315C51.8034 41.477 52.2262 42.6299 52.1109 43.8212C52.1493 43.9749 52.0724 44.1287 51.9571 44.2439Z" fill="white"/>
<path d="M54.9932 45.2454C54.8779 45.3607 54.6857 45.4376 54.4936 45.4376C54.1477 45.3991 53.8787 45.0917 53.9172 44.7458C54.0709 42.8244 53.3791 40.9797 52.0341 39.6347C50.689 38.2896 48.806 37.5979 46.9229 37.7516C46.577 37.7901 46.2696 37.521 46.2312 37.1752C46.1928 36.8293 46.4618 36.5219 46.8076 36.4834C49.075 36.2913 51.3039 37.1368 52.9179 38.7508C54.532 40.3649 55.339 42.5938 55.1853 44.8611C55.1853 44.9764 55.1084 45.1301 54.9932 45.2454Z" fill="white"/>
<path d="M58.1444 46.3195C58.0291 46.4348 57.8369 46.5116 57.6448 46.5116C57.2989 46.4732 57.0299 46.1658 57.0683 45.8199C57.2989 42.784 56.2229 39.7864 54.0324 37.5959C51.8803 35.4439 48.8828 34.3294 45.8084 34.56C45.4625 34.5984 45.1551 34.3294 45.1167 33.9835C45.0783 33.6377 45.3473 33.3302 45.6931 33.2918C49.1134 33.0228 52.4952 34.2526 54.9163 36.6736C57.3374 39.0947 58.5671 42.4765 58.2981 45.8968C58.3365 46.0889 58.2597 46.2042 58.1444 46.3195Z" fill="white"/>
<path d="M53.5327 50.2792L53.2252 50.0486C52.6103 49.6259 51.8033 49.549 51.15 49.8564C50.3045 50.2407 49.9971 51.2783 49.1517 51.7011C48.6905 51.9316 48.1141 51.9316 47.6145 51.8164C46.7306 51.5858 45.8851 51.0862 45.155 50.5482C44.4632 50.087 43.8483 49.5874 43.2335 49.011C42.657 48.4345 42.1574 47.7812 41.6963 47.0895C41.1967 46.3593 40.6587 45.5139 40.4281 44.63C40.3128 44.1304 40.3128 43.5924 40.5434 43.0928C40.9661 42.2473 41.9653 41.9399 42.388 41.0945C42.7339 40.4027 42.657 39.5957 42.1959 39.0192L41.9653 38.7118C41.043 37.5205 40.0822 36.2907 39.1599 35.0994C38.5066 34.254 37.2384 34.0234 36.393 34.8688L34.7789 36.4829C33.9335 37.3283 33.5876 38.5197 33.895 39.5957C33.9719 39.8647 34.0488 40.1721 34.1641 40.4411C34.4331 41.2097 34.7405 41.9399 35.0864 42.6701C36.5467 45.7829 38.3145 48.8188 40.7355 51.2783C43.1566 53.7763 46.4231 55.6593 49.5744 57.1197C50.3045 57.4655 51.0347 57.8114 51.8033 58.042C52.0723 58.1188 52.3413 58.2341 52.6488 58.311C53.7632 58.58 54.9545 58.2341 55.7616 57.4271L57.3756 55.813C58.2211 54.9676 58.0289 53.6994 57.145 53.0461C55.9537 52.1622 54.724 51.2399 53.5327 50.2792Z" fill="white"/>
<defs>
<linearGradient id="paint0_linear_109_171" x1="46.5056" y1="93.5622" x2="46.5056" y2="0.596306" gradientUnits="userSpaceOnUse">
<stop stop-color="#5648B6"/>
<stop offset="1" stop-color="#7360F2"/>
</linearGradient>
<linearGradient id="paint1_linear_109_171" x1="1.1283" y1="47.0792" x2="91.8829" y2="47.0792" gradientUnits="userSpaceOnUse">
<stop stop-color="#7360F2"/>
<stop offset="1" stop-color="#5648B6"/>
</linearGradient>
</defs>
</svg>
