<svg width="93" height="93" viewBox="0 0 93 93" fill="none" xmlns="http://www.w3.org/2000/svg">
<path d="M46.5 93C20.8102 93 0 72.6176 0 47.4559V45.5441C0 20.3824 20.8102 0 46.5 0C72.1898 0 93 20.3824 93 45.5441V47.4559C93 72.6176 72.1898 93 46.5 93Z" fill="url(#paint0_linear_215_17187)"/>
<path d="M46.5287 23.5872C59.3305 23.5872 69.7212 33.7643 69.7212 46.3311C69.6925 58.673 59.3879 68.8783 46.787 68.9907C42.0509 69.0469 37.6592 67.6975 33.9851 65.3641C33.8703 65.3078 33.7268 65.2797 33.612 65.3078L29.9379 66.2637L25.3453 67.4726L26.5796 62.9744L27.5268 59.5164C27.5555 59.3759 27.5268 59.2634 27.4694 59.1509C24.9148 55.4962 23.3935 51.0823 23.3935 46.303C23.336 33.7643 33.7268 23.5872 46.5287 23.5872ZM46.5287 18.8359C31.0574 18.8359 18.4851 31.1497 18.4851 46.303C18.4851 51.1386 19.7481 55.8054 22.1879 59.9381C22.2453 60.0506 22.274 60.163 22.2453 60.2755L21.8435 61.7374L20.6092 66.2356L18.4277 74.1917L26.5509 72.0551L31.1435 70.8462L32.8657 70.3964C32.9805 70.3683 33.0953 70.3683 33.2101 70.4245C37.2861 72.5893 41.85 73.7138 46.5287 73.7138C62 73.7138 74.5722 61.4 74.5722 46.2468C74.5722 31.1497 62 18.8359 46.5287 18.8359Z" fill="white"/>
<path d="M35.8511 33.7647C36.2243 33.6242 37.315 33.5117 38.4632 33.6804C38.8937 33.7366 39.2382 34.0177 39.4104 34.4113C40.4724 36.6042 40.8169 37.4757 41.5632 39.1625C42.1086 40.3995 41.7928 41.8333 40.7882 42.733C40.3289 43.1547 39.8984 43.5483 39.6974 43.7451C39.1521 44.3074 42.6252 51.139 49.8586 53.0507C50.203 53.135 50.5761 53.0226 50.7771 52.7415C51.4947 51.8699 52.2123 50.9703 52.9298 50.0988C53.2743 49.6771 53.9058 49.5084 54.4225 49.7333C56.8049 50.661 57.4937 51.1671 59.9049 52.0948C60.5363 52.3197 60.8234 52.6852 60.8234 53.3318C60.8234 55.4122 60.1345 58.1674 56.891 59.2357C56.5465 59.3482 55.6854 59.4606 55.3697 59.4887C46.0123 60.051 33.6697 50.408 32.4067 41.243C32.4067 41.1867 32.4067 41.2992 32.4067 41.243C32.0622 36.295 34.9613 34.1302 35.8511 33.7647Z" fill="white"/>
<defs>
<linearGradient id="paint0_linear_215_17187" x1="46.5042" y1="0.025977" x2="46.5042" y2="93.0095" gradientUnits="userSpaceOnUse">
<stop stop-color="#66FF74"/>
<stop offset="0.0715969" stop-color="#54F265"/>
<stop offset="0.2135" stop-color="#35DD4D"/>
<stop offset="0.3631" stop-color="#1ECD3A"/>
<stop offset="0.5219" stop-color="#0DC12D"/>
<stop offset="0.6963" stop-color="#03BA25"/>
<stop offset="0.9158" stop-color="#00B822"/>
</linearGradient>
</defs>
</svg>
