<svg width="93" height="94" viewBox="0 0 93 94" fill="none" xmlns="http://www.w3.org/2000/svg">
<path d="M46.5 93.6499C20.8102 93.6499 0 73.2675 0 48.1058V46.194C0 21.0323 20.8102 0.649902 46.5 0.649902C72.1898 0.649902 93 21.0323 93 46.194V48.1058C93 73.2675 72.1611 93.6499 46.5 93.6499Z" fill="#FF0401"/>
<path d="M73.6825 39.1363C73.5676 38.4054 73.4529 37.6745 73.3094 36.9435C73.2233 36.4656 73.1084 35.9876 72.9936 35.4816C72.9362 35.1723 72.8214 34.835 72.7066 34.5257C72.6492 34.357 72.5918 34.1884 72.5057 34.0478C72.0178 32.9513 71.2715 31.9955 70.3529 31.2364C69.0613 30.1681 67.3964 29.4653 65.5881 29.2122C53.0159 27.6098 40.5871 27.9752 27.3547 29.2122C26.9529 29.2404 26.5797 29.3247 26.2066 29.409C25.8047 29.4934 25.4028 29.6339 25.0297 29.8026C25.001 29.8026 24.9723 29.8307 24.9436 29.8307C24.0538 30.1962 23.2501 30.646 22.5325 31.2083C21.6427 31.9393 20.9538 32.8108 20.4658 33.851C20.4084 33.9353 20.3797 34.0478 20.351 34.1321C20.3223 34.2165 20.2937 34.3008 20.265 34.357L20.2075 34.5257L19.9779 35.341C19.8631 35.8189 19.777 36.2969 19.6622 36.8029C19.5187 37.5339 19.4038 38.2648 19.2889 38.9958C18.9445 41.1886 18.7437 43.4096 18.6863 45.6587C18.6863 45.8555 18.6863 46.0804 18.6863 46.2772C18.6863 46.5302 18.6863 46.7833 18.6863 47.0644V47.1206C18.6863 47.3737 18.7149 48.1046 19.2889 55.133C19.4038 55.864 19.5187 56.595 19.6622 57.3259C19.7483 57.8038 19.8631 58.2818 19.9779 58.7878C20.0354 59.0971 20.1502 59.4344 20.265 59.7437C20.3224 59.9124 20.3797 60.081 20.4658 60.2216C20.9538 61.318 21.7001 62.2739 22.6186 63.033C23.9103 64.1013 25.5751 64.8041 27.3834 65.0572C39.9844 66.6596 52.3844 66.2942 65.6168 65.0572C66.0474 65.0291 66.4492 64.9447 66.851 64.8322C66.9084 64.8322 66.9371 64.8041 66.9946 64.8041C67.3964 64.6917 67.7983 64.5511 68.1714 64.3824C68.2001 64.3824 68.2288 64.3543 68.2575 64.3543C69.0612 64.017 69.8075 63.5671 70.439 63.0611C71.3288 62.3301 72.0178 61.4586 72.5057 60.4184C72.5631 60.3341 72.5918 60.2216 72.6205 60.1373C72.6492 60.0529 72.6779 59.9686 72.7066 59.9124C72.7353 59.8561 72.7353 59.7999 72.764 59.7437L72.9936 58.9284C73.1084 58.4504 73.1946 57.9725 73.3094 57.4665C73.4529 56.7355 73.5676 56.0046 73.6825 55.2736C74.0269 53.0807 74.2279 50.8598 74.2853 48.6107C74.2853 48.4139 74.2853 48.1889 74.2853 47.9922C74.2853 47.711 74.2853 47.4299 74.2853 47.1487C74.2853 46.8676 74.2565 46.1648 73.6825 39.1363Z" fill="white"/>
<path d="M54.8818 47.1227C54.9105 47.1508 54.9105 47.207 54.8818 47.2351L47.9068 51.171L40.9319 55.1069C40.9032 55.1351 40.8457 55.1069 40.8457 55.0507V47.1508V39.2508C40.8457 39.1946 40.9032 39.1665 40.9319 39.1946L47.9068 43.1305L54.8818 47.1227Z" fill="#FF0401"/>
</svg>
